M48
; DRILL file {KiCad (5.1.10)-1} date 01/28/23 17:58:22
; FORMAT={-:-/ absolute / metric / decimal}
; #@! TF.CreationDate,2023-01-28T17:58:22+01:00
; #@! TF.GenerationSoftware,Kicad,Pcbnew,(5.1.10)-1
; #@! TF.FileFunction,Plated,1,2,PTH
FMAT,2
METRIC
T1C0.400
T2C0.700
T3C0.800
T4C0.900
T5C1.000
%
G90
G05
T1
X100.076Y-94.615
X106.666Y-106.735
X106.666Y-108.185
X111.316Y-112.331
X111.633Y-62.992
X121.146Y-58.042
X121.158Y-119.417
X121.158Y-121.349
X122.158Y-119.417
X122.174Y-121.412
X122.237Y-80.264
X122.981Y-79.539
X126.48Y-59.25
X126.861Y-48.898
X127.572Y-68.644
X127.623Y-59.312
X128.391Y-60.037
X128.639Y-53.017
X129.032Y-61.15
X129.615Y-53.467
X131.361Y-73.132
X131.941Y-54.192
X144.329Y-58.042
X144.329Y-59.312
X144.329Y-60.328
X145.054Y-61.471
X146.054Y-61.471
X148.451Y-62.614
X149.796Y-64.072
X150.078Y-103.759
X152.642Y-122.694
X152.903Y-81.793
X156.4Y-82.867
X156.591Y-124.079
X158.103Y-56.267
X163.639Y-106.426
X164.909Y-62.401
X164.909Y-65.101
X165.925Y-112.585
X168.416Y-62.689
X175.07Y-70.739
X176.594Y-109.918
X177.038Y-115.252
X177.419Y-111.316
X181.229Y-116.205
X186.118Y-102.806
X187.516Y-85.471
X189.865Y-106.617
X190.627Y-108.775
X191.389Y-111.379
X192.151Y-118.618
X192.278Y-128.714
X192.913Y-117.348
T2
X102.235Y-137.541
X102.489Y-96.012
X106.68Y-137.541
X106.934Y-96.012
X108.834Y-141.351
X109.088Y-99.822
X111.125Y-137.541
X111.379Y-96.012
X113.279Y-141.351
X113.533Y-99.822
X115.57Y-137.541
X115.824Y-96.012
X117.724Y-141.351
X117.978Y-99.822
X120.015Y-137.541
X120.269Y-96.012
X122.169Y-141.351
X122.423Y-99.822
X124.46Y-137.541
X124.714Y-96.012
X126.614Y-141.351
X126.868Y-99.822
X128.905Y-137.541
X129.159Y-96.012
X131.059Y-141.351
X131.313Y-99.822
X133.35Y-137.541
X133.604Y-96.012
X135.504Y-141.351
X135.758Y-99.822
X139.949Y-141.351
X140.203Y-99.822
X148.722Y-99.949
X148.722Y-141.351
X153.167Y-99.949
X153.167Y-141.351
X155.321Y-96.139
X155.321Y-137.541
X157.612Y-99.949
X157.612Y-141.351
X159.766Y-96.139
X159.766Y-137.541
X162.057Y-99.949
X162.057Y-141.306
X164.211Y-96.139
X164.211Y-137.541
X166.502Y-99.949
X166.502Y-141.351
X168.656Y-96.139
X168.656Y-137.496
X170.947Y-99.949
X170.947Y-141.351
X173.101Y-96.139
X173.101Y-137.541
X175.392Y-99.949
X175.392Y-141.351
X177.546Y-96.139
X177.546Y-137.541
X179.837Y-99.949
X179.837Y-141.351
X181.991Y-96.139
X181.991Y-137.541
X186.436Y-96.139
X186.436Y-137.541
T3
X101.219Y-62.484
X101.219Y-65.024
X101.219Y-67.564
X101.219Y-70.104
X101.219Y-72.644
X101.219Y-75.184
X101.219Y-77.724
X101.219Y-80.264
X101.219Y-82.804
X101.219Y-85.344
X101.346Y-103.505
X101.346Y-106.045
X101.346Y-108.585
X101.346Y-111.125
X101.346Y-113.665
X101.346Y-116.205
X101.346Y-118.745
X101.346Y-121.285
X101.346Y-123.825
X101.346Y-126.365
X108.839Y-62.484
X108.839Y-65.024
X108.839Y-67.564
X108.839Y-70.104
X108.839Y-72.644
X108.839Y-75.184
X108.839Y-77.724
X108.839Y-80.264
X108.839Y-82.804
X108.839Y-85.344
X108.966Y-103.505
X108.966Y-106.045
X108.966Y-108.585
X108.966Y-111.125
X108.966Y-113.665
X108.966Y-116.205
X108.966Y-118.745
X108.966Y-121.285
X108.966Y-123.825
X108.966Y-126.365
X118.999Y-62.484
X118.999Y-65.024
X118.999Y-67.564
X118.999Y-70.104
X118.999Y-72.644
X118.999Y-75.184
X118.999Y-77.724
X118.999Y-80.264
X118.999Y-82.804
X118.999Y-85.344
X119.126Y-103.505
X119.126Y-106.045
X119.126Y-108.585
X119.126Y-111.125
X119.126Y-113.665
X119.126Y-116.205
X119.126Y-118.745
X119.126Y-121.285
X119.126Y-123.825
X119.126Y-126.365
X126.619Y-62.484
X126.619Y-65.024
X126.619Y-67.564
X126.619Y-70.104
X126.619Y-72.644
X126.619Y-75.184
X126.619Y-77.724
X126.619Y-80.264
X126.619Y-82.804
X126.619Y-85.344
X126.746Y-103.505
X126.746Y-106.045
X126.746Y-108.585
X126.746Y-111.125
X126.746Y-113.665
X126.746Y-116.205
X126.746Y-118.745
X126.746Y-121.285
X126.746Y-123.825
X126.746Y-126.365
X154.178Y-62.611
X154.178Y-65.151
X154.178Y-67.691
X154.178Y-70.231
X154.178Y-72.771
X154.178Y-75.311
X154.178Y-77.851
X154.178Y-80.391
X154.178Y-82.931
X154.178Y-85.471
X154.178Y-103.759
X154.178Y-106.299
X154.178Y-108.839
X154.178Y-111.379
X154.178Y-113.919
X154.178Y-116.459
X154.178Y-118.999
X154.178Y-121.539
X154.178Y-124.079
X154.178Y-126.619
X161.798Y-62.611
X161.798Y-65.151
X161.798Y-67.691
X161.798Y-70.231
X161.798Y-72.771
X161.798Y-75.311
X161.798Y-77.851
X161.798Y-80.391
X161.798Y-82.931
X161.798Y-85.471
X161.798Y-103.759
X161.798Y-106.299
X161.798Y-108.839
X161.798Y-111.379
X161.798Y-113.919
X161.798Y-116.459
X161.798Y-118.999
X161.798Y-121.539
X161.798Y-124.079
X161.798Y-126.619
X171.704Y-62.611
X171.704Y-65.151
X171.704Y-67.691
X171.704Y-70.231
X171.704Y-72.771
X171.704Y-75.311
X171.704Y-77.851
X171.704Y-80.391
X171.704Y-82.931
X171.704Y-85.471
X171.704Y-103.759
X171.704Y-106.299
X171.704Y-108.839
X171.704Y-111.379
X171.704Y-113.919
X171.704Y-116.459
X171.704Y-118.999
X171.704Y-121.539
X171.704Y-124.079
X171.704Y-126.619
X179.324Y-62.611
X179.324Y-65.151
X179.324Y-67.691
X179.324Y-70.231
X179.324Y-72.771
X179.324Y-75.311
X179.324Y-77.851
X179.324Y-80.391
X179.324Y-82.931
X179.324Y-85.471
X179.324Y-103.759
X179.324Y-106.299
X179.324Y-108.839
X179.324Y-111.379
X179.324Y-113.919
X179.324Y-116.459
X179.324Y-118.999
X179.324Y-121.539
X179.324Y-124.079
X179.324Y-126.619
T4
X102.235Y-132.08
X102.235Y-134.62
X102.425Y-90.678
X102.425Y-93.218
X106.68Y-132.08
X106.68Y-134.62
X106.87Y-90.678
X106.87Y-93.218
X111.125Y-132.08
X111.125Y-134.62
X111.316Y-90.678
X111.316Y-93.218
X115.57Y-132.08
X115.57Y-134.62
X115.76Y-90.678
X115.76Y-93.218
X120.015Y-132.08
X120.015Y-134.62
X120.206Y-90.678
X120.206Y-93.218
X124.46Y-132.08
X124.46Y-134.62
X124.777Y-90.678
X124.777Y-93.218
X128.905Y-132.08
X128.905Y-134.62
X129.222Y-90.678
X129.222Y-93.218
X133.35Y-132.08
X133.35Y-134.62
X133.667Y-90.678
X133.667Y-93.218
X155.321Y-90.932
X155.321Y-93.472
X155.321Y-132.334
X155.321Y-134.874
X159.766Y-90.932
X159.766Y-93.472
X159.766Y-132.334
X159.766Y-134.874
X164.211Y-90.932
X164.211Y-93.472
X164.211Y-132.334
X164.211Y-134.874
X168.656Y-90.932
X168.656Y-93.472
X168.656Y-132.334
X168.656Y-134.874
X173.101Y-90.932
X173.101Y-93.472
X173.101Y-132.334
X173.101Y-134.874
X177.546Y-90.932
X177.546Y-93.472
X177.546Y-132.334
X177.546Y-134.874
X181.991Y-90.932
X181.991Y-93.472
X181.991Y-132.334
X181.991Y-134.874
X186.436Y-90.932
X186.436Y-93.472
X186.436Y-132.334
X186.436Y-134.874
T5
X106.414Y-50.93
X106.414Y-53.47
X108.954Y-50.93
X108.954Y-53.47
X111.494Y-50.93
X111.494Y-53.47
X114.034Y-50.93
X114.034Y-53.47
X116.574Y-50.93
X116.574Y-53.47
X119.114Y-50.93
X119.114Y-53.47
X153.15Y-50.927
X153.15Y-53.467
X155.69Y-50.927
X155.69Y-53.467
X158.23Y-50.927
X158.23Y-53.467
X160.77Y-50.927
X160.77Y-53.467
X176.772Y-50.927
X176.772Y-53.467
X179.312Y-50.927
X179.312Y-53.467
X181.852Y-50.927
X181.852Y-53.467
X184.392Y-50.927
X184.392Y-53.467
T0
M30
