G04 #@! TF.GenerationSoftware,KiCad,Pcbnew,(5.1.10)-1*
G04 #@! TF.CreationDate,2023-01-28T17:58:06+01:00*
G04 #@! TF.ProjectId,8-bit-computer_General_Registers_pcb,382d6269-742d-4636-9f6d-70757465725f,rev?*
G04 #@! TF.SameCoordinates,Original*
G04 #@! TF.FileFunction,Legend,Top*
G04 #@! TF.FilePolarity,Positive*
%FSLAX46Y46*%
G04 Gerber Fmt 4.6, Leading zero omitted, Abs format (unit mm)*
G04 Created by KiCad (PCBNEW (5.1.10)-1) date 2023-01-28 17:58:06*
%MOMM*%
%LPD*%
G01*
G04 APERTURE LIST*
%ADD10C,0.100000*%
%ADD11C,0.250000*%
%ADD12C,0.150000*%
%ADD13C,0.120000*%
%ADD14C,1.700000*%
%ADD15O,1.600000X1.600000*%
%ADD16R,1.600000X1.600000*%
%ADD17C,1.400000*%
%ADD18R,1.800000X1.800000*%
%ADD19C,1.800000*%
G04 APERTURE END LIST*
D10*
X106723523Y-58010214D02*
X106675904Y-58048309D01*
X106533047Y-58086404D01*
X106437809Y-58086404D01*
X106294952Y-58048309D01*
X106199714Y-57972119D01*
X106152095Y-57895928D01*
X106104476Y-57743547D01*
X106104476Y-57629261D01*
X106152095Y-57476880D01*
X106199714Y-57400690D01*
X106294952Y-57324500D01*
X106437809Y-57286404D01*
X106533047Y-57286404D01*
X106675904Y-57324500D01*
X106723523Y-57362595D01*
X111367023Y-58086404D02*
X111033690Y-57705452D01*
X110795595Y-58086404D02*
X110795595Y-57286404D01*
X111176547Y-57286404D01*
X111271785Y-57324500D01*
X111319404Y-57362595D01*
X111367023Y-57438785D01*
X111367023Y-57553071D01*
X111319404Y-57629261D01*
X111271785Y-57667357D01*
X111176547Y-57705452D01*
X110795595Y-57705452D01*
X112128928Y-57667357D02*
X112271785Y-57705452D01*
X112319404Y-57743547D01*
X112367023Y-57819738D01*
X112367023Y-57934023D01*
X112319404Y-58010214D01*
X112271785Y-58048309D01*
X112176547Y-58086404D01*
X111795595Y-58086404D01*
X111795595Y-57286404D01*
X112128928Y-57286404D01*
X112224166Y-57324500D01*
X112271785Y-57362595D01*
X112319404Y-57438785D01*
X112319404Y-57514976D01*
X112271785Y-57591166D01*
X112224166Y-57629261D01*
X112128928Y-57667357D01*
X111795595Y-57667357D01*
X107160023Y-46745333D02*
X106683833Y-46745333D01*
X107255261Y-46973904D02*
X106921928Y-46173904D01*
X106588595Y-46973904D01*
X106350500Y-46173904D02*
X106112404Y-46973904D01*
X105921928Y-46402476D01*
X105731452Y-46973904D01*
X105493357Y-46173904D01*
D11*
X119558452Y-57732428D02*
X118796547Y-57732428D01*
D10*
X171851404Y-46491357D02*
X171994261Y-46529452D01*
X172041880Y-46567547D01*
X172089500Y-46643738D01*
X172089500Y-46758023D01*
X172041880Y-46834214D01*
X171994261Y-46872309D01*
X171899023Y-46910404D01*
X171518071Y-46910404D01*
X171518071Y-46110404D01*
X171851404Y-46110404D01*
X171946642Y-46148500D01*
X171994261Y-46186595D01*
X172041880Y-46262785D01*
X172041880Y-46338976D01*
X171994261Y-46415166D01*
X171946642Y-46453261D01*
X171851404Y-46491357D01*
X171518071Y-46491357D01*
X172518071Y-46605642D02*
X173279976Y-46605642D01*
X174327595Y-46910404D02*
X173994261Y-46529452D01*
X173756166Y-46910404D02*
X173756166Y-46110404D01*
X174137119Y-46110404D01*
X174232357Y-46148500D01*
X174279976Y-46186595D01*
X174327595Y-46262785D01*
X174327595Y-46377071D01*
X174279976Y-46453261D01*
X174232357Y-46491357D01*
X174137119Y-46529452D01*
X173756166Y-46529452D01*
X175137119Y-46872309D02*
X175041880Y-46910404D01*
X174851404Y-46910404D01*
X174756166Y-46872309D01*
X174708547Y-46796119D01*
X174708547Y-46491357D01*
X174756166Y-46415166D01*
X174851404Y-46377071D01*
X175041880Y-46377071D01*
X175137119Y-46415166D01*
X175184738Y-46491357D01*
X175184738Y-46567547D01*
X174708547Y-46643738D01*
X176041880Y-46377071D02*
X176041880Y-47024690D01*
X175994261Y-47100880D01*
X175946642Y-47138976D01*
X175851404Y-47177071D01*
X175708547Y-47177071D01*
X175613309Y-47138976D01*
X176041880Y-46872309D02*
X175946642Y-46910404D01*
X175756166Y-46910404D01*
X175660928Y-46872309D01*
X175613309Y-46834214D01*
X175565690Y-46758023D01*
X175565690Y-46529452D01*
X175613309Y-46453261D01*
X175660928Y-46415166D01*
X175756166Y-46377071D01*
X175946642Y-46377071D01*
X176041880Y-46415166D01*
X176518071Y-46910404D02*
X176518071Y-46377071D01*
X176518071Y-46110404D02*
X176470452Y-46148500D01*
X176518071Y-46186595D01*
X176565690Y-46148500D01*
X176518071Y-46110404D01*
X176518071Y-46186595D01*
X176946642Y-46872309D02*
X177041880Y-46910404D01*
X177232357Y-46910404D01*
X177327595Y-46872309D01*
X177375214Y-46796119D01*
X177375214Y-46758023D01*
X177327595Y-46681833D01*
X177232357Y-46643738D01*
X177089500Y-46643738D01*
X176994261Y-46605642D01*
X176946642Y-46529452D01*
X176946642Y-46491357D01*
X176994261Y-46415166D01*
X177089500Y-46377071D01*
X177232357Y-46377071D01*
X177327595Y-46415166D01*
X177660928Y-46377071D02*
X178041880Y-46377071D01*
X177803785Y-46110404D02*
X177803785Y-46796119D01*
X177851404Y-46872309D01*
X177946642Y-46910404D01*
X178041880Y-46910404D01*
X178756166Y-46872309D02*
X178660928Y-46910404D01*
X178470452Y-46910404D01*
X178375214Y-46872309D01*
X178327595Y-46796119D01*
X178327595Y-46491357D01*
X178375214Y-46415166D01*
X178470452Y-46377071D01*
X178660928Y-46377071D01*
X178756166Y-46415166D01*
X178803785Y-46491357D01*
X178803785Y-46567547D01*
X178327595Y-46643738D01*
X179232357Y-46910404D02*
X179232357Y-46377071D01*
X179232357Y-46529452D02*
X179279976Y-46453261D01*
X179327595Y-46415166D01*
X179422833Y-46377071D01*
X179518071Y-46377071D01*
X180803785Y-46110404D02*
X180994261Y-46110404D01*
X181089500Y-46148500D01*
X181184738Y-46224690D01*
X181232357Y-46377071D01*
X181232357Y-46643738D01*
X181184738Y-46796119D01*
X181089500Y-46872309D01*
X180994261Y-46910404D01*
X180803785Y-46910404D01*
X180708547Y-46872309D01*
X180613309Y-46796119D01*
X180565690Y-46643738D01*
X180565690Y-46377071D01*
X180613309Y-46224690D01*
X180708547Y-46148500D01*
X180803785Y-46110404D01*
X182089500Y-46377071D02*
X182089500Y-46910404D01*
X181660928Y-46377071D02*
X181660928Y-46796119D01*
X181708547Y-46872309D01*
X181803785Y-46910404D01*
X181946642Y-46910404D01*
X182041880Y-46872309D01*
X182089500Y-46834214D01*
X182422833Y-46377071D02*
X182803785Y-46377071D01*
X182565690Y-46110404D02*
X182565690Y-46796119D01*
X182613309Y-46872309D01*
X182708547Y-46910404D01*
X182803785Y-46910404D01*
X110692428Y-46237404D02*
X110930523Y-47037404D01*
X111121000Y-46465976D01*
X111311476Y-47037404D01*
X111549571Y-46237404D01*
X111930523Y-47037404D02*
X111930523Y-46237404D01*
X112168619Y-46237404D01*
X112311476Y-46275500D01*
X112406714Y-46351690D01*
X112454333Y-46427880D01*
X112501952Y-46580261D01*
X112501952Y-46694547D01*
X112454333Y-46846928D01*
X112406714Y-46923119D01*
X112311476Y-46999309D01*
X112168619Y-47037404D01*
X111930523Y-47037404D01*
X116510523Y-58086404D02*
X116177190Y-57705452D01*
X115939095Y-58086404D02*
X115939095Y-57286404D01*
X116320047Y-57286404D01*
X116415285Y-57324500D01*
X116462904Y-57362595D01*
X116510523Y-57438785D01*
X116510523Y-57553071D01*
X116462904Y-57629261D01*
X116415285Y-57667357D01*
X116320047Y-57705452D01*
X115939095Y-57705452D01*
X117510523Y-58010214D02*
X117462904Y-58048309D01*
X117320047Y-58086404D01*
X117224809Y-58086404D01*
X117081952Y-58048309D01*
X116986714Y-57972119D01*
X116939095Y-57895928D01*
X116891476Y-57743547D01*
X116891476Y-57629261D01*
X116939095Y-57476880D01*
X116986714Y-57400690D01*
X117081952Y-57324500D01*
X117224809Y-57286404D01*
X117320047Y-57286404D01*
X117462904Y-57324500D01*
X117510523Y-57362595D01*
X113907023Y-58086404D02*
X113573690Y-57705452D01*
X113335595Y-58086404D02*
X113335595Y-57286404D01*
X113716547Y-57286404D01*
X113811785Y-57324500D01*
X113859404Y-57362595D01*
X113907023Y-57438785D01*
X113907023Y-57553071D01*
X113859404Y-57629261D01*
X113811785Y-57667357D01*
X113716547Y-57705452D01*
X113335595Y-57705452D01*
X114335595Y-58086404D02*
X114335595Y-57286404D01*
X114573690Y-57286404D01*
X114716547Y-57324500D01*
X114811785Y-57400690D01*
X114859404Y-57476880D01*
X114907023Y-57629261D01*
X114907023Y-57743547D01*
X114859404Y-57895928D01*
X114811785Y-57972119D01*
X114716547Y-58048309D01*
X114573690Y-58086404D01*
X114335595Y-58086404D01*
D12*
X123301285Y-100734880D02*
X123920333Y-100734880D01*
X123587000Y-101115833D01*
X123729857Y-101115833D01*
X123825095Y-101163452D01*
X123872714Y-101211071D01*
X123920333Y-101306309D01*
X123920333Y-101544404D01*
X123872714Y-101639642D01*
X123825095Y-101687261D01*
X123729857Y-101734880D01*
X123444142Y-101734880D01*
X123348904Y-101687261D01*
X123301285Y-101639642D01*
X124253666Y-100734880D02*
X124920333Y-100734880D01*
X124491761Y-101734880D01*
X125206047Y-100734880D02*
X125872714Y-100734880D01*
X125444142Y-101734880D01*
X176387285Y-100925380D02*
X177006333Y-100925380D01*
X176673000Y-101306333D01*
X176815857Y-101306333D01*
X176911095Y-101353952D01*
X176958714Y-101401571D01*
X177006333Y-101496809D01*
X177006333Y-101734904D01*
X176958714Y-101830142D01*
X176911095Y-101877761D01*
X176815857Y-101925380D01*
X176530142Y-101925380D01*
X176434904Y-101877761D01*
X176387285Y-101830142D01*
X177339666Y-100925380D02*
X178006333Y-100925380D01*
X177577761Y-101925380D01*
X178292047Y-100925380D02*
X178958714Y-100925380D01*
X178530142Y-101925380D01*
X174482285Y-59650380D02*
X175101333Y-59650380D01*
X174768000Y-60031333D01*
X174910857Y-60031333D01*
X175006095Y-60078952D01*
X175053714Y-60126571D01*
X175101333Y-60221809D01*
X175101333Y-60459904D01*
X175053714Y-60555142D01*
X175006095Y-60602761D01*
X174910857Y-60650380D01*
X174625142Y-60650380D01*
X174529904Y-60602761D01*
X174482285Y-60555142D01*
X175434666Y-59650380D02*
X176101333Y-59650380D01*
X175672761Y-60650380D01*
X176387047Y-59650380D02*
X177053714Y-59650380D01*
X176625142Y-60650380D01*
X121713785Y-59396380D02*
X122332833Y-59396380D01*
X121999500Y-59777333D01*
X122142357Y-59777333D01*
X122237595Y-59824952D01*
X122285214Y-59872571D01*
X122332833Y-59967809D01*
X122332833Y-60205904D01*
X122285214Y-60301142D01*
X122237595Y-60348761D01*
X122142357Y-60396380D01*
X121856642Y-60396380D01*
X121761404Y-60348761D01*
X121713785Y-60301142D01*
X122666166Y-59396380D02*
X123332833Y-59396380D01*
X122904261Y-60396380D01*
X123618547Y-59396380D02*
X124285214Y-59396380D01*
X123856642Y-60396380D01*
X158591404Y-101020619D02*
X158639023Y-100973000D01*
X158734261Y-100925380D01*
X158972357Y-100925380D01*
X159067595Y-100973000D01*
X159115214Y-101020619D01*
X159162833Y-101115857D01*
X159162833Y-101211095D01*
X159115214Y-101353952D01*
X158543785Y-101925380D01*
X159162833Y-101925380D01*
X160019976Y-101258714D02*
X160019976Y-101925380D01*
X159781880Y-100877761D02*
X159543785Y-101592047D01*
X160162833Y-101592047D01*
X161019976Y-100925380D02*
X160543785Y-100925380D01*
X160496166Y-101401571D01*
X160543785Y-101353952D01*
X160639023Y-101306333D01*
X160877119Y-101306333D01*
X160972357Y-101353952D01*
X161019976Y-101401571D01*
X161067595Y-101496809D01*
X161067595Y-101734904D01*
X161019976Y-101830142D01*
X160972357Y-101877761D01*
X160877119Y-101925380D01*
X160639023Y-101925380D01*
X160543785Y-101877761D01*
X160496166Y-101830142D01*
X103981404Y-100576119D02*
X104029023Y-100528500D01*
X104124261Y-100480880D01*
X104362357Y-100480880D01*
X104457595Y-100528500D01*
X104505214Y-100576119D01*
X104552833Y-100671357D01*
X104552833Y-100766595D01*
X104505214Y-100909452D01*
X103933785Y-101480880D01*
X104552833Y-101480880D01*
X105409976Y-100814214D02*
X105409976Y-101480880D01*
X105171880Y-100433261D02*
X104933785Y-101147547D01*
X105552833Y-101147547D01*
X106409976Y-100480880D02*
X105933785Y-100480880D01*
X105886166Y-100957071D01*
X105933785Y-100909452D01*
X106029023Y-100861833D01*
X106267119Y-100861833D01*
X106362357Y-100909452D01*
X106409976Y-100957071D01*
X106457595Y-101052309D01*
X106457595Y-101290404D01*
X106409976Y-101385642D01*
X106362357Y-101433261D01*
X106267119Y-101480880D01*
X106029023Y-101480880D01*
X105933785Y-101433261D01*
X105886166Y-101385642D01*
X156813404Y-59745619D02*
X156861023Y-59698000D01*
X156956261Y-59650380D01*
X157194357Y-59650380D01*
X157289595Y-59698000D01*
X157337214Y-59745619D01*
X157384833Y-59840857D01*
X157384833Y-59936095D01*
X157337214Y-60078952D01*
X156765785Y-60650380D01*
X157384833Y-60650380D01*
X158241976Y-59983714D02*
X158241976Y-60650380D01*
X158003880Y-59602761D02*
X157765785Y-60317047D01*
X158384833Y-60317047D01*
X159241976Y-59650380D02*
X158765785Y-59650380D01*
X158718166Y-60126571D01*
X158765785Y-60078952D01*
X158861023Y-60031333D01*
X159099119Y-60031333D01*
X159194357Y-60078952D01*
X159241976Y-60126571D01*
X159289595Y-60221809D01*
X159289595Y-60459904D01*
X159241976Y-60555142D01*
X159194357Y-60602761D01*
X159099119Y-60650380D01*
X158861023Y-60650380D01*
X158765785Y-60602761D01*
X158718166Y-60555142D01*
X103854404Y-59682119D02*
X103902023Y-59634500D01*
X103997261Y-59586880D01*
X104235357Y-59586880D01*
X104330595Y-59634500D01*
X104378214Y-59682119D01*
X104425833Y-59777357D01*
X104425833Y-59872595D01*
X104378214Y-60015452D01*
X103806785Y-60586880D01*
X104425833Y-60586880D01*
X105282976Y-59920214D02*
X105282976Y-60586880D01*
X105044880Y-59539261D02*
X104806785Y-60253547D01*
X105425833Y-60253547D01*
X106282976Y-59586880D02*
X105806785Y-59586880D01*
X105759166Y-60063071D01*
X105806785Y-60015452D01*
X105902023Y-59967833D01*
X106140119Y-59967833D01*
X106235357Y-60015452D01*
X106282976Y-60063071D01*
X106330595Y-60158309D01*
X106330595Y-60396404D01*
X106282976Y-60491642D01*
X106235357Y-60539261D01*
X106140119Y-60586880D01*
X105902023Y-60586880D01*
X105806785Y-60539261D01*
X105759166Y-60491642D01*
D10*
X148213023Y-46554857D02*
X148355880Y-46592952D01*
X148403500Y-46631047D01*
X148451119Y-46707238D01*
X148451119Y-46821523D01*
X148403500Y-46897714D01*
X148355880Y-46935809D01*
X148260642Y-46973904D01*
X147879690Y-46973904D01*
X147879690Y-46173904D01*
X148213023Y-46173904D01*
X148308261Y-46212000D01*
X148355880Y-46250095D01*
X148403500Y-46326285D01*
X148403500Y-46402476D01*
X148355880Y-46478666D01*
X148308261Y-46516761D01*
X148213023Y-46554857D01*
X147879690Y-46554857D01*
X149308261Y-46440571D02*
X149308261Y-46973904D01*
X148879690Y-46440571D02*
X148879690Y-46859619D01*
X148927309Y-46935809D01*
X149022547Y-46973904D01*
X149165404Y-46973904D01*
X149260642Y-46935809D01*
X149308261Y-46897714D01*
X149736833Y-46935809D02*
X149832071Y-46973904D01*
X150022547Y-46973904D01*
X150117785Y-46935809D01*
X150165404Y-46859619D01*
X150165404Y-46821523D01*
X150117785Y-46745333D01*
X150022547Y-46707238D01*
X149879690Y-46707238D01*
X149784452Y-46669142D01*
X149736833Y-46592952D01*
X149736833Y-46554857D01*
X149784452Y-46478666D01*
X149879690Y-46440571D01*
X150022547Y-46440571D01*
X150117785Y-46478666D01*
X150546357Y-46935809D02*
X150641595Y-46973904D01*
X150832071Y-46973904D01*
X150927309Y-46935809D01*
X150974928Y-46859619D01*
X150974928Y-46821523D01*
X150927309Y-46745333D01*
X150832071Y-46707238D01*
X150689214Y-46707238D01*
X150593976Y-46669142D01*
X150546357Y-46592952D01*
X150546357Y-46554857D01*
X150593976Y-46478666D01*
X150689214Y-46440571D01*
X150832071Y-46440571D01*
X150927309Y-46478666D01*
D12*
X118733047Y-46604071D02*
X119494952Y-46604071D01*
X119114000Y-46223119D02*
X119114000Y-46985023D01*
D10*
X113105428Y-46237404D02*
X113343523Y-47037404D01*
X113534000Y-46465976D01*
X113724476Y-47037404D01*
X113962571Y-46237404D01*
X114914952Y-46961214D02*
X114867333Y-46999309D01*
X114724476Y-47037404D01*
X114629238Y-47037404D01*
X114486380Y-46999309D01*
X114391142Y-46923119D01*
X114343523Y-46846928D01*
X114295904Y-46694547D01*
X114295904Y-46580261D01*
X114343523Y-46427880D01*
X114391142Y-46351690D01*
X114486380Y-46275500D01*
X114629238Y-46237404D01*
X114724476Y-46237404D01*
X114867333Y-46275500D01*
X114914952Y-46313595D01*
X108088928Y-46173904D02*
X108327023Y-46973904D01*
X108517500Y-46402476D01*
X108707976Y-46973904D01*
X108946071Y-46173904D01*
X109660357Y-46554857D02*
X109803214Y-46592952D01*
X109850833Y-46631047D01*
X109898452Y-46707238D01*
X109898452Y-46821523D01*
X109850833Y-46897714D01*
X109803214Y-46935809D01*
X109707976Y-46973904D01*
X109327023Y-46973904D01*
X109327023Y-46173904D01*
X109660357Y-46173904D01*
X109755595Y-46212000D01*
X109803214Y-46250095D01*
X109850833Y-46326285D01*
X109850833Y-46402476D01*
X109803214Y-46478666D01*
X109755595Y-46516761D01*
X109660357Y-46554857D01*
X109327023Y-46554857D01*
X108771452Y-58149904D02*
X108438119Y-57768952D01*
X108200023Y-58149904D02*
X108200023Y-57349904D01*
X108580976Y-57349904D01*
X108676214Y-57388000D01*
X108723833Y-57426095D01*
X108771452Y-57502285D01*
X108771452Y-57616571D01*
X108723833Y-57692761D01*
X108676214Y-57730857D01*
X108580976Y-57768952D01*
X108200023Y-57768952D01*
X109152404Y-57921333D02*
X109628595Y-57921333D01*
X109057166Y-58149904D02*
X109390500Y-57349904D01*
X109723833Y-58149904D01*
D12*
X131668357Y-123265500D02*
X131525500Y-123194071D01*
X131311214Y-123194071D01*
X131096928Y-123265500D01*
X130954071Y-123408357D01*
X130882642Y-123551214D01*
X130811214Y-123836928D01*
X130811214Y-124051214D01*
X130882642Y-124336928D01*
X130954071Y-124479785D01*
X131096928Y-124622642D01*
X131311214Y-124694071D01*
X131454071Y-124694071D01*
X131668357Y-124622642D01*
X131739785Y-124551214D01*
X131739785Y-124051214D01*
X131454071Y-124051214D01*
X132954071Y-124622642D02*
X132811214Y-124694071D01*
X132525500Y-124694071D01*
X132382642Y-124622642D01*
X132311214Y-124479785D01*
X132311214Y-123908357D01*
X132382642Y-123765500D01*
X132525500Y-123694071D01*
X132811214Y-123694071D01*
X132954071Y-123765500D01*
X133025500Y-123908357D01*
X133025500Y-124051214D01*
X132311214Y-124194071D01*
X133668357Y-123694071D02*
X133668357Y-124694071D01*
X133668357Y-123836928D02*
X133739785Y-123765500D01*
X133882642Y-123694071D01*
X134096928Y-123694071D01*
X134239785Y-123765500D01*
X134311214Y-123908357D01*
X134311214Y-124694071D01*
X135596928Y-124622642D02*
X135454071Y-124694071D01*
X135168357Y-124694071D01*
X135025500Y-124622642D01*
X134954071Y-124479785D01*
X134954071Y-123908357D01*
X135025500Y-123765500D01*
X135168357Y-123694071D01*
X135454071Y-123694071D01*
X135596928Y-123765500D01*
X135668357Y-123908357D01*
X135668357Y-124051214D01*
X134954071Y-124194071D01*
X136311214Y-124694071D02*
X136311214Y-123694071D01*
X136311214Y-123979785D02*
X136382642Y-123836928D01*
X136454071Y-123765500D01*
X136596928Y-123694071D01*
X136739785Y-123694071D01*
X137882642Y-124694071D02*
X137882642Y-123908357D01*
X137811214Y-123765500D01*
X137668357Y-123694071D01*
X137382642Y-123694071D01*
X137239785Y-123765500D01*
X137882642Y-124622642D02*
X137739785Y-124694071D01*
X137382642Y-124694071D01*
X137239785Y-124622642D01*
X137168357Y-124479785D01*
X137168357Y-124336928D01*
X137239785Y-124194071D01*
X137382642Y-124122642D01*
X137739785Y-124122642D01*
X137882642Y-124051214D01*
X138811214Y-124694071D02*
X138668357Y-124622642D01*
X138596928Y-124479785D01*
X138596928Y-123194071D01*
X141382642Y-124694071D02*
X140882642Y-123979785D01*
X140525500Y-124694071D02*
X140525500Y-123194071D01*
X141096928Y-123194071D01*
X141239785Y-123265500D01*
X141311214Y-123336928D01*
X141382642Y-123479785D01*
X141382642Y-123694071D01*
X141311214Y-123836928D01*
X141239785Y-123908357D01*
X141096928Y-123979785D01*
X140525500Y-123979785D01*
X142596928Y-124622642D02*
X142454071Y-124694071D01*
X142168357Y-124694071D01*
X142025500Y-124622642D01*
X141954071Y-124479785D01*
X141954071Y-123908357D01*
X142025500Y-123765500D01*
X142168357Y-123694071D01*
X142454071Y-123694071D01*
X142596928Y-123765500D01*
X142668357Y-123908357D01*
X142668357Y-124051214D01*
X141954071Y-124194071D01*
X143954071Y-123694071D02*
X143954071Y-124908357D01*
X143882642Y-125051214D01*
X143811214Y-125122642D01*
X143668357Y-125194071D01*
X143454071Y-125194071D01*
X143311214Y-125122642D01*
X143954071Y-124622642D02*
X143811214Y-124694071D01*
X143525500Y-124694071D01*
X143382642Y-124622642D01*
X143311214Y-124551214D01*
X143239785Y-124408357D01*
X143239785Y-123979785D01*
X143311214Y-123836928D01*
X143382642Y-123765500D01*
X143525500Y-123694071D01*
X143811214Y-123694071D01*
X143954071Y-123765500D01*
X144668357Y-124694071D02*
X144668357Y-123694071D01*
X144668357Y-123194071D02*
X144596928Y-123265500D01*
X144668357Y-123336928D01*
X144739785Y-123265500D01*
X144668357Y-123194071D01*
X144668357Y-123336928D01*
X145311214Y-124622642D02*
X145454071Y-124694071D01*
X145739785Y-124694071D01*
X145882642Y-124622642D01*
X145954071Y-124479785D01*
X145954071Y-124408357D01*
X145882642Y-124265500D01*
X145739785Y-124194071D01*
X145525500Y-124194071D01*
X145382642Y-124122642D01*
X145311214Y-123979785D01*
X145311214Y-123908357D01*
X145382642Y-123765500D01*
X145525500Y-123694071D01*
X145739785Y-123694071D01*
X145882642Y-123765500D01*
X146382642Y-123694071D02*
X146954071Y-123694071D01*
X146596928Y-123194071D02*
X146596928Y-124479785D01*
X146668357Y-124622642D01*
X146811214Y-124694071D01*
X146954071Y-124694071D01*
X148025500Y-124622642D02*
X147882642Y-124694071D01*
X147596928Y-124694071D01*
X147454071Y-124622642D01*
X147382642Y-124479785D01*
X147382642Y-123908357D01*
X147454071Y-123765500D01*
X147596928Y-123694071D01*
X147882642Y-123694071D01*
X148025500Y-123765500D01*
X148096928Y-123908357D01*
X148096928Y-124051214D01*
X147382642Y-124194071D01*
X148739785Y-124694071D02*
X148739785Y-123694071D01*
X148739785Y-123979785D02*
X148811214Y-123836928D01*
X148882642Y-123765500D01*
X149025500Y-123694071D01*
X149168357Y-123694071D01*
X149596928Y-124622642D02*
X149739785Y-124694071D01*
X150025500Y-124694071D01*
X150168357Y-124622642D01*
X150239785Y-124479785D01*
X150239785Y-124408357D01*
X150168357Y-124265500D01*
X150025500Y-124194071D01*
X149811214Y-124194071D01*
X149668357Y-124122642D01*
X149596928Y-123979785D01*
X149596928Y-123908357D01*
X149668357Y-123765500D01*
X149811214Y-123694071D01*
X150025500Y-123694071D01*
X150168357Y-123765500D01*
X131162330Y-126511857D02*
X131662330Y-126511857D01*
X131778401Y-127297571D02*
X131064116Y-127297571D01*
X131251616Y-125797571D01*
X131965901Y-125797571D01*
X132421258Y-127297571D02*
X132546258Y-126297571D01*
X132528401Y-126440428D02*
X132608758Y-126369000D01*
X132760544Y-126297571D01*
X132974830Y-126297571D01*
X133108758Y-126369000D01*
X133162330Y-126511857D01*
X133064116Y-127297571D01*
X133162330Y-126511857D02*
X133251616Y-126369000D01*
X133403401Y-126297571D01*
X133617687Y-126297571D01*
X133751616Y-126369000D01*
X133805187Y-126511857D01*
X133706973Y-127297571D01*
X134421258Y-127297571D02*
X134546258Y-126297571D01*
X134608758Y-125797571D02*
X134528401Y-125869000D01*
X134590901Y-125940428D01*
X134671258Y-125869000D01*
X134608758Y-125797571D01*
X134590901Y-125940428D01*
X135349830Y-127297571D02*
X135215901Y-127226142D01*
X135162330Y-127083285D01*
X135323044Y-125797571D01*
X137046258Y-126869000D02*
X137760544Y-126869000D01*
X136849830Y-127297571D02*
X137537330Y-125797571D01*
X137849830Y-127297571D01*
X138474830Y-126297571D02*
X138349830Y-127297571D01*
X138456973Y-126440428D02*
X138537330Y-126369000D01*
X138689116Y-126297571D01*
X138903401Y-126297571D01*
X139037330Y-126369000D01*
X139090901Y-126511857D01*
X138992687Y-127297571D01*
X140349830Y-127297571D02*
X140537330Y-125797571D01*
X140358758Y-127226142D02*
X140206973Y-127297571D01*
X139921258Y-127297571D01*
X139787330Y-127226142D01*
X139724830Y-127154714D01*
X139671258Y-127011857D01*
X139724830Y-126583285D01*
X139814116Y-126440428D01*
X139894473Y-126369000D01*
X140046258Y-126297571D01*
X140331973Y-126297571D01*
X140465901Y-126369000D01*
X141064116Y-127297571D02*
X141189116Y-126297571D01*
X141153401Y-126583285D02*
X141242687Y-126440428D01*
X141323044Y-126369000D01*
X141474830Y-126297571D01*
X141617687Y-126297571D01*
X142573044Y-127226142D02*
X142421258Y-127297571D01*
X142135544Y-127297571D01*
X142001616Y-127226142D01*
X141948044Y-127083285D01*
X142019473Y-126511857D01*
X142108758Y-126369000D01*
X142260544Y-126297571D01*
X142546258Y-126297571D01*
X142680187Y-126369000D01*
X142733758Y-126511857D01*
X142715901Y-126654714D01*
X141983758Y-126797571D01*
X143921258Y-127297571D02*
X144019473Y-126511857D01*
X143965901Y-126369000D01*
X143831973Y-126297571D01*
X143546258Y-126297571D01*
X143394473Y-126369000D01*
X143930187Y-127226142D02*
X143778401Y-127297571D01*
X143421258Y-127297571D01*
X143287330Y-127226142D01*
X143233758Y-127083285D01*
X143251616Y-126940428D01*
X143340901Y-126797571D01*
X143492687Y-126726142D01*
X143849830Y-126726142D01*
X144001616Y-126654714D01*
X144573044Y-127226142D02*
X144706973Y-127297571D01*
X144992687Y-127297571D01*
X145144473Y-127226142D01*
X145233758Y-127083285D01*
X145242687Y-127011857D01*
X145189116Y-126869000D01*
X145055187Y-126797571D01*
X144840901Y-126797571D01*
X144706973Y-126726142D01*
X144653401Y-126583285D01*
X144662330Y-126511857D01*
X144751616Y-126369000D01*
X144903401Y-126297571D01*
X145117687Y-126297571D01*
X145251616Y-126369000D01*
X145787330Y-127226142D02*
X145921258Y-127297571D01*
X146206973Y-127297571D01*
X146358758Y-127226142D01*
X146448044Y-127083285D01*
X146456973Y-127011857D01*
X146403401Y-126869000D01*
X146269473Y-126797571D01*
X146055187Y-126797571D01*
X145921258Y-126726142D01*
X145867687Y-126583285D01*
X145876616Y-126511857D01*
X145965901Y-126369000D01*
X146117687Y-126297571D01*
X146331973Y-126297571D01*
X146465901Y-126369000D01*
X147278401Y-127297571D02*
X147144473Y-127226142D01*
X147081973Y-127154714D01*
X147028401Y-127011857D01*
X147081973Y-126583285D01*
X147171258Y-126440428D01*
X147251616Y-126369000D01*
X147403401Y-126297571D01*
X147617687Y-126297571D01*
X147751616Y-126369000D01*
X147814116Y-126440428D01*
X147867687Y-126583285D01*
X147814116Y-127011857D01*
X147724830Y-127154714D01*
X147644473Y-127226142D01*
X147492687Y-127297571D01*
X147278401Y-127297571D01*
X148546258Y-126297571D02*
X148421258Y-127297571D01*
X148528401Y-126440428D02*
X148608758Y-126369000D01*
X148760544Y-126297571D01*
X148974830Y-126297571D01*
X149108758Y-126369000D01*
X149162330Y-126511857D01*
X149064116Y-127297571D01*
D13*
X182632000Y-55447000D02*
X182632000Y-56757000D01*
X182632000Y-55447000D02*
X182632000Y-55447000D01*
X188302000Y-55447000D02*
X182632000Y-55447000D01*
X188302000Y-48947000D02*
X188302000Y-55447000D01*
X172862000Y-48947000D02*
X188302000Y-48947000D01*
X172862000Y-55447000D02*
X172862000Y-48947000D01*
X178532000Y-55447000D02*
X172862000Y-55447000D01*
X178532000Y-56757000D02*
X178532000Y-55447000D01*
X189602000Y-56757000D02*
X171562000Y-56757000D01*
X189602000Y-47637000D02*
X189602000Y-56757000D01*
X171562000Y-47637000D02*
X189602000Y-47637000D01*
X171562000Y-56757000D02*
X171562000Y-47637000D01*
X147940000Y-56757000D02*
X147940000Y-47637000D01*
X147940000Y-47637000D02*
X165980000Y-47637000D01*
X165980000Y-47637000D02*
X165980000Y-56757000D01*
X165980000Y-56757000D02*
X147940000Y-56757000D01*
X154910000Y-56757000D02*
X154910000Y-55447000D01*
X154910000Y-55447000D02*
X149240000Y-55447000D01*
X149240000Y-55447000D02*
X149240000Y-48947000D01*
X149240000Y-48947000D02*
X164680000Y-48947000D01*
X164680000Y-48947000D02*
X164680000Y-55447000D01*
X164680000Y-55447000D02*
X159010000Y-55447000D01*
X159010000Y-55447000D02*
X159010000Y-55447000D01*
X159010000Y-55447000D02*
X159010000Y-56757000D01*
X114814000Y-55450000D02*
X114814000Y-56760000D01*
X114814000Y-55450000D02*
X114814000Y-55450000D01*
X123024000Y-55450000D02*
X114814000Y-55450000D01*
X123024000Y-48950000D02*
X123024000Y-55450000D01*
X102504000Y-48950000D02*
X123024000Y-48950000D01*
X102504000Y-55450000D02*
X102504000Y-48950000D01*
X110714000Y-55450000D02*
X102504000Y-55450000D01*
X110714000Y-56760000D02*
X110714000Y-55450000D01*
X124324000Y-56760000D02*
X101204000Y-56760000D01*
X124324000Y-47640000D02*
X124324000Y-56760000D01*
X101204000Y-47640000D02*
X124324000Y-47640000D01*
X101204000Y-56760000D02*
X101204000Y-47640000D01*
X178164000Y-61281000D02*
X176514000Y-61281000D01*
X178164000Y-86801000D02*
X178164000Y-61281000D01*
X172864000Y-86801000D02*
X178164000Y-86801000D01*
X172864000Y-61281000D02*
X172864000Y-86801000D01*
X174514000Y-61281000D02*
X172864000Y-61281000D01*
X176514000Y-61281000D02*
G75*
G02*
X174514000Y-61281000I-1000000J0D01*
G01*
X125459000Y-61154000D02*
X123809000Y-61154000D01*
X125459000Y-86674000D02*
X125459000Y-61154000D01*
X120159000Y-86674000D02*
X125459000Y-86674000D01*
X120159000Y-61154000D02*
X120159000Y-86674000D01*
X121809000Y-61154000D02*
X120159000Y-61154000D01*
X123809000Y-61154000D02*
G75*
G02*
X121809000Y-61154000I-1000000J0D01*
G01*
X139389050Y-99352000D02*
X138566326Y-98877000D01*
X134418064Y-96482000D02*
X135240788Y-96957000D01*
X139026326Y-98080257D02*
X135700788Y-96160257D01*
X138106326Y-99673743D02*
X139026326Y-98080257D01*
X134780788Y-97753743D02*
X138106326Y-99673743D01*
X135700788Y-96160257D02*
X134780788Y-97753743D01*
X112719050Y-99352000D02*
X111896326Y-98877000D01*
X107748064Y-96482000D02*
X108570788Y-96957000D01*
X112356326Y-98080257D02*
X109030788Y-96160257D01*
X111436326Y-99673743D02*
X112356326Y-98080257D01*
X108110788Y-97753743D02*
X111436326Y-99673743D01*
X109030788Y-96160257D02*
X108110788Y-97753743D01*
X156988000Y-61281000D02*
X155338000Y-61281000D01*
X155338000Y-61281000D02*
X155338000Y-86801000D01*
X155338000Y-86801000D02*
X160638000Y-86801000D01*
X160638000Y-86801000D02*
X160638000Y-61281000D01*
X160638000Y-61281000D02*
X158988000Y-61281000D01*
X158988000Y-61281000D02*
G75*
G02*
X156988000Y-61281000I-1000000J0D01*
G01*
X125586000Y-102175000D02*
X123936000Y-102175000D01*
X125586000Y-127695000D02*
X125586000Y-102175000D01*
X120286000Y-127695000D02*
X125586000Y-127695000D01*
X120286000Y-102175000D02*
X120286000Y-127695000D01*
X121936000Y-102175000D02*
X120286000Y-102175000D01*
X123936000Y-102175000D02*
G75*
G02*
X121936000Y-102175000I-1000000J0D01*
G01*
X132114000Y-134910000D02*
X132270000Y-134910000D01*
X134430000Y-134910000D02*
X134586000Y-134910000D01*
X132271392Y-131677665D02*
G75*
G03*
X132114484Y-134910000I1078608J-1672335D01*
G01*
X134428608Y-131677665D02*
G75*
G02*
X134585516Y-134910000I-1078608J-1672335D01*
G01*
X132270163Y-132308870D02*
G75*
G03*
X132270000Y-134390961I1079837J-1041130D01*
G01*
X134429837Y-132308870D02*
G75*
G02*
X134430000Y-134390961I-1079837J-1041130D01*
G01*
X129985000Y-134910000D02*
X130141000Y-134910000D01*
X127669000Y-134910000D02*
X127825000Y-134910000D01*
X129984837Y-132308870D02*
G75*
G02*
X129985000Y-134390961I-1079837J-1041130D01*
G01*
X127825163Y-132308870D02*
G75*
G03*
X127825000Y-134390961I1079837J-1041130D01*
G01*
X129983608Y-131677665D02*
G75*
G02*
X130140516Y-134910000I-1078608J-1672335D01*
G01*
X127826392Y-131677665D02*
G75*
G03*
X127669484Y-134910000I1078608J-1672335D01*
G01*
X121609050Y-99352000D02*
X120786326Y-98877000D01*
X116638064Y-96482000D02*
X117460788Y-96957000D01*
X121246326Y-98080257D02*
X117920788Y-96160257D01*
X120326326Y-99673743D02*
X121246326Y-98080257D01*
X117000788Y-97753743D02*
X120326326Y-99673743D01*
X117920788Y-96160257D02*
X117000788Y-97753743D01*
X107679000Y-61154000D02*
X106029000Y-61154000D01*
X107679000Y-86674000D02*
X107679000Y-61154000D01*
X102379000Y-86674000D02*
X107679000Y-86674000D01*
X102379000Y-61154000D02*
X102379000Y-86674000D01*
X104029000Y-61154000D02*
X102379000Y-61154000D01*
X106029000Y-61154000D02*
G75*
G02*
X104029000Y-61154000I-1000000J0D01*
G01*
X103505500Y-93508000D02*
X103661500Y-93508000D01*
X101189500Y-93508000D02*
X101345500Y-93508000D01*
X103505337Y-90906870D02*
G75*
G02*
X103505500Y-92988961I-1079837J-1041130D01*
G01*
X101345663Y-90906870D02*
G75*
G03*
X101345500Y-92988961I1079837J-1041130D01*
G01*
X103504108Y-90275665D02*
G75*
G02*
X103661016Y-93508000I-1078608J-1672335D01*
G01*
X101346892Y-90275665D02*
G75*
G03*
X101189984Y-93508000I1078608J-1672335D01*
G01*
X105634500Y-93508000D02*
X105790500Y-93508000D01*
X107950500Y-93508000D02*
X108106500Y-93508000D01*
X105791892Y-90275665D02*
G75*
G03*
X105634984Y-93508000I1078608J-1672335D01*
G01*
X107949108Y-90275665D02*
G75*
G02*
X108106016Y-93508000I-1078608J-1672335D01*
G01*
X105790663Y-90906870D02*
G75*
G03*
X105790500Y-92988961I1079837J-1041130D01*
G01*
X107950337Y-90906870D02*
G75*
G02*
X107950500Y-92988961I-1079837J-1041130D01*
G01*
X110079500Y-93508000D02*
X110235500Y-93508000D01*
X112395500Y-93508000D02*
X112551500Y-93508000D01*
X110236892Y-90275665D02*
G75*
G03*
X110079984Y-93508000I1078608J-1672335D01*
G01*
X112394108Y-90275665D02*
G75*
G02*
X112551016Y-93508000I-1078608J-1672335D01*
G01*
X110235663Y-90906870D02*
G75*
G03*
X110235500Y-92988961I1079837J-1041130D01*
G01*
X112395337Y-90906870D02*
G75*
G02*
X112395500Y-92988961I-1079837J-1041130D01*
G01*
X116840500Y-93508000D02*
X116996500Y-93508000D01*
X114524500Y-93508000D02*
X114680500Y-93508000D01*
X116840337Y-90906870D02*
G75*
G02*
X116840500Y-92988961I-1079837J-1041130D01*
G01*
X114680663Y-90906870D02*
G75*
G03*
X114680500Y-92988961I1079837J-1041130D01*
G01*
X116839108Y-90275665D02*
G75*
G02*
X116996016Y-93508000I-1078608J-1672335D01*
G01*
X114681892Y-90275665D02*
G75*
G03*
X114524984Y-93508000I1078608J-1672335D01*
G01*
X121285500Y-93508000D02*
X121441500Y-93508000D01*
X118969500Y-93508000D02*
X119125500Y-93508000D01*
X121285337Y-90906870D02*
G75*
G02*
X121285500Y-92988961I-1079837J-1041130D01*
G01*
X119125663Y-90906870D02*
G75*
G03*
X119125500Y-92988961I1079837J-1041130D01*
G01*
X121284108Y-90275665D02*
G75*
G02*
X121441016Y-93508000I-1078608J-1672335D01*
G01*
X119126892Y-90275665D02*
G75*
G03*
X118969984Y-93508000I1078608J-1672335D01*
G01*
X123541500Y-93508000D02*
X123697500Y-93508000D01*
X125857500Y-93508000D02*
X126013500Y-93508000D01*
X123698892Y-90275665D02*
G75*
G03*
X123541984Y-93508000I1078608J-1672335D01*
G01*
X125856108Y-90275665D02*
G75*
G02*
X126013016Y-93508000I-1078608J-1672335D01*
G01*
X123697663Y-90906870D02*
G75*
G03*
X123697500Y-92988961I1079837J-1041130D01*
G01*
X125857337Y-90906870D02*
G75*
G02*
X125857500Y-92988961I-1079837J-1041130D01*
G01*
X130302500Y-93508000D02*
X130458500Y-93508000D01*
X127986500Y-93508000D02*
X128142500Y-93508000D01*
X130302337Y-90906870D02*
G75*
G02*
X130302500Y-92988961I-1079837J-1041130D01*
G01*
X128142663Y-90906870D02*
G75*
G03*
X128142500Y-92988961I1079837J-1041130D01*
G01*
X130301108Y-90275665D02*
G75*
G02*
X130458016Y-93508000I-1078608J-1672335D01*
G01*
X128143892Y-90275665D02*
G75*
G03*
X127986984Y-93508000I1078608J-1672335D01*
G01*
X132431500Y-93508000D02*
X132587500Y-93508000D01*
X134747500Y-93508000D02*
X134903500Y-93508000D01*
X132588892Y-90275665D02*
G75*
G03*
X132431984Y-93508000I1078608J-1672335D01*
G01*
X134746108Y-90275665D02*
G75*
G02*
X134903016Y-93508000I-1078608J-1672335D01*
G01*
X132587663Y-90906870D02*
G75*
G03*
X132587500Y-92988961I1079837J-1041130D01*
G01*
X134747337Y-90906870D02*
G75*
G02*
X134747500Y-92988961I-1079837J-1041130D01*
G01*
X154085001Y-135164000D02*
X154241001Y-135164000D01*
X156401001Y-135164000D02*
X156557001Y-135164000D01*
X154242393Y-131931665D02*
G75*
G03*
X154085485Y-135164000I1078608J-1672335D01*
G01*
X156399609Y-131931665D02*
G75*
G02*
X156556517Y-135164000I-1078608J-1672335D01*
G01*
X154241164Y-132562870D02*
G75*
G03*
X154241001Y-134644961I1079837J-1041130D01*
G01*
X156400838Y-132562870D02*
G75*
G02*
X156401001Y-134644961I-1079837J-1041130D01*
G01*
X160846000Y-135163999D02*
X161002000Y-135163999D01*
X158530000Y-135163999D02*
X158686000Y-135163999D01*
X160845837Y-132562869D02*
G75*
G02*
X160846000Y-134644960I-1079837J-1041130D01*
G01*
X158686163Y-132562869D02*
G75*
G03*
X158686000Y-134644960I1079837J-1041130D01*
G01*
X160844608Y-131931664D02*
G75*
G02*
X161001516Y-135163999I-1078608J-1672335D01*
G01*
X158687392Y-131931664D02*
G75*
G03*
X158530484Y-135163999I1078608J-1672335D01*
G01*
X162975000Y-135163999D02*
X163131000Y-135163999D01*
X165291000Y-135163999D02*
X165447000Y-135163999D01*
X163132392Y-131931664D02*
G75*
G03*
X162975484Y-135163999I1078608J-1672335D01*
G01*
X165289608Y-131931664D02*
G75*
G02*
X165446516Y-135163999I-1078608J-1672335D01*
G01*
X163131163Y-132562869D02*
G75*
G03*
X163131000Y-134644960I1079837J-1041130D01*
G01*
X165290837Y-132562869D02*
G75*
G02*
X165291000Y-134644960I-1079837J-1041130D01*
G01*
X169736000Y-135163999D02*
X169892000Y-135163999D01*
X167420000Y-135163999D02*
X167576000Y-135163999D01*
X169735837Y-132562869D02*
G75*
G02*
X169736000Y-134644960I-1079837J-1041130D01*
G01*
X167576163Y-132562869D02*
G75*
G03*
X167576000Y-134644960I1079837J-1041130D01*
G01*
X169734608Y-131931664D02*
G75*
G02*
X169891516Y-135163999I-1078608J-1672335D01*
G01*
X167577392Y-131931664D02*
G75*
G03*
X167420484Y-135163999I1078608J-1672335D01*
G01*
X174181000Y-135164000D02*
X174337000Y-135164000D01*
X171865000Y-135164000D02*
X172021000Y-135164000D01*
X174180837Y-132562870D02*
G75*
G02*
X174181000Y-134644961I-1079837J-1041130D01*
G01*
X172021163Y-132562870D02*
G75*
G03*
X172021000Y-134644961I1079837J-1041130D01*
G01*
X174179608Y-131931665D02*
G75*
G02*
X174336516Y-135164000I-1078608J-1672335D01*
G01*
X172022392Y-131931665D02*
G75*
G03*
X171865484Y-135164000I1078608J-1672335D01*
G01*
X176310000Y-135164000D02*
X176466000Y-135164000D01*
X178626000Y-135164000D02*
X178782000Y-135164000D01*
X176467392Y-131931665D02*
G75*
G03*
X176310484Y-135164000I1078608J-1672335D01*
G01*
X178624608Y-131931665D02*
G75*
G02*
X178781516Y-135164000I-1078608J-1672335D01*
G01*
X176466163Y-132562870D02*
G75*
G03*
X176466000Y-134644961I1079837J-1041130D01*
G01*
X178625837Y-132562870D02*
G75*
G02*
X178626000Y-134644961I-1079837J-1041130D01*
G01*
X180755000Y-135164000D02*
X180911000Y-135164000D01*
X183071000Y-135164000D02*
X183227000Y-135164000D01*
X180912392Y-131931665D02*
G75*
G03*
X180755484Y-135164000I1078608J-1672335D01*
G01*
X183069608Y-131931665D02*
G75*
G02*
X183226516Y-135164000I-1078608J-1672335D01*
G01*
X180911163Y-132562870D02*
G75*
G03*
X180911000Y-134644961I1079837J-1041130D01*
G01*
X183070837Y-132562870D02*
G75*
G02*
X183071000Y-134644961I-1079837J-1041130D01*
G01*
X187516000Y-135164000D02*
X187672000Y-135164000D01*
X185200000Y-135164000D02*
X185356000Y-135164000D01*
X187515837Y-132562870D02*
G75*
G02*
X187516000Y-134644961I-1079837J-1041130D01*
G01*
X185356163Y-132562870D02*
G75*
G03*
X185356000Y-134644961I1079837J-1041130D01*
G01*
X187514608Y-131931665D02*
G75*
G02*
X187671516Y-135164000I-1078608J-1672335D01*
G01*
X185357392Y-131931665D02*
G75*
G03*
X185200484Y-135164000I1078608J-1672335D01*
G01*
X156400999Y-93762000D02*
X156556999Y-93762000D01*
X154084999Y-93762000D02*
X154240999Y-93762000D01*
X156400836Y-91160870D02*
G75*
G02*
X156400999Y-93242961I-1079837J-1041130D01*
G01*
X154241162Y-91160870D02*
G75*
G03*
X154240999Y-93242961I1079837J-1041130D01*
G01*
X156399607Y-90529665D02*
G75*
G02*
X156556515Y-93762000I-1078608J-1672335D01*
G01*
X154242391Y-90529665D02*
G75*
G03*
X154085483Y-93762000I1078608J-1672335D01*
G01*
X158530000Y-93762001D02*
X158686000Y-93762001D01*
X160846000Y-93762001D02*
X161002000Y-93762001D01*
X158687392Y-90529666D02*
G75*
G03*
X158530484Y-93762001I1078608J-1672335D01*
G01*
X160844608Y-90529666D02*
G75*
G02*
X161001516Y-93762001I-1078608J-1672335D01*
G01*
X158686163Y-91160871D02*
G75*
G03*
X158686000Y-93242962I1079837J-1041130D01*
G01*
X160845837Y-91160871D02*
G75*
G02*
X160846000Y-93242962I-1079837J-1041130D01*
G01*
X165291000Y-93762001D02*
X165447000Y-93762001D01*
X162975000Y-93762001D02*
X163131000Y-93762001D01*
X165290837Y-91160871D02*
G75*
G02*
X165291000Y-93242962I-1079837J-1041130D01*
G01*
X163131163Y-91160871D02*
G75*
G03*
X163131000Y-93242962I1079837J-1041130D01*
G01*
X165289608Y-90529666D02*
G75*
G02*
X165446516Y-93762001I-1078608J-1672335D01*
G01*
X163132392Y-90529666D02*
G75*
G03*
X162975484Y-93762001I1078608J-1672335D01*
G01*
X167420000Y-93762000D02*
X167576000Y-93762000D01*
X169736000Y-93762000D02*
X169892000Y-93762000D01*
X167577392Y-90529665D02*
G75*
G03*
X167420484Y-93762000I1078608J-1672335D01*
G01*
X169734608Y-90529665D02*
G75*
G02*
X169891516Y-93762000I-1078608J-1672335D01*
G01*
X167576163Y-91160870D02*
G75*
G03*
X167576000Y-93242961I1079837J-1041130D01*
G01*
X169735837Y-91160870D02*
G75*
G02*
X169736000Y-93242961I-1079837J-1041130D01*
G01*
X171865000Y-93762000D02*
X172021000Y-93762000D01*
X174181000Y-93762000D02*
X174337000Y-93762000D01*
X172022392Y-90529665D02*
G75*
G03*
X171865484Y-93762000I1078608J-1672335D01*
G01*
X174179608Y-90529665D02*
G75*
G02*
X174336516Y-93762000I-1078608J-1672335D01*
G01*
X172021163Y-91160870D02*
G75*
G03*
X172021000Y-93242961I1079837J-1041130D01*
G01*
X174180837Y-91160870D02*
G75*
G02*
X174181000Y-93242961I-1079837J-1041130D01*
G01*
X178626000Y-93762000D02*
X178782000Y-93762000D01*
X176310000Y-93762000D02*
X176466000Y-93762000D01*
X178625837Y-91160870D02*
G75*
G02*
X178626000Y-93242961I-1079837J-1041130D01*
G01*
X176466163Y-91160870D02*
G75*
G03*
X176466000Y-93242961I1079837J-1041130D01*
G01*
X178624608Y-90529665D02*
G75*
G02*
X178781516Y-93762000I-1078608J-1672335D01*
G01*
X176467392Y-90529665D02*
G75*
G03*
X176310484Y-93762000I1078608J-1672335D01*
G01*
X183071000Y-93762000D02*
X183227000Y-93762000D01*
X180755000Y-93762000D02*
X180911000Y-93762000D01*
X183070837Y-91160870D02*
G75*
G02*
X183071000Y-93242961I-1079837J-1041130D01*
G01*
X180911163Y-91160870D02*
G75*
G03*
X180911000Y-93242961I1079837J-1041130D01*
G01*
X183069608Y-90529665D02*
G75*
G02*
X183226516Y-93762000I-1078608J-1672335D01*
G01*
X180912392Y-90529665D02*
G75*
G03*
X180755484Y-93762000I1078608J-1672335D01*
G01*
X185200000Y-93762001D02*
X185356000Y-93762001D01*
X187516000Y-93762001D02*
X187672000Y-93762001D01*
X185357392Y-90529666D02*
G75*
G03*
X185200484Y-93762001I1078608J-1672335D01*
G01*
X187514608Y-90529666D02*
G75*
G02*
X187671516Y-93762001I-1078608J-1672335D01*
G01*
X185356163Y-91160871D02*
G75*
G03*
X185356000Y-93242962I1079837J-1041130D01*
G01*
X187515837Y-91160871D02*
G75*
G02*
X187516000Y-93242962I-1079837J-1041130D01*
G01*
X103315000Y-134910000D02*
X103471000Y-134910000D01*
X100999000Y-134910000D02*
X101155000Y-134910000D01*
X103314837Y-132308870D02*
G75*
G02*
X103315000Y-134390961I-1079837J-1041130D01*
G01*
X101155163Y-132308870D02*
G75*
G03*
X101155000Y-134390961I1079837J-1041130D01*
G01*
X103313608Y-131677665D02*
G75*
G02*
X103470516Y-134910000I-1078608J-1672335D01*
G01*
X101156392Y-131677665D02*
G75*
G03*
X100999484Y-134910000I1078608J-1672335D01*
G01*
X105444000Y-134910000D02*
X105600000Y-134910000D01*
X107760000Y-134910000D02*
X107916000Y-134910000D01*
X105601392Y-131677665D02*
G75*
G03*
X105444484Y-134910000I1078608J-1672335D01*
G01*
X107758608Y-131677665D02*
G75*
G02*
X107915516Y-134910000I-1078608J-1672335D01*
G01*
X105600163Y-132308870D02*
G75*
G03*
X105600000Y-134390961I1079837J-1041130D01*
G01*
X107759837Y-132308870D02*
G75*
G02*
X107760000Y-134390961I-1079837J-1041130D01*
G01*
X112205000Y-134910000D02*
X112361000Y-134910000D01*
X109889000Y-134910000D02*
X110045000Y-134910000D01*
X112204837Y-132308870D02*
G75*
G02*
X112205000Y-134390961I-1079837J-1041130D01*
G01*
X110045163Y-132308870D02*
G75*
G03*
X110045000Y-134390961I1079837J-1041130D01*
G01*
X112203608Y-131677665D02*
G75*
G02*
X112360516Y-134910000I-1078608J-1672335D01*
G01*
X110046392Y-131677665D02*
G75*
G03*
X109889484Y-134910000I1078608J-1672335D01*
G01*
X114334000Y-134910000D02*
X114490000Y-134910000D01*
X116650000Y-134910000D02*
X116806000Y-134910000D01*
X114491392Y-131677665D02*
G75*
G03*
X114334484Y-134910000I1078608J-1672335D01*
G01*
X116648608Y-131677665D02*
G75*
G02*
X116805516Y-134910000I-1078608J-1672335D01*
G01*
X114490163Y-132308870D02*
G75*
G03*
X114490000Y-134390961I1079837J-1041130D01*
G01*
X116649837Y-132308870D02*
G75*
G02*
X116650000Y-134390961I-1079837J-1041130D01*
G01*
X118779000Y-134910000D02*
X118935000Y-134910000D01*
X121095000Y-134910000D02*
X121251000Y-134910000D01*
X118936392Y-131677665D02*
G75*
G03*
X118779484Y-134910000I1078608J-1672335D01*
G01*
X121093608Y-131677665D02*
G75*
G02*
X121250516Y-134910000I-1078608J-1672335D01*
G01*
X118935163Y-132308870D02*
G75*
G03*
X118935000Y-134390961I1079837J-1041130D01*
G01*
X121094837Y-132308870D02*
G75*
G02*
X121095000Y-134390961I-1079837J-1041130D01*
G01*
X125540000Y-134910000D02*
X125696000Y-134910000D01*
X123224000Y-134910000D02*
X123380000Y-134910000D01*
X125539837Y-132308870D02*
G75*
G02*
X125540000Y-134390961I-1079837J-1041130D01*
G01*
X123380163Y-132308870D02*
G75*
G03*
X123380000Y-134390961I1079837J-1041130D01*
G01*
X125538608Y-131677665D02*
G75*
G02*
X125695516Y-134910000I-1078608J-1672335D01*
G01*
X123381392Y-131677665D02*
G75*
G03*
X123224484Y-134910000I1078608J-1672335D01*
G01*
X104585788Y-96160257D02*
X103665788Y-97753743D01*
X103665788Y-97753743D02*
X106991326Y-99673743D01*
X106991326Y-99673743D02*
X107911326Y-98080257D01*
X107911326Y-98080257D02*
X104585788Y-96160257D01*
X103303064Y-96482000D02*
X104125788Y-96957000D01*
X108274050Y-99352000D02*
X107451326Y-98877000D01*
X113475788Y-96160257D02*
X112555788Y-97753743D01*
X112555788Y-97753743D02*
X115881326Y-99673743D01*
X115881326Y-99673743D02*
X116801326Y-98080257D01*
X116801326Y-98080257D02*
X113475788Y-96160257D01*
X112193064Y-96482000D02*
X113015788Y-96957000D01*
X117164050Y-99352000D02*
X116341326Y-98877000D01*
X122365788Y-96160257D02*
X121445788Y-97753743D01*
X121445788Y-97753743D02*
X124771326Y-99673743D01*
X124771326Y-99673743D02*
X125691326Y-98080257D01*
X125691326Y-98080257D02*
X122365788Y-96160257D01*
X121083064Y-96482000D02*
X121905788Y-96957000D01*
X126054050Y-99352000D02*
X125231326Y-98877000D01*
X130499050Y-99352000D02*
X129676326Y-98877000D01*
X125528064Y-96482000D02*
X126350788Y-96957000D01*
X130136326Y-98080257D02*
X126810788Y-96160257D01*
X129216326Y-99673743D02*
X130136326Y-98080257D01*
X125890788Y-97753743D02*
X129216326Y-99673743D01*
X126810788Y-96160257D02*
X125890788Y-97753743D01*
X131255788Y-96160257D02*
X130335788Y-97753743D01*
X130335788Y-97753743D02*
X133661326Y-99673743D01*
X133661326Y-99673743D02*
X134581326Y-98080257D01*
X134581326Y-98080257D02*
X131255788Y-96160257D01*
X129973064Y-96482000D02*
X130795788Y-96957000D01*
X134944050Y-99352000D02*
X134121326Y-98877000D01*
X149535951Y-140881000D02*
X150358675Y-140406000D01*
X154506937Y-138011000D02*
X153684213Y-138486000D01*
X150818675Y-141202743D02*
X154144213Y-139282743D01*
X149898675Y-139609257D02*
X150818675Y-141202743D01*
X153224213Y-137689257D02*
X149898675Y-139609257D01*
X154144213Y-139282743D02*
X153224213Y-137689257D01*
X158589212Y-139282743D02*
X157669212Y-137689257D01*
X157669212Y-137689257D02*
X154343674Y-139609257D01*
X154343674Y-139609257D02*
X155263674Y-141202743D01*
X155263674Y-141202743D02*
X158589212Y-139282743D01*
X158951936Y-138011000D02*
X158129212Y-138486000D01*
X153980950Y-140881000D02*
X154803674Y-140406000D01*
X158425950Y-140881000D02*
X159248674Y-140406000D01*
X163396936Y-138011000D02*
X162574212Y-138486000D01*
X159708674Y-141202743D02*
X163034212Y-139282743D01*
X158788674Y-139609257D02*
X159708674Y-141202743D01*
X162114212Y-137689257D02*
X158788674Y-139609257D01*
X163034212Y-139282743D02*
X162114212Y-137689257D01*
X167479212Y-139237745D02*
X166559212Y-137644259D01*
X166559212Y-137644259D02*
X163233674Y-139564259D01*
X163233674Y-139564259D02*
X164153674Y-141157745D01*
X164153674Y-141157745D02*
X167479212Y-139237745D01*
X167841936Y-137966002D02*
X167019212Y-138441002D01*
X162870950Y-140836002D02*
X163693674Y-140361002D01*
X167315950Y-140881000D02*
X168138674Y-140406000D01*
X172286936Y-138011000D02*
X171464212Y-138486000D01*
X168598674Y-141202743D02*
X171924212Y-139282743D01*
X167678674Y-139609257D02*
X168598674Y-141202743D01*
X171004212Y-137689257D02*
X167678674Y-139609257D01*
X171924212Y-139282743D02*
X171004212Y-137689257D01*
X176369212Y-139282743D02*
X175449212Y-137689257D01*
X175449212Y-137689257D02*
X172123674Y-139609257D01*
X172123674Y-139609257D02*
X173043674Y-141202743D01*
X173043674Y-141202743D02*
X176369212Y-139282743D01*
X176731936Y-138011000D02*
X175909212Y-138486000D01*
X171760950Y-140881000D02*
X172583674Y-140406000D01*
X176205950Y-140881000D02*
X177028674Y-140406000D01*
X181176936Y-138011000D02*
X180354212Y-138486000D01*
X177488674Y-141202743D02*
X180814212Y-139282743D01*
X176568674Y-139609257D02*
X177488674Y-141202743D01*
X179894212Y-137689257D02*
X176568674Y-139609257D01*
X180814212Y-139282743D02*
X179894212Y-137689257D01*
X185259212Y-139282743D02*
X184339212Y-137689257D01*
X184339212Y-137689257D02*
X181013674Y-139609257D01*
X181013674Y-139609257D02*
X181933674Y-141202743D01*
X181933674Y-141202743D02*
X185259212Y-139282743D01*
X185621936Y-138011000D02*
X184799212Y-138486000D01*
X180650950Y-140881000D02*
X181473674Y-140406000D01*
X149535950Y-99479000D02*
X150358674Y-99004000D01*
X154506936Y-96609000D02*
X153684212Y-97084000D01*
X150818674Y-99800743D02*
X154144212Y-97880743D01*
X149898674Y-98207257D02*
X150818674Y-99800743D01*
X153224212Y-96287257D02*
X149898674Y-98207257D01*
X154144212Y-97880743D02*
X153224212Y-96287257D01*
X158589212Y-97880743D02*
X157669212Y-96287257D01*
X157669212Y-96287257D02*
X154343674Y-98207257D01*
X154343674Y-98207257D02*
X155263674Y-99800743D01*
X155263674Y-99800743D02*
X158589212Y-97880743D01*
X158951936Y-96609000D02*
X158129212Y-97084000D01*
X153980950Y-99479000D02*
X154803674Y-99004000D01*
X163034212Y-97880743D02*
X162114212Y-96287257D01*
X162114212Y-96287257D02*
X158788674Y-98207257D01*
X158788674Y-98207257D02*
X159708674Y-99800743D01*
X159708674Y-99800743D02*
X163034212Y-97880743D01*
X163396936Y-96609000D02*
X162574212Y-97084000D01*
X158425950Y-99479000D02*
X159248674Y-99004000D01*
X167479212Y-97880743D02*
X166559212Y-96287257D01*
X166559212Y-96287257D02*
X163233674Y-98207257D01*
X163233674Y-98207257D02*
X164153674Y-99800743D01*
X164153674Y-99800743D02*
X167479212Y-97880743D01*
X167841936Y-96609000D02*
X167019212Y-97084000D01*
X162870950Y-99479000D02*
X163693674Y-99004000D01*
X167315950Y-99479000D02*
X168138674Y-99004000D01*
X172286936Y-96609000D02*
X171464212Y-97084000D01*
X168598674Y-99800743D02*
X171924212Y-97880743D01*
X167678674Y-98207257D02*
X168598674Y-99800743D01*
X171004212Y-96287257D02*
X167678674Y-98207257D01*
X171924212Y-97880743D02*
X171004212Y-96287257D01*
X176369212Y-97880743D02*
X175449212Y-96287257D01*
X175449212Y-96287257D02*
X172123674Y-98207257D01*
X172123674Y-98207257D02*
X173043674Y-99800743D01*
X173043674Y-99800743D02*
X176369212Y-97880743D01*
X176731936Y-96609000D02*
X175909212Y-97084000D01*
X171760950Y-99479000D02*
X172583674Y-99004000D01*
X176205950Y-99479000D02*
X177028674Y-99004000D01*
X181176936Y-96609000D02*
X180354212Y-97084000D01*
X177488674Y-99800743D02*
X180814212Y-97880743D01*
X176568674Y-98207257D02*
X177488674Y-99800743D01*
X179894212Y-96287257D02*
X176568674Y-98207257D01*
X180814212Y-97880743D02*
X179894212Y-96287257D01*
X185259212Y-97880743D02*
X184339212Y-96287257D01*
X184339212Y-96287257D02*
X181013674Y-98207257D01*
X181013674Y-98207257D02*
X181933674Y-99800743D01*
X181933674Y-99800743D02*
X185259212Y-97880743D01*
X185621936Y-96609000D02*
X184799212Y-97084000D01*
X180650950Y-99479000D02*
X181473674Y-99004000D01*
X108020050Y-140881000D02*
X107197326Y-140406000D01*
X103049064Y-138011000D02*
X103871788Y-138486000D01*
X107657326Y-139609257D02*
X104331788Y-137689257D01*
X106737326Y-141202743D02*
X107657326Y-139609257D01*
X103411788Y-139282743D02*
X106737326Y-141202743D01*
X104331788Y-137689257D02*
X103411788Y-139282743D01*
X112465050Y-140881000D02*
X111642326Y-140406000D01*
X107494064Y-138011000D02*
X108316788Y-138486000D01*
X112102326Y-139609257D02*
X108776788Y-137689257D01*
X111182326Y-141202743D02*
X112102326Y-139609257D01*
X107856788Y-139282743D02*
X111182326Y-141202743D01*
X108776788Y-137689257D02*
X107856788Y-139282743D01*
X113221788Y-137689257D02*
X112301788Y-139282743D01*
X112301788Y-139282743D02*
X115627326Y-141202743D01*
X115627326Y-141202743D02*
X116547326Y-139609257D01*
X116547326Y-139609257D02*
X113221788Y-137689257D01*
X111939064Y-138011000D02*
X112761788Y-138486000D01*
X116910050Y-140881000D02*
X116087326Y-140406000D01*
X121355050Y-140881000D02*
X120532326Y-140406000D01*
X116384064Y-138011000D02*
X117206788Y-138486000D01*
X120992326Y-139609257D02*
X117666788Y-137689257D01*
X120072326Y-141202743D02*
X120992326Y-139609257D01*
X116746788Y-139282743D02*
X120072326Y-141202743D01*
X117666788Y-137689257D02*
X116746788Y-139282743D01*
X122111788Y-137689257D02*
X121191788Y-139282743D01*
X121191788Y-139282743D02*
X124517326Y-141202743D01*
X124517326Y-141202743D02*
X125437326Y-139609257D01*
X125437326Y-139609257D02*
X122111788Y-137689257D01*
X120829064Y-138011000D02*
X121651788Y-138486000D01*
X125800050Y-140881000D02*
X124977326Y-140406000D01*
X130245050Y-140881000D02*
X129422326Y-140406000D01*
X125274064Y-138011000D02*
X126096788Y-138486000D01*
X129882326Y-139609257D02*
X126556788Y-137689257D01*
X128962326Y-141202743D02*
X129882326Y-139609257D01*
X125636788Y-139282743D02*
X128962326Y-141202743D01*
X126556788Y-137689257D02*
X125636788Y-139282743D01*
X131001788Y-137689257D02*
X130081788Y-139282743D01*
X130081788Y-139282743D02*
X133407326Y-141202743D01*
X133407326Y-141202743D02*
X134327326Y-139609257D01*
X134327326Y-139609257D02*
X131001788Y-137689257D01*
X129719064Y-138011000D02*
X130541788Y-138486000D01*
X134690050Y-140881000D02*
X133867326Y-140406000D01*
X139135050Y-140881000D02*
X138312326Y-140406000D01*
X134164064Y-138011000D02*
X134986788Y-138486000D01*
X138772326Y-139609257D02*
X135446788Y-137689257D01*
X137852326Y-141202743D02*
X138772326Y-139609257D01*
X134526788Y-139282743D02*
X137852326Y-141202743D01*
X135446788Y-137689257D02*
X134526788Y-139282743D01*
X174514000Y-102429000D02*
X172864000Y-102429000D01*
X172864000Y-102429000D02*
X172864000Y-127949000D01*
X172864000Y-127949000D02*
X178164000Y-127949000D01*
X178164000Y-127949000D02*
X178164000Y-102429000D01*
X178164000Y-102429000D02*
X176514000Y-102429000D01*
X176514000Y-102429000D02*
G75*
G02*
X174514000Y-102429000I-1000000J0D01*
G01*
X156988000Y-102429000D02*
X155338000Y-102429000D01*
X155338000Y-102429000D02*
X155338000Y-127949000D01*
X155338000Y-127949000D02*
X160638000Y-127949000D01*
X160638000Y-127949000D02*
X160638000Y-102429000D01*
X160638000Y-102429000D02*
X158988000Y-102429000D01*
X158988000Y-102429000D02*
G75*
G02*
X156988000Y-102429000I-1000000J0D01*
G01*
X104156000Y-102175000D02*
X102506000Y-102175000D01*
X102506000Y-102175000D02*
X102506000Y-127695000D01*
X102506000Y-127695000D02*
X107806000Y-127695000D01*
X107806000Y-127695000D02*
X107806000Y-102175000D01*
X107806000Y-102175000D02*
X106156000Y-102175000D01*
X106156000Y-102175000D02*
G75*
G02*
X104156000Y-102175000I-1000000J0D01*
G01*
D12*
X136533028Y-98225440D02*
X136482449Y-97646380D01*
X136038157Y-97939725D02*
X136538157Y-97073700D01*
X136868071Y-97264176D01*
X136926740Y-97353034D01*
X136944170Y-97418083D01*
X136937790Y-97524371D01*
X136866362Y-97648089D01*
X136777503Y-97706758D01*
X136712455Y-97724188D01*
X136606166Y-97717808D01*
X136276252Y-97527332D01*
X137313614Y-98016282D02*
X137254945Y-97927424D01*
X137237516Y-97862375D01*
X137243895Y-97756087D01*
X137267705Y-97714848D01*
X137356563Y-97656178D01*
X137421612Y-97638749D01*
X137527900Y-97645128D01*
X137692857Y-97740367D01*
X137751526Y-97829225D01*
X137768956Y-97894274D01*
X137762576Y-98000562D01*
X137738767Y-98041801D01*
X137649909Y-98100470D01*
X137584860Y-98117900D01*
X137478572Y-98111520D01*
X137313614Y-98016282D01*
X137207326Y-98009902D01*
X137142277Y-98027332D01*
X137053419Y-98086001D01*
X136958181Y-98250959D01*
X136951801Y-98357247D01*
X136969231Y-98422295D01*
X137027900Y-98511154D01*
X137192857Y-98606392D01*
X137299145Y-98612772D01*
X137364194Y-98595342D01*
X137453053Y-98536673D01*
X137548291Y-98371716D01*
X137554670Y-98265427D01*
X137537241Y-98200379D01*
X137478572Y-98111520D01*
X109863028Y-98225440D02*
X109812449Y-97646380D01*
X109368157Y-97939725D02*
X109868157Y-97073700D01*
X110198071Y-97264176D01*
X110256740Y-97353034D01*
X110274170Y-97418083D01*
X110267790Y-97524371D01*
X110196362Y-97648089D01*
X110107503Y-97706758D01*
X110042455Y-97724188D01*
X109936166Y-97717808D01*
X109606252Y-97527332D01*
X110645324Y-97632369D02*
X110710373Y-97614939D01*
X110816661Y-97621319D01*
X111022857Y-97740367D01*
X111081526Y-97829225D01*
X111098956Y-97894274D01*
X111092576Y-98000562D01*
X111044957Y-98083040D01*
X110932290Y-98182949D01*
X110151704Y-98392106D01*
X110687815Y-98701630D01*
X132199214Y-130817880D02*
X132199214Y-129817880D01*
X132437309Y-129817880D01*
X132580166Y-129865500D01*
X132675404Y-129960738D01*
X132723023Y-130055976D01*
X132770642Y-130246452D01*
X132770642Y-130389309D01*
X132723023Y-130579785D01*
X132675404Y-130675023D01*
X132580166Y-130770261D01*
X132437309Y-130817880D01*
X132199214Y-130817880D01*
X133103976Y-129817880D02*
X133723023Y-129817880D01*
X133389690Y-130198833D01*
X133532547Y-130198833D01*
X133627785Y-130246452D01*
X133675404Y-130294071D01*
X133723023Y-130389309D01*
X133723023Y-130627404D01*
X133675404Y-130722642D01*
X133627785Y-130770261D01*
X133532547Y-130817880D01*
X133246833Y-130817880D01*
X133151595Y-130770261D01*
X133103976Y-130722642D01*
X134675404Y-130817880D02*
X134103976Y-130817880D01*
X134389690Y-130817880D02*
X134389690Y-129817880D01*
X134294452Y-129960738D01*
X134199214Y-130055976D01*
X134103976Y-130103595D01*
X127690714Y-130817880D02*
X127690714Y-129817880D01*
X127928809Y-129817880D01*
X128071666Y-129865500D01*
X128166904Y-129960738D01*
X128214523Y-130055976D01*
X128262142Y-130246452D01*
X128262142Y-130389309D01*
X128214523Y-130579785D01*
X128166904Y-130675023D01*
X128071666Y-130770261D01*
X127928809Y-130817880D01*
X127690714Y-130817880D01*
X128595476Y-129817880D02*
X129214523Y-129817880D01*
X128881190Y-130198833D01*
X129024047Y-130198833D01*
X129119285Y-130246452D01*
X129166904Y-130294071D01*
X129214523Y-130389309D01*
X129214523Y-130627404D01*
X129166904Y-130722642D01*
X129119285Y-130770261D01*
X129024047Y-130817880D01*
X128738333Y-130817880D01*
X128643095Y-130770261D01*
X128595476Y-130722642D01*
X129833571Y-129817880D02*
X129928809Y-129817880D01*
X130024047Y-129865500D01*
X130071666Y-129913119D01*
X130119285Y-130008357D01*
X130166904Y-130198833D01*
X130166904Y-130436928D01*
X130119285Y-130627404D01*
X130071666Y-130722642D01*
X130024047Y-130770261D01*
X129928809Y-130817880D01*
X129833571Y-130817880D01*
X129738333Y-130770261D01*
X129690714Y-130722642D01*
X129643095Y-130627404D01*
X129595476Y-130436928D01*
X129595476Y-130198833D01*
X129643095Y-130008357D01*
X129690714Y-129913119D01*
X129738333Y-129865500D01*
X129833571Y-129817880D01*
X118880028Y-98005470D02*
X118829449Y-97426410D01*
X118385157Y-97719755D02*
X118885157Y-96853730D01*
X119215071Y-97044206D01*
X119273740Y-97133064D01*
X119291170Y-97198113D01*
X119284790Y-97304401D01*
X119213362Y-97428119D01*
X119124503Y-97486788D01*
X119059455Y-97504218D01*
X118953166Y-97497838D01*
X118623252Y-97307362D01*
X119955669Y-97856691D02*
X119622336Y-98434041D01*
X119939949Y-97407729D02*
X119376610Y-97907271D01*
X119912721Y-98216794D01*
X101687404Y-89352380D02*
X101687404Y-88352380D01*
X101925500Y-88352380D01*
X102068357Y-88400000D01*
X102163595Y-88495238D01*
X102211214Y-88590476D01*
X102258833Y-88780952D01*
X102258833Y-88923809D01*
X102211214Y-89114285D01*
X102163595Y-89209523D01*
X102068357Y-89304761D01*
X101925500Y-89352380D01*
X101687404Y-89352380D01*
X102877880Y-88352380D02*
X102973119Y-88352380D01*
X103068357Y-88400000D01*
X103115976Y-88447619D01*
X103163595Y-88542857D01*
X103211214Y-88733333D01*
X103211214Y-88971428D01*
X103163595Y-89161904D01*
X103115976Y-89257142D01*
X103068357Y-89304761D01*
X102973119Y-89352380D01*
X102877880Y-89352380D01*
X102782642Y-89304761D01*
X102735023Y-89257142D01*
X102687404Y-89161904D01*
X102639785Y-88971428D01*
X102639785Y-88733333D01*
X102687404Y-88542857D01*
X102735023Y-88447619D01*
X102782642Y-88400000D01*
X102877880Y-88352380D01*
X106132404Y-89415880D02*
X106132404Y-88415880D01*
X106370500Y-88415880D01*
X106513357Y-88463500D01*
X106608595Y-88558738D01*
X106656214Y-88653976D01*
X106703833Y-88844452D01*
X106703833Y-88987309D01*
X106656214Y-89177785D01*
X106608595Y-89273023D01*
X106513357Y-89368261D01*
X106370500Y-89415880D01*
X106132404Y-89415880D01*
X107656214Y-89415880D02*
X107084785Y-89415880D01*
X107370500Y-89415880D02*
X107370500Y-88415880D01*
X107275261Y-88558738D01*
X107180023Y-88653976D01*
X107084785Y-88701595D01*
X110513904Y-89415880D02*
X110513904Y-88415880D01*
X110752000Y-88415880D01*
X110894857Y-88463500D01*
X110990095Y-88558738D01*
X111037714Y-88653976D01*
X111085333Y-88844452D01*
X111085333Y-88987309D01*
X111037714Y-89177785D01*
X110990095Y-89273023D01*
X110894857Y-89368261D01*
X110752000Y-89415880D01*
X110513904Y-89415880D01*
X111466285Y-88511119D02*
X111513904Y-88463500D01*
X111609142Y-88415880D01*
X111847238Y-88415880D01*
X111942476Y-88463500D01*
X111990095Y-88511119D01*
X112037714Y-88606357D01*
X112037714Y-88701595D01*
X111990095Y-88844452D01*
X111418666Y-89415880D01*
X112037714Y-89415880D01*
X114958904Y-89415880D02*
X114958904Y-88415880D01*
X115197000Y-88415880D01*
X115339857Y-88463500D01*
X115435095Y-88558738D01*
X115482714Y-88653976D01*
X115530333Y-88844452D01*
X115530333Y-88987309D01*
X115482714Y-89177785D01*
X115435095Y-89273023D01*
X115339857Y-89368261D01*
X115197000Y-89415880D01*
X114958904Y-89415880D01*
X115863666Y-88415880D02*
X116482714Y-88415880D01*
X116149380Y-88796833D01*
X116292238Y-88796833D01*
X116387476Y-88844452D01*
X116435095Y-88892071D01*
X116482714Y-88987309D01*
X116482714Y-89225404D01*
X116435095Y-89320642D01*
X116387476Y-89368261D01*
X116292238Y-89415880D01*
X116006523Y-89415880D01*
X115911285Y-89368261D01*
X115863666Y-89320642D01*
X119467404Y-89415880D02*
X119467404Y-88415880D01*
X119705500Y-88415880D01*
X119848357Y-88463500D01*
X119943595Y-88558738D01*
X119991214Y-88653976D01*
X120038833Y-88844452D01*
X120038833Y-88987309D01*
X119991214Y-89177785D01*
X119943595Y-89273023D01*
X119848357Y-89368261D01*
X119705500Y-89415880D01*
X119467404Y-89415880D01*
X120895976Y-88749214D02*
X120895976Y-89415880D01*
X120657880Y-88368261D02*
X120419785Y-89082547D01*
X121038833Y-89082547D01*
X124102904Y-89415880D02*
X124102904Y-88415880D01*
X124341000Y-88415880D01*
X124483857Y-88463500D01*
X124579095Y-88558738D01*
X124626714Y-88653976D01*
X124674333Y-88844452D01*
X124674333Y-88987309D01*
X124626714Y-89177785D01*
X124579095Y-89273023D01*
X124483857Y-89368261D01*
X124341000Y-89415880D01*
X124102904Y-89415880D01*
X125579095Y-88415880D02*
X125102904Y-88415880D01*
X125055285Y-88892071D01*
X125102904Y-88844452D01*
X125198142Y-88796833D01*
X125436238Y-88796833D01*
X125531476Y-88844452D01*
X125579095Y-88892071D01*
X125626714Y-88987309D01*
X125626714Y-89225404D01*
X125579095Y-89320642D01*
X125531476Y-89368261D01*
X125436238Y-89415880D01*
X125198142Y-89415880D01*
X125102904Y-89368261D01*
X125055285Y-89320642D01*
X128547904Y-89415880D02*
X128547904Y-88415880D01*
X128786000Y-88415880D01*
X128928857Y-88463500D01*
X129024095Y-88558738D01*
X129071714Y-88653976D01*
X129119333Y-88844452D01*
X129119333Y-88987309D01*
X129071714Y-89177785D01*
X129024095Y-89273023D01*
X128928857Y-89368261D01*
X128786000Y-89415880D01*
X128547904Y-89415880D01*
X129976476Y-88415880D02*
X129786000Y-88415880D01*
X129690761Y-88463500D01*
X129643142Y-88511119D01*
X129547904Y-88653976D01*
X129500285Y-88844452D01*
X129500285Y-89225404D01*
X129547904Y-89320642D01*
X129595523Y-89368261D01*
X129690761Y-89415880D01*
X129881238Y-89415880D01*
X129976476Y-89368261D01*
X130024095Y-89320642D01*
X130071714Y-89225404D01*
X130071714Y-88987309D01*
X130024095Y-88892071D01*
X129976476Y-88844452D01*
X129881238Y-88796833D01*
X129690761Y-88796833D01*
X129595523Y-88844452D01*
X129547904Y-88892071D01*
X129500285Y-88987309D01*
X132992904Y-89415880D02*
X132992904Y-88415880D01*
X133231000Y-88415880D01*
X133373857Y-88463500D01*
X133469095Y-88558738D01*
X133516714Y-88653976D01*
X133564333Y-88844452D01*
X133564333Y-88987309D01*
X133516714Y-89177785D01*
X133469095Y-89273023D01*
X133373857Y-89368261D01*
X133231000Y-89415880D01*
X132992904Y-89415880D01*
X133897666Y-88415880D02*
X134564333Y-88415880D01*
X134135761Y-89415880D01*
X154582904Y-131071880D02*
X154582904Y-130071880D01*
X154821000Y-130071880D01*
X154963857Y-130119500D01*
X155059095Y-130214738D01*
X155106714Y-130309976D01*
X155154333Y-130500452D01*
X155154333Y-130643309D01*
X155106714Y-130833785D01*
X155059095Y-130929023D01*
X154963857Y-131024261D01*
X154821000Y-131071880D01*
X154582904Y-131071880D01*
X155725761Y-130500452D02*
X155630523Y-130452833D01*
X155582904Y-130405214D01*
X155535285Y-130309976D01*
X155535285Y-130262357D01*
X155582904Y-130167119D01*
X155630523Y-130119500D01*
X155725761Y-130071880D01*
X155916238Y-130071880D01*
X156011476Y-130119500D01*
X156059095Y-130167119D01*
X156106714Y-130262357D01*
X156106714Y-130309976D01*
X156059095Y-130405214D01*
X156011476Y-130452833D01*
X155916238Y-130500452D01*
X155725761Y-130500452D01*
X155630523Y-130548071D01*
X155582904Y-130595690D01*
X155535285Y-130690928D01*
X155535285Y-130881404D01*
X155582904Y-130976642D01*
X155630523Y-131024261D01*
X155725761Y-131071880D01*
X155916238Y-131071880D01*
X156011476Y-131024261D01*
X156059095Y-130976642D01*
X156106714Y-130881404D01*
X156106714Y-130690928D01*
X156059095Y-130595690D01*
X156011476Y-130548071D01*
X155916238Y-130500452D01*
X159091404Y-131008380D02*
X159091404Y-130008380D01*
X159329500Y-130008380D01*
X159472357Y-130056000D01*
X159567595Y-130151238D01*
X159615214Y-130246476D01*
X159662833Y-130436952D01*
X159662833Y-130579809D01*
X159615214Y-130770285D01*
X159567595Y-130865523D01*
X159472357Y-130960761D01*
X159329500Y-131008380D01*
X159091404Y-131008380D01*
X160139023Y-131008380D02*
X160329500Y-131008380D01*
X160424738Y-130960761D01*
X160472357Y-130913142D01*
X160567595Y-130770285D01*
X160615214Y-130579809D01*
X160615214Y-130198857D01*
X160567595Y-130103619D01*
X160519976Y-130056000D01*
X160424738Y-130008380D01*
X160234261Y-130008380D01*
X160139023Y-130056000D01*
X160091404Y-130103619D01*
X160043785Y-130198857D01*
X160043785Y-130436952D01*
X160091404Y-130532190D01*
X160139023Y-130579809D01*
X160234261Y-130627428D01*
X160424738Y-130627428D01*
X160519976Y-130579809D01*
X160567595Y-130532190D01*
X160615214Y-130436952D01*
X162996714Y-131071880D02*
X162996714Y-130071880D01*
X163234809Y-130071880D01*
X163377666Y-130119500D01*
X163472904Y-130214738D01*
X163520523Y-130309976D01*
X163568142Y-130500452D01*
X163568142Y-130643309D01*
X163520523Y-130833785D01*
X163472904Y-130929023D01*
X163377666Y-131024261D01*
X163234809Y-131071880D01*
X162996714Y-131071880D01*
X164520523Y-131071880D02*
X163949095Y-131071880D01*
X164234809Y-131071880D02*
X164234809Y-130071880D01*
X164139571Y-130214738D01*
X164044333Y-130309976D01*
X163949095Y-130357595D01*
X165139571Y-130071880D02*
X165234809Y-130071880D01*
X165330047Y-130119500D01*
X165377666Y-130167119D01*
X165425285Y-130262357D01*
X165472904Y-130452833D01*
X165472904Y-130690928D01*
X165425285Y-130881404D01*
X165377666Y-130976642D01*
X165330047Y-131024261D01*
X165234809Y-131071880D01*
X165139571Y-131071880D01*
X165044333Y-131024261D01*
X164996714Y-130976642D01*
X164949095Y-130881404D01*
X164901476Y-130690928D01*
X164901476Y-130452833D01*
X164949095Y-130262357D01*
X164996714Y-130167119D01*
X165044333Y-130119500D01*
X165139571Y-130071880D01*
X167441714Y-131071880D02*
X167441714Y-130071880D01*
X167679809Y-130071880D01*
X167822666Y-130119500D01*
X167917904Y-130214738D01*
X167965523Y-130309976D01*
X168013142Y-130500452D01*
X168013142Y-130643309D01*
X167965523Y-130833785D01*
X167917904Y-130929023D01*
X167822666Y-131024261D01*
X167679809Y-131071880D01*
X167441714Y-131071880D01*
X168965523Y-131071880D02*
X168394095Y-131071880D01*
X168679809Y-131071880D02*
X168679809Y-130071880D01*
X168584571Y-130214738D01*
X168489333Y-130309976D01*
X168394095Y-130357595D01*
X169917904Y-131071880D02*
X169346476Y-131071880D01*
X169632190Y-131071880D02*
X169632190Y-130071880D01*
X169536952Y-130214738D01*
X169441714Y-130309976D01*
X169346476Y-130357595D01*
X171759714Y-131071880D02*
X171759714Y-130071880D01*
X171997809Y-130071880D01*
X172140666Y-130119500D01*
X172235904Y-130214738D01*
X172283523Y-130309976D01*
X172331142Y-130500452D01*
X172331142Y-130643309D01*
X172283523Y-130833785D01*
X172235904Y-130929023D01*
X172140666Y-131024261D01*
X171997809Y-131071880D01*
X171759714Y-131071880D01*
X173283523Y-131071880D02*
X172712095Y-131071880D01*
X172997809Y-131071880D02*
X172997809Y-130071880D01*
X172902571Y-130214738D01*
X172807333Y-130309976D01*
X172712095Y-130357595D01*
X173664476Y-130167119D02*
X173712095Y-130119500D01*
X173807333Y-130071880D01*
X174045428Y-130071880D01*
X174140666Y-130119500D01*
X174188285Y-130167119D01*
X174235904Y-130262357D01*
X174235904Y-130357595D01*
X174188285Y-130500452D01*
X173616857Y-131071880D01*
X174235904Y-131071880D01*
X176331714Y-131071880D02*
X176331714Y-130071880D01*
X176569809Y-130071880D01*
X176712666Y-130119500D01*
X176807904Y-130214738D01*
X176855523Y-130309976D01*
X176903142Y-130500452D01*
X176903142Y-130643309D01*
X176855523Y-130833785D01*
X176807904Y-130929023D01*
X176712666Y-131024261D01*
X176569809Y-131071880D01*
X176331714Y-131071880D01*
X177855523Y-131071880D02*
X177284095Y-131071880D01*
X177569809Y-131071880D02*
X177569809Y-130071880D01*
X177474571Y-130214738D01*
X177379333Y-130309976D01*
X177284095Y-130357595D01*
X178188857Y-130071880D02*
X178807904Y-130071880D01*
X178474571Y-130452833D01*
X178617428Y-130452833D01*
X178712666Y-130500452D01*
X178760285Y-130548071D01*
X178807904Y-130643309D01*
X178807904Y-130881404D01*
X178760285Y-130976642D01*
X178712666Y-131024261D01*
X178617428Y-131071880D01*
X178331714Y-131071880D01*
X178236476Y-131024261D01*
X178188857Y-130976642D01*
X180776714Y-131071880D02*
X180776714Y-130071880D01*
X181014809Y-130071880D01*
X181157666Y-130119500D01*
X181252904Y-130214738D01*
X181300523Y-130309976D01*
X181348142Y-130500452D01*
X181348142Y-130643309D01*
X181300523Y-130833785D01*
X181252904Y-130929023D01*
X181157666Y-131024261D01*
X181014809Y-131071880D01*
X180776714Y-131071880D01*
X182300523Y-131071880D02*
X181729095Y-131071880D01*
X182014809Y-131071880D02*
X182014809Y-130071880D01*
X181919571Y-130214738D01*
X181824333Y-130309976D01*
X181729095Y-130357595D01*
X183157666Y-130405214D02*
X183157666Y-131071880D01*
X182919571Y-130024261D02*
X182681476Y-130738547D01*
X183300523Y-130738547D01*
X185158214Y-131071880D02*
X185158214Y-130071880D01*
X185396309Y-130071880D01*
X185539166Y-130119500D01*
X185634404Y-130214738D01*
X185682023Y-130309976D01*
X185729642Y-130500452D01*
X185729642Y-130643309D01*
X185682023Y-130833785D01*
X185634404Y-130929023D01*
X185539166Y-131024261D01*
X185396309Y-131071880D01*
X185158214Y-131071880D01*
X186682023Y-131071880D02*
X186110595Y-131071880D01*
X186396309Y-131071880D02*
X186396309Y-130071880D01*
X186301071Y-130214738D01*
X186205833Y-130309976D01*
X186110595Y-130357595D01*
X187586785Y-130071880D02*
X187110595Y-130071880D01*
X187062976Y-130548071D01*
X187110595Y-130500452D01*
X187205833Y-130452833D01*
X187443928Y-130452833D01*
X187539166Y-130500452D01*
X187586785Y-130548071D01*
X187634404Y-130643309D01*
X187634404Y-130881404D01*
X187586785Y-130976642D01*
X187539166Y-131024261D01*
X187443928Y-131071880D01*
X187205833Y-131071880D01*
X187110595Y-131024261D01*
X187062976Y-130976642D01*
X154106714Y-89669880D02*
X154106714Y-88669880D01*
X154344809Y-88669880D01*
X154487666Y-88717500D01*
X154582904Y-88812738D01*
X154630523Y-88907976D01*
X154678142Y-89098452D01*
X154678142Y-89241309D01*
X154630523Y-89431785D01*
X154582904Y-89527023D01*
X154487666Y-89622261D01*
X154344809Y-89669880D01*
X154106714Y-89669880D01*
X155630523Y-89669880D02*
X155059095Y-89669880D01*
X155344809Y-89669880D02*
X155344809Y-88669880D01*
X155249571Y-88812738D01*
X155154333Y-88907976D01*
X155059095Y-88955595D01*
X156487666Y-88669880D02*
X156297190Y-88669880D01*
X156201952Y-88717500D01*
X156154333Y-88765119D01*
X156059095Y-88907976D01*
X156011476Y-89098452D01*
X156011476Y-89479404D01*
X156059095Y-89574642D01*
X156106714Y-89622261D01*
X156201952Y-89669880D01*
X156392428Y-89669880D01*
X156487666Y-89622261D01*
X156535285Y-89574642D01*
X156582904Y-89479404D01*
X156582904Y-89241309D01*
X156535285Y-89146071D01*
X156487666Y-89098452D01*
X156392428Y-89050833D01*
X156201952Y-89050833D01*
X156106714Y-89098452D01*
X156059095Y-89146071D01*
X156011476Y-89241309D01*
X158678714Y-89669880D02*
X158678714Y-88669880D01*
X158916809Y-88669880D01*
X159059666Y-88717500D01*
X159154904Y-88812738D01*
X159202523Y-88907976D01*
X159250142Y-89098452D01*
X159250142Y-89241309D01*
X159202523Y-89431785D01*
X159154904Y-89527023D01*
X159059666Y-89622261D01*
X158916809Y-89669880D01*
X158678714Y-89669880D01*
X160202523Y-89669880D02*
X159631095Y-89669880D01*
X159916809Y-89669880D02*
X159916809Y-88669880D01*
X159821571Y-88812738D01*
X159726333Y-88907976D01*
X159631095Y-88955595D01*
X160535857Y-88669880D02*
X161202523Y-88669880D01*
X160773952Y-89669880D01*
X162996714Y-89669880D02*
X162996714Y-88669880D01*
X163234809Y-88669880D01*
X163377666Y-88717500D01*
X163472904Y-88812738D01*
X163520523Y-88907976D01*
X163568142Y-89098452D01*
X163568142Y-89241309D01*
X163520523Y-89431785D01*
X163472904Y-89527023D01*
X163377666Y-89622261D01*
X163234809Y-89669880D01*
X162996714Y-89669880D01*
X164520523Y-89669880D02*
X163949095Y-89669880D01*
X164234809Y-89669880D02*
X164234809Y-88669880D01*
X164139571Y-88812738D01*
X164044333Y-88907976D01*
X163949095Y-88955595D01*
X165091952Y-89098452D02*
X164996714Y-89050833D01*
X164949095Y-89003214D01*
X164901476Y-88907976D01*
X164901476Y-88860357D01*
X164949095Y-88765119D01*
X164996714Y-88717500D01*
X165091952Y-88669880D01*
X165282428Y-88669880D01*
X165377666Y-88717500D01*
X165425285Y-88765119D01*
X165472904Y-88860357D01*
X165472904Y-88907976D01*
X165425285Y-89003214D01*
X165377666Y-89050833D01*
X165282428Y-89098452D01*
X165091952Y-89098452D01*
X164996714Y-89146071D01*
X164949095Y-89193690D01*
X164901476Y-89288928D01*
X164901476Y-89479404D01*
X164949095Y-89574642D01*
X164996714Y-89622261D01*
X165091952Y-89669880D01*
X165282428Y-89669880D01*
X165377666Y-89622261D01*
X165425285Y-89574642D01*
X165472904Y-89479404D01*
X165472904Y-89288928D01*
X165425285Y-89193690D01*
X165377666Y-89146071D01*
X165282428Y-89098452D01*
X167441714Y-89669880D02*
X167441714Y-88669880D01*
X167679809Y-88669880D01*
X167822666Y-88717500D01*
X167917904Y-88812738D01*
X167965523Y-88907976D01*
X168013142Y-89098452D01*
X168013142Y-89241309D01*
X167965523Y-89431785D01*
X167917904Y-89527023D01*
X167822666Y-89622261D01*
X167679809Y-89669880D01*
X167441714Y-89669880D01*
X168965523Y-89669880D02*
X168394095Y-89669880D01*
X168679809Y-89669880D02*
X168679809Y-88669880D01*
X168584571Y-88812738D01*
X168489333Y-88907976D01*
X168394095Y-88955595D01*
X169441714Y-89669880D02*
X169632190Y-89669880D01*
X169727428Y-89622261D01*
X169775047Y-89574642D01*
X169870285Y-89431785D01*
X169917904Y-89241309D01*
X169917904Y-88860357D01*
X169870285Y-88765119D01*
X169822666Y-88717500D01*
X169727428Y-88669880D01*
X169536952Y-88669880D01*
X169441714Y-88717500D01*
X169394095Y-88765119D01*
X169346476Y-88860357D01*
X169346476Y-89098452D01*
X169394095Y-89193690D01*
X169441714Y-89241309D01*
X169536952Y-89288928D01*
X169727428Y-89288928D01*
X169822666Y-89241309D01*
X169870285Y-89193690D01*
X169917904Y-89098452D01*
X171823214Y-89542880D02*
X171823214Y-88542880D01*
X172061309Y-88542880D01*
X172204166Y-88590500D01*
X172299404Y-88685738D01*
X172347023Y-88780976D01*
X172394642Y-88971452D01*
X172394642Y-89114309D01*
X172347023Y-89304785D01*
X172299404Y-89400023D01*
X172204166Y-89495261D01*
X172061309Y-89542880D01*
X171823214Y-89542880D01*
X172775595Y-88638119D02*
X172823214Y-88590500D01*
X172918452Y-88542880D01*
X173156547Y-88542880D01*
X173251785Y-88590500D01*
X173299404Y-88638119D01*
X173347023Y-88733357D01*
X173347023Y-88828595D01*
X173299404Y-88971452D01*
X172727976Y-89542880D01*
X173347023Y-89542880D01*
X173966071Y-88542880D02*
X174061309Y-88542880D01*
X174156547Y-88590500D01*
X174204166Y-88638119D01*
X174251785Y-88733357D01*
X174299404Y-88923833D01*
X174299404Y-89161928D01*
X174251785Y-89352404D01*
X174204166Y-89447642D01*
X174156547Y-89495261D01*
X174061309Y-89542880D01*
X173966071Y-89542880D01*
X173870833Y-89495261D01*
X173823214Y-89447642D01*
X173775595Y-89352404D01*
X173727976Y-89161928D01*
X173727976Y-88923833D01*
X173775595Y-88733357D01*
X173823214Y-88638119D01*
X173870833Y-88590500D01*
X173966071Y-88542880D01*
X176331714Y-89542880D02*
X176331714Y-88542880D01*
X176569809Y-88542880D01*
X176712666Y-88590500D01*
X176807904Y-88685738D01*
X176855523Y-88780976D01*
X176903142Y-88971452D01*
X176903142Y-89114309D01*
X176855523Y-89304785D01*
X176807904Y-89400023D01*
X176712666Y-89495261D01*
X176569809Y-89542880D01*
X176331714Y-89542880D01*
X177284095Y-88638119D02*
X177331714Y-88590500D01*
X177426952Y-88542880D01*
X177665047Y-88542880D01*
X177760285Y-88590500D01*
X177807904Y-88638119D01*
X177855523Y-88733357D01*
X177855523Y-88828595D01*
X177807904Y-88971452D01*
X177236476Y-89542880D01*
X177855523Y-89542880D01*
X178807904Y-89542880D02*
X178236476Y-89542880D01*
X178522190Y-89542880D02*
X178522190Y-88542880D01*
X178426952Y-88685738D01*
X178331714Y-88780976D01*
X178236476Y-88828595D01*
X180713214Y-89606380D02*
X180713214Y-88606380D01*
X180951309Y-88606380D01*
X181094166Y-88654000D01*
X181189404Y-88749238D01*
X181237023Y-88844476D01*
X181284642Y-89034952D01*
X181284642Y-89177809D01*
X181237023Y-89368285D01*
X181189404Y-89463523D01*
X181094166Y-89558761D01*
X180951309Y-89606380D01*
X180713214Y-89606380D01*
X181665595Y-88701619D02*
X181713214Y-88654000D01*
X181808452Y-88606380D01*
X182046547Y-88606380D01*
X182141785Y-88654000D01*
X182189404Y-88701619D01*
X182237023Y-88796857D01*
X182237023Y-88892095D01*
X182189404Y-89034952D01*
X181617976Y-89606380D01*
X182237023Y-89606380D01*
X182617976Y-88701619D02*
X182665595Y-88654000D01*
X182760833Y-88606380D01*
X182998928Y-88606380D01*
X183094166Y-88654000D01*
X183141785Y-88701619D01*
X183189404Y-88796857D01*
X183189404Y-88892095D01*
X183141785Y-89034952D01*
X182570357Y-89606380D01*
X183189404Y-89606380D01*
X185158214Y-89606380D02*
X185158214Y-88606380D01*
X185396309Y-88606380D01*
X185539166Y-88654000D01*
X185634404Y-88749238D01*
X185682023Y-88844476D01*
X185729642Y-89034952D01*
X185729642Y-89177809D01*
X185682023Y-89368285D01*
X185634404Y-89463523D01*
X185539166Y-89558761D01*
X185396309Y-89606380D01*
X185158214Y-89606380D01*
X186110595Y-88701619D02*
X186158214Y-88654000D01*
X186253452Y-88606380D01*
X186491547Y-88606380D01*
X186586785Y-88654000D01*
X186634404Y-88701619D01*
X186682023Y-88796857D01*
X186682023Y-88892095D01*
X186634404Y-89034952D01*
X186062976Y-89606380D01*
X186682023Y-89606380D01*
X187015357Y-88606380D02*
X187634404Y-88606380D01*
X187301071Y-88987333D01*
X187443928Y-88987333D01*
X187539166Y-89034952D01*
X187586785Y-89082571D01*
X187634404Y-89177809D01*
X187634404Y-89415904D01*
X187586785Y-89511142D01*
X187539166Y-89558761D01*
X187443928Y-89606380D01*
X187158214Y-89606380D01*
X187062976Y-89558761D01*
X187015357Y-89511142D01*
X101020714Y-130817880D02*
X101020714Y-129817880D01*
X101258809Y-129817880D01*
X101401666Y-129865500D01*
X101496904Y-129960738D01*
X101544523Y-130055976D01*
X101592142Y-130246452D01*
X101592142Y-130389309D01*
X101544523Y-130579785D01*
X101496904Y-130675023D01*
X101401666Y-130770261D01*
X101258809Y-130817880D01*
X101020714Y-130817880D01*
X101973095Y-129913119D02*
X102020714Y-129865500D01*
X102115952Y-129817880D01*
X102354047Y-129817880D01*
X102449285Y-129865500D01*
X102496904Y-129913119D01*
X102544523Y-130008357D01*
X102544523Y-130103595D01*
X102496904Y-130246452D01*
X101925476Y-130817880D01*
X102544523Y-130817880D01*
X103401666Y-130151214D02*
X103401666Y-130817880D01*
X103163571Y-129770261D02*
X102925476Y-130484547D01*
X103544523Y-130484547D01*
X105465714Y-130817880D02*
X105465714Y-129817880D01*
X105703809Y-129817880D01*
X105846666Y-129865500D01*
X105941904Y-129960738D01*
X105989523Y-130055976D01*
X106037142Y-130246452D01*
X106037142Y-130389309D01*
X105989523Y-130579785D01*
X105941904Y-130675023D01*
X105846666Y-130770261D01*
X105703809Y-130817880D01*
X105465714Y-130817880D01*
X106418095Y-129913119D02*
X106465714Y-129865500D01*
X106560952Y-129817880D01*
X106799047Y-129817880D01*
X106894285Y-129865500D01*
X106941904Y-129913119D01*
X106989523Y-130008357D01*
X106989523Y-130103595D01*
X106941904Y-130246452D01*
X106370476Y-130817880D01*
X106989523Y-130817880D01*
X107894285Y-129817880D02*
X107418095Y-129817880D01*
X107370476Y-130294071D01*
X107418095Y-130246452D01*
X107513333Y-130198833D01*
X107751428Y-130198833D01*
X107846666Y-130246452D01*
X107894285Y-130294071D01*
X107941904Y-130389309D01*
X107941904Y-130627404D01*
X107894285Y-130722642D01*
X107846666Y-130770261D01*
X107751428Y-130817880D01*
X107513333Y-130817880D01*
X107418095Y-130770261D01*
X107370476Y-130722642D01*
X109910714Y-130817880D02*
X109910714Y-129817880D01*
X110148809Y-129817880D01*
X110291666Y-129865500D01*
X110386904Y-129960738D01*
X110434523Y-130055976D01*
X110482142Y-130246452D01*
X110482142Y-130389309D01*
X110434523Y-130579785D01*
X110386904Y-130675023D01*
X110291666Y-130770261D01*
X110148809Y-130817880D01*
X109910714Y-130817880D01*
X110863095Y-129913119D02*
X110910714Y-129865500D01*
X111005952Y-129817880D01*
X111244047Y-129817880D01*
X111339285Y-129865500D01*
X111386904Y-129913119D01*
X111434523Y-130008357D01*
X111434523Y-130103595D01*
X111386904Y-130246452D01*
X110815476Y-130817880D01*
X111434523Y-130817880D01*
X112291666Y-129817880D02*
X112101190Y-129817880D01*
X112005952Y-129865500D01*
X111958333Y-129913119D01*
X111863095Y-130055976D01*
X111815476Y-130246452D01*
X111815476Y-130627404D01*
X111863095Y-130722642D01*
X111910714Y-130770261D01*
X112005952Y-130817880D01*
X112196428Y-130817880D01*
X112291666Y-130770261D01*
X112339285Y-130722642D01*
X112386904Y-130627404D01*
X112386904Y-130389309D01*
X112339285Y-130294071D01*
X112291666Y-130246452D01*
X112196428Y-130198833D01*
X112005952Y-130198833D01*
X111910714Y-130246452D01*
X111863095Y-130294071D01*
X111815476Y-130389309D01*
X114419214Y-130817880D02*
X114419214Y-129817880D01*
X114657309Y-129817880D01*
X114800166Y-129865500D01*
X114895404Y-129960738D01*
X114943023Y-130055976D01*
X114990642Y-130246452D01*
X114990642Y-130389309D01*
X114943023Y-130579785D01*
X114895404Y-130675023D01*
X114800166Y-130770261D01*
X114657309Y-130817880D01*
X114419214Y-130817880D01*
X115371595Y-129913119D02*
X115419214Y-129865500D01*
X115514452Y-129817880D01*
X115752547Y-129817880D01*
X115847785Y-129865500D01*
X115895404Y-129913119D01*
X115943023Y-130008357D01*
X115943023Y-130103595D01*
X115895404Y-130246452D01*
X115323976Y-130817880D01*
X115943023Y-130817880D01*
X116276357Y-129817880D02*
X116943023Y-129817880D01*
X116514452Y-130817880D01*
X118737214Y-130817880D02*
X118737214Y-129817880D01*
X118975309Y-129817880D01*
X119118166Y-129865500D01*
X119213404Y-129960738D01*
X119261023Y-130055976D01*
X119308642Y-130246452D01*
X119308642Y-130389309D01*
X119261023Y-130579785D01*
X119213404Y-130675023D01*
X119118166Y-130770261D01*
X118975309Y-130817880D01*
X118737214Y-130817880D01*
X119689595Y-129913119D02*
X119737214Y-129865500D01*
X119832452Y-129817880D01*
X120070547Y-129817880D01*
X120165785Y-129865500D01*
X120213404Y-129913119D01*
X120261023Y-130008357D01*
X120261023Y-130103595D01*
X120213404Y-130246452D01*
X119641976Y-130817880D01*
X120261023Y-130817880D01*
X120832452Y-130246452D02*
X120737214Y-130198833D01*
X120689595Y-130151214D01*
X120641976Y-130055976D01*
X120641976Y-130008357D01*
X120689595Y-129913119D01*
X120737214Y-129865500D01*
X120832452Y-129817880D01*
X121022928Y-129817880D01*
X121118166Y-129865500D01*
X121165785Y-129913119D01*
X121213404Y-130008357D01*
X121213404Y-130055976D01*
X121165785Y-130151214D01*
X121118166Y-130198833D01*
X121022928Y-130246452D01*
X120832452Y-130246452D01*
X120737214Y-130294071D01*
X120689595Y-130341690D01*
X120641976Y-130436928D01*
X120641976Y-130627404D01*
X120689595Y-130722642D01*
X120737214Y-130770261D01*
X120832452Y-130817880D01*
X121022928Y-130817880D01*
X121118166Y-130770261D01*
X121165785Y-130722642D01*
X121213404Y-130627404D01*
X121213404Y-130436928D01*
X121165785Y-130341690D01*
X121118166Y-130294071D01*
X121022928Y-130246452D01*
X123245714Y-130817880D02*
X123245714Y-129817880D01*
X123483809Y-129817880D01*
X123626666Y-129865500D01*
X123721904Y-129960738D01*
X123769523Y-130055976D01*
X123817142Y-130246452D01*
X123817142Y-130389309D01*
X123769523Y-130579785D01*
X123721904Y-130675023D01*
X123626666Y-130770261D01*
X123483809Y-130817880D01*
X123245714Y-130817880D01*
X124198095Y-129913119D02*
X124245714Y-129865500D01*
X124340952Y-129817880D01*
X124579047Y-129817880D01*
X124674285Y-129865500D01*
X124721904Y-129913119D01*
X124769523Y-130008357D01*
X124769523Y-130103595D01*
X124721904Y-130246452D01*
X124150476Y-130817880D01*
X124769523Y-130817880D01*
X125245714Y-130817880D02*
X125436190Y-130817880D01*
X125531428Y-130770261D01*
X125579047Y-130722642D01*
X125674285Y-130579785D01*
X125721904Y-130389309D01*
X125721904Y-130008357D01*
X125674285Y-129913119D01*
X125626666Y-129865500D01*
X125531428Y-129817880D01*
X125340952Y-129817880D01*
X125245714Y-129865500D01*
X125198095Y-129913119D01*
X125150476Y-130008357D01*
X125150476Y-130246452D01*
X125198095Y-130341690D01*
X125245714Y-130389309D01*
X125340952Y-130436928D01*
X125531428Y-130436928D01*
X125626666Y-130389309D01*
X125674285Y-130341690D01*
X125721904Y-130246452D01*
X105418028Y-98225440D02*
X105367449Y-97646380D01*
X104923157Y-97939725D02*
X105423157Y-97073700D01*
X105753071Y-97264176D01*
X105811740Y-97353034D01*
X105829170Y-97418083D01*
X105822790Y-97524371D01*
X105751362Y-97648089D01*
X105662503Y-97706758D01*
X105597455Y-97724188D01*
X105491166Y-97717808D01*
X105161252Y-97527332D01*
X106242815Y-98701630D02*
X105747943Y-98415916D01*
X105995379Y-98558773D02*
X106495379Y-97692747D01*
X106341472Y-97768846D01*
X106211374Y-97803706D01*
X106105086Y-97797326D01*
X114308028Y-98225440D02*
X114257449Y-97646380D01*
X113813157Y-97939725D02*
X114313157Y-97073700D01*
X114643071Y-97264176D01*
X114701740Y-97353034D01*
X114719170Y-97418083D01*
X114712790Y-97524371D01*
X114641362Y-97648089D01*
X114552503Y-97706758D01*
X114487455Y-97724188D01*
X114381166Y-97717808D01*
X114051252Y-97527332D01*
X115096704Y-97526081D02*
X115632815Y-97835605D01*
X115153663Y-97998852D01*
X115277381Y-98070281D01*
X115336050Y-98159139D01*
X115353480Y-98224188D01*
X115347100Y-98330476D01*
X115228053Y-98536673D01*
X115139194Y-98595342D01*
X115074145Y-98612772D01*
X114967857Y-98606392D01*
X114720422Y-98463535D01*
X114661752Y-98374676D01*
X114644323Y-98309628D01*
X123198028Y-98225440D02*
X123147449Y-97646380D01*
X122703157Y-97939725D02*
X123203157Y-97073700D01*
X123533071Y-97264176D01*
X123591740Y-97353034D01*
X123609170Y-97418083D01*
X123602790Y-97524371D01*
X123531362Y-97648089D01*
X123442503Y-97706758D01*
X123377455Y-97724188D01*
X123271166Y-97717808D01*
X122941252Y-97527332D01*
X124481575Y-97811795D02*
X124069182Y-97573700D01*
X123789848Y-97962283D01*
X123854896Y-97944854D01*
X123961185Y-97951233D01*
X124167381Y-98070281D01*
X124226050Y-98159139D01*
X124243480Y-98224188D01*
X124237100Y-98330476D01*
X124118053Y-98536673D01*
X124029194Y-98595342D01*
X123964145Y-98612772D01*
X123857857Y-98606392D01*
X123651661Y-98487344D01*
X123592992Y-98398486D01*
X123575562Y-98333437D01*
X127643028Y-98225440D02*
X127592449Y-97646380D01*
X127148157Y-97939725D02*
X127648157Y-97073700D01*
X127978071Y-97264176D01*
X128036740Y-97353034D01*
X128054170Y-97418083D01*
X128047790Y-97524371D01*
X127976362Y-97648089D01*
X127887503Y-97706758D01*
X127822455Y-97724188D01*
X127716166Y-97717808D01*
X127386252Y-97527332D01*
X128885336Y-97787986D02*
X128720379Y-97692747D01*
X128614091Y-97686368D01*
X128549042Y-97703798D01*
X128395135Y-97779896D01*
X128258657Y-97921044D01*
X128068181Y-98250959D01*
X128061801Y-98357247D01*
X128079231Y-98422295D01*
X128137900Y-98511154D01*
X128302857Y-98606392D01*
X128409145Y-98612772D01*
X128474194Y-98595342D01*
X128563053Y-98536673D01*
X128682100Y-98330476D01*
X128688480Y-98224188D01*
X128671050Y-98159139D01*
X128612381Y-98070281D01*
X128447424Y-97975043D01*
X128341136Y-97968663D01*
X128276087Y-97986093D01*
X128187229Y-98044762D01*
X132088028Y-98225440D02*
X132037449Y-97646380D01*
X131593157Y-97939725D02*
X132093157Y-97073700D01*
X132423071Y-97264176D01*
X132481740Y-97353034D01*
X132499170Y-97418083D01*
X132492790Y-97524371D01*
X132421362Y-97648089D01*
X132332503Y-97706758D01*
X132267455Y-97724188D01*
X132161166Y-97717808D01*
X131831252Y-97527332D01*
X132876704Y-97526081D02*
X133454054Y-97859414D01*
X132582900Y-98511154D01*
X152103296Y-139921106D02*
X151576526Y-139675380D01*
X151608425Y-140206821D02*
X151108425Y-139340795D01*
X151438339Y-139150319D01*
X151544627Y-139143939D01*
X151609676Y-139161369D01*
X151698535Y-139220038D01*
X151769963Y-139343756D01*
X151776343Y-139450044D01*
X151758913Y-139515093D01*
X151700244Y-139603951D01*
X151370330Y-139794427D01*
X152515689Y-139683011D02*
X152680647Y-139587773D01*
X152739316Y-139498915D01*
X152756746Y-139433866D01*
X152767796Y-139262529D01*
X152713797Y-139073762D01*
X152523321Y-138743848D01*
X152434462Y-138685178D01*
X152369413Y-138667749D01*
X152263125Y-138674128D01*
X152098168Y-138769367D01*
X152039499Y-138858225D01*
X152022069Y-138923274D01*
X152028449Y-139029562D01*
X152147497Y-139235758D01*
X152236355Y-139294427D01*
X152301404Y-139311857D01*
X152407692Y-139305478D01*
X152572649Y-139210239D01*
X152631318Y-139121381D01*
X152648748Y-139056332D01*
X152642368Y-138950044D01*
X156135902Y-140159201D02*
X155609132Y-139913475D01*
X155641031Y-140444916D02*
X155141031Y-139578890D01*
X155470945Y-139388414D01*
X155577233Y-139382034D01*
X155642282Y-139399464D01*
X155731140Y-139458133D01*
X155802569Y-139581851D01*
X155808949Y-139688139D01*
X155791519Y-139753188D01*
X155732850Y-139842047D01*
X155402935Y-140032523D01*
X156960688Y-139683011D02*
X156465817Y-139968725D01*
X156713253Y-139825868D02*
X156213253Y-138959843D01*
X156202203Y-139131180D01*
X156167343Y-139261277D01*
X156108674Y-139350136D01*
X156996799Y-138507462D02*
X157079278Y-138459843D01*
X157185566Y-138453463D01*
X157250615Y-138470893D01*
X157339473Y-138529562D01*
X157475951Y-138670710D01*
X157594998Y-138876906D01*
X157648997Y-139065673D01*
X157655377Y-139171961D01*
X157637947Y-139237010D01*
X157579278Y-139325868D01*
X157496799Y-139373487D01*
X157390511Y-139379867D01*
X157325462Y-139362437D01*
X157236604Y-139303768D01*
X157100127Y-139162620D01*
X156981079Y-138956424D01*
X156927080Y-138767657D01*
X156920701Y-138661369D01*
X156938130Y-138596320D01*
X156996799Y-138507462D01*
X160580902Y-140159201D02*
X160054132Y-139913475D01*
X160086031Y-140444916D02*
X159586031Y-139578890D01*
X159915945Y-139388414D01*
X160022233Y-139382034D01*
X160087282Y-139399464D01*
X160176140Y-139458133D01*
X160247569Y-139581851D01*
X160253949Y-139688139D01*
X160236519Y-139753188D01*
X160177850Y-139842047D01*
X159847935Y-140032523D01*
X161405688Y-139683011D02*
X160910817Y-139968725D01*
X161158253Y-139825868D02*
X160658253Y-138959843D01*
X160647203Y-139131180D01*
X160612343Y-139261277D01*
X160553674Y-139350136D01*
X162230475Y-139206821D02*
X161735603Y-139492535D01*
X161983039Y-139349678D02*
X161483039Y-138483652D01*
X161471989Y-138654989D01*
X161437129Y-138785087D01*
X161378460Y-138873945D01*
X165025902Y-140114203D02*
X164499132Y-139868477D01*
X164531031Y-140399918D02*
X164031031Y-139533892D01*
X164360945Y-139343416D01*
X164467233Y-139337036D01*
X164532282Y-139354466D01*
X164621140Y-139413135D01*
X164692569Y-139536853D01*
X164698949Y-139643141D01*
X164681519Y-139708190D01*
X164622850Y-139797049D01*
X164292935Y-139987525D01*
X165850688Y-139638013D02*
X165355817Y-139923727D01*
X165603253Y-139780870D02*
X165103253Y-138914845D01*
X165092203Y-139086182D01*
X165057343Y-139216279D01*
X164998674Y-139305138D01*
X165728222Y-138663990D02*
X165745652Y-138598941D01*
X165804321Y-138510083D01*
X166010517Y-138391035D01*
X166116805Y-138384655D01*
X166181854Y-138402085D01*
X166270713Y-138460754D01*
X166318332Y-138543233D01*
X166348521Y-138690760D01*
X166139364Y-139471346D01*
X166675475Y-139161823D01*
X169470902Y-140159201D02*
X168944132Y-139913475D01*
X168976031Y-140444916D02*
X168476031Y-139578890D01*
X168805945Y-139388414D01*
X168912233Y-139382034D01*
X168977282Y-139399464D01*
X169066140Y-139458133D01*
X169137569Y-139581851D01*
X169143949Y-139688139D01*
X169126519Y-139753188D01*
X169067850Y-139842047D01*
X168737935Y-140032523D01*
X170295688Y-139683011D02*
X169800817Y-139968725D01*
X170048253Y-139825868D02*
X169548253Y-138959843D01*
X169537203Y-139131180D01*
X169502343Y-139261277D01*
X169443674Y-139350136D01*
X170084364Y-138650319D02*
X170620475Y-138340795D01*
X170522276Y-138837376D01*
X170645994Y-138765948D01*
X170752282Y-138759568D01*
X170817330Y-138776998D01*
X170906189Y-138835667D01*
X171025236Y-139041863D01*
X171031616Y-139148151D01*
X171014186Y-139213200D01*
X170955517Y-139302059D01*
X170708082Y-139444916D01*
X170601793Y-139451295D01*
X170536745Y-139433866D01*
X173915902Y-140159201D02*
X173389132Y-139913475D01*
X173421031Y-140444916D02*
X172921031Y-139578890D01*
X173250945Y-139388414D01*
X173357233Y-139382034D01*
X173422282Y-139399464D01*
X173511140Y-139458133D01*
X173582569Y-139581851D01*
X173588949Y-139688139D01*
X173571519Y-139753188D01*
X173512850Y-139842047D01*
X173182935Y-140032523D01*
X174740688Y-139683011D02*
X174245817Y-139968725D01*
X174493253Y-139825868D02*
X173993253Y-138959843D01*
X173982203Y-139131180D01*
X173947343Y-139261277D01*
X173888674Y-139350136D01*
X175149663Y-138677089D02*
X175482996Y-139254440D01*
X174752990Y-138466222D02*
X174903936Y-139203860D01*
X175440047Y-138894336D01*
X178360902Y-140159201D02*
X177834132Y-139913475D01*
X177866031Y-140444916D02*
X177366031Y-139578890D01*
X177695945Y-139388414D01*
X177802233Y-139382034D01*
X177867282Y-139399464D01*
X177956140Y-139458133D01*
X178027569Y-139581851D01*
X178033949Y-139688139D01*
X178016519Y-139753188D01*
X177957850Y-139842047D01*
X177627935Y-140032523D01*
X179185688Y-139683011D02*
X178690817Y-139968725D01*
X178938253Y-139825868D02*
X178438253Y-138959843D01*
X178427203Y-139131180D01*
X178392343Y-139261277D01*
X178333674Y-139350136D01*
X179469235Y-138364605D02*
X179056842Y-138602700D01*
X179253698Y-139038902D01*
X179271128Y-138973854D01*
X179329797Y-138884995D01*
X179535994Y-138765948D01*
X179642282Y-138759568D01*
X179707330Y-138776998D01*
X179796189Y-138835667D01*
X179915236Y-139041863D01*
X179921616Y-139148151D01*
X179904186Y-139213200D01*
X179845517Y-139302059D01*
X179639321Y-139421106D01*
X179533033Y-139427486D01*
X179467984Y-139410056D01*
X182805902Y-140159201D02*
X182279132Y-139913475D01*
X182311031Y-140444916D02*
X181811031Y-139578890D01*
X182140945Y-139388414D01*
X182247233Y-139382034D01*
X182312282Y-139399464D01*
X182401140Y-139458133D01*
X182472569Y-139581851D01*
X182478949Y-139688139D01*
X182461519Y-139753188D01*
X182402850Y-139842047D01*
X182072935Y-140032523D01*
X183630688Y-139683011D02*
X183135817Y-139968725D01*
X183383253Y-139825868D02*
X182883253Y-138959843D01*
X182872203Y-139131180D01*
X182837343Y-139261277D01*
X182778674Y-139350136D01*
X183872996Y-138388414D02*
X183708039Y-138483652D01*
X183649370Y-138572511D01*
X183631940Y-138637559D01*
X183620890Y-138808896D01*
X183674889Y-138997663D01*
X183865365Y-139327578D01*
X183954223Y-139386247D01*
X184019272Y-139403676D01*
X184125560Y-139397297D01*
X184290517Y-139302059D01*
X184349186Y-139213200D01*
X184366616Y-139148151D01*
X184360236Y-139041863D01*
X184241189Y-138835667D01*
X184152330Y-138776998D01*
X184087282Y-138759568D01*
X183980994Y-138765948D01*
X183816036Y-138861186D01*
X183757367Y-138950044D01*
X183739937Y-139015093D01*
X183746317Y-139121381D01*
X151690902Y-98757201D02*
X151164132Y-98511475D01*
X151196031Y-99042916D02*
X150696031Y-98176890D01*
X151025945Y-97986414D01*
X151132233Y-97980034D01*
X151197282Y-97997464D01*
X151286140Y-98056133D01*
X151357569Y-98179851D01*
X151363949Y-98286139D01*
X151346519Y-98351188D01*
X151287850Y-98440047D01*
X150957935Y-98630523D01*
X152515688Y-98281011D02*
X152020817Y-98566725D01*
X152268253Y-98423868D02*
X151768253Y-97557843D01*
X151757203Y-97729180D01*
X151722343Y-97859277D01*
X151663674Y-97948136D01*
X152304364Y-97248319D02*
X152881714Y-96914986D01*
X153010560Y-97995297D01*
X156135902Y-98757201D02*
X155609132Y-98511475D01*
X155641031Y-99042916D02*
X155141031Y-98176890D01*
X155470945Y-97986414D01*
X155577233Y-97980034D01*
X155642282Y-97997464D01*
X155731140Y-98056133D01*
X155802569Y-98179851D01*
X155808949Y-98286139D01*
X155791519Y-98351188D01*
X155732850Y-98440047D01*
X155402935Y-98630523D01*
X156960688Y-98281011D02*
X156465817Y-98566725D01*
X156713253Y-98423868D02*
X156213253Y-97557843D01*
X156202203Y-97729180D01*
X156167343Y-97859277D01*
X156108674Y-97948136D01*
X157169846Y-97500425D02*
X157063558Y-97506805D01*
X156998509Y-97489375D01*
X156909651Y-97430706D01*
X156885841Y-97389467D01*
X156879461Y-97283178D01*
X156896891Y-97218130D01*
X156955560Y-97129271D01*
X157120517Y-97034033D01*
X157226805Y-97027653D01*
X157291854Y-97045083D01*
X157380713Y-97103752D01*
X157404522Y-97144992D01*
X157410902Y-97251280D01*
X157393472Y-97316329D01*
X157334803Y-97405187D01*
X157169846Y-97500425D01*
X157111177Y-97589283D01*
X157093747Y-97654332D01*
X157100127Y-97760620D01*
X157195365Y-97925578D01*
X157284223Y-97984247D01*
X157349272Y-98001676D01*
X157455560Y-97995297D01*
X157620517Y-97900059D01*
X157679186Y-97811200D01*
X157696616Y-97746151D01*
X157690236Y-97639863D01*
X157594998Y-97474906D01*
X157506140Y-97416237D01*
X157441091Y-97398807D01*
X157334803Y-97405187D01*
X160580902Y-98757201D02*
X160054132Y-98511475D01*
X160086031Y-99042916D02*
X159586031Y-98176890D01*
X159915945Y-97986414D01*
X160022233Y-97980034D01*
X160087282Y-97997464D01*
X160176140Y-98056133D01*
X160247569Y-98179851D01*
X160253949Y-98286139D01*
X160236519Y-98351188D01*
X160177850Y-98440047D01*
X159847935Y-98630523D01*
X161405688Y-98281011D02*
X160910817Y-98566725D01*
X161158253Y-98423868D02*
X160658253Y-97557843D01*
X160647203Y-97729180D01*
X160612343Y-97859277D01*
X160553674Y-97948136D01*
X161818082Y-98042916D02*
X161983039Y-97947678D01*
X162041708Y-97858819D01*
X162059138Y-97793770D01*
X162070188Y-97622434D01*
X162016189Y-97433667D01*
X161825713Y-97103752D01*
X161736854Y-97045083D01*
X161671805Y-97027653D01*
X161565517Y-97034033D01*
X161400560Y-97129271D01*
X161341891Y-97218130D01*
X161324461Y-97283178D01*
X161330841Y-97389467D01*
X161449889Y-97595663D01*
X161538747Y-97654332D01*
X161603796Y-97671762D01*
X161710084Y-97665382D01*
X161875041Y-97570144D01*
X161933710Y-97481286D01*
X161951140Y-97416237D01*
X161944760Y-97309949D01*
X165025902Y-98757201D02*
X164499132Y-98511475D01*
X164531031Y-99042916D02*
X164031031Y-98176890D01*
X164360945Y-97986414D01*
X164467233Y-97980034D01*
X164532282Y-97997464D01*
X164621140Y-98056133D01*
X164692569Y-98179851D01*
X164698949Y-98286139D01*
X164681519Y-98351188D01*
X164622850Y-98440047D01*
X164292935Y-98630523D01*
X164903436Y-97783178D02*
X164920866Y-97718130D01*
X164979535Y-97629271D01*
X165185731Y-97510224D01*
X165292019Y-97503844D01*
X165357068Y-97521274D01*
X165445927Y-97579943D01*
X165493546Y-97662421D01*
X165523735Y-97809949D01*
X165314577Y-98590535D01*
X165850688Y-98281011D01*
X165886799Y-97105462D02*
X165969278Y-97057843D01*
X166075566Y-97051463D01*
X166140615Y-97068893D01*
X166229473Y-97127562D01*
X166365951Y-97268710D01*
X166484998Y-97474906D01*
X166538997Y-97663673D01*
X166545377Y-97769961D01*
X166527947Y-97835010D01*
X166469278Y-97923868D01*
X166386799Y-97971487D01*
X166280511Y-97977867D01*
X166215462Y-97960437D01*
X166126604Y-97901768D01*
X165990127Y-97760620D01*
X165871079Y-97554424D01*
X165817080Y-97365657D01*
X165810701Y-97259369D01*
X165828130Y-97194320D01*
X165886799Y-97105462D01*
X169470902Y-98757201D02*
X168944132Y-98511475D01*
X168976031Y-99042916D02*
X168476031Y-98176890D01*
X168805945Y-97986414D01*
X168912233Y-97980034D01*
X168977282Y-97997464D01*
X169066140Y-98056133D01*
X169137569Y-98179851D01*
X169143949Y-98286139D01*
X169126519Y-98351188D01*
X169067850Y-98440047D01*
X168737935Y-98630523D01*
X169348436Y-97783178D02*
X169365866Y-97718130D01*
X169424535Y-97629271D01*
X169630731Y-97510224D01*
X169737019Y-97503844D01*
X169802068Y-97521274D01*
X169890927Y-97579943D01*
X169938546Y-97662421D01*
X169968735Y-97809949D01*
X169759577Y-98590535D01*
X170295688Y-98281011D01*
X171120475Y-97804821D02*
X170625603Y-98090535D01*
X170873039Y-97947678D02*
X170373039Y-97081652D01*
X170361989Y-97252989D01*
X170327129Y-97383087D01*
X170268460Y-97471945D01*
X173915902Y-98757201D02*
X173389132Y-98511475D01*
X173421031Y-99042916D02*
X172921031Y-98176890D01*
X173250945Y-97986414D01*
X173357233Y-97980034D01*
X173422282Y-97997464D01*
X173511140Y-98056133D01*
X173582569Y-98179851D01*
X173588949Y-98286139D01*
X173571519Y-98351188D01*
X173512850Y-98440047D01*
X173182935Y-98630523D01*
X173793436Y-97783178D02*
X173810866Y-97718130D01*
X173869535Y-97629271D01*
X174075731Y-97510224D01*
X174182019Y-97503844D01*
X174247068Y-97521274D01*
X174335927Y-97579943D01*
X174383546Y-97662421D01*
X174413735Y-97809949D01*
X174204577Y-98590535D01*
X174740688Y-98281011D01*
X174618222Y-97306988D02*
X174635652Y-97241939D01*
X174694321Y-97153081D01*
X174900517Y-97034033D01*
X175006805Y-97027653D01*
X175071854Y-97045083D01*
X175160713Y-97103752D01*
X175208332Y-97186231D01*
X175238521Y-97333758D01*
X175029364Y-98114344D01*
X175565475Y-97804821D01*
X178360902Y-98757201D02*
X177834132Y-98511475D01*
X177866031Y-99042916D02*
X177366031Y-98176890D01*
X177695945Y-97986414D01*
X177802233Y-97980034D01*
X177867282Y-97997464D01*
X177956140Y-98056133D01*
X178027569Y-98179851D01*
X178033949Y-98286139D01*
X178016519Y-98351188D01*
X177957850Y-98440047D01*
X177627935Y-98630523D01*
X178238436Y-97783178D02*
X178255866Y-97718130D01*
X178314535Y-97629271D01*
X178520731Y-97510224D01*
X178627019Y-97503844D01*
X178692068Y-97521274D01*
X178780927Y-97579943D01*
X178828546Y-97662421D01*
X178858735Y-97809949D01*
X178649577Y-98590535D01*
X179185688Y-98281011D01*
X178974364Y-97248319D02*
X179510475Y-96938795D01*
X179412276Y-97435376D01*
X179535994Y-97363948D01*
X179642282Y-97357568D01*
X179707330Y-97374998D01*
X179796189Y-97433667D01*
X179915236Y-97639863D01*
X179921616Y-97746151D01*
X179904186Y-97811200D01*
X179845517Y-97900059D01*
X179598082Y-98042916D01*
X179491793Y-98049295D01*
X179426745Y-98031866D01*
X182805902Y-98757201D02*
X182279132Y-98511475D01*
X182311031Y-99042916D02*
X181811031Y-98176890D01*
X182140945Y-97986414D01*
X182247233Y-97980034D01*
X182312282Y-97997464D01*
X182401140Y-98056133D01*
X182472569Y-98179851D01*
X182478949Y-98286139D01*
X182461519Y-98351188D01*
X182402850Y-98440047D01*
X182072935Y-98630523D01*
X182683436Y-97783178D02*
X182700866Y-97718130D01*
X182759535Y-97629271D01*
X182965731Y-97510224D01*
X183072019Y-97503844D01*
X183137068Y-97521274D01*
X183225927Y-97579943D01*
X183273546Y-97662421D01*
X183303735Y-97809949D01*
X183094577Y-98590535D01*
X183630688Y-98281011D01*
X184039663Y-97275089D02*
X184372996Y-97852440D01*
X183642990Y-97064222D02*
X183793936Y-97801860D01*
X184330047Y-97492336D01*
X104751635Y-139516344D02*
X104701056Y-138937285D01*
X104256764Y-139230630D02*
X104756764Y-138364605D01*
X105086678Y-138555081D01*
X105145347Y-138643939D01*
X105162777Y-138708988D01*
X105156397Y-138815276D01*
X105084969Y-138938994D01*
X104996110Y-138997663D01*
X104931062Y-139015093D01*
X104824773Y-139008713D01*
X104494859Y-138818237D01*
X105533931Y-138923274D02*
X105598980Y-138905844D01*
X105705268Y-138912224D01*
X105911464Y-139031271D01*
X105970133Y-139120130D01*
X105987563Y-139185178D01*
X105981183Y-139291467D01*
X105933564Y-139373945D01*
X105820896Y-139473854D01*
X105040311Y-139683011D01*
X105576422Y-139992535D01*
X106859968Y-139578890D02*
X106447575Y-139340795D01*
X106168241Y-139729379D01*
X106233290Y-139711949D01*
X106339578Y-139718329D01*
X106545774Y-139837376D01*
X106604443Y-139926235D01*
X106621873Y-139991283D01*
X106615493Y-140097572D01*
X106496446Y-140303768D01*
X106407587Y-140362437D01*
X106342539Y-140379867D01*
X106236250Y-140373487D01*
X106030054Y-140254440D01*
X105971385Y-140165581D01*
X105953955Y-140100532D01*
X109196635Y-139516344D02*
X109146056Y-138937285D01*
X108701764Y-139230630D02*
X109201764Y-138364605D01*
X109531678Y-138555081D01*
X109590347Y-138643939D01*
X109607777Y-138708988D01*
X109601397Y-138815276D01*
X109529969Y-138938994D01*
X109441110Y-138997663D01*
X109376062Y-139015093D01*
X109269773Y-139008713D01*
X108939859Y-138818237D01*
X109978931Y-138923274D02*
X110043980Y-138905844D01*
X110150268Y-138912224D01*
X110356464Y-139031271D01*
X110415133Y-139120130D01*
X110432563Y-139185178D01*
X110426183Y-139291467D01*
X110378564Y-139373945D01*
X110265896Y-139473854D01*
X109485311Y-139683011D01*
X110021422Y-139992535D01*
X111263729Y-139555081D02*
X111098772Y-139459843D01*
X110992484Y-139453463D01*
X110927435Y-139470893D01*
X110773528Y-139546992D01*
X110637050Y-139688139D01*
X110446574Y-140018054D01*
X110440194Y-140124342D01*
X110457624Y-140189391D01*
X110516293Y-140278249D01*
X110681250Y-140373487D01*
X110787539Y-140379867D01*
X110852587Y-140362437D01*
X110941446Y-140303768D01*
X111060493Y-140097572D01*
X111066873Y-139991283D01*
X111049443Y-139926235D01*
X110990774Y-139837376D01*
X110825817Y-139742138D01*
X110719529Y-139735758D01*
X110654480Y-139753188D01*
X110565622Y-139811857D01*
X113641635Y-139516344D02*
X113591056Y-138937285D01*
X113146764Y-139230630D02*
X113646764Y-138364605D01*
X113976678Y-138555081D01*
X114035347Y-138643939D01*
X114052777Y-138708988D01*
X114046397Y-138815276D01*
X113974969Y-138938994D01*
X113886110Y-138997663D01*
X113821062Y-139015093D01*
X113714773Y-139008713D01*
X113384859Y-138818237D01*
X114423931Y-138923274D02*
X114488980Y-138905844D01*
X114595268Y-138912224D01*
X114801464Y-139031271D01*
X114860133Y-139120130D01*
X114877563Y-139185178D01*
X114871183Y-139291467D01*
X114823564Y-139373945D01*
X114710896Y-139473854D01*
X113930311Y-139683011D01*
X114466422Y-139992535D01*
X115255097Y-139293176D02*
X115832447Y-139626509D01*
X114961293Y-140278249D01*
X118086635Y-139516344D02*
X118036056Y-138937285D01*
X117591764Y-139230630D02*
X118091764Y-138364605D01*
X118421678Y-138555081D01*
X118480347Y-138643939D01*
X118497777Y-138708988D01*
X118491397Y-138815276D01*
X118419969Y-138938994D01*
X118331110Y-138997663D01*
X118266062Y-139015093D01*
X118159773Y-139008713D01*
X117829859Y-138818237D01*
X118868931Y-138923274D02*
X118933980Y-138905844D01*
X119040268Y-138912224D01*
X119246464Y-139031271D01*
X119305133Y-139120130D01*
X119322563Y-139185178D01*
X119316183Y-139291467D01*
X119268564Y-139373945D01*
X119155896Y-139473854D01*
X118375311Y-139683011D01*
X118911422Y-139992535D01*
X119692007Y-139783377D02*
X119633338Y-139694519D01*
X119615909Y-139629470D01*
X119622288Y-139523182D01*
X119646098Y-139481943D01*
X119734956Y-139423274D01*
X119800005Y-139405844D01*
X119906293Y-139412224D01*
X120071250Y-139507462D01*
X120129919Y-139596320D01*
X120147349Y-139661369D01*
X120140970Y-139767657D01*
X120117160Y-139808896D01*
X120028302Y-139867565D01*
X119963253Y-139884995D01*
X119856965Y-139878616D01*
X119692007Y-139783377D01*
X119585719Y-139776998D01*
X119520670Y-139794427D01*
X119431812Y-139853097D01*
X119336574Y-140018054D01*
X119330194Y-140124342D01*
X119347624Y-140189391D01*
X119406293Y-140278249D01*
X119571250Y-140373487D01*
X119677539Y-140379867D01*
X119742587Y-140362437D01*
X119831446Y-140303768D01*
X119926684Y-140138811D01*
X119933064Y-140032523D01*
X119915634Y-139967474D01*
X119856965Y-139878616D01*
X122531635Y-139516344D02*
X122481056Y-138937285D01*
X122036764Y-139230630D02*
X122536764Y-138364605D01*
X122866678Y-138555081D01*
X122925347Y-138643939D01*
X122942777Y-138708988D01*
X122936397Y-138815276D01*
X122864969Y-138938994D01*
X122776110Y-138997663D01*
X122711062Y-139015093D01*
X122604773Y-139008713D01*
X122274859Y-138818237D01*
X123313931Y-138923274D02*
X123378980Y-138905844D01*
X123485268Y-138912224D01*
X123691464Y-139031271D01*
X123750133Y-139120130D01*
X123767563Y-139185178D01*
X123761183Y-139291467D01*
X123713564Y-139373945D01*
X123600896Y-139473854D01*
X122820311Y-139683011D01*
X123356422Y-139992535D01*
X123768815Y-140230630D02*
X123933772Y-140325868D01*
X124040060Y-140332248D01*
X124105109Y-140314818D01*
X124259016Y-140238719D01*
X124395493Y-140097572D01*
X124585970Y-139767657D01*
X124592349Y-139661369D01*
X124574919Y-139596320D01*
X124516250Y-139507462D01*
X124351293Y-139412224D01*
X124245005Y-139405844D01*
X124179956Y-139423274D01*
X124091098Y-139481943D01*
X123972050Y-139688139D01*
X123965670Y-139794427D01*
X123983100Y-139859476D01*
X124041769Y-139948335D01*
X124206727Y-140043573D01*
X124313015Y-140049952D01*
X124378064Y-140032523D01*
X124466922Y-139973854D01*
X126976635Y-139516344D02*
X126926056Y-138937285D01*
X126481764Y-139230630D02*
X126981764Y-138364605D01*
X127311678Y-138555081D01*
X127370347Y-138643939D01*
X127387777Y-138708988D01*
X127381397Y-138815276D01*
X127309969Y-138938994D01*
X127221110Y-138997663D01*
X127156062Y-139015093D01*
X127049773Y-139008713D01*
X126719859Y-138818237D01*
X127765311Y-138816986D02*
X128301422Y-139126509D01*
X127822270Y-139289757D01*
X127945988Y-139361186D01*
X128004657Y-139450044D01*
X128022087Y-139515093D01*
X128015707Y-139621381D01*
X127896660Y-139827578D01*
X127807801Y-139886247D01*
X127742752Y-139903676D01*
X127636464Y-139897297D01*
X127389028Y-139754440D01*
X127330359Y-139665581D01*
X127312930Y-139600532D01*
X128837532Y-139436033D02*
X128920011Y-139483652D01*
X128978680Y-139572511D01*
X128996110Y-139637559D01*
X128989730Y-139743848D01*
X128935731Y-139932614D01*
X128816684Y-140138811D01*
X128680206Y-140279959D01*
X128591348Y-140338628D01*
X128526299Y-140356057D01*
X128420011Y-140349678D01*
X128337532Y-140302059D01*
X128278863Y-140213200D01*
X128261434Y-140148151D01*
X128267813Y-140041863D01*
X128321812Y-139853097D01*
X128440860Y-139646900D01*
X128577337Y-139505752D01*
X128666196Y-139447083D01*
X128731244Y-139429653D01*
X128837532Y-139436033D01*
X131421635Y-139516344D02*
X131371056Y-138937285D01*
X130926764Y-139230630D02*
X131426764Y-138364605D01*
X131756678Y-138555081D01*
X131815347Y-138643939D01*
X131832777Y-138708988D01*
X131826397Y-138815276D01*
X131754969Y-138938994D01*
X131666110Y-138997663D01*
X131601062Y-139015093D01*
X131494773Y-139008713D01*
X131164859Y-138818237D01*
X132210311Y-138816986D02*
X132746422Y-139126509D01*
X132267270Y-139289757D01*
X132390988Y-139361186D01*
X132449657Y-139450044D01*
X132467087Y-139515093D01*
X132460707Y-139621381D01*
X132341660Y-139827578D01*
X132252801Y-139886247D01*
X132187752Y-139903676D01*
X132081464Y-139897297D01*
X131834028Y-139754440D01*
X131775359Y-139665581D01*
X131757930Y-139600532D01*
X133071208Y-140468725D02*
X132576336Y-140183011D01*
X132823772Y-140325868D02*
X133323772Y-139459843D01*
X133169865Y-139535942D01*
X133039767Y-139570801D01*
X132933479Y-139564421D01*
X135866635Y-139516344D02*
X135816056Y-138937285D01*
X135371764Y-139230630D02*
X135871764Y-138364605D01*
X136201678Y-138555081D01*
X136260347Y-138643939D01*
X136277777Y-138708988D01*
X136271397Y-138815276D01*
X136199969Y-138938994D01*
X136111110Y-138997663D01*
X136046062Y-139015093D01*
X135939773Y-139008713D01*
X135609859Y-138818237D01*
X136655311Y-138816986D02*
X137191422Y-139126509D01*
X136712270Y-139289757D01*
X136835988Y-139361186D01*
X136894657Y-139450044D01*
X136912087Y-139515093D01*
X136905707Y-139621381D01*
X136786660Y-139827578D01*
X136697801Y-139886247D01*
X136632752Y-139903676D01*
X136526464Y-139897297D01*
X136279028Y-139754440D01*
X136220359Y-139665581D01*
X136202930Y-139600532D01*
X137473717Y-139399464D02*
X137538766Y-139382034D01*
X137645054Y-139388414D01*
X137851250Y-139507462D01*
X137909919Y-139596320D01*
X137927349Y-139661369D01*
X137920970Y-139767657D01*
X137873350Y-139850136D01*
X137760683Y-139950044D01*
X136980097Y-140159201D01*
X137516208Y-140468725D01*
%LPC*%
G36*
G01*
X177372000Y-54317000D02*
X176172000Y-54317000D01*
G75*
G02*
X175922000Y-54067000I0J250000D01*
G01*
X175922000Y-52867000D01*
G75*
G02*
X176172000Y-52617000I250000J0D01*
G01*
X177372000Y-52617000D01*
G75*
G02*
X177622000Y-52867000I0J-250000D01*
G01*
X177622000Y-54067000D01*
G75*
G02*
X177372000Y-54317000I-250000J0D01*
G01*
G37*
D14*
X179312000Y-53467000D03*
X181852000Y-53467000D03*
X184392000Y-53467000D03*
X176772000Y-50927000D03*
X179312000Y-50927000D03*
X181852000Y-50927000D03*
X184392000Y-50927000D03*
X160770000Y-50927000D03*
X158230000Y-50927000D03*
X155690000Y-50927000D03*
X153150000Y-50927000D03*
X160770000Y-53467000D03*
X158230000Y-53467000D03*
X155690000Y-53467000D03*
G36*
G01*
X153750000Y-54317000D02*
X152550000Y-54317000D01*
G75*
G02*
X152300000Y-54067000I0J250000D01*
G01*
X152300000Y-52867000D01*
G75*
G02*
X152550000Y-52617000I250000J0D01*
G01*
X153750000Y-52617000D01*
G75*
G02*
X154000000Y-52867000I0J-250000D01*
G01*
X154000000Y-54067000D01*
G75*
G02*
X153750000Y-54317000I-250000J0D01*
G01*
G37*
G36*
G01*
X107014000Y-54320000D02*
X105814000Y-54320000D01*
G75*
G02*
X105564000Y-54070000I0J250000D01*
G01*
X105564000Y-52870000D01*
G75*
G02*
X105814000Y-52620000I250000J0D01*
G01*
X107014000Y-52620000D01*
G75*
G02*
X107264000Y-52870000I0J-250000D01*
G01*
X107264000Y-54070000D01*
G75*
G02*
X107014000Y-54320000I-250000J0D01*
G01*
G37*
X108954000Y-53470000D03*
X111494000Y-53470000D03*
X114034000Y-53470000D03*
X116574000Y-53470000D03*
X119114000Y-53470000D03*
X106414000Y-50930000D03*
X108954000Y-50930000D03*
X111494000Y-50930000D03*
X114034000Y-50930000D03*
X116574000Y-50930000D03*
X119114000Y-50930000D03*
D15*
X179324000Y-62611000D03*
X171704000Y-85471000D03*
X179324000Y-65151000D03*
X171704000Y-82931000D03*
X179324000Y-67691000D03*
X171704000Y-80391000D03*
X179324000Y-70231000D03*
X171704000Y-77851000D03*
X179324000Y-72771000D03*
X171704000Y-75311000D03*
X179324000Y-75311000D03*
X171704000Y-72771000D03*
X179324000Y-77851000D03*
X171704000Y-70231000D03*
X179324000Y-80391000D03*
X171704000Y-67691000D03*
X179324000Y-82931000D03*
X171704000Y-65151000D03*
X179324000Y-85471000D03*
D16*
X171704000Y-62611000D03*
D15*
X126619000Y-62484000D03*
X118999000Y-85344000D03*
X126619000Y-65024000D03*
X118999000Y-82804000D03*
X126619000Y-67564000D03*
X118999000Y-80264000D03*
X126619000Y-70104000D03*
X118999000Y-77724000D03*
X126619000Y-72644000D03*
X118999000Y-75184000D03*
X126619000Y-75184000D03*
X118999000Y-72644000D03*
X126619000Y-77724000D03*
X118999000Y-70104000D03*
X126619000Y-80264000D03*
X118999000Y-67564000D03*
X126619000Y-82804000D03*
X118999000Y-65024000D03*
X126619000Y-85344000D03*
D16*
X118999000Y-62484000D03*
G36*
G01*
X139596896Y-99472000D02*
X139596896Y-99472000D01*
G75*
G02*
X140553114Y-99215782I606218J-350000D01*
G01*
X140553114Y-99215782D01*
G75*
G02*
X140809332Y-100172000I-350000J-606218D01*
G01*
X140809332Y-100172000D01*
G75*
G02*
X139853114Y-100428218I-606218J350000D01*
G01*
X139853114Y-100428218D01*
G75*
G02*
X139596896Y-99472000I350000J606218D01*
G01*
G37*
D17*
X133604000Y-96012000D03*
G36*
G01*
X112926896Y-99472000D02*
X112926896Y-99472000D01*
G75*
G02*
X113883114Y-99215782I606218J-350000D01*
G01*
X113883114Y-99215782D01*
G75*
G02*
X114139332Y-100172000I-350000J-606218D01*
G01*
X114139332Y-100172000D01*
G75*
G02*
X113183114Y-100428218I-606218J350000D01*
G01*
X113183114Y-100428218D01*
G75*
G02*
X112926896Y-99472000I350000J606218D01*
G01*
G37*
X106934000Y-96012000D03*
D16*
X154178000Y-62611000D03*
D15*
X161798000Y-85471000D03*
X154178000Y-65151000D03*
X161798000Y-82931000D03*
X154178000Y-67691000D03*
X161798000Y-80391000D03*
X154178000Y-70231000D03*
X161798000Y-77851000D03*
X154178000Y-72771000D03*
X161798000Y-75311000D03*
X154178000Y-75311000D03*
X161798000Y-72771000D03*
X154178000Y-77851000D03*
X161798000Y-70231000D03*
X154178000Y-80391000D03*
X161798000Y-67691000D03*
X154178000Y-82931000D03*
X161798000Y-65151000D03*
X154178000Y-85471000D03*
X161798000Y-62611000D03*
X126746000Y-103505000D03*
X119126000Y-126365000D03*
X126746000Y-106045000D03*
X119126000Y-123825000D03*
X126746000Y-108585000D03*
X119126000Y-121285000D03*
X126746000Y-111125000D03*
X119126000Y-118745000D03*
X126746000Y-113665000D03*
X119126000Y-116205000D03*
X126746000Y-116205000D03*
X119126000Y-113665000D03*
X126746000Y-118745000D03*
X119126000Y-111125000D03*
X126746000Y-121285000D03*
X119126000Y-108585000D03*
X126746000Y-123825000D03*
X119126000Y-106045000D03*
X126746000Y-126365000D03*
D16*
X119126000Y-103505000D03*
D18*
X133350000Y-134620000D03*
D19*
X133350000Y-132080000D03*
X128905000Y-132080000D03*
D18*
X128905000Y-134620000D03*
G36*
G01*
X121816896Y-99472000D02*
X121816896Y-99472000D01*
G75*
G02*
X122773114Y-99215782I606218J-350000D01*
G01*
X122773114Y-99215782D01*
G75*
G02*
X123029332Y-100172000I-350000J-606218D01*
G01*
X123029332Y-100172000D01*
G75*
G02*
X122073114Y-100428218I-606218J350000D01*
G01*
X122073114Y-100428218D01*
G75*
G02*
X121816896Y-99472000I350000J606218D01*
G01*
G37*
D17*
X115824000Y-96012000D03*
D15*
X108839000Y-62484000D03*
X101219000Y-85344000D03*
X108839000Y-65024000D03*
X101219000Y-82804000D03*
X108839000Y-67564000D03*
X101219000Y-80264000D03*
X108839000Y-70104000D03*
X101219000Y-77724000D03*
X108839000Y-72644000D03*
X101219000Y-75184000D03*
X108839000Y-75184000D03*
X101219000Y-72644000D03*
X108839000Y-77724000D03*
X101219000Y-70104000D03*
X108839000Y-80264000D03*
X101219000Y-67564000D03*
X108839000Y-82804000D03*
X101219000Y-65024000D03*
X108839000Y-85344000D03*
D16*
X101219000Y-62484000D03*
D19*
X102425500Y-90678000D03*
D18*
X102425500Y-93218000D03*
X106870500Y-93218000D03*
D19*
X106870500Y-90678000D03*
D18*
X111315500Y-93218000D03*
D19*
X111315500Y-90678000D03*
X115760500Y-90678000D03*
D18*
X115760500Y-93218000D03*
D19*
X120205500Y-90678000D03*
D18*
X120205500Y-93218000D03*
X124777500Y-93218000D03*
D19*
X124777500Y-90678000D03*
X129222500Y-90678000D03*
D18*
X129222500Y-93218000D03*
X133667500Y-93218000D03*
D19*
X133667500Y-90678000D03*
D18*
X155321001Y-134874000D03*
D19*
X155321001Y-132334000D03*
X159766000Y-132333999D03*
D18*
X159766000Y-134873999D03*
X164211000Y-134873999D03*
D19*
X164211000Y-132333999D03*
X168656000Y-132333999D03*
D18*
X168656000Y-134873999D03*
D19*
X173101000Y-132334000D03*
D18*
X173101000Y-134874000D03*
X177546000Y-134874000D03*
D19*
X177546000Y-132334000D03*
D18*
X181991000Y-134874000D03*
D19*
X181991000Y-132334000D03*
X186436000Y-132334000D03*
D18*
X186436000Y-134874000D03*
D19*
X155320999Y-90932000D03*
D18*
X155320999Y-93472000D03*
X159766000Y-93472001D03*
D19*
X159766000Y-90932001D03*
X164211000Y-90932001D03*
D18*
X164211000Y-93472001D03*
X168656000Y-93472000D03*
D19*
X168656000Y-90932000D03*
D18*
X173101000Y-93472000D03*
D19*
X173101000Y-90932000D03*
X177546000Y-90932000D03*
D18*
X177546000Y-93472000D03*
D19*
X181991000Y-90932000D03*
D18*
X181991000Y-93472000D03*
X186436000Y-93472001D03*
D19*
X186436000Y-90932001D03*
X102235000Y-132080000D03*
D18*
X102235000Y-134620000D03*
X106680000Y-134620000D03*
D19*
X106680000Y-132080000D03*
X111125000Y-132080000D03*
D18*
X111125000Y-134620000D03*
X115570000Y-134620000D03*
D19*
X115570000Y-132080000D03*
D18*
X120015000Y-134620000D03*
D19*
X120015000Y-132080000D03*
X124460000Y-132080000D03*
D18*
X124460000Y-134620000D03*
D17*
X102489000Y-96012000D03*
G36*
G01*
X108481896Y-99472000D02*
X108481896Y-99472000D01*
G75*
G02*
X109438114Y-99215782I606218J-350000D01*
G01*
X109438114Y-99215782D01*
G75*
G02*
X109694332Y-100172000I-350000J-606218D01*
G01*
X109694332Y-100172000D01*
G75*
G02*
X108738114Y-100428218I-606218J350000D01*
G01*
X108738114Y-100428218D01*
G75*
G02*
X108481896Y-99472000I350000J606218D01*
G01*
G37*
X111379000Y-96012000D03*
G36*
G01*
X117371896Y-99472000D02*
X117371896Y-99472000D01*
G75*
G02*
X118328114Y-99215782I606218J-350000D01*
G01*
X118328114Y-99215782D01*
G75*
G02*
X118584332Y-100172000I-350000J-606218D01*
G01*
X118584332Y-100172000D01*
G75*
G02*
X117628114Y-100428218I-606218J350000D01*
G01*
X117628114Y-100428218D01*
G75*
G02*
X117371896Y-99472000I350000J606218D01*
G01*
G37*
X120269000Y-96012000D03*
G36*
G01*
X126261896Y-99472000D02*
X126261896Y-99472000D01*
G75*
G02*
X127218114Y-99215782I606218J-350000D01*
G01*
X127218114Y-99215782D01*
G75*
G02*
X127474332Y-100172000I-350000J-606218D01*
G01*
X127474332Y-100172000D01*
G75*
G02*
X126518114Y-100428218I-606218J350000D01*
G01*
X126518114Y-100428218D01*
G75*
G02*
X126261896Y-99472000I350000J606218D01*
G01*
G37*
G36*
G01*
X130706896Y-99472000D02*
X130706896Y-99472000D01*
G75*
G02*
X131663114Y-99215782I606218J-350000D01*
G01*
X131663114Y-99215782D01*
G75*
G02*
X131919332Y-100172000I-350000J-606218D01*
G01*
X131919332Y-100172000D01*
G75*
G02*
X130963114Y-100428218I-606218J350000D01*
G01*
X130963114Y-100428218D01*
G75*
G02*
X130706896Y-99472000I350000J606218D01*
G01*
G37*
X124714000Y-96012000D03*
X129159000Y-96012000D03*
G36*
G01*
X135151896Y-99472000D02*
X135151896Y-99472000D01*
G75*
G02*
X136108114Y-99215782I606218J-350000D01*
G01*
X136108114Y-99215782D01*
G75*
G02*
X136364332Y-100172000I-350000J-606218D01*
G01*
X136364332Y-100172000D01*
G75*
G02*
X135408114Y-100428218I-606218J350000D01*
G01*
X135408114Y-100428218D01*
G75*
G02*
X135151896Y-99472000I350000J606218D01*
G01*
G37*
G36*
G01*
X149328105Y-141001000D02*
X149328105Y-141001000D01*
G75*
G02*
X149071887Y-141957218I-606218J-350000D01*
G01*
X149071887Y-141957218D01*
G75*
G02*
X148115669Y-141701000I-350000J606218D01*
G01*
X148115669Y-141701000D01*
G75*
G02*
X148371887Y-140744782I606218J350000D01*
G01*
X148371887Y-140744782D01*
G75*
G02*
X149328105Y-141001000I350000J-606218D01*
G01*
G37*
X155321001Y-137541000D03*
X159766000Y-137541000D03*
G36*
G01*
X153773104Y-141001000D02*
X153773104Y-141001000D01*
G75*
G02*
X153516886Y-141957218I-606218J-350000D01*
G01*
X153516886Y-141957218D01*
G75*
G02*
X152560668Y-141701000I-350000J606218D01*
G01*
X152560668Y-141701000D01*
G75*
G02*
X152816886Y-140744782I606218J350000D01*
G01*
X152816886Y-140744782D01*
G75*
G02*
X153773104Y-141001000I350000J-606218D01*
G01*
G37*
G36*
G01*
X158218104Y-141001000D02*
X158218104Y-141001000D01*
G75*
G02*
X157961886Y-141957218I-606218J-350000D01*
G01*
X157961886Y-141957218D01*
G75*
G02*
X157005668Y-141701000I-350000J606218D01*
G01*
X157005668Y-141701000D01*
G75*
G02*
X157261886Y-140744782I606218J350000D01*
G01*
X157261886Y-140744782D01*
G75*
G02*
X158218104Y-141001000I350000J-606218D01*
G01*
G37*
X164211000Y-137541000D03*
X168656000Y-137496002D03*
G36*
G01*
X162663104Y-140956002D02*
X162663104Y-140956002D01*
G75*
G02*
X162406886Y-141912220I-606218J-350000D01*
G01*
X162406886Y-141912220D01*
G75*
G02*
X161450668Y-141656002I-350000J606218D01*
G01*
X161450668Y-141656002D01*
G75*
G02*
X161706886Y-140699784I606218J350000D01*
G01*
X161706886Y-140699784D01*
G75*
G02*
X162663104Y-140956002I350000J-606218D01*
G01*
G37*
G36*
G01*
X167108104Y-141001000D02*
X167108104Y-141001000D01*
G75*
G02*
X166851886Y-141957218I-606218J-350000D01*
G01*
X166851886Y-141957218D01*
G75*
G02*
X165895668Y-141701000I-350000J606218D01*
G01*
X165895668Y-141701000D01*
G75*
G02*
X166151886Y-140744782I606218J350000D01*
G01*
X166151886Y-140744782D01*
G75*
G02*
X167108104Y-141001000I350000J-606218D01*
G01*
G37*
X173101000Y-137541000D03*
X177546000Y-137541000D03*
G36*
G01*
X171553104Y-141001000D02*
X171553104Y-141001000D01*
G75*
G02*
X171296886Y-141957218I-606218J-350000D01*
G01*
X171296886Y-141957218D01*
G75*
G02*
X170340668Y-141701000I-350000J606218D01*
G01*
X170340668Y-141701000D01*
G75*
G02*
X170596886Y-140744782I606218J350000D01*
G01*
X170596886Y-140744782D01*
G75*
G02*
X171553104Y-141001000I350000J-606218D01*
G01*
G37*
G36*
G01*
X175998104Y-141001000D02*
X175998104Y-141001000D01*
G75*
G02*
X175741886Y-141957218I-606218J-350000D01*
G01*
X175741886Y-141957218D01*
G75*
G02*
X174785668Y-141701000I-350000J606218D01*
G01*
X174785668Y-141701000D01*
G75*
G02*
X175041886Y-140744782I606218J350000D01*
G01*
X175041886Y-140744782D01*
G75*
G02*
X175998104Y-141001000I350000J-606218D01*
G01*
G37*
X181991000Y-137541000D03*
X186436000Y-137541000D03*
G36*
G01*
X180443104Y-141001000D02*
X180443104Y-141001000D01*
G75*
G02*
X180186886Y-141957218I-606218J-350000D01*
G01*
X180186886Y-141957218D01*
G75*
G02*
X179230668Y-141701000I-350000J606218D01*
G01*
X179230668Y-141701000D01*
G75*
G02*
X179486886Y-140744782I606218J350000D01*
G01*
X179486886Y-140744782D01*
G75*
G02*
X180443104Y-141001000I350000J-606218D01*
G01*
G37*
G36*
G01*
X149328104Y-99599000D02*
X149328104Y-99599000D01*
G75*
G02*
X149071886Y-100555218I-606218J-350000D01*
G01*
X149071886Y-100555218D01*
G75*
G02*
X148115668Y-100299000I-350000J606218D01*
G01*
X148115668Y-100299000D01*
G75*
G02*
X148371886Y-99342782I606218J350000D01*
G01*
X148371886Y-99342782D01*
G75*
G02*
X149328104Y-99599000I350000J-606218D01*
G01*
G37*
X155321000Y-96139000D03*
X159766000Y-96139000D03*
G36*
G01*
X153773104Y-99599000D02*
X153773104Y-99599000D01*
G75*
G02*
X153516886Y-100555218I-606218J-350000D01*
G01*
X153516886Y-100555218D01*
G75*
G02*
X152560668Y-100299000I-350000J606218D01*
G01*
X152560668Y-100299000D01*
G75*
G02*
X152816886Y-99342782I606218J350000D01*
G01*
X152816886Y-99342782D01*
G75*
G02*
X153773104Y-99599000I350000J-606218D01*
G01*
G37*
X164211000Y-96139000D03*
G36*
G01*
X158218104Y-99599000D02*
X158218104Y-99599000D01*
G75*
G02*
X157961886Y-100555218I-606218J-350000D01*
G01*
X157961886Y-100555218D01*
G75*
G02*
X157005668Y-100299000I-350000J606218D01*
G01*
X157005668Y-100299000D01*
G75*
G02*
X157261886Y-99342782I606218J350000D01*
G01*
X157261886Y-99342782D01*
G75*
G02*
X158218104Y-99599000I350000J-606218D01*
G01*
G37*
X168656000Y-96139000D03*
G36*
G01*
X162663104Y-99599000D02*
X162663104Y-99599000D01*
G75*
G02*
X162406886Y-100555218I-606218J-350000D01*
G01*
X162406886Y-100555218D01*
G75*
G02*
X161450668Y-100299000I-350000J606218D01*
G01*
X161450668Y-100299000D01*
G75*
G02*
X161706886Y-99342782I606218J350000D01*
G01*
X161706886Y-99342782D01*
G75*
G02*
X162663104Y-99599000I350000J-606218D01*
G01*
G37*
G36*
G01*
X167108104Y-99599000D02*
X167108104Y-99599000D01*
G75*
G02*
X166851886Y-100555218I-606218J-350000D01*
G01*
X166851886Y-100555218D01*
G75*
G02*
X165895668Y-100299000I-350000J606218D01*
G01*
X165895668Y-100299000D01*
G75*
G02*
X166151886Y-99342782I606218J350000D01*
G01*
X166151886Y-99342782D01*
G75*
G02*
X167108104Y-99599000I350000J-606218D01*
G01*
G37*
X173101000Y-96139000D03*
X177546000Y-96139000D03*
G36*
G01*
X171553104Y-99599000D02*
X171553104Y-99599000D01*
G75*
G02*
X171296886Y-100555218I-606218J-350000D01*
G01*
X171296886Y-100555218D01*
G75*
G02*
X170340668Y-100299000I-350000J606218D01*
G01*
X170340668Y-100299000D01*
G75*
G02*
X170596886Y-99342782I606218J350000D01*
G01*
X170596886Y-99342782D01*
G75*
G02*
X171553104Y-99599000I350000J-606218D01*
G01*
G37*
G36*
G01*
X175998104Y-99599000D02*
X175998104Y-99599000D01*
G75*
G02*
X175741886Y-100555218I-606218J-350000D01*
G01*
X175741886Y-100555218D01*
G75*
G02*
X174785668Y-100299000I-350000J606218D01*
G01*
X174785668Y-100299000D01*
G75*
G02*
X175041886Y-99342782I606218J350000D01*
G01*
X175041886Y-99342782D01*
G75*
G02*
X175998104Y-99599000I350000J-606218D01*
G01*
G37*
X181991000Y-96139000D03*
X186436000Y-96139000D03*
G36*
G01*
X180443104Y-99599000D02*
X180443104Y-99599000D01*
G75*
G02*
X180186886Y-100555218I-606218J-350000D01*
G01*
X180186886Y-100555218D01*
G75*
G02*
X179230668Y-100299000I-350000J606218D01*
G01*
X179230668Y-100299000D01*
G75*
G02*
X179486886Y-99342782I606218J350000D01*
G01*
X179486886Y-99342782D01*
G75*
G02*
X180443104Y-99599000I350000J-606218D01*
G01*
G37*
G36*
G01*
X108227896Y-141001000D02*
X108227896Y-141001000D01*
G75*
G02*
X109184114Y-140744782I606218J-350000D01*
G01*
X109184114Y-140744782D01*
G75*
G02*
X109440332Y-141701000I-350000J-606218D01*
G01*
X109440332Y-141701000D01*
G75*
G02*
X108484114Y-141957218I-606218J350000D01*
G01*
X108484114Y-141957218D01*
G75*
G02*
X108227896Y-141001000I350000J606218D01*
G01*
G37*
X102235000Y-137541000D03*
G36*
G01*
X112672896Y-141001000D02*
X112672896Y-141001000D01*
G75*
G02*
X113629114Y-140744782I606218J-350000D01*
G01*
X113629114Y-140744782D01*
G75*
G02*
X113885332Y-141701000I-350000J-606218D01*
G01*
X113885332Y-141701000D01*
G75*
G02*
X112929114Y-141957218I-606218J350000D01*
G01*
X112929114Y-141957218D01*
G75*
G02*
X112672896Y-141001000I350000J606218D01*
G01*
G37*
X106680000Y-137541000D03*
X111125000Y-137541000D03*
G36*
G01*
X117117896Y-141001000D02*
X117117896Y-141001000D01*
G75*
G02*
X118074114Y-140744782I606218J-350000D01*
G01*
X118074114Y-140744782D01*
G75*
G02*
X118330332Y-141701000I-350000J-606218D01*
G01*
X118330332Y-141701000D01*
G75*
G02*
X117374114Y-141957218I-606218J350000D01*
G01*
X117374114Y-141957218D01*
G75*
G02*
X117117896Y-141001000I350000J606218D01*
G01*
G37*
G36*
G01*
X121562896Y-141001000D02*
X121562896Y-141001000D01*
G75*
G02*
X122519114Y-140744782I606218J-350000D01*
G01*
X122519114Y-140744782D01*
G75*
G02*
X122775332Y-141701000I-350000J-606218D01*
G01*
X122775332Y-141701000D01*
G75*
G02*
X121819114Y-141957218I-606218J350000D01*
G01*
X121819114Y-141957218D01*
G75*
G02*
X121562896Y-141001000I350000J606218D01*
G01*
G37*
X115570000Y-137541000D03*
X120015000Y-137541000D03*
G36*
G01*
X126007896Y-141001000D02*
X126007896Y-141001000D01*
G75*
G02*
X126964114Y-140744782I606218J-350000D01*
G01*
X126964114Y-140744782D01*
G75*
G02*
X127220332Y-141701000I-350000J-606218D01*
G01*
X127220332Y-141701000D01*
G75*
G02*
X126264114Y-141957218I-606218J350000D01*
G01*
X126264114Y-141957218D01*
G75*
G02*
X126007896Y-141001000I350000J606218D01*
G01*
G37*
G36*
G01*
X130452896Y-141001000D02*
X130452896Y-141001000D01*
G75*
G02*
X131409114Y-140744782I606218J-350000D01*
G01*
X131409114Y-140744782D01*
G75*
G02*
X131665332Y-141701000I-350000J-606218D01*
G01*
X131665332Y-141701000D01*
G75*
G02*
X130709114Y-141957218I-606218J350000D01*
G01*
X130709114Y-141957218D01*
G75*
G02*
X130452896Y-141001000I350000J606218D01*
G01*
G37*
X124460000Y-137541000D03*
X128905000Y-137541000D03*
G36*
G01*
X134897896Y-141001000D02*
X134897896Y-141001000D01*
G75*
G02*
X135854114Y-140744782I606218J-350000D01*
G01*
X135854114Y-140744782D01*
G75*
G02*
X136110332Y-141701000I-350000J-606218D01*
G01*
X136110332Y-141701000D01*
G75*
G02*
X135154114Y-141957218I-606218J350000D01*
G01*
X135154114Y-141957218D01*
G75*
G02*
X134897896Y-141001000I350000J606218D01*
G01*
G37*
G36*
G01*
X139342896Y-141001000D02*
X139342896Y-141001000D01*
G75*
G02*
X140299114Y-140744782I606218J-350000D01*
G01*
X140299114Y-140744782D01*
G75*
G02*
X140555332Y-141701000I-350000J-606218D01*
G01*
X140555332Y-141701000D01*
G75*
G02*
X139599114Y-141957218I-606218J350000D01*
G01*
X139599114Y-141957218D01*
G75*
G02*
X139342896Y-141001000I350000J606218D01*
G01*
G37*
X133350000Y-137541000D03*
D16*
X171704000Y-103759000D03*
D15*
X179324000Y-126619000D03*
X171704000Y-106299000D03*
X179324000Y-124079000D03*
X171704000Y-108839000D03*
X179324000Y-121539000D03*
X171704000Y-111379000D03*
X179324000Y-118999000D03*
X171704000Y-113919000D03*
X179324000Y-116459000D03*
X171704000Y-116459000D03*
X179324000Y-113919000D03*
X171704000Y-118999000D03*
X179324000Y-111379000D03*
X171704000Y-121539000D03*
X179324000Y-108839000D03*
X171704000Y-124079000D03*
X179324000Y-106299000D03*
X171704000Y-126619000D03*
X179324000Y-103759000D03*
D16*
X154178000Y-103759000D03*
D15*
X161798000Y-126619000D03*
X154178000Y-106299000D03*
X161798000Y-124079000D03*
X154178000Y-108839000D03*
X161798000Y-121539000D03*
X154178000Y-111379000D03*
X161798000Y-118999000D03*
X154178000Y-113919000D03*
X161798000Y-116459000D03*
X154178000Y-116459000D03*
X161798000Y-113919000D03*
X154178000Y-118999000D03*
X161798000Y-111379000D03*
X154178000Y-121539000D03*
X161798000Y-108839000D03*
X154178000Y-124079000D03*
X161798000Y-106299000D03*
X154178000Y-126619000D03*
X161798000Y-103759000D03*
D16*
X101346000Y-103505000D03*
D15*
X108966000Y-126365000D03*
X101346000Y-106045000D03*
X108966000Y-123825000D03*
X101346000Y-108585000D03*
X108966000Y-121285000D03*
X101346000Y-111125000D03*
X108966000Y-118745000D03*
X101346000Y-113665000D03*
X108966000Y-116205000D03*
X101346000Y-116205000D03*
X108966000Y-113665000D03*
X101346000Y-118745000D03*
X108966000Y-111125000D03*
X101346000Y-121285000D03*
X108966000Y-108585000D03*
X101346000Y-123825000D03*
X108966000Y-106045000D03*
X101346000Y-126365000D03*
X108966000Y-103505000D03*
M02*
