%FSLAX45Y45*%
G04 Gerber Fmt 4.5, Leading zero omitted, Abs format (unit mm)*
G04 Created by KiCad (PCBNEW (5.1.10)-1) date 2023-01-28 17:58:23*
%MOMM*%
%LPD*%
G01*
G04 APERTURE LIST*
%TA.AperFunction,Profile*%
%ADD10C,0.100000*%
%TD*%
%ADD11C,0.200000*%
%ADD12C,0.300000*%
G04 APERTURE END LIST*
D10*
X19640550Y-4362450D02*
X19640550Y-14490700D01*
X9480550Y-4362450D02*
X19640550Y-4362450D01*
X9480550Y-14490700D02*
X9480550Y-4362450D01*
X19640550Y-14490700D02*
X9480550Y-14490700D01*
D11*
X9987600Y-9441500D02*
X10027600Y-9481500D01*
X10027600Y-9441500D02*
X9987600Y-9481500D01*
X10646599Y-10653500D02*
X10686599Y-10693500D01*
X10686599Y-10653500D02*
X10646599Y-10693500D01*
X10646599Y-10798500D02*
X10686599Y-10838500D01*
X10686599Y-10798500D02*
X10646599Y-10838500D01*
X11111550Y-11213150D02*
X11151550Y-11253150D01*
X11151550Y-11213150D02*
X11111550Y-11253150D01*
X11143300Y-6279200D02*
X11183300Y-6319200D01*
X11183300Y-6279200D02*
X11143300Y-6319200D01*
X12094600Y-5784200D02*
X12134600Y-5824200D01*
X12134600Y-5784200D02*
X12094600Y-5824200D01*
X12095800Y-11921700D02*
X12135800Y-11961700D01*
X12135800Y-11921700D02*
X12095800Y-11961700D01*
X12095800Y-12114850D02*
X12135800Y-12154850D01*
X12135800Y-12114850D02*
X12095800Y-12154850D01*
X12195800Y-11921700D02*
X12235800Y-11961700D01*
X12235800Y-11921700D02*
X12195800Y-11961700D01*
X12197400Y-12121200D02*
X12237400Y-12161200D01*
X12237400Y-12121200D02*
X12197400Y-12161200D01*
X12203750Y-8006400D02*
X12243750Y-8046400D01*
X12243750Y-8006400D02*
X12203750Y-8046400D01*
X12278079Y-7933900D02*
X12318079Y-7973900D01*
X12318079Y-7933900D02*
X12278079Y-7973900D01*
X12628000Y-5905049D02*
X12668000Y-5945049D01*
X12668000Y-5905049D02*
X12628000Y-5945049D01*
X12666100Y-4869800D02*
X12706100Y-4909800D01*
X12706100Y-4869800D02*
X12666100Y-4909800D01*
X12737150Y-6844350D02*
X12777150Y-6884350D01*
X12777150Y-6844350D02*
X12737150Y-6884350D01*
X12742300Y-5911200D02*
X12782300Y-5951200D01*
X12782300Y-5911200D02*
X12742300Y-5951200D01*
X12819122Y-5983700D02*
X12859122Y-6023700D01*
X12859122Y-5983700D02*
X12819122Y-6023700D01*
X12843900Y-5281700D02*
X12883900Y-5321700D01*
X12883900Y-5281700D02*
X12843900Y-5321700D01*
X12883200Y-6095050D02*
X12923200Y-6135050D01*
X12923200Y-6095050D02*
X12883200Y-6135050D01*
X12941485Y-5326701D02*
X12981485Y-5366701D01*
X12981485Y-5326701D02*
X12941485Y-5366701D01*
X13116140Y-7293190D02*
X13156140Y-7333190D01*
X13156140Y-7293190D02*
X13116140Y-7333190D01*
X13174100Y-5399201D02*
X13214100Y-5439201D01*
X13214100Y-5399201D02*
X13174100Y-5439201D01*
X14412899Y-5784200D02*
X14452899Y-5824200D01*
X14452899Y-5784200D02*
X14412899Y-5824200D01*
X14412899Y-5911200D02*
X14452899Y-5951200D01*
X14452899Y-5911200D02*
X14412899Y-5951200D01*
X14412899Y-6012800D02*
X14452899Y-6052800D01*
X14452899Y-6012800D02*
X14412899Y-6052800D01*
X14485399Y-6127100D02*
X14525399Y-6167100D01*
X14525399Y-6127100D02*
X14485399Y-6167100D01*
X14585400Y-6127100D02*
X14625400Y-6167100D01*
X14625400Y-6127100D02*
X14585400Y-6167100D01*
X14825100Y-6241400D02*
X14865100Y-6281400D01*
X14865100Y-6241400D02*
X14825100Y-6281400D01*
X14959650Y-6387150D02*
X14999650Y-6427150D01*
X14999650Y-6387150D02*
X14959650Y-6427150D01*
X14987795Y-10355900D02*
X15027795Y-10395900D01*
X15027795Y-10355900D02*
X14987795Y-10395900D01*
X15244235Y-12249365D02*
X15284235Y-12289365D01*
X15284235Y-12249365D02*
X15244235Y-12289365D01*
X15270335Y-8159265D02*
X15310335Y-8199265D01*
X15310335Y-8159265D02*
X15270335Y-8199265D01*
X15620050Y-8266750D02*
X15660050Y-8306750D01*
X15660050Y-8266750D02*
X15620050Y-8306750D01*
X15639100Y-12387900D02*
X15679100Y-12427900D01*
X15679100Y-12387900D02*
X15639100Y-12427900D01*
X15790300Y-5606703D02*
X15830300Y-5646703D01*
X15830300Y-5606703D02*
X15790300Y-5646703D01*
X16343950Y-10622600D02*
X16383950Y-10662600D01*
X16383950Y-10622600D02*
X16343950Y-10662600D01*
X16470950Y-6220098D02*
X16510950Y-6260098D01*
X16510950Y-6220098D02*
X16470950Y-6260098D01*
X16470950Y-6490099D02*
X16510950Y-6530099D01*
X16510950Y-6490099D02*
X16470950Y-6530099D01*
X16572550Y-11238550D02*
X16612550Y-11278550D01*
X16612550Y-11238550D02*
X16572550Y-11278550D01*
X16821610Y-6248860D02*
X16861610Y-6288860D01*
X16861610Y-6248860D02*
X16821610Y-6288860D01*
X17486950Y-7053900D02*
X17526950Y-7093900D01*
X17526950Y-7053900D02*
X17486950Y-7093900D01*
X17639350Y-10971850D02*
X17679350Y-11011850D01*
X17679350Y-10971850D02*
X17639350Y-11011850D01*
X17683800Y-11505250D02*
X17723800Y-11545250D01*
X17723800Y-11505250D02*
X17683800Y-11545250D01*
X17721900Y-11111550D02*
X17761900Y-11151550D01*
X17761900Y-11111550D02*
X17721900Y-11151550D01*
X18102900Y-11600500D02*
X18142900Y-11640500D01*
X18142900Y-11600500D02*
X18102900Y-11640500D01*
X18591850Y-10260650D02*
X18631850Y-10300650D01*
X18631850Y-10260650D02*
X18591850Y-10300650D01*
X18731550Y-8527100D02*
X18771550Y-8567100D01*
X18771550Y-8527100D02*
X18731550Y-8567100D01*
X18966500Y-10641650D02*
X19006500Y-10681650D01*
X19006500Y-10641650D02*
X18966500Y-10681650D01*
X19042700Y-10857550D02*
X19082700Y-10897550D01*
X19082700Y-10857550D02*
X19042700Y-10897550D01*
X19118900Y-11117900D02*
X19158900Y-11157900D01*
X19158900Y-11117900D02*
X19118900Y-11157900D01*
X19195100Y-11841800D02*
X19235100Y-11881800D01*
X19235100Y-11841800D02*
X19195100Y-11881800D01*
X19207800Y-12851450D02*
X19247800Y-12891450D01*
X19247800Y-12851450D02*
X19207800Y-12891450D01*
X19271300Y-11714800D02*
X19311300Y-11754800D01*
X19311300Y-11714800D02*
X19271300Y-11754800D01*
X10258500Y-13754100D02*
G75*
G03*
X10258500Y-13754100I-35000J0D01*
G01*
X10283900Y-9601200D02*
G75*
G03*
X10283900Y-9601200I-35000J0D01*
G01*
X10703000Y-13754100D02*
G75*
G03*
X10703000Y-13754100I-35000J0D01*
G01*
X10728400Y-9601200D02*
G75*
G03*
X10728400Y-9601200I-35000J0D01*
G01*
X10918411Y-14135100D02*
G75*
G03*
X10918411Y-14135100I-35000J0D01*
G01*
X10943811Y-9982200D02*
G75*
G03*
X10943811Y-9982200I-35000J0D01*
G01*
X11147500Y-13754100D02*
G75*
G03*
X11147500Y-13754100I-35000J0D01*
G01*
X11172900Y-9601200D02*
G75*
G03*
X11172900Y-9601200I-35000J0D01*
G01*
X11362911Y-14135100D02*
G75*
G03*
X11362911Y-14135100I-35000J0D01*
G01*
X11388311Y-9982200D02*
G75*
G03*
X11388311Y-9982200I-35000J0D01*
G01*
X11592000Y-13754100D02*
G75*
G03*
X11592000Y-13754100I-35000J0D01*
G01*
X11617400Y-9601200D02*
G75*
G03*
X11617400Y-9601200I-35000J0D01*
G01*
X11807411Y-14135100D02*
G75*
G03*
X11807411Y-14135100I-35000J0D01*
G01*
X11832811Y-9982200D02*
G75*
G03*
X11832811Y-9982200I-35000J0D01*
G01*
X12036500Y-13754100D02*
G75*
G03*
X12036500Y-13754100I-35000J0D01*
G01*
X12061900Y-9601200D02*
G75*
G03*
X12061900Y-9601200I-35000J0D01*
G01*
X12251911Y-14135100D02*
G75*
G03*
X12251911Y-14135100I-35000J0D01*
G01*
X12277311Y-9982200D02*
G75*
G03*
X12277311Y-9982200I-35000J0D01*
G01*
X12481000Y-13754100D02*
G75*
G03*
X12481000Y-13754100I-35000J0D01*
G01*
X12506400Y-9601200D02*
G75*
G03*
X12506400Y-9601200I-35000J0D01*
G01*
X12696411Y-14135100D02*
G75*
G03*
X12696411Y-14135100I-35000J0D01*
G01*
X12721811Y-9982200D02*
G75*
G03*
X12721811Y-9982200I-35000J0D01*
G01*
X12925500Y-13754100D02*
G75*
G03*
X12925500Y-13754100I-35000J0D01*
G01*
X12950900Y-9601200D02*
G75*
G03*
X12950900Y-9601200I-35000J0D01*
G01*
X13140911Y-14135100D02*
G75*
G03*
X13140911Y-14135100I-35000J0D01*
G01*
X13166311Y-9982200D02*
G75*
G03*
X13166311Y-9982200I-35000J0D01*
G01*
X13370000Y-13754100D02*
G75*
G03*
X13370000Y-13754100I-35000J0D01*
G01*
X13395400Y-9601200D02*
G75*
G03*
X13395400Y-9601200I-35000J0D01*
G01*
X13585411Y-14135100D02*
G75*
G03*
X13585411Y-14135100I-35000J0D01*
G01*
X13610811Y-9982200D02*
G75*
G03*
X13610811Y-9982200I-35000J0D01*
G01*
X14029911Y-14135100D02*
G75*
G03*
X14029911Y-14135100I-35000J0D01*
G01*
X14055311Y-9982200D02*
G75*
G03*
X14055311Y-9982200I-35000J0D01*
G01*
X14907189Y-9994900D02*
G75*
G03*
X14907189Y-9994900I-35000J0D01*
G01*
X14907189Y-14135100D02*
G75*
G03*
X14907189Y-14135100I-35000J0D01*
G01*
X15351689Y-9994900D02*
G75*
G03*
X15351689Y-9994900I-35000J0D01*
G01*
X15351689Y-14135100D02*
G75*
G03*
X15351689Y-14135100I-35000J0D01*
G01*
X15567100Y-9613900D02*
G75*
G03*
X15567100Y-9613900I-35000J0D01*
G01*
X15567100Y-13754100D02*
G75*
G03*
X15567100Y-13754100I-35000J0D01*
G01*
X15796189Y-9994900D02*
G75*
G03*
X15796189Y-9994900I-35000J0D01*
G01*
X15796189Y-14135100D02*
G75*
G03*
X15796189Y-14135100I-35000J0D01*
G01*
X16011600Y-9613900D02*
G75*
G03*
X16011600Y-9613900I-35000J0D01*
G01*
X16011600Y-13754100D02*
G75*
G03*
X16011600Y-13754100I-35000J0D01*
G01*
X16240689Y-9994900D02*
G75*
G03*
X16240689Y-9994900I-35000J0D01*
G01*
X16240689Y-14130600D02*
G75*
G03*
X16240689Y-14130600I-35000J0D01*
G01*
X16456100Y-9613900D02*
G75*
G03*
X16456100Y-9613900I-35000J0D01*
G01*
X16456100Y-13754100D02*
G75*
G03*
X16456100Y-13754100I-35000J0D01*
G01*
X16685189Y-9994900D02*
G75*
G03*
X16685189Y-9994900I-35000J0D01*
G01*
X16685189Y-14135100D02*
G75*
G03*
X16685189Y-14135100I-35000J0D01*
G01*
X16900600Y-9613900D02*
G75*
G03*
X16900600Y-9613900I-35000J0D01*
G01*
X16900600Y-13749600D02*
G75*
G03*
X16900600Y-13749600I-35000J0D01*
G01*
X17129689Y-9994900D02*
G75*
G03*
X17129689Y-9994900I-35000J0D01*
G01*
X17129689Y-14135100D02*
G75*
G03*
X17129689Y-14135100I-35000J0D01*
G01*
X17345100Y-9613900D02*
G75*
G03*
X17345100Y-9613900I-35000J0D01*
G01*
X17345100Y-13754100D02*
G75*
G03*
X17345100Y-13754100I-35000J0D01*
G01*
X17574189Y-9994900D02*
G75*
G03*
X17574189Y-9994900I-35000J0D01*
G01*
X17574189Y-14135100D02*
G75*
G03*
X17574189Y-14135100I-35000J0D01*
G01*
X17789600Y-9613900D02*
G75*
G03*
X17789600Y-9613900I-35000J0D01*
G01*
X17789600Y-13754100D02*
G75*
G03*
X17789600Y-13754100I-35000J0D01*
G01*
X18018689Y-9994900D02*
G75*
G03*
X18018689Y-9994900I-35000J0D01*
G01*
X18018689Y-14135100D02*
G75*
G03*
X18018689Y-14135100I-35000J0D01*
G01*
X18234100Y-9613900D02*
G75*
G03*
X18234100Y-9613900I-35000J0D01*
G01*
X18234100Y-13754100D02*
G75*
G03*
X18234100Y-13754100I-35000J0D01*
G01*
X18678600Y-9613900D02*
G75*
G03*
X18678600Y-9613900I-35000J0D01*
G01*
X18678600Y-13754100D02*
G75*
G03*
X18678600Y-13754100I-35000J0D01*
G01*
X10121900Y-6208400D02*
X10121900Y-6288400D01*
X10081900Y-6248400D02*
X10161900Y-6248400D01*
X10121900Y-6462400D02*
X10121900Y-6542400D01*
X10081900Y-6502400D02*
X10161900Y-6502400D01*
X10121900Y-6716400D02*
X10121900Y-6796400D01*
X10081900Y-6756400D02*
X10161900Y-6756400D01*
X10121900Y-6970400D02*
X10121900Y-7050400D01*
X10081900Y-7010400D02*
X10161900Y-7010400D01*
X10121900Y-7224400D02*
X10121900Y-7304400D01*
X10081900Y-7264400D02*
X10161900Y-7264400D01*
X10121900Y-7478400D02*
X10121900Y-7558400D01*
X10081900Y-7518400D02*
X10161900Y-7518400D01*
X10121900Y-7732400D02*
X10121900Y-7812400D01*
X10081900Y-7772400D02*
X10161900Y-7772400D01*
X10121900Y-7986400D02*
X10121900Y-8066400D01*
X10081900Y-8026400D02*
X10161900Y-8026400D01*
X10121900Y-8240400D02*
X10121900Y-8320400D01*
X10081900Y-8280400D02*
X10161900Y-8280400D01*
X10121900Y-8494400D02*
X10121900Y-8574400D01*
X10081900Y-8534400D02*
X10161900Y-8534400D01*
X10134600Y-10310500D02*
X10134600Y-10390500D01*
X10094600Y-10350500D02*
X10174600Y-10350500D01*
X10134600Y-10564500D02*
X10134600Y-10644500D01*
X10094600Y-10604500D02*
X10174600Y-10604500D01*
X10134600Y-10818500D02*
X10134600Y-10898500D01*
X10094600Y-10858500D02*
X10174600Y-10858500D01*
X10134600Y-11072500D02*
X10134600Y-11152500D01*
X10094600Y-11112500D02*
X10174600Y-11112500D01*
X10134600Y-11326500D02*
X10134600Y-11406500D01*
X10094600Y-11366500D02*
X10174600Y-11366500D01*
X10134600Y-11580500D02*
X10134600Y-11660500D01*
X10094600Y-11620500D02*
X10174600Y-11620500D01*
X10134600Y-11834500D02*
X10134600Y-11914500D01*
X10094600Y-11874500D02*
X10174600Y-11874500D01*
X10134600Y-12088500D02*
X10134600Y-12168500D01*
X10094600Y-12128500D02*
X10174600Y-12128500D01*
X10134600Y-12342500D02*
X10134600Y-12422500D01*
X10094600Y-12382500D02*
X10174600Y-12382500D01*
X10134600Y-12596500D02*
X10134600Y-12676500D01*
X10094600Y-12636500D02*
X10174600Y-12636500D01*
X10883900Y-6208400D02*
X10883900Y-6288400D01*
X10843900Y-6248400D02*
X10923900Y-6248400D01*
X10883900Y-6462400D02*
X10883900Y-6542400D01*
X10843900Y-6502400D02*
X10923900Y-6502400D01*
X10883900Y-6716400D02*
X10883900Y-6796400D01*
X10843900Y-6756400D02*
X10923900Y-6756400D01*
X10883900Y-6970400D02*
X10883900Y-7050400D01*
X10843900Y-7010400D02*
X10923900Y-7010400D01*
X10883900Y-7224400D02*
X10883900Y-7304400D01*
X10843900Y-7264400D02*
X10923900Y-7264400D01*
X10883900Y-7478400D02*
X10883900Y-7558400D01*
X10843900Y-7518400D02*
X10923900Y-7518400D01*
X10883900Y-7732400D02*
X10883900Y-7812400D01*
X10843900Y-7772400D02*
X10923900Y-7772400D01*
X10883900Y-7986400D02*
X10883900Y-8066400D01*
X10843900Y-8026400D02*
X10923900Y-8026400D01*
X10883900Y-8240400D02*
X10883900Y-8320400D01*
X10843900Y-8280400D02*
X10923900Y-8280400D01*
X10883900Y-8494400D02*
X10883900Y-8574400D01*
X10843900Y-8534400D02*
X10923900Y-8534400D01*
X10896600Y-10310500D02*
X10896600Y-10390500D01*
X10856600Y-10350500D02*
X10936600Y-10350500D01*
X10896600Y-10564500D02*
X10896600Y-10644500D01*
X10856600Y-10604500D02*
X10936600Y-10604500D01*
X10896600Y-10818500D02*
X10896600Y-10898500D01*
X10856600Y-10858500D02*
X10936600Y-10858500D01*
X10896600Y-11072500D02*
X10896600Y-11152500D01*
X10856600Y-11112500D02*
X10936600Y-11112500D01*
X10896600Y-11326500D02*
X10896600Y-11406500D01*
X10856600Y-11366500D02*
X10936600Y-11366500D01*
X10896600Y-11580500D02*
X10896600Y-11660500D01*
X10856600Y-11620500D02*
X10936600Y-11620500D01*
X10896600Y-11834500D02*
X10896600Y-11914500D01*
X10856600Y-11874500D02*
X10936600Y-11874500D01*
X10896600Y-12088500D02*
X10896600Y-12168500D01*
X10856600Y-12128500D02*
X10936600Y-12128500D01*
X10896600Y-12342500D02*
X10896600Y-12422500D01*
X10856600Y-12382500D02*
X10936600Y-12382500D01*
X10896600Y-12596500D02*
X10896600Y-12676500D01*
X10856600Y-12636500D02*
X10936600Y-12636500D01*
X11899900Y-6208400D02*
X11899900Y-6288400D01*
X11859900Y-6248400D02*
X11939900Y-6248400D01*
X11899900Y-6462400D02*
X11899900Y-6542400D01*
X11859900Y-6502400D02*
X11939900Y-6502400D01*
X11899900Y-6716400D02*
X11899900Y-6796400D01*
X11859900Y-6756400D02*
X11939900Y-6756400D01*
X11899900Y-6970400D02*
X11899900Y-7050400D01*
X11859900Y-7010400D02*
X11939900Y-7010400D01*
X11899900Y-7224400D02*
X11899900Y-7304400D01*
X11859900Y-7264400D02*
X11939900Y-7264400D01*
X11899900Y-7478400D02*
X11899900Y-7558400D01*
X11859900Y-7518400D02*
X11939900Y-7518400D01*
X11899900Y-7732400D02*
X11899900Y-7812400D01*
X11859900Y-7772400D02*
X11939900Y-7772400D01*
X11899900Y-7986400D02*
X11899900Y-8066400D01*
X11859900Y-8026400D02*
X11939900Y-8026400D01*
X11899900Y-8240400D02*
X11899900Y-8320400D01*
X11859900Y-8280400D02*
X11939900Y-8280400D01*
X11899900Y-8494400D02*
X11899900Y-8574400D01*
X11859900Y-8534400D02*
X11939900Y-8534400D01*
X11912600Y-10310500D02*
X11912600Y-10390500D01*
X11872600Y-10350500D02*
X11952600Y-10350500D01*
X11912600Y-10564500D02*
X11912600Y-10644500D01*
X11872600Y-10604500D02*
X11952600Y-10604500D01*
X11912600Y-10818500D02*
X11912600Y-10898500D01*
X11872600Y-10858500D02*
X11952600Y-10858500D01*
X11912600Y-11072500D02*
X11912600Y-11152500D01*
X11872600Y-11112500D02*
X11952600Y-11112500D01*
X11912600Y-11326500D02*
X11912600Y-11406500D01*
X11872600Y-11366500D02*
X11952600Y-11366500D01*
X11912600Y-11580500D02*
X11912600Y-11660500D01*
X11872600Y-11620500D02*
X11952600Y-11620500D01*
X11912600Y-11834500D02*
X11912600Y-11914500D01*
X11872600Y-11874500D02*
X11952600Y-11874500D01*
X11912600Y-12088500D02*
X11912600Y-12168500D01*
X11872600Y-12128500D02*
X11952600Y-12128500D01*
X11912600Y-12342500D02*
X11912600Y-12422500D01*
X11872600Y-12382500D02*
X11952600Y-12382500D01*
X11912600Y-12596500D02*
X11912600Y-12676500D01*
X11872600Y-12636500D02*
X11952600Y-12636500D01*
X12661900Y-6208400D02*
X12661900Y-6288400D01*
X12621900Y-6248400D02*
X12701900Y-6248400D01*
X12661900Y-6462400D02*
X12661900Y-6542400D01*
X12621900Y-6502400D02*
X12701900Y-6502400D01*
X12661900Y-6716400D02*
X12661900Y-6796400D01*
X12621900Y-6756400D02*
X12701900Y-6756400D01*
X12661900Y-6970400D02*
X12661900Y-7050400D01*
X12621900Y-7010400D02*
X12701900Y-7010400D01*
X12661900Y-7224400D02*
X12661900Y-7304400D01*
X12621900Y-7264400D02*
X12701900Y-7264400D01*
X12661900Y-7478400D02*
X12661900Y-7558400D01*
X12621900Y-7518400D02*
X12701900Y-7518400D01*
X12661900Y-7732400D02*
X12661900Y-7812400D01*
X12621900Y-7772400D02*
X12701900Y-7772400D01*
X12661900Y-7986400D02*
X12661900Y-8066400D01*
X12621900Y-8026400D02*
X12701900Y-8026400D01*
X12661900Y-8240400D02*
X12661900Y-8320400D01*
X12621900Y-8280400D02*
X12701900Y-8280400D01*
X12661900Y-8494400D02*
X12661900Y-8574400D01*
X12621900Y-8534400D02*
X12701900Y-8534400D01*
X12674600Y-10310500D02*
X12674600Y-10390500D01*
X12634600Y-10350500D02*
X12714600Y-10350500D01*
X12674600Y-10564500D02*
X12674600Y-10644500D01*
X12634600Y-10604500D02*
X12714600Y-10604500D01*
X12674600Y-10818500D02*
X12674600Y-10898500D01*
X12634600Y-10858500D02*
X12714600Y-10858500D01*
X12674600Y-11072500D02*
X12674600Y-11152500D01*
X12634600Y-11112500D02*
X12714600Y-11112500D01*
X12674600Y-11326500D02*
X12674600Y-11406500D01*
X12634600Y-11366500D02*
X12714600Y-11366500D01*
X12674600Y-11580500D02*
X12674600Y-11660500D01*
X12634600Y-11620500D02*
X12714600Y-11620500D01*
X12674600Y-11834500D02*
X12674600Y-11914500D01*
X12634600Y-11874500D02*
X12714600Y-11874500D01*
X12674600Y-12088500D02*
X12674600Y-12168500D01*
X12634600Y-12128500D02*
X12714600Y-12128500D01*
X12674600Y-12342500D02*
X12674600Y-12422500D01*
X12634600Y-12382500D02*
X12714600Y-12382500D01*
X12674600Y-12596500D02*
X12674600Y-12676500D01*
X12634600Y-12636500D02*
X12714600Y-12636500D01*
X15417800Y-6221100D02*
X15417800Y-6301100D01*
X15377800Y-6261100D02*
X15457800Y-6261100D01*
X15417800Y-6475100D02*
X15417800Y-6555100D01*
X15377800Y-6515100D02*
X15457800Y-6515100D01*
X15417800Y-6729100D02*
X15417800Y-6809100D01*
X15377800Y-6769100D02*
X15457800Y-6769100D01*
X15417800Y-6983100D02*
X15417800Y-7063100D01*
X15377800Y-7023100D02*
X15457800Y-7023100D01*
X15417800Y-7237100D02*
X15417800Y-7317100D01*
X15377800Y-7277100D02*
X15457800Y-7277100D01*
X15417800Y-7491100D02*
X15417800Y-7571100D01*
X15377800Y-7531100D02*
X15457800Y-7531100D01*
X15417800Y-7745100D02*
X15417800Y-7825100D01*
X15377800Y-7785100D02*
X15457800Y-7785100D01*
X15417800Y-7999100D02*
X15417800Y-8079100D01*
X15377800Y-8039100D02*
X15457800Y-8039100D01*
X15417800Y-8253100D02*
X15417800Y-8333100D01*
X15377800Y-8293100D02*
X15457800Y-8293100D01*
X15417800Y-8507100D02*
X15417800Y-8587100D01*
X15377800Y-8547100D02*
X15457800Y-8547100D01*
X15417800Y-10335900D02*
X15417800Y-10415900D01*
X15377800Y-10375900D02*
X15457800Y-10375900D01*
X15417800Y-10589900D02*
X15417800Y-10669900D01*
X15377800Y-10629900D02*
X15457800Y-10629900D01*
X15417800Y-10843900D02*
X15417800Y-10923900D01*
X15377800Y-10883900D02*
X15457800Y-10883900D01*
X15417800Y-11097900D02*
X15417800Y-11177900D01*
X15377800Y-11137900D02*
X15457800Y-11137900D01*
X15417800Y-11351900D02*
X15417800Y-11431900D01*
X15377800Y-11391900D02*
X15457800Y-11391900D01*
X15417800Y-11605900D02*
X15417800Y-11685900D01*
X15377800Y-11645900D02*
X15457800Y-11645900D01*
X15417800Y-11859900D02*
X15417800Y-11939900D01*
X15377800Y-11899900D02*
X15457800Y-11899900D01*
X15417800Y-12113900D02*
X15417800Y-12193900D01*
X15377800Y-12153900D02*
X15457800Y-12153900D01*
X15417800Y-12367900D02*
X15417800Y-12447900D01*
X15377800Y-12407900D02*
X15457800Y-12407900D01*
X15417800Y-12621900D02*
X15417800Y-12701900D01*
X15377800Y-12661900D02*
X15457800Y-12661900D01*
X16179800Y-6221100D02*
X16179800Y-6301100D01*
X16139800Y-6261100D02*
X16219800Y-6261100D01*
X16179800Y-6475100D02*
X16179800Y-6555100D01*
X16139800Y-6515100D02*
X16219800Y-6515100D01*
X16179800Y-6729100D02*
X16179800Y-6809100D01*
X16139800Y-6769100D02*
X16219800Y-6769100D01*
X16179800Y-6983100D02*
X16179800Y-7063100D01*
X16139800Y-7023100D02*
X16219800Y-7023100D01*
X16179800Y-7237100D02*
X16179800Y-7317100D01*
X16139800Y-7277100D02*
X16219800Y-7277100D01*
X16179800Y-7491100D02*
X16179800Y-7571100D01*
X16139800Y-7531100D02*
X16219800Y-7531100D01*
X16179800Y-7745100D02*
X16179800Y-7825100D01*
X16139800Y-7785100D02*
X16219800Y-7785100D01*
X16179800Y-7999100D02*
X16179800Y-8079100D01*
X16139800Y-8039100D02*
X16219800Y-8039100D01*
X16179800Y-8253100D02*
X16179800Y-8333100D01*
X16139800Y-8293100D02*
X16219800Y-8293100D01*
X16179800Y-8507100D02*
X16179800Y-8587100D01*
X16139800Y-8547100D02*
X16219800Y-8547100D01*
X16179800Y-10335900D02*
X16179800Y-10415900D01*
X16139800Y-10375900D02*
X16219800Y-10375900D01*
X16179800Y-10589900D02*
X16179800Y-10669900D01*
X16139800Y-10629900D02*
X16219800Y-10629900D01*
X16179800Y-10843900D02*
X16179800Y-10923900D01*
X16139800Y-10883900D02*
X16219800Y-10883900D01*
X16179800Y-11097900D02*
X16179800Y-11177900D01*
X16139800Y-11137900D02*
X16219800Y-11137900D01*
X16179800Y-11351900D02*
X16179800Y-11431900D01*
X16139800Y-11391900D02*
X16219800Y-11391900D01*
X16179800Y-11605900D02*
X16179800Y-11685900D01*
X16139800Y-11645900D02*
X16219800Y-11645900D01*
X16179800Y-11859900D02*
X16179800Y-11939900D01*
X16139800Y-11899900D02*
X16219800Y-11899900D01*
X16179800Y-12113900D02*
X16179800Y-12193900D01*
X16139800Y-12153900D02*
X16219800Y-12153900D01*
X16179800Y-12367900D02*
X16179800Y-12447900D01*
X16139800Y-12407900D02*
X16219800Y-12407900D01*
X16179800Y-12621900D02*
X16179800Y-12701900D01*
X16139800Y-12661900D02*
X16219800Y-12661900D01*
X17170400Y-6221100D02*
X17170400Y-6301100D01*
X17130400Y-6261100D02*
X17210400Y-6261100D01*
X17170400Y-6475100D02*
X17170400Y-6555100D01*
X17130400Y-6515100D02*
X17210400Y-6515100D01*
X17170400Y-6729100D02*
X17170400Y-6809100D01*
X17130400Y-6769100D02*
X17210400Y-6769100D01*
X17170400Y-6983100D02*
X17170400Y-7063100D01*
X17130400Y-7023100D02*
X17210400Y-7023100D01*
X17170400Y-7237100D02*
X17170400Y-7317100D01*
X17130400Y-7277100D02*
X17210400Y-7277100D01*
X17170400Y-7491100D02*
X17170400Y-7571100D01*
X17130400Y-7531100D02*
X17210400Y-7531100D01*
X17170400Y-7745100D02*
X17170400Y-7825100D01*
X17130400Y-7785100D02*
X17210400Y-7785100D01*
X17170400Y-7999100D02*
X17170400Y-8079100D01*
X17130400Y-8039100D02*
X17210400Y-8039100D01*
X17170400Y-8253100D02*
X17170400Y-8333100D01*
X17130400Y-8293100D02*
X17210400Y-8293100D01*
X17170400Y-8507100D02*
X17170400Y-8587100D01*
X17130400Y-8547100D02*
X17210400Y-8547100D01*
X17170400Y-10335900D02*
X17170400Y-10415900D01*
X17130400Y-10375900D02*
X17210400Y-10375900D01*
X17170400Y-10589900D02*
X17170400Y-10669900D01*
X17130400Y-10629900D02*
X17210400Y-10629900D01*
X17170400Y-10843900D02*
X17170400Y-10923900D01*
X17130400Y-10883900D02*
X17210400Y-10883900D01*
X17170400Y-11097900D02*
X17170400Y-11177900D01*
X17130400Y-11137900D02*
X17210400Y-11137900D01*
X17170400Y-11351900D02*
X17170400Y-11431900D01*
X17130400Y-11391900D02*
X17210400Y-11391900D01*
X17170400Y-11605900D02*
X17170400Y-11685900D01*
X17130400Y-11645900D02*
X17210400Y-11645900D01*
X17170400Y-11859900D02*
X17170400Y-11939900D01*
X17130400Y-11899900D02*
X17210400Y-11899900D01*
X17170400Y-12113900D02*
X17170400Y-12193900D01*
X17130400Y-12153900D02*
X17210400Y-12153900D01*
X17170400Y-12367900D02*
X17170400Y-12447900D01*
X17130400Y-12407900D02*
X17210400Y-12407900D01*
X17170400Y-12621900D02*
X17170400Y-12701900D01*
X17130400Y-12661900D02*
X17210400Y-12661900D01*
X17932400Y-6221100D02*
X17932400Y-6301100D01*
X17892400Y-6261100D02*
X17972400Y-6261100D01*
X17932400Y-6475100D02*
X17932400Y-6555100D01*
X17892400Y-6515100D02*
X17972400Y-6515100D01*
X17932400Y-6729100D02*
X17932400Y-6809100D01*
X17892400Y-6769100D02*
X17972400Y-6769100D01*
X17932400Y-6983100D02*
X17932400Y-7063100D01*
X17892400Y-7023100D02*
X17972400Y-7023100D01*
X17932400Y-7237100D02*
X17932400Y-7317100D01*
X17892400Y-7277100D02*
X17972400Y-7277100D01*
X17932400Y-7491100D02*
X17932400Y-7571100D01*
X17892400Y-7531100D02*
X17972400Y-7531100D01*
X17932400Y-7745100D02*
X17932400Y-7825100D01*
X17892400Y-7785100D02*
X17972400Y-7785100D01*
X17932400Y-7999100D02*
X17932400Y-8079100D01*
X17892400Y-8039100D02*
X17972400Y-8039100D01*
X17932400Y-8253100D02*
X17932400Y-8333100D01*
X17892400Y-8293100D02*
X17972400Y-8293100D01*
X17932400Y-8507100D02*
X17932400Y-8587100D01*
X17892400Y-8547100D02*
X17972400Y-8547100D01*
X17932400Y-10335900D02*
X17932400Y-10415900D01*
X17892400Y-10375900D02*
X17972400Y-10375900D01*
X17932400Y-10589900D02*
X17932400Y-10669900D01*
X17892400Y-10629900D02*
X17972400Y-10629900D01*
X17932400Y-10843900D02*
X17932400Y-10923900D01*
X17892400Y-10883900D02*
X17972400Y-10883900D01*
X17932400Y-11097900D02*
X17932400Y-11177900D01*
X17892400Y-11137900D02*
X17972400Y-11137900D01*
X17932400Y-11351900D02*
X17932400Y-11431900D01*
X17892400Y-11391900D02*
X17972400Y-11391900D01*
X17932400Y-11605900D02*
X17932400Y-11685900D01*
X17892400Y-11645900D02*
X17972400Y-11645900D01*
X17932400Y-11859900D02*
X17932400Y-11939900D01*
X17892400Y-11899900D02*
X17972400Y-11899900D01*
X17932400Y-12113900D02*
X17932400Y-12193900D01*
X17892400Y-12153900D02*
X17972400Y-12153900D01*
X17932400Y-12367900D02*
X17932400Y-12447900D01*
X17892400Y-12407900D02*
X17972400Y-12407900D01*
X17932400Y-12621900D02*
X17932400Y-12701900D01*
X17892400Y-12661900D02*
X17972400Y-12661900D01*
X10255320Y-13239820D02*
X10255320Y-13176180D01*
X10191680Y-13176180D01*
X10191680Y-13239820D01*
X10255320Y-13239820D01*
X10255320Y-13493820D02*
X10255320Y-13430180D01*
X10191680Y-13430180D01*
X10191680Y-13493820D01*
X10255320Y-13493820D01*
X10274370Y-9099620D02*
X10274370Y-9035980D01*
X10210730Y-9035980D01*
X10210730Y-9099620D01*
X10274370Y-9099620D01*
X10274370Y-9353620D02*
X10274370Y-9289980D01*
X10210730Y-9289980D01*
X10210730Y-9353620D01*
X10274370Y-9353620D01*
X10699820Y-13239820D02*
X10699820Y-13176180D01*
X10636180Y-13176180D01*
X10636180Y-13239820D01*
X10699820Y-13239820D01*
X10699820Y-13493820D02*
X10699820Y-13430180D01*
X10636180Y-13430180D01*
X10636180Y-13493820D01*
X10699820Y-13493820D01*
X10718870Y-9099620D02*
X10718870Y-9035980D01*
X10655230Y-9035980D01*
X10655230Y-9099620D01*
X10718870Y-9099620D01*
X10718870Y-9353620D02*
X10718870Y-9289980D01*
X10655230Y-9289980D01*
X10655230Y-9353620D01*
X10718870Y-9353620D01*
X11144320Y-13239820D02*
X11144320Y-13176180D01*
X11080680Y-13176180D01*
X11080680Y-13239820D01*
X11144320Y-13239820D01*
X11144320Y-13493820D02*
X11144320Y-13430180D01*
X11080680Y-13430180D01*
X11080680Y-13493820D01*
X11144320Y-13493820D01*
X11163370Y-9099620D02*
X11163370Y-9035980D01*
X11099730Y-9035980D01*
X11099730Y-9099620D01*
X11163370Y-9099620D01*
X11163370Y-9353620D02*
X11163370Y-9289980D01*
X11099730Y-9289980D01*
X11099730Y-9353620D01*
X11163370Y-9353620D01*
X11588820Y-13239820D02*
X11588820Y-13176180D01*
X11525180Y-13176180D01*
X11525180Y-13239820D01*
X11588820Y-13239820D01*
X11588820Y-13493820D02*
X11588820Y-13430180D01*
X11525180Y-13430180D01*
X11525180Y-13493820D01*
X11588820Y-13493820D01*
X11607870Y-9099620D02*
X11607870Y-9035980D01*
X11544230Y-9035980D01*
X11544230Y-9099620D01*
X11607870Y-9099620D01*
X11607870Y-9353620D02*
X11607870Y-9289980D01*
X11544230Y-9289980D01*
X11544230Y-9353620D01*
X11607870Y-9353620D01*
X12033320Y-13239820D02*
X12033320Y-13176180D01*
X11969680Y-13176180D01*
X11969680Y-13239820D01*
X12033320Y-13239820D01*
X12033320Y-13493820D02*
X12033320Y-13430180D01*
X11969680Y-13430180D01*
X11969680Y-13493820D01*
X12033320Y-13493820D01*
X12052370Y-9099620D02*
X12052370Y-9035980D01*
X11988730Y-9035980D01*
X11988730Y-9099620D01*
X12052370Y-9099620D01*
X12052370Y-9353620D02*
X12052370Y-9289980D01*
X11988730Y-9289980D01*
X11988730Y-9353620D01*
X12052370Y-9353620D01*
X12477820Y-13239820D02*
X12477820Y-13176180D01*
X12414180Y-13176180D01*
X12414180Y-13239820D01*
X12477820Y-13239820D01*
X12477820Y-13493820D02*
X12477820Y-13430180D01*
X12414180Y-13430180D01*
X12414180Y-13493820D01*
X12477820Y-13493820D01*
X12509570Y-9099620D02*
X12509570Y-9035980D01*
X12445930Y-9035980D01*
X12445930Y-9099620D01*
X12509570Y-9099620D01*
X12509570Y-9353620D02*
X12509570Y-9289980D01*
X12445930Y-9289980D01*
X12445930Y-9353620D01*
X12509570Y-9353620D01*
X12922320Y-13239820D02*
X12922320Y-13176180D01*
X12858680Y-13176180D01*
X12858680Y-13239820D01*
X12922320Y-13239820D01*
X12922320Y-13493820D02*
X12922320Y-13430180D01*
X12858680Y-13430180D01*
X12858680Y-13493820D01*
X12922320Y-13493820D01*
X12954070Y-9099620D02*
X12954070Y-9035980D01*
X12890430Y-9035980D01*
X12890430Y-9099620D01*
X12954070Y-9099620D01*
X12954070Y-9353620D02*
X12954070Y-9289980D01*
X12890430Y-9289980D01*
X12890430Y-9353620D01*
X12954070Y-9353620D01*
X13366820Y-13239820D02*
X13366820Y-13176180D01*
X13303180Y-13176180D01*
X13303180Y-13239820D01*
X13366820Y-13239820D01*
X13366820Y-13493820D02*
X13366820Y-13430180D01*
X13303180Y-13430180D01*
X13303180Y-13493820D01*
X13366820Y-13493820D01*
X13398570Y-9099620D02*
X13398570Y-9035980D01*
X13334930Y-9035980D01*
X13334930Y-9099620D01*
X13398570Y-9099620D01*
X13398570Y-9353620D02*
X13398570Y-9289980D01*
X13334930Y-9289980D01*
X13334930Y-9353620D01*
X13398570Y-9353620D01*
X15563920Y-9125020D02*
X15563920Y-9061380D01*
X15500280Y-9061380D01*
X15500280Y-9125020D01*
X15563920Y-9125020D01*
X15563920Y-9379020D02*
X15563920Y-9315380D01*
X15500280Y-9315380D01*
X15500280Y-9379020D01*
X15563920Y-9379020D01*
X15563920Y-13265220D02*
X15563920Y-13201580D01*
X15500280Y-13201580D01*
X15500280Y-13265220D01*
X15563920Y-13265220D01*
X15563920Y-13519220D02*
X15563920Y-13455580D01*
X15500280Y-13455580D01*
X15500280Y-13519220D01*
X15563920Y-13519220D01*
X16008420Y-9125020D02*
X16008420Y-9061380D01*
X15944780Y-9061380D01*
X15944780Y-9125020D01*
X16008420Y-9125020D01*
X16008420Y-9379020D02*
X16008420Y-9315380D01*
X15944780Y-9315380D01*
X15944780Y-9379020D01*
X16008420Y-9379020D01*
X16008420Y-13265220D02*
X16008420Y-13201580D01*
X15944780Y-13201580D01*
X15944780Y-13265220D01*
X16008420Y-13265220D01*
X16008420Y-13519220D02*
X16008420Y-13455580D01*
X15944780Y-13455580D01*
X15944780Y-13519220D01*
X16008420Y-13519220D01*
X16452920Y-9125020D02*
X16452920Y-9061380D01*
X16389280Y-9061380D01*
X16389280Y-9125020D01*
X16452920Y-9125020D01*
X16452920Y-9379020D02*
X16452920Y-9315380D01*
X16389280Y-9315380D01*
X16389280Y-9379020D01*
X16452920Y-9379020D01*
X16452920Y-13265220D02*
X16452920Y-13201580D01*
X16389280Y-13201580D01*
X16389280Y-13265220D01*
X16452920Y-13265220D01*
X16452920Y-13519220D02*
X16452920Y-13455580D01*
X16389280Y-13455580D01*
X16389280Y-13519220D01*
X16452920Y-13519220D01*
X16897420Y-9125020D02*
X16897420Y-9061380D01*
X16833780Y-9061380D01*
X16833780Y-9125020D01*
X16897420Y-9125020D01*
X16897420Y-9379020D02*
X16897420Y-9315380D01*
X16833780Y-9315380D01*
X16833780Y-9379020D01*
X16897420Y-9379020D01*
X16897420Y-13265220D02*
X16897420Y-13201580D01*
X16833780Y-13201580D01*
X16833780Y-13265220D01*
X16897420Y-13265220D01*
X16897420Y-13519220D02*
X16897420Y-13455580D01*
X16833780Y-13455580D01*
X16833780Y-13519220D01*
X16897420Y-13519220D01*
X17341920Y-9125020D02*
X17341920Y-9061380D01*
X17278280Y-9061380D01*
X17278280Y-9125020D01*
X17341920Y-9125020D01*
X17341920Y-9379020D02*
X17341920Y-9315380D01*
X17278280Y-9315380D01*
X17278280Y-9379020D01*
X17341920Y-9379020D01*
X17341920Y-13265220D02*
X17341920Y-13201580D01*
X17278280Y-13201580D01*
X17278280Y-13265220D01*
X17341920Y-13265220D01*
X17341920Y-13519220D02*
X17341920Y-13455580D01*
X17278280Y-13455580D01*
X17278280Y-13519220D01*
X17341920Y-13519220D01*
X17786420Y-9125020D02*
X17786420Y-9061380D01*
X17722780Y-9061380D01*
X17722780Y-9125020D01*
X17786420Y-9125020D01*
X17786420Y-9379020D02*
X17786420Y-9315380D01*
X17722780Y-9315380D01*
X17722780Y-9379020D01*
X17786420Y-9379020D01*
X17786420Y-13265220D02*
X17786420Y-13201580D01*
X17722780Y-13201580D01*
X17722780Y-13265220D01*
X17786420Y-13265220D01*
X17786420Y-13519220D02*
X17786420Y-13455580D01*
X17722780Y-13455580D01*
X17722780Y-13519220D01*
X17786420Y-13519220D01*
X18230920Y-9125020D02*
X18230920Y-9061380D01*
X18167280Y-9061380D01*
X18167280Y-9125020D01*
X18230920Y-9125020D01*
X18230920Y-9379020D02*
X18230920Y-9315380D01*
X18167280Y-9315380D01*
X18167280Y-9379020D01*
X18230920Y-9379020D01*
X18230920Y-13265220D02*
X18230920Y-13201580D01*
X18167280Y-13201580D01*
X18167280Y-13265220D01*
X18230920Y-13265220D01*
X18230920Y-13519220D02*
X18230920Y-13455580D01*
X18167280Y-13455580D01*
X18167280Y-13519220D01*
X18230920Y-13519220D01*
X18675420Y-9125020D02*
X18675420Y-9061380D01*
X18611780Y-9061380D01*
X18611780Y-9125020D01*
X18675420Y-9125020D01*
X18675420Y-9379020D02*
X18675420Y-9315380D01*
X18611780Y-9315380D01*
X18611780Y-9379020D01*
X18675420Y-9379020D01*
X18675420Y-13265220D02*
X18675420Y-13201580D01*
X18611780Y-13201580D01*
X18611780Y-13265220D01*
X18675420Y-13265220D01*
X18675420Y-13519220D02*
X18675420Y-13455580D01*
X18611780Y-13455580D01*
X18611780Y-13519220D01*
X18675420Y-13519220D01*
X10641400Y-5143000D02*
X10691400Y-5093000D01*
X10641400Y-5043000D01*
X10591400Y-5093000D01*
X10641400Y-5143000D01*
X10641400Y-5397000D02*
X10691400Y-5347000D01*
X10641400Y-5297000D01*
X10591400Y-5347000D01*
X10641400Y-5397000D01*
X10895400Y-5143000D02*
X10945400Y-5093000D01*
X10895400Y-5043000D01*
X10845400Y-5093000D01*
X10895400Y-5143000D01*
X10895400Y-5397000D02*
X10945400Y-5347000D01*
X10895400Y-5297000D01*
X10845400Y-5347000D01*
X10895400Y-5397000D01*
X11149400Y-5143000D02*
X11199400Y-5093000D01*
X11149400Y-5043000D01*
X11099400Y-5093000D01*
X11149400Y-5143000D01*
X11149400Y-5397000D02*
X11199400Y-5347000D01*
X11149400Y-5297000D01*
X11099400Y-5347000D01*
X11149400Y-5397000D01*
X11403400Y-5143000D02*
X11453400Y-5093000D01*
X11403400Y-5043000D01*
X11353400Y-5093000D01*
X11403400Y-5143000D01*
X11403400Y-5397000D02*
X11453400Y-5347000D01*
X11403400Y-5297000D01*
X11353400Y-5347000D01*
X11403400Y-5397000D01*
X11657400Y-5143000D02*
X11707400Y-5093000D01*
X11657400Y-5043000D01*
X11607400Y-5093000D01*
X11657400Y-5143000D01*
X11657400Y-5397000D02*
X11707400Y-5347000D01*
X11657400Y-5297000D01*
X11607400Y-5347000D01*
X11657400Y-5397000D01*
X11911400Y-5143000D02*
X11961400Y-5093000D01*
X11911400Y-5043000D01*
X11861400Y-5093000D01*
X11911400Y-5143000D01*
X11911400Y-5397000D02*
X11961400Y-5347000D01*
X11911400Y-5297000D01*
X11861400Y-5347000D01*
X11911400Y-5397000D01*
X15315000Y-5142700D02*
X15365000Y-5092700D01*
X15315000Y-5042700D01*
X15265000Y-5092700D01*
X15315000Y-5142700D01*
X15315000Y-5396700D02*
X15365000Y-5346700D01*
X15315000Y-5296700D01*
X15265000Y-5346700D01*
X15315000Y-5396700D01*
X15569000Y-5142700D02*
X15619000Y-5092700D01*
X15569000Y-5042700D01*
X15519000Y-5092700D01*
X15569000Y-5142700D01*
X15569000Y-5396700D02*
X15619000Y-5346700D01*
X15569000Y-5296700D01*
X15519000Y-5346700D01*
X15569000Y-5396700D01*
X15823000Y-5142700D02*
X15873000Y-5092700D01*
X15823000Y-5042700D01*
X15773000Y-5092700D01*
X15823000Y-5142700D01*
X15823000Y-5396700D02*
X15873000Y-5346700D01*
X15823000Y-5296700D01*
X15773000Y-5346700D01*
X15823000Y-5396700D01*
X16077000Y-5142700D02*
X16127000Y-5092700D01*
X16077000Y-5042700D01*
X16027000Y-5092700D01*
X16077000Y-5142700D01*
X16077000Y-5396700D02*
X16127000Y-5346700D01*
X16077000Y-5296700D01*
X16027000Y-5346700D01*
X16077000Y-5396700D01*
X17677200Y-5142700D02*
X17727200Y-5092700D01*
X17677200Y-5042700D01*
X17627200Y-5092700D01*
X17677200Y-5142700D01*
X17677200Y-5396700D02*
X17727200Y-5346700D01*
X17677200Y-5296700D01*
X17627200Y-5346700D01*
X17677200Y-5396700D01*
X17931200Y-5142700D02*
X17981200Y-5092700D01*
X17931200Y-5042700D01*
X17881200Y-5092700D01*
X17931200Y-5142700D01*
X17931200Y-5396700D02*
X17981200Y-5346700D01*
X17931200Y-5296700D01*
X17881200Y-5346700D01*
X17931200Y-5396700D01*
X18185200Y-5142700D02*
X18235200Y-5092700D01*
X18185200Y-5042700D01*
X18135200Y-5092700D01*
X18185200Y-5142700D01*
X18185200Y-5396700D02*
X18235200Y-5346700D01*
X18185200Y-5296700D01*
X18135200Y-5346700D01*
X18185200Y-5396700D01*
X18439200Y-5142700D02*
X18489200Y-5092700D01*
X18439200Y-5042700D01*
X18389200Y-5092700D01*
X18439200Y-5142700D01*
X18439200Y-5396700D02*
X18489200Y-5346700D01*
X18439200Y-5296700D01*
X18389200Y-5346700D01*
X18439200Y-5396700D01*
D12*
X9761978Y-14961414D02*
X9761978Y-14661414D01*
X9833407Y-14661414D01*
X9876264Y-14675700D01*
X9904836Y-14704271D01*
X9919121Y-14732843D01*
X9933407Y-14789986D01*
X9933407Y-14832843D01*
X9919121Y-14889986D01*
X9904836Y-14918557D01*
X9876264Y-14947129D01*
X9833407Y-14961414D01*
X9761978Y-14961414D01*
X10061978Y-14961414D02*
X10061978Y-14761414D01*
X10061978Y-14818557D02*
X10076264Y-14789986D01*
X10090550Y-14775700D01*
X10119121Y-14761414D01*
X10147693Y-14761414D01*
X10247693Y-14961414D02*
X10247693Y-14761414D01*
X10247693Y-14661414D02*
X10233407Y-14675700D01*
X10247693Y-14689986D01*
X10261978Y-14675700D01*
X10247693Y-14661414D01*
X10247693Y-14689986D01*
X10433407Y-14961414D02*
X10404836Y-14947129D01*
X10390550Y-14918557D01*
X10390550Y-14661414D01*
X10590550Y-14961414D02*
X10561978Y-14947129D01*
X10547693Y-14918557D01*
X10547693Y-14661414D01*
X10933407Y-14961414D02*
X10933407Y-14661414D01*
X11033407Y-14875700D01*
X11133407Y-14661414D01*
X11133407Y-14961414D01*
X11404836Y-14961414D02*
X11404836Y-14804271D01*
X11390550Y-14775700D01*
X11361978Y-14761414D01*
X11304836Y-14761414D01*
X11276264Y-14775700D01*
X11404836Y-14947129D02*
X11376264Y-14961414D01*
X11304836Y-14961414D01*
X11276264Y-14947129D01*
X11261978Y-14918557D01*
X11261978Y-14889986D01*
X11276264Y-14861414D01*
X11304836Y-14847129D01*
X11376264Y-14847129D01*
X11404836Y-14832843D01*
X11547693Y-14761414D02*
X11547693Y-15061414D01*
X11547693Y-14775700D02*
X11576264Y-14761414D01*
X11633407Y-14761414D01*
X11661978Y-14775700D01*
X11676264Y-14789986D01*
X11690550Y-14818557D01*
X11690550Y-14904271D01*
X11676264Y-14932843D01*
X11661978Y-14947129D01*
X11633407Y-14961414D01*
X11576264Y-14961414D01*
X11547693Y-14947129D01*
X11819121Y-14932843D02*
X11833407Y-14947129D01*
X11819121Y-14961414D01*
X11804836Y-14947129D01*
X11819121Y-14932843D01*
X11819121Y-14961414D01*
X11819121Y-14775700D02*
X11833407Y-14789986D01*
X11819121Y-14804271D01*
X11804836Y-14789986D01*
X11819121Y-14775700D01*
X11819121Y-14804271D01*
X9435550Y-15435700D02*
X9475550Y-15475700D01*
X9475550Y-15435700D02*
X9435550Y-15475700D01*
X9819121Y-15291414D02*
X9847693Y-15291414D01*
X9876264Y-15305700D01*
X9890550Y-15319986D01*
X9904836Y-15348557D01*
X9919121Y-15405700D01*
X9919121Y-15477129D01*
X9904836Y-15534271D01*
X9890550Y-15562843D01*
X9876264Y-15577129D01*
X9847693Y-15591414D01*
X9819121Y-15591414D01*
X9790550Y-15577129D01*
X9776264Y-15562843D01*
X9761978Y-15534271D01*
X9747693Y-15477129D01*
X9747693Y-15405700D01*
X9761978Y-15348557D01*
X9776264Y-15319986D01*
X9790550Y-15305700D01*
X9819121Y-15291414D01*
X10047693Y-15562843D02*
X10061978Y-15577129D01*
X10047693Y-15591414D01*
X10033407Y-15577129D01*
X10047693Y-15562843D01*
X10047693Y-15591414D01*
X10319121Y-15391414D02*
X10319121Y-15591414D01*
X10247693Y-15277129D02*
X10176264Y-15491414D01*
X10361978Y-15491414D01*
X10533407Y-15291414D02*
X10561978Y-15291414D01*
X10590550Y-15305700D01*
X10604836Y-15319986D01*
X10619121Y-15348557D01*
X10633407Y-15405700D01*
X10633407Y-15477129D01*
X10619121Y-15534271D01*
X10604836Y-15562843D01*
X10590550Y-15577129D01*
X10561978Y-15591414D01*
X10533407Y-15591414D01*
X10504836Y-15577129D01*
X10490550Y-15562843D01*
X10476264Y-15534271D01*
X10461978Y-15477129D01*
X10461978Y-15405700D01*
X10476264Y-15348557D01*
X10490550Y-15319986D01*
X10504836Y-15305700D01*
X10533407Y-15291414D01*
X10819121Y-15291414D02*
X10847693Y-15291414D01*
X10876264Y-15305700D01*
X10890550Y-15319986D01*
X10904836Y-15348557D01*
X10919121Y-15405700D01*
X10919121Y-15477129D01*
X10904836Y-15534271D01*
X10890550Y-15562843D01*
X10876264Y-15577129D01*
X10847693Y-15591414D01*
X10819121Y-15591414D01*
X10790550Y-15577129D01*
X10776264Y-15562843D01*
X10761978Y-15534271D01*
X10747693Y-15477129D01*
X10747693Y-15405700D01*
X10761978Y-15348557D01*
X10776264Y-15319986D01*
X10790550Y-15305700D01*
X10819121Y-15291414D01*
X11047693Y-15591414D02*
X11047693Y-15391414D01*
X11047693Y-15419986D02*
X11061978Y-15405700D01*
X11090550Y-15391414D01*
X11133407Y-15391414D01*
X11161978Y-15405700D01*
X11176264Y-15434271D01*
X11176264Y-15591414D01*
X11176264Y-15434271D02*
X11190550Y-15405700D01*
X11219121Y-15391414D01*
X11261978Y-15391414D01*
X11290550Y-15405700D01*
X11304836Y-15434271D01*
X11304836Y-15591414D01*
X11447693Y-15591414D02*
X11447693Y-15391414D01*
X11447693Y-15419986D02*
X11461978Y-15405700D01*
X11490550Y-15391414D01*
X11533407Y-15391414D01*
X11561978Y-15405700D01*
X11576264Y-15434271D01*
X11576264Y-15591414D01*
X11576264Y-15434271D02*
X11590550Y-15405700D01*
X11619121Y-15391414D01*
X11661978Y-15391414D01*
X11690550Y-15405700D01*
X11704836Y-15434271D01*
X11704836Y-15591414D01*
X12290550Y-15277129D02*
X12033407Y-15662843D01*
X12676264Y-15291414D02*
X12704836Y-15291414D01*
X12733407Y-15305700D01*
X12747693Y-15319986D01*
X12761978Y-15348557D01*
X12776264Y-15405700D01*
X12776264Y-15477129D01*
X12761978Y-15534271D01*
X12747693Y-15562843D01*
X12733407Y-15577129D01*
X12704836Y-15591414D01*
X12676264Y-15591414D01*
X12647693Y-15577129D01*
X12633407Y-15562843D01*
X12619121Y-15534271D01*
X12604836Y-15477129D01*
X12604836Y-15405700D01*
X12619121Y-15348557D01*
X12633407Y-15319986D01*
X12647693Y-15305700D01*
X12676264Y-15291414D01*
X12904836Y-15562843D02*
X12919121Y-15577129D01*
X12904836Y-15591414D01*
X12890550Y-15577129D01*
X12904836Y-15562843D01*
X12904836Y-15591414D01*
X13104836Y-15291414D02*
X13133407Y-15291414D01*
X13161978Y-15305700D01*
X13176264Y-15319986D01*
X13190550Y-15348557D01*
X13204836Y-15405700D01*
X13204836Y-15477129D01*
X13190550Y-15534271D01*
X13176264Y-15562843D01*
X13161978Y-15577129D01*
X13133407Y-15591414D01*
X13104836Y-15591414D01*
X13076264Y-15577129D01*
X13061978Y-15562843D01*
X13047693Y-15534271D01*
X13033407Y-15477129D01*
X13033407Y-15405700D01*
X13047693Y-15348557D01*
X13061978Y-15319986D01*
X13076264Y-15305700D01*
X13104836Y-15291414D01*
X13490550Y-15591414D02*
X13319121Y-15591414D01*
X13404836Y-15591414D02*
X13404836Y-15291414D01*
X13376264Y-15334271D01*
X13347693Y-15362843D01*
X13319121Y-15377129D01*
X13761978Y-15291414D02*
X13619121Y-15291414D01*
X13604836Y-15434271D01*
X13619121Y-15419986D01*
X13647693Y-15405700D01*
X13719121Y-15405700D01*
X13747693Y-15419986D01*
X13761978Y-15434271D01*
X13776264Y-15462843D01*
X13776264Y-15534271D01*
X13761978Y-15562843D01*
X13747693Y-15577129D01*
X13719121Y-15591414D01*
X13647693Y-15591414D01*
X13619121Y-15577129D01*
X13604836Y-15562843D01*
X13876264Y-15291414D02*
X14076264Y-15291414D01*
X13947693Y-15591414D01*
X14176264Y-15291414D02*
X14176264Y-15348557D01*
X14290550Y-15291414D02*
X14290550Y-15348557D01*
X14733407Y-15705700D02*
X14719121Y-15691414D01*
X14690550Y-15648557D01*
X14676264Y-15619986D01*
X14661978Y-15577129D01*
X14647693Y-15505700D01*
X14647693Y-15448557D01*
X14661978Y-15377129D01*
X14676264Y-15334271D01*
X14690550Y-15305700D01*
X14719121Y-15262843D01*
X14733407Y-15248557D01*
X14990550Y-15291414D02*
X14847693Y-15291414D01*
X14833407Y-15434271D01*
X14847693Y-15419986D01*
X14876264Y-15405700D01*
X14947693Y-15405700D01*
X14976264Y-15419986D01*
X14990550Y-15434271D01*
X15004836Y-15462843D01*
X15004836Y-15534271D01*
X14990550Y-15562843D01*
X14976264Y-15577129D01*
X14947693Y-15591414D01*
X14876264Y-15591414D01*
X14847693Y-15577129D01*
X14833407Y-15562843D01*
X15104836Y-15291414D02*
X15290550Y-15291414D01*
X15190550Y-15405700D01*
X15233407Y-15405700D01*
X15261978Y-15419986D01*
X15276264Y-15434271D01*
X15290550Y-15462843D01*
X15290550Y-15534271D01*
X15276264Y-15562843D01*
X15261978Y-15577129D01*
X15233407Y-15591414D01*
X15147693Y-15591414D01*
X15119121Y-15577129D01*
X15104836Y-15562843D01*
X15647693Y-15591414D02*
X15647693Y-15291414D01*
X15776264Y-15591414D02*
X15776264Y-15434271D01*
X15761978Y-15405700D01*
X15733407Y-15391414D01*
X15690550Y-15391414D01*
X15661978Y-15405700D01*
X15647693Y-15419986D01*
X15961978Y-15591414D02*
X15933407Y-15577129D01*
X15919121Y-15562843D01*
X15904836Y-15534271D01*
X15904836Y-15448557D01*
X15919121Y-15419986D01*
X15933407Y-15405700D01*
X15961978Y-15391414D01*
X16004836Y-15391414D01*
X16033407Y-15405700D01*
X16047693Y-15419986D01*
X16061978Y-15448557D01*
X16061978Y-15534271D01*
X16047693Y-15562843D01*
X16033407Y-15577129D01*
X16004836Y-15591414D01*
X15961978Y-15591414D01*
X16233407Y-15591414D02*
X16204836Y-15577129D01*
X16190550Y-15548557D01*
X16190550Y-15291414D01*
X16461978Y-15577129D02*
X16433407Y-15591414D01*
X16376264Y-15591414D01*
X16347693Y-15577129D01*
X16333407Y-15548557D01*
X16333407Y-15434271D01*
X16347693Y-15405700D01*
X16376264Y-15391414D01*
X16433407Y-15391414D01*
X16461978Y-15405700D01*
X16476264Y-15434271D01*
X16476264Y-15462843D01*
X16333407Y-15491414D01*
X16590550Y-15577129D02*
X16619121Y-15591414D01*
X16676264Y-15591414D01*
X16704836Y-15577129D01*
X16719121Y-15548557D01*
X16719121Y-15534271D01*
X16704836Y-15505700D01*
X16676264Y-15491414D01*
X16633407Y-15491414D01*
X16604836Y-15477129D01*
X16590550Y-15448557D01*
X16590550Y-15434271D01*
X16604836Y-15405700D01*
X16633407Y-15391414D01*
X16676264Y-15391414D01*
X16704836Y-15405700D01*
X16819121Y-15705700D02*
X16833407Y-15691414D01*
X16861978Y-15648557D01*
X16876264Y-15619986D01*
X16890550Y-15577129D01*
X16904836Y-15505700D01*
X16904836Y-15448557D01*
X16890550Y-15377129D01*
X16876264Y-15334271D01*
X16861978Y-15305700D01*
X16833407Y-15262843D01*
X16819121Y-15248557D01*
X9475550Y-15851700D02*
G75*
G03*
X9475550Y-15851700I-35000J0D01*
G01*
X9819121Y-15687414D02*
X9847693Y-15687414D01*
X9876264Y-15701700D01*
X9890550Y-15715986D01*
X9904836Y-15744557D01*
X9919121Y-15801700D01*
X9919121Y-15873129D01*
X9904836Y-15930271D01*
X9890550Y-15958843D01*
X9876264Y-15973129D01*
X9847693Y-15987414D01*
X9819121Y-15987414D01*
X9790550Y-15973129D01*
X9776264Y-15958843D01*
X9761978Y-15930271D01*
X9747693Y-15873129D01*
X9747693Y-15801700D01*
X9761978Y-15744557D01*
X9776264Y-15715986D01*
X9790550Y-15701700D01*
X9819121Y-15687414D01*
X10047693Y-15958843D02*
X10061978Y-15973129D01*
X10047693Y-15987414D01*
X10033407Y-15973129D01*
X10047693Y-15958843D01*
X10047693Y-15987414D01*
X10161978Y-15687414D02*
X10361978Y-15687414D01*
X10233407Y-15987414D01*
X10533407Y-15687414D02*
X10561978Y-15687414D01*
X10590550Y-15701700D01*
X10604836Y-15715986D01*
X10619121Y-15744557D01*
X10633407Y-15801700D01*
X10633407Y-15873129D01*
X10619121Y-15930271D01*
X10604836Y-15958843D01*
X10590550Y-15973129D01*
X10561978Y-15987414D01*
X10533407Y-15987414D01*
X10504836Y-15973129D01*
X10490550Y-15958843D01*
X10476264Y-15930271D01*
X10461978Y-15873129D01*
X10461978Y-15801700D01*
X10476264Y-15744557D01*
X10490550Y-15715986D01*
X10504836Y-15701700D01*
X10533407Y-15687414D01*
X10819121Y-15687414D02*
X10847693Y-15687414D01*
X10876264Y-15701700D01*
X10890550Y-15715986D01*
X10904836Y-15744557D01*
X10919121Y-15801700D01*
X10919121Y-15873129D01*
X10904836Y-15930271D01*
X10890550Y-15958843D01*
X10876264Y-15973129D01*
X10847693Y-15987414D01*
X10819121Y-15987414D01*
X10790550Y-15973129D01*
X10776264Y-15958843D01*
X10761978Y-15930271D01*
X10747693Y-15873129D01*
X10747693Y-15801700D01*
X10761978Y-15744557D01*
X10776264Y-15715986D01*
X10790550Y-15701700D01*
X10819121Y-15687414D01*
X11047693Y-15987414D02*
X11047693Y-15787414D01*
X11047693Y-15815986D02*
X11061978Y-15801700D01*
X11090550Y-15787414D01*
X11133407Y-15787414D01*
X11161978Y-15801700D01*
X11176264Y-15830271D01*
X11176264Y-15987414D01*
X11176264Y-15830271D02*
X11190550Y-15801700D01*
X11219121Y-15787414D01*
X11261978Y-15787414D01*
X11290550Y-15801700D01*
X11304836Y-15830271D01*
X11304836Y-15987414D01*
X11447693Y-15987414D02*
X11447693Y-15787414D01*
X11447693Y-15815986D02*
X11461978Y-15801700D01*
X11490550Y-15787414D01*
X11533407Y-15787414D01*
X11561978Y-15801700D01*
X11576264Y-15830271D01*
X11576264Y-15987414D01*
X11576264Y-15830271D02*
X11590550Y-15801700D01*
X11619121Y-15787414D01*
X11661978Y-15787414D01*
X11690550Y-15801700D01*
X11704836Y-15830271D01*
X11704836Y-15987414D01*
X12290550Y-15673129D02*
X12033407Y-16058843D01*
X12676264Y-15687414D02*
X12704836Y-15687414D01*
X12733407Y-15701700D01*
X12747693Y-15715986D01*
X12761978Y-15744557D01*
X12776264Y-15801700D01*
X12776264Y-15873129D01*
X12761978Y-15930271D01*
X12747693Y-15958843D01*
X12733407Y-15973129D01*
X12704836Y-15987414D01*
X12676264Y-15987414D01*
X12647693Y-15973129D01*
X12633407Y-15958843D01*
X12619121Y-15930271D01*
X12604836Y-15873129D01*
X12604836Y-15801700D01*
X12619121Y-15744557D01*
X12633407Y-15715986D01*
X12647693Y-15701700D01*
X12676264Y-15687414D01*
X12904836Y-15958843D02*
X12919121Y-15973129D01*
X12904836Y-15987414D01*
X12890550Y-15973129D01*
X12904836Y-15958843D01*
X12904836Y-15987414D01*
X13104836Y-15687414D02*
X13133407Y-15687414D01*
X13161978Y-15701700D01*
X13176264Y-15715986D01*
X13190550Y-15744557D01*
X13204836Y-15801700D01*
X13204836Y-15873129D01*
X13190550Y-15930271D01*
X13176264Y-15958843D01*
X13161978Y-15973129D01*
X13133407Y-15987414D01*
X13104836Y-15987414D01*
X13076264Y-15973129D01*
X13061978Y-15958843D01*
X13047693Y-15930271D01*
X13033407Y-15873129D01*
X13033407Y-15801700D01*
X13047693Y-15744557D01*
X13061978Y-15715986D01*
X13076264Y-15701700D01*
X13104836Y-15687414D01*
X13319121Y-15715986D02*
X13333407Y-15701700D01*
X13361978Y-15687414D01*
X13433407Y-15687414D01*
X13461978Y-15701700D01*
X13476264Y-15715986D01*
X13490550Y-15744557D01*
X13490550Y-15773129D01*
X13476264Y-15815986D01*
X13304836Y-15987414D01*
X13490550Y-15987414D01*
X13590550Y-15687414D02*
X13790550Y-15687414D01*
X13661978Y-15987414D01*
X14033407Y-15687414D02*
X13976264Y-15687414D01*
X13947693Y-15701700D01*
X13933407Y-15715986D01*
X13904836Y-15758843D01*
X13890550Y-15815986D01*
X13890550Y-15930271D01*
X13904836Y-15958843D01*
X13919121Y-15973129D01*
X13947693Y-15987414D01*
X14004836Y-15987414D01*
X14033407Y-15973129D01*
X14047693Y-15958843D01*
X14061978Y-15930271D01*
X14061978Y-15858843D01*
X14047693Y-15830271D01*
X14033407Y-15815986D01*
X14004836Y-15801700D01*
X13947693Y-15801700D01*
X13919121Y-15815986D01*
X13904836Y-15830271D01*
X13890550Y-15858843D01*
X14176264Y-15687414D02*
X14176264Y-15744557D01*
X14290550Y-15687414D02*
X14290550Y-15744557D01*
X14733407Y-16101700D02*
X14719121Y-16087414D01*
X14690550Y-16044557D01*
X14676264Y-16015986D01*
X14661978Y-15973129D01*
X14647693Y-15901700D01*
X14647693Y-15844557D01*
X14661978Y-15773129D01*
X14676264Y-15730271D01*
X14690550Y-15701700D01*
X14719121Y-15658843D01*
X14733407Y-15644557D01*
X14976264Y-15687414D02*
X14919121Y-15687414D01*
X14890550Y-15701700D01*
X14876264Y-15715986D01*
X14847693Y-15758843D01*
X14833407Y-15815986D01*
X14833407Y-15930271D01*
X14847693Y-15958843D01*
X14861978Y-15973129D01*
X14890550Y-15987414D01*
X14947693Y-15987414D01*
X14976264Y-15973129D01*
X14990550Y-15958843D01*
X15004836Y-15930271D01*
X15004836Y-15858843D01*
X14990550Y-15830271D01*
X14976264Y-15815986D01*
X14947693Y-15801700D01*
X14890550Y-15801700D01*
X14861978Y-15815986D01*
X14847693Y-15830271D01*
X14833407Y-15858843D01*
X15261978Y-15787414D02*
X15261978Y-15987414D01*
X15190550Y-15673129D02*
X15119121Y-15887414D01*
X15304836Y-15887414D01*
X15647693Y-15987414D02*
X15647693Y-15687414D01*
X15776264Y-15987414D02*
X15776264Y-15830271D01*
X15761978Y-15801700D01*
X15733407Y-15787414D01*
X15690550Y-15787414D01*
X15661978Y-15801700D01*
X15647693Y-15815986D01*
X15961978Y-15987414D02*
X15933407Y-15973129D01*
X15919121Y-15958843D01*
X15904836Y-15930271D01*
X15904836Y-15844557D01*
X15919121Y-15815986D01*
X15933407Y-15801700D01*
X15961978Y-15787414D01*
X16004836Y-15787414D01*
X16033407Y-15801700D01*
X16047693Y-15815986D01*
X16061978Y-15844557D01*
X16061978Y-15930271D01*
X16047693Y-15958843D01*
X16033407Y-15973129D01*
X16004836Y-15987414D01*
X15961978Y-15987414D01*
X16233407Y-15987414D02*
X16204836Y-15973129D01*
X16190550Y-15944557D01*
X16190550Y-15687414D01*
X16461978Y-15973129D02*
X16433407Y-15987414D01*
X16376264Y-15987414D01*
X16347693Y-15973129D01*
X16333407Y-15944557D01*
X16333407Y-15830271D01*
X16347693Y-15801700D01*
X16376264Y-15787414D01*
X16433407Y-15787414D01*
X16461978Y-15801700D01*
X16476264Y-15830271D01*
X16476264Y-15858843D01*
X16333407Y-15887414D01*
X16590550Y-15973129D02*
X16619121Y-15987414D01*
X16676264Y-15987414D01*
X16704836Y-15973129D01*
X16719121Y-15944557D01*
X16719121Y-15930271D01*
X16704836Y-15901700D01*
X16676264Y-15887414D01*
X16633407Y-15887414D01*
X16604836Y-15873129D01*
X16590550Y-15844557D01*
X16590550Y-15830271D01*
X16604836Y-15801700D01*
X16633407Y-15787414D01*
X16676264Y-15787414D01*
X16704836Y-15801700D01*
X16819121Y-16101700D02*
X16833407Y-16087414D01*
X16861978Y-16044557D01*
X16876264Y-16015986D01*
X16890550Y-15973129D01*
X16904836Y-15901700D01*
X16904836Y-15844557D01*
X16890550Y-15773129D01*
X16876264Y-15730271D01*
X16861978Y-15701700D01*
X16833407Y-15658843D01*
X16819121Y-15644557D01*
X9435550Y-16207700D02*
X9435550Y-16287700D01*
X9395550Y-16247700D02*
X9475550Y-16247700D01*
X9819121Y-16083414D02*
X9847693Y-16083414D01*
X9876264Y-16097700D01*
X9890550Y-16111986D01*
X9904836Y-16140557D01*
X9919121Y-16197700D01*
X9919121Y-16269129D01*
X9904836Y-16326271D01*
X9890550Y-16354843D01*
X9876264Y-16369129D01*
X9847693Y-16383414D01*
X9819121Y-16383414D01*
X9790550Y-16369129D01*
X9776264Y-16354843D01*
X9761978Y-16326271D01*
X9747693Y-16269129D01*
X9747693Y-16197700D01*
X9761978Y-16140557D01*
X9776264Y-16111986D01*
X9790550Y-16097700D01*
X9819121Y-16083414D01*
X10047693Y-16354843D02*
X10061978Y-16369129D01*
X10047693Y-16383414D01*
X10033407Y-16369129D01*
X10047693Y-16354843D01*
X10047693Y-16383414D01*
X10233407Y-16211986D02*
X10204836Y-16197700D01*
X10190550Y-16183414D01*
X10176264Y-16154843D01*
X10176264Y-16140557D01*
X10190550Y-16111986D01*
X10204836Y-16097700D01*
X10233407Y-16083414D01*
X10290550Y-16083414D01*
X10319121Y-16097700D01*
X10333407Y-16111986D01*
X10347693Y-16140557D01*
X10347693Y-16154843D01*
X10333407Y-16183414D01*
X10319121Y-16197700D01*
X10290550Y-16211986D01*
X10233407Y-16211986D01*
X10204836Y-16226271D01*
X10190550Y-16240557D01*
X10176264Y-16269129D01*
X10176264Y-16326271D01*
X10190550Y-16354843D01*
X10204836Y-16369129D01*
X10233407Y-16383414D01*
X10290550Y-16383414D01*
X10319121Y-16369129D01*
X10333407Y-16354843D01*
X10347693Y-16326271D01*
X10347693Y-16269129D01*
X10333407Y-16240557D01*
X10319121Y-16226271D01*
X10290550Y-16211986D01*
X10533407Y-16083414D02*
X10561978Y-16083414D01*
X10590550Y-16097700D01*
X10604836Y-16111986D01*
X10619121Y-16140557D01*
X10633407Y-16197700D01*
X10633407Y-16269129D01*
X10619121Y-16326271D01*
X10604836Y-16354843D01*
X10590550Y-16369129D01*
X10561978Y-16383414D01*
X10533407Y-16383414D01*
X10504836Y-16369129D01*
X10490550Y-16354843D01*
X10476264Y-16326271D01*
X10461978Y-16269129D01*
X10461978Y-16197700D01*
X10476264Y-16140557D01*
X10490550Y-16111986D01*
X10504836Y-16097700D01*
X10533407Y-16083414D01*
X10819121Y-16083414D02*
X10847693Y-16083414D01*
X10876264Y-16097700D01*
X10890550Y-16111986D01*
X10904836Y-16140557D01*
X10919121Y-16197700D01*
X10919121Y-16269129D01*
X10904836Y-16326271D01*
X10890550Y-16354843D01*
X10876264Y-16369129D01*
X10847693Y-16383414D01*
X10819121Y-16383414D01*
X10790550Y-16369129D01*
X10776264Y-16354843D01*
X10761978Y-16326271D01*
X10747693Y-16269129D01*
X10747693Y-16197700D01*
X10761978Y-16140557D01*
X10776264Y-16111986D01*
X10790550Y-16097700D01*
X10819121Y-16083414D01*
X11047693Y-16383414D02*
X11047693Y-16183414D01*
X11047693Y-16211986D02*
X11061978Y-16197700D01*
X11090550Y-16183414D01*
X11133407Y-16183414D01*
X11161978Y-16197700D01*
X11176264Y-16226271D01*
X11176264Y-16383414D01*
X11176264Y-16226271D02*
X11190550Y-16197700D01*
X11219121Y-16183414D01*
X11261978Y-16183414D01*
X11290550Y-16197700D01*
X11304836Y-16226271D01*
X11304836Y-16383414D01*
X11447693Y-16383414D02*
X11447693Y-16183414D01*
X11447693Y-16211986D02*
X11461978Y-16197700D01*
X11490550Y-16183414D01*
X11533407Y-16183414D01*
X11561978Y-16197700D01*
X11576264Y-16226271D01*
X11576264Y-16383414D01*
X11576264Y-16226271D02*
X11590550Y-16197700D01*
X11619121Y-16183414D01*
X11661978Y-16183414D01*
X11690550Y-16197700D01*
X11704836Y-16226271D01*
X11704836Y-16383414D01*
X12290550Y-16069129D02*
X12033407Y-16454843D01*
X12676264Y-16083414D02*
X12704836Y-16083414D01*
X12733407Y-16097700D01*
X12747693Y-16111986D01*
X12761978Y-16140557D01*
X12776264Y-16197700D01*
X12776264Y-16269129D01*
X12761978Y-16326271D01*
X12747693Y-16354843D01*
X12733407Y-16369129D01*
X12704836Y-16383414D01*
X12676264Y-16383414D01*
X12647693Y-16369129D01*
X12633407Y-16354843D01*
X12619121Y-16326271D01*
X12604836Y-16269129D01*
X12604836Y-16197700D01*
X12619121Y-16140557D01*
X12633407Y-16111986D01*
X12647693Y-16097700D01*
X12676264Y-16083414D01*
X12904836Y-16354843D02*
X12919121Y-16369129D01*
X12904836Y-16383414D01*
X12890550Y-16369129D01*
X12904836Y-16354843D01*
X12904836Y-16383414D01*
X13104836Y-16083414D02*
X13133407Y-16083414D01*
X13161978Y-16097700D01*
X13176264Y-16111986D01*
X13190550Y-16140557D01*
X13204836Y-16197700D01*
X13204836Y-16269129D01*
X13190550Y-16326271D01*
X13176264Y-16354843D01*
X13161978Y-16369129D01*
X13133407Y-16383414D01*
X13104836Y-16383414D01*
X13076264Y-16369129D01*
X13061978Y-16354843D01*
X13047693Y-16326271D01*
X13033407Y-16269129D01*
X13033407Y-16197700D01*
X13047693Y-16140557D01*
X13061978Y-16111986D01*
X13076264Y-16097700D01*
X13104836Y-16083414D01*
X13304836Y-16083414D02*
X13490550Y-16083414D01*
X13390550Y-16197700D01*
X13433407Y-16197700D01*
X13461978Y-16211986D01*
X13476264Y-16226271D01*
X13490550Y-16254843D01*
X13490550Y-16326271D01*
X13476264Y-16354843D01*
X13461978Y-16369129D01*
X13433407Y-16383414D01*
X13347693Y-16383414D01*
X13319121Y-16369129D01*
X13304836Y-16354843D01*
X13776264Y-16383414D02*
X13604836Y-16383414D01*
X13690550Y-16383414D02*
X13690550Y-16083414D01*
X13661978Y-16126271D01*
X13633407Y-16154843D01*
X13604836Y-16169129D01*
X14047693Y-16083414D02*
X13904836Y-16083414D01*
X13890550Y-16226271D01*
X13904836Y-16211986D01*
X13933407Y-16197700D01*
X14004836Y-16197700D01*
X14033407Y-16211986D01*
X14047693Y-16226271D01*
X14061978Y-16254843D01*
X14061978Y-16326271D01*
X14047693Y-16354843D01*
X14033407Y-16369129D01*
X14004836Y-16383414D01*
X13933407Y-16383414D01*
X13904836Y-16369129D01*
X13890550Y-16354843D01*
X14176264Y-16083414D02*
X14176264Y-16140557D01*
X14290550Y-16083414D02*
X14290550Y-16140557D01*
X14733407Y-16497700D02*
X14719121Y-16483414D01*
X14690550Y-16440557D01*
X14676264Y-16411986D01*
X14661978Y-16369129D01*
X14647693Y-16297700D01*
X14647693Y-16240557D01*
X14661978Y-16169129D01*
X14676264Y-16126271D01*
X14690550Y-16097700D01*
X14719121Y-16054843D01*
X14733407Y-16040557D01*
X15004836Y-16383414D02*
X14833407Y-16383414D01*
X14919121Y-16383414D02*
X14919121Y-16083414D01*
X14890550Y-16126271D01*
X14861978Y-16154843D01*
X14833407Y-16169129D01*
X15261978Y-16083414D02*
X15204836Y-16083414D01*
X15176264Y-16097700D01*
X15161978Y-16111986D01*
X15133407Y-16154843D01*
X15119121Y-16211986D01*
X15119121Y-16326271D01*
X15133407Y-16354843D01*
X15147693Y-16369129D01*
X15176264Y-16383414D01*
X15233407Y-16383414D01*
X15261978Y-16369129D01*
X15276264Y-16354843D01*
X15290550Y-16326271D01*
X15290550Y-16254843D01*
X15276264Y-16226271D01*
X15261978Y-16211986D01*
X15233407Y-16197700D01*
X15176264Y-16197700D01*
X15147693Y-16211986D01*
X15133407Y-16226271D01*
X15119121Y-16254843D01*
X15476264Y-16083414D02*
X15504836Y-16083414D01*
X15533407Y-16097700D01*
X15547693Y-16111986D01*
X15561978Y-16140557D01*
X15576264Y-16197700D01*
X15576264Y-16269129D01*
X15561978Y-16326271D01*
X15547693Y-16354843D01*
X15533407Y-16369129D01*
X15504836Y-16383414D01*
X15476264Y-16383414D01*
X15447693Y-16369129D01*
X15433407Y-16354843D01*
X15419121Y-16326271D01*
X15404836Y-16269129D01*
X15404836Y-16197700D01*
X15419121Y-16140557D01*
X15433407Y-16111986D01*
X15447693Y-16097700D01*
X15476264Y-16083414D01*
X15933407Y-16383414D02*
X15933407Y-16083414D01*
X16061978Y-16383414D02*
X16061978Y-16226271D01*
X16047693Y-16197700D01*
X16019121Y-16183414D01*
X15976264Y-16183414D01*
X15947693Y-16197700D01*
X15933407Y-16211986D01*
X16247693Y-16383414D02*
X16219121Y-16369129D01*
X16204836Y-16354843D01*
X16190550Y-16326271D01*
X16190550Y-16240557D01*
X16204836Y-16211986D01*
X16219121Y-16197700D01*
X16247693Y-16183414D01*
X16290550Y-16183414D01*
X16319121Y-16197700D01*
X16333407Y-16211986D01*
X16347693Y-16240557D01*
X16347693Y-16326271D01*
X16333407Y-16354843D01*
X16319121Y-16369129D01*
X16290550Y-16383414D01*
X16247693Y-16383414D01*
X16519121Y-16383414D02*
X16490550Y-16369129D01*
X16476264Y-16340557D01*
X16476264Y-16083414D01*
X16747693Y-16369129D02*
X16719121Y-16383414D01*
X16661978Y-16383414D01*
X16633407Y-16369129D01*
X16619121Y-16340557D01*
X16619121Y-16226271D01*
X16633407Y-16197700D01*
X16661978Y-16183414D01*
X16719121Y-16183414D01*
X16747693Y-16197700D01*
X16761978Y-16226271D01*
X16761978Y-16254843D01*
X16619121Y-16283414D01*
X16876264Y-16369129D02*
X16904836Y-16383414D01*
X16961978Y-16383414D01*
X16990550Y-16369129D01*
X17004836Y-16340557D01*
X17004836Y-16326271D01*
X16990550Y-16297700D01*
X16961978Y-16283414D01*
X16919121Y-16283414D01*
X16890550Y-16269129D01*
X16876264Y-16240557D01*
X16876264Y-16226271D01*
X16890550Y-16197700D01*
X16919121Y-16183414D01*
X16961978Y-16183414D01*
X16990550Y-16197700D01*
X17104836Y-16497700D02*
X17119121Y-16483414D01*
X17147693Y-16440557D01*
X17161978Y-16411986D01*
X17176264Y-16369129D01*
X17190550Y-16297700D01*
X17190550Y-16240557D01*
X17176264Y-16169129D01*
X17161978Y-16126271D01*
X17147693Y-16097700D01*
X17119121Y-16054843D01*
X17104836Y-16040557D01*
X9462370Y-16675520D02*
X9462370Y-16611880D01*
X9398730Y-16611880D01*
X9398730Y-16675520D01*
X9462370Y-16675520D01*
X9819121Y-16479414D02*
X9847693Y-16479414D01*
X9876264Y-16493700D01*
X9890550Y-16507986D01*
X9904836Y-16536557D01*
X9919121Y-16593700D01*
X9919121Y-16665129D01*
X9904836Y-16722271D01*
X9890550Y-16750843D01*
X9876264Y-16765129D01*
X9847693Y-16779414D01*
X9819121Y-16779414D01*
X9790550Y-16765129D01*
X9776264Y-16750843D01*
X9761978Y-16722271D01*
X9747693Y-16665129D01*
X9747693Y-16593700D01*
X9761978Y-16536557D01*
X9776264Y-16507986D01*
X9790550Y-16493700D01*
X9819121Y-16479414D01*
X10047693Y-16750843D02*
X10061978Y-16765129D01*
X10047693Y-16779414D01*
X10033407Y-16765129D01*
X10047693Y-16750843D01*
X10047693Y-16779414D01*
X10204836Y-16779414D02*
X10261978Y-16779414D01*
X10290550Y-16765129D01*
X10304836Y-16750843D01*
X10333407Y-16707986D01*
X10347693Y-16650843D01*
X10347693Y-16536557D01*
X10333407Y-16507986D01*
X10319121Y-16493700D01*
X10290550Y-16479414D01*
X10233407Y-16479414D01*
X10204836Y-16493700D01*
X10190550Y-16507986D01*
X10176264Y-16536557D01*
X10176264Y-16607986D01*
X10190550Y-16636557D01*
X10204836Y-16650843D01*
X10233407Y-16665129D01*
X10290550Y-16665129D01*
X10319121Y-16650843D01*
X10333407Y-16636557D01*
X10347693Y-16607986D01*
X10533407Y-16479414D02*
X10561978Y-16479414D01*
X10590550Y-16493700D01*
X10604836Y-16507986D01*
X10619121Y-16536557D01*
X10633407Y-16593700D01*
X10633407Y-16665129D01*
X10619121Y-16722271D01*
X10604836Y-16750843D01*
X10590550Y-16765129D01*
X10561978Y-16779414D01*
X10533407Y-16779414D01*
X10504836Y-16765129D01*
X10490550Y-16750843D01*
X10476264Y-16722271D01*
X10461978Y-16665129D01*
X10461978Y-16593700D01*
X10476264Y-16536557D01*
X10490550Y-16507986D01*
X10504836Y-16493700D01*
X10533407Y-16479414D01*
X10819121Y-16479414D02*
X10847693Y-16479414D01*
X10876264Y-16493700D01*
X10890550Y-16507986D01*
X10904836Y-16536557D01*
X10919121Y-16593700D01*
X10919121Y-16665129D01*
X10904836Y-16722271D01*
X10890550Y-16750843D01*
X10876264Y-16765129D01*
X10847693Y-16779414D01*
X10819121Y-16779414D01*
X10790550Y-16765129D01*
X10776264Y-16750843D01*
X10761978Y-16722271D01*
X10747693Y-16665129D01*
X10747693Y-16593700D01*
X10761978Y-16536557D01*
X10776264Y-16507986D01*
X10790550Y-16493700D01*
X10819121Y-16479414D01*
X11047693Y-16779414D02*
X11047693Y-16579414D01*
X11047693Y-16607986D02*
X11061978Y-16593700D01*
X11090550Y-16579414D01*
X11133407Y-16579414D01*
X11161978Y-16593700D01*
X11176264Y-16622271D01*
X11176264Y-16779414D01*
X11176264Y-16622271D02*
X11190550Y-16593700D01*
X11219121Y-16579414D01*
X11261978Y-16579414D01*
X11290550Y-16593700D01*
X11304836Y-16622271D01*
X11304836Y-16779414D01*
X11447693Y-16779414D02*
X11447693Y-16579414D01*
X11447693Y-16607986D02*
X11461978Y-16593700D01*
X11490550Y-16579414D01*
X11533407Y-16579414D01*
X11561978Y-16593700D01*
X11576264Y-16622271D01*
X11576264Y-16779414D01*
X11576264Y-16622271D02*
X11590550Y-16593700D01*
X11619121Y-16579414D01*
X11661978Y-16579414D01*
X11690550Y-16593700D01*
X11704836Y-16622271D01*
X11704836Y-16779414D01*
X12290550Y-16465129D02*
X12033407Y-16850843D01*
X12676264Y-16479414D02*
X12704836Y-16479414D01*
X12733407Y-16493700D01*
X12747693Y-16507986D01*
X12761978Y-16536557D01*
X12776264Y-16593700D01*
X12776264Y-16665129D01*
X12761978Y-16722271D01*
X12747693Y-16750843D01*
X12733407Y-16765129D01*
X12704836Y-16779414D01*
X12676264Y-16779414D01*
X12647693Y-16765129D01*
X12633407Y-16750843D01*
X12619121Y-16722271D01*
X12604836Y-16665129D01*
X12604836Y-16593700D01*
X12619121Y-16536557D01*
X12633407Y-16507986D01*
X12647693Y-16493700D01*
X12676264Y-16479414D01*
X12904836Y-16750843D02*
X12919121Y-16765129D01*
X12904836Y-16779414D01*
X12890550Y-16765129D01*
X12904836Y-16750843D01*
X12904836Y-16779414D01*
X13104836Y-16479414D02*
X13133407Y-16479414D01*
X13161978Y-16493700D01*
X13176264Y-16507986D01*
X13190550Y-16536557D01*
X13204836Y-16593700D01*
X13204836Y-16665129D01*
X13190550Y-16722271D01*
X13176264Y-16750843D01*
X13161978Y-16765129D01*
X13133407Y-16779414D01*
X13104836Y-16779414D01*
X13076264Y-16765129D01*
X13061978Y-16750843D01*
X13047693Y-16722271D01*
X13033407Y-16665129D01*
X13033407Y-16593700D01*
X13047693Y-16536557D01*
X13061978Y-16507986D01*
X13076264Y-16493700D01*
X13104836Y-16479414D01*
X13304836Y-16479414D02*
X13490550Y-16479414D01*
X13390550Y-16593700D01*
X13433407Y-16593700D01*
X13461978Y-16607986D01*
X13476264Y-16622271D01*
X13490550Y-16650843D01*
X13490550Y-16722271D01*
X13476264Y-16750843D01*
X13461978Y-16765129D01*
X13433407Y-16779414D01*
X13347693Y-16779414D01*
X13319121Y-16765129D01*
X13304836Y-16750843D01*
X13761978Y-16479414D02*
X13619121Y-16479414D01*
X13604836Y-16622271D01*
X13619121Y-16607986D01*
X13647693Y-16593700D01*
X13719121Y-16593700D01*
X13747693Y-16607986D01*
X13761978Y-16622271D01*
X13776264Y-16650843D01*
X13776264Y-16722271D01*
X13761978Y-16750843D01*
X13747693Y-16765129D01*
X13719121Y-16779414D01*
X13647693Y-16779414D01*
X13619121Y-16765129D01*
X13604836Y-16750843D01*
X14033407Y-16579414D02*
X14033407Y-16779414D01*
X13961978Y-16465129D02*
X13890550Y-16679414D01*
X14076264Y-16679414D01*
X14176264Y-16479414D02*
X14176264Y-16536557D01*
X14290550Y-16479414D02*
X14290550Y-16536557D01*
X14733407Y-16893700D02*
X14719121Y-16879414D01*
X14690550Y-16836557D01*
X14676264Y-16807986D01*
X14661978Y-16765129D01*
X14647693Y-16693700D01*
X14647693Y-16636557D01*
X14661978Y-16565129D01*
X14676264Y-16522271D01*
X14690550Y-16493700D01*
X14719121Y-16450843D01*
X14733407Y-16436557D01*
X14976264Y-16479414D02*
X14919121Y-16479414D01*
X14890550Y-16493700D01*
X14876264Y-16507986D01*
X14847693Y-16550843D01*
X14833407Y-16607986D01*
X14833407Y-16722271D01*
X14847693Y-16750843D01*
X14861978Y-16765129D01*
X14890550Y-16779414D01*
X14947693Y-16779414D01*
X14976264Y-16765129D01*
X14990550Y-16750843D01*
X15004836Y-16722271D01*
X15004836Y-16650843D01*
X14990550Y-16622271D01*
X14976264Y-16607986D01*
X14947693Y-16593700D01*
X14890550Y-16593700D01*
X14861978Y-16607986D01*
X14847693Y-16622271D01*
X14833407Y-16650843D01*
X15261978Y-16579414D02*
X15261978Y-16779414D01*
X15190550Y-16465129D02*
X15119121Y-16679414D01*
X15304836Y-16679414D01*
X15647693Y-16779414D02*
X15647693Y-16479414D01*
X15776264Y-16779414D02*
X15776264Y-16622271D01*
X15761978Y-16593700D01*
X15733407Y-16579414D01*
X15690550Y-16579414D01*
X15661978Y-16593700D01*
X15647693Y-16607986D01*
X15961978Y-16779414D02*
X15933407Y-16765129D01*
X15919121Y-16750843D01*
X15904836Y-16722271D01*
X15904836Y-16636557D01*
X15919121Y-16607986D01*
X15933407Y-16593700D01*
X15961978Y-16579414D01*
X16004836Y-16579414D01*
X16033407Y-16593700D01*
X16047693Y-16607986D01*
X16061978Y-16636557D01*
X16061978Y-16722271D01*
X16047693Y-16750843D01*
X16033407Y-16765129D01*
X16004836Y-16779414D01*
X15961978Y-16779414D01*
X16233407Y-16779414D02*
X16204836Y-16765129D01*
X16190550Y-16736557D01*
X16190550Y-16479414D01*
X16461978Y-16765129D02*
X16433407Y-16779414D01*
X16376264Y-16779414D01*
X16347693Y-16765129D01*
X16333407Y-16736557D01*
X16333407Y-16622271D01*
X16347693Y-16593700D01*
X16376264Y-16579414D01*
X16433407Y-16579414D01*
X16461978Y-16593700D01*
X16476264Y-16622271D01*
X16476264Y-16650843D01*
X16333407Y-16679414D01*
X16590550Y-16765129D02*
X16619121Y-16779414D01*
X16676264Y-16779414D01*
X16704836Y-16765129D01*
X16719121Y-16736557D01*
X16719121Y-16722271D01*
X16704836Y-16693700D01*
X16676264Y-16679414D01*
X16633407Y-16679414D01*
X16604836Y-16665129D01*
X16590550Y-16636557D01*
X16590550Y-16622271D01*
X16604836Y-16593700D01*
X16633407Y-16579414D01*
X16676264Y-16579414D01*
X16704836Y-16593700D01*
X16819121Y-16893700D02*
X16833407Y-16879414D01*
X16861978Y-16836557D01*
X16876264Y-16807986D01*
X16890550Y-16765129D01*
X16904836Y-16693700D01*
X16904836Y-16636557D01*
X16890550Y-16565129D01*
X16876264Y-16522271D01*
X16861978Y-16493700D01*
X16833407Y-16450843D01*
X16819121Y-16436557D01*
X9425550Y-17089700D02*
X9475550Y-17039700D01*
X9425550Y-16989700D01*
X9375550Y-17039700D01*
X9425550Y-17089700D01*
X9919121Y-17175414D02*
X9747693Y-17175414D01*
X9833407Y-17175414D02*
X9833407Y-16875414D01*
X9804836Y-16918272D01*
X9776264Y-16946843D01*
X9747693Y-16961129D01*
X10047693Y-17146843D02*
X10061978Y-17161129D01*
X10047693Y-17175414D01*
X10033407Y-17161129D01*
X10047693Y-17146843D01*
X10047693Y-17175414D01*
X10247693Y-16875414D02*
X10276264Y-16875414D01*
X10304836Y-16889700D01*
X10319121Y-16903986D01*
X10333407Y-16932557D01*
X10347693Y-16989700D01*
X10347693Y-17061129D01*
X10333407Y-17118272D01*
X10319121Y-17146843D01*
X10304836Y-17161129D01*
X10276264Y-17175414D01*
X10247693Y-17175414D01*
X10219121Y-17161129D01*
X10204836Y-17146843D01*
X10190550Y-17118272D01*
X10176264Y-17061129D01*
X10176264Y-16989700D01*
X10190550Y-16932557D01*
X10204836Y-16903986D01*
X10219121Y-16889700D01*
X10247693Y-16875414D01*
X10533407Y-16875414D02*
X10561978Y-16875414D01*
X10590550Y-16889700D01*
X10604836Y-16903986D01*
X10619121Y-16932557D01*
X10633407Y-16989700D01*
X10633407Y-17061129D01*
X10619121Y-17118272D01*
X10604836Y-17146843D01*
X10590550Y-17161129D01*
X10561978Y-17175414D01*
X10533407Y-17175414D01*
X10504836Y-17161129D01*
X10490550Y-17146843D01*
X10476264Y-17118272D01*
X10461978Y-17061129D01*
X10461978Y-16989700D01*
X10476264Y-16932557D01*
X10490550Y-16903986D01*
X10504836Y-16889700D01*
X10533407Y-16875414D01*
X10819121Y-16875414D02*
X10847693Y-16875414D01*
X10876264Y-16889700D01*
X10890550Y-16903986D01*
X10904836Y-16932557D01*
X10919121Y-16989700D01*
X10919121Y-17061129D01*
X10904836Y-17118272D01*
X10890550Y-17146843D01*
X10876264Y-17161129D01*
X10847693Y-17175414D01*
X10819121Y-17175414D01*
X10790550Y-17161129D01*
X10776264Y-17146843D01*
X10761978Y-17118272D01*
X10747693Y-17061129D01*
X10747693Y-16989700D01*
X10761978Y-16932557D01*
X10776264Y-16903986D01*
X10790550Y-16889700D01*
X10819121Y-16875414D01*
X11047693Y-17175414D02*
X11047693Y-16975414D01*
X11047693Y-17003986D02*
X11061978Y-16989700D01*
X11090550Y-16975414D01*
X11133407Y-16975414D01*
X11161978Y-16989700D01*
X11176264Y-17018272D01*
X11176264Y-17175414D01*
X11176264Y-17018272D02*
X11190550Y-16989700D01*
X11219121Y-16975414D01*
X11261978Y-16975414D01*
X11290550Y-16989700D01*
X11304836Y-17018272D01*
X11304836Y-17175414D01*
X11447693Y-17175414D02*
X11447693Y-16975414D01*
X11447693Y-17003986D02*
X11461978Y-16989700D01*
X11490550Y-16975414D01*
X11533407Y-16975414D01*
X11561978Y-16989700D01*
X11576264Y-17018272D01*
X11576264Y-17175414D01*
X11576264Y-17018272D02*
X11590550Y-16989700D01*
X11619121Y-16975414D01*
X11661978Y-16975414D01*
X11690550Y-16989700D01*
X11704836Y-17018272D01*
X11704836Y-17175414D01*
X12290550Y-16861129D02*
X12033407Y-17246843D01*
X12676264Y-16875414D02*
X12704836Y-16875414D01*
X12733407Y-16889700D01*
X12747693Y-16903986D01*
X12761978Y-16932557D01*
X12776264Y-16989700D01*
X12776264Y-17061129D01*
X12761978Y-17118272D01*
X12747693Y-17146843D01*
X12733407Y-17161129D01*
X12704836Y-17175414D01*
X12676264Y-17175414D01*
X12647693Y-17161129D01*
X12633407Y-17146843D01*
X12619121Y-17118272D01*
X12604836Y-17061129D01*
X12604836Y-16989700D01*
X12619121Y-16932557D01*
X12633407Y-16903986D01*
X12647693Y-16889700D01*
X12676264Y-16875414D01*
X12904836Y-17146843D02*
X12919121Y-17161129D01*
X12904836Y-17175414D01*
X12890550Y-17161129D01*
X12904836Y-17146843D01*
X12904836Y-17175414D01*
X13104836Y-16875414D02*
X13133407Y-16875414D01*
X13161978Y-16889700D01*
X13176264Y-16903986D01*
X13190550Y-16932557D01*
X13204836Y-16989700D01*
X13204836Y-17061129D01*
X13190550Y-17118272D01*
X13176264Y-17146843D01*
X13161978Y-17161129D01*
X13133407Y-17175414D01*
X13104836Y-17175414D01*
X13076264Y-17161129D01*
X13061978Y-17146843D01*
X13047693Y-17118272D01*
X13033407Y-17061129D01*
X13033407Y-16989700D01*
X13047693Y-16932557D01*
X13061978Y-16903986D01*
X13076264Y-16889700D01*
X13104836Y-16875414D01*
X13304836Y-16875414D02*
X13490550Y-16875414D01*
X13390550Y-16989700D01*
X13433407Y-16989700D01*
X13461978Y-17003986D01*
X13476264Y-17018272D01*
X13490550Y-17046843D01*
X13490550Y-17118272D01*
X13476264Y-17146843D01*
X13461978Y-17161129D01*
X13433407Y-17175414D01*
X13347693Y-17175414D01*
X13319121Y-17161129D01*
X13304836Y-17146843D01*
X13633407Y-17175414D02*
X13690550Y-17175414D01*
X13719121Y-17161129D01*
X13733407Y-17146843D01*
X13761978Y-17103986D01*
X13776264Y-17046843D01*
X13776264Y-16932557D01*
X13761978Y-16903986D01*
X13747693Y-16889700D01*
X13719121Y-16875414D01*
X13661978Y-16875414D01*
X13633407Y-16889700D01*
X13619121Y-16903986D01*
X13604836Y-16932557D01*
X13604836Y-17003986D01*
X13619121Y-17032557D01*
X13633407Y-17046843D01*
X13661978Y-17061129D01*
X13719121Y-17061129D01*
X13747693Y-17046843D01*
X13761978Y-17032557D01*
X13776264Y-17003986D01*
X14033407Y-16975414D02*
X14033407Y-17175414D01*
X13961978Y-16861129D02*
X13890550Y-17075414D01*
X14076264Y-17075414D01*
X14176264Y-16875414D02*
X14176264Y-16932557D01*
X14290550Y-16875414D02*
X14290550Y-16932557D01*
X14733407Y-17289700D02*
X14719121Y-17275414D01*
X14690550Y-17232557D01*
X14676264Y-17203986D01*
X14661978Y-17161129D01*
X14647693Y-17089700D01*
X14647693Y-17032557D01*
X14661978Y-16961129D01*
X14676264Y-16918272D01*
X14690550Y-16889700D01*
X14719121Y-16846843D01*
X14733407Y-16832557D01*
X14833407Y-16903986D02*
X14847693Y-16889700D01*
X14876264Y-16875414D01*
X14947693Y-16875414D01*
X14976264Y-16889700D01*
X14990550Y-16903986D01*
X15004836Y-16932557D01*
X15004836Y-16961129D01*
X14990550Y-17003986D01*
X14819121Y-17175414D01*
X15004836Y-17175414D01*
X15176264Y-17003986D02*
X15147693Y-16989700D01*
X15133407Y-16975414D01*
X15119121Y-16946843D01*
X15119121Y-16932557D01*
X15133407Y-16903986D01*
X15147693Y-16889700D01*
X15176264Y-16875414D01*
X15233407Y-16875414D01*
X15261978Y-16889700D01*
X15276264Y-16903986D01*
X15290550Y-16932557D01*
X15290550Y-16946843D01*
X15276264Y-16975414D01*
X15261978Y-16989700D01*
X15233407Y-17003986D01*
X15176264Y-17003986D01*
X15147693Y-17018272D01*
X15133407Y-17032557D01*
X15119121Y-17061129D01*
X15119121Y-17118272D01*
X15133407Y-17146843D01*
X15147693Y-17161129D01*
X15176264Y-17175414D01*
X15233407Y-17175414D01*
X15261978Y-17161129D01*
X15276264Y-17146843D01*
X15290550Y-17118272D01*
X15290550Y-17061129D01*
X15276264Y-17032557D01*
X15261978Y-17018272D01*
X15233407Y-17003986D01*
X15647693Y-17175414D02*
X15647693Y-16875414D01*
X15776264Y-17175414D02*
X15776264Y-17018272D01*
X15761978Y-16989700D01*
X15733407Y-16975414D01*
X15690550Y-16975414D01*
X15661978Y-16989700D01*
X15647693Y-17003986D01*
X15961978Y-17175414D02*
X15933407Y-17161129D01*
X15919121Y-17146843D01*
X15904836Y-17118272D01*
X15904836Y-17032557D01*
X15919121Y-17003986D01*
X15933407Y-16989700D01*
X15961978Y-16975414D01*
X16004836Y-16975414D01*
X16033407Y-16989700D01*
X16047693Y-17003986D01*
X16061978Y-17032557D01*
X16061978Y-17118272D01*
X16047693Y-17146843D01*
X16033407Y-17161129D01*
X16004836Y-17175414D01*
X15961978Y-17175414D01*
X16233407Y-17175414D02*
X16204836Y-17161129D01*
X16190550Y-17132557D01*
X16190550Y-16875414D01*
X16461978Y-17161129D02*
X16433407Y-17175414D01*
X16376264Y-17175414D01*
X16347693Y-17161129D01*
X16333407Y-17132557D01*
X16333407Y-17018272D01*
X16347693Y-16989700D01*
X16376264Y-16975414D01*
X16433407Y-16975414D01*
X16461978Y-16989700D01*
X16476264Y-17018272D01*
X16476264Y-17046843D01*
X16333407Y-17075414D01*
X16590550Y-17161129D02*
X16619121Y-17175414D01*
X16676264Y-17175414D01*
X16704836Y-17161129D01*
X16719121Y-17132557D01*
X16719121Y-17118272D01*
X16704836Y-17089700D01*
X16676264Y-17075414D01*
X16633407Y-17075414D01*
X16604836Y-17061129D01*
X16590550Y-17032557D01*
X16590550Y-17018272D01*
X16604836Y-16989700D01*
X16633407Y-16975414D01*
X16676264Y-16975414D01*
X16704836Y-16989700D01*
X16819121Y-17289700D02*
X16833407Y-17275414D01*
X16861978Y-17232557D01*
X16876264Y-17203986D01*
X16890550Y-17161129D01*
X16904836Y-17089700D01*
X16904836Y-17032557D01*
X16890550Y-16961129D01*
X16876264Y-16918272D01*
X16861978Y-16889700D01*
X16833407Y-16846843D01*
X16819121Y-16832557D01*
M02*
