%FSLAX45Y45*%
G04 Gerber Fmt 4.5, Leading zero omitted, Abs format (unit mm)*
G04 Created by KiCad (PCBNEW (5.1.10)-1) date 2023-01-28 17:58:23*
%MOMM*%
%LPD*%
G01*
G04 APERTURE LIST*
%TA.AperFunction,Profile*%
%ADD10C,0.100000*%
%TD*%
%ADD11C,0.200000*%
%ADD12C,0.300000*%
G04 APERTURE END LIST*
D10*
X19640550Y-4362450D02*
X19640550Y-14490700D01*
X9480550Y-4362450D02*
X19640550Y-4362450D01*
X9480550Y-14490700D02*
X9480550Y-4362450D01*
X19640550Y-14490700D02*
X9480550Y-14490700D01*
D11*
D12*
X9761978Y-14961414D02*
X9761978Y-14661414D01*
X9833407Y-14661414D01*
X9876264Y-14675700D01*
X9904836Y-14704271D01*
X9919121Y-14732843D01*
X9933407Y-14789986D01*
X9933407Y-14832843D01*
X9919121Y-14889986D01*
X9904836Y-14918557D01*
X9876264Y-14947129D01*
X9833407Y-14961414D01*
X9761978Y-14961414D01*
X10061978Y-14961414D02*
X10061978Y-14761414D01*
X10061978Y-14818557D02*
X10076264Y-14789986D01*
X10090550Y-14775700D01*
X10119121Y-14761414D01*
X10147693Y-14761414D01*
X10247693Y-14961414D02*
X10247693Y-14761414D01*
X10247693Y-14661414D02*
X10233407Y-14675700D01*
X10247693Y-14689986D01*
X10261978Y-14675700D01*
X10247693Y-14661414D01*
X10247693Y-14689986D01*
X10433407Y-14961414D02*
X10404836Y-14947129D01*
X10390550Y-14918557D01*
X10390550Y-14661414D01*
X10590550Y-14961414D02*
X10561978Y-14947129D01*
X10547693Y-14918557D01*
X10547693Y-14661414D01*
X10933407Y-14961414D02*
X10933407Y-14661414D01*
X11033407Y-14875700D01*
X11133407Y-14661414D01*
X11133407Y-14961414D01*
X11404836Y-14961414D02*
X11404836Y-14804271D01*
X11390550Y-14775700D01*
X11361978Y-14761414D01*
X11304836Y-14761414D01*
X11276264Y-14775700D01*
X11404836Y-14947129D02*
X11376264Y-14961414D01*
X11304836Y-14961414D01*
X11276264Y-14947129D01*
X11261978Y-14918557D01*
X11261978Y-14889986D01*
X11276264Y-14861414D01*
X11304836Y-14847129D01*
X11376264Y-14847129D01*
X11404836Y-14832843D01*
X11547693Y-14761414D02*
X11547693Y-15061414D01*
X11547693Y-14775700D02*
X11576264Y-14761414D01*
X11633407Y-14761414D01*
X11661978Y-14775700D01*
X11676264Y-14789986D01*
X11690550Y-14818557D01*
X11690550Y-14904271D01*
X11676264Y-14932843D01*
X11661978Y-14947129D01*
X11633407Y-14961414D01*
X11576264Y-14961414D01*
X11547693Y-14947129D01*
X11819121Y-14932843D02*
X11833407Y-14947129D01*
X11819121Y-14961414D01*
X11804836Y-14947129D01*
X11819121Y-14932843D01*
X11819121Y-14961414D01*
X11819121Y-14775700D02*
X11833407Y-14789986D01*
X11819121Y-14804271D01*
X11804836Y-14789986D01*
X11819121Y-14775700D01*
X11819121Y-14804271D01*
M02*
