G04 #@! TF.GenerationSoftware,KiCad,Pcbnew,9.0.0*
G04 #@! TF.CreationDate,2025-06-15T15:39:48+02:00*
G04 #@! TF.ProjectId,8-bit computer_Keypad_Module,382d6269-7420-4636-9f6d-70757465725f,rev?*
G04 #@! TF.SameCoordinates,Original*
G04 #@! TF.FileFunction,Soldermask,Bot*
G04 #@! TF.FilePolarity,Negative*
%FSLAX46Y46*%
G04 Gerber Fmt 4.6, Leading zero omitted, Abs format (unit mm)*
G04 Created by KiCad (PCBNEW 9.0.0) date 2025-06-15 15:39:48*
%MOMM*%
%LPD*%
G01*
G04 APERTURE LIST*
G04 Aperture macros list*
%AMRoundRect*
0 Rectangle with rounded corners*
0 $1 Rounding radius*
0 $2 $3 $4 $5 $6 $7 $8 $9 X,Y pos of 4 corners*
0 Add a 4 corners polygon primitive as box body*
4,1,4,$2,$3,$4,$5,$6,$7,$8,$9,$2,$3,0*
0 Add four circle primitives for the rounded corners*
1,1,$1+$1,$2,$3*
1,1,$1+$1,$4,$5*
1,1,$1+$1,$6,$7*
1,1,$1+$1,$8,$9*
0 Add four rect primitives between the rounded corners*
20,1,$1+$1,$2,$3,$4,$5,0*
20,1,$1+$1,$4,$5,$6,$7,0*
20,1,$1+$1,$6,$7,$8,$9,0*
20,1,$1+$1,$8,$9,$2,$3,0*%
G04 Aperture macros list end*
%ADD10C,5.600000*%
%ADD11RoundRect,0.250000X-0.600000X0.600000X-0.600000X-0.600000X0.600000X-0.600000X0.600000X0.600000X0*%
%ADD12C,1.700000*%
%ADD13C,1.600000*%
%ADD14C,4.000000*%
%ADD15C,2.200000*%
%ADD16C,1.690600*%
%ADD17RoundRect,0.250000X0.550000X-0.550000X0.550000X0.550000X-0.550000X0.550000X-0.550000X-0.550000X0*%
%ADD18C,10.000000*%
%ADD19C,3.000000*%
%ADD20R,1.600000X1.600000*%
%ADD21C,1.440000*%
%ADD22R,1.200000X1.200000*%
%ADD23C,1.200000*%
G04 APERTURE END LIST*
D10*
X200355200Y-133604000D03*
D11*
X134010400Y-53441600D03*
D12*
X134010400Y-55981600D03*
X131470400Y-53441600D03*
X131470399Y-55981600D03*
X128930400Y-53441600D03*
X128930400Y-55981600D03*
X126390400Y-53441600D03*
X126390399Y-55981600D03*
X123850400Y-53441600D03*
X123850400Y-55981600D03*
X121310400Y-53441600D03*
X121310399Y-55981600D03*
X118770400Y-53441600D03*
X118770400Y-55981600D03*
X116230400Y-53441600D03*
X116230399Y-55981600D03*
D13*
X141935200Y-50789200D03*
X141935200Y-53289200D03*
D10*
X112420400Y-136906000D03*
D14*
X180086000Y-90424000D03*
D15*
X176276000Y-87884000D03*
X182626000Y-85344000D03*
D16*
X178816000Y-95504000D03*
X181356000Y-95504000D03*
D17*
X171399200Y-58318400D03*
D13*
X173939200Y-58318400D03*
X176479200Y-58318400D03*
X179019200Y-58318400D03*
X181559200Y-58318400D03*
X184099200Y-58318400D03*
X186639200Y-58318400D03*
X186639200Y-50698400D03*
X184099200Y-50698400D03*
X181559200Y-50698400D03*
X179019200Y-50698400D03*
X176479200Y-50698400D03*
X173939200Y-50698400D03*
X171399200Y-50698400D03*
D14*
X161036000Y-71374000D03*
D15*
X157226000Y-68834000D03*
X163576000Y-66294000D03*
D16*
X159766000Y-76454000D03*
X162306000Y-76454000D03*
D13*
X167894000Y-53086000D03*
X167894000Y-55586000D03*
D14*
X161036000Y-128524000D03*
D15*
X157226000Y-125984000D03*
X163576000Y-123444000D03*
D16*
X159766000Y-133604000D03*
X162306000Y-133604000D03*
D14*
X141986000Y-128524000D03*
D15*
X138176000Y-125984000D03*
X144526000Y-123444000D03*
D16*
X140716000Y-133604000D03*
X143256000Y-133604000D03*
D14*
X122936000Y-128524000D03*
D15*
X119126000Y-125984000D03*
X125476000Y-123444000D03*
D16*
X121666000Y-133604000D03*
X124206000Y-133604000D03*
D14*
X141986000Y-71374000D03*
D15*
X138176000Y-68834000D03*
X144526000Y-66294000D03*
D16*
X140716000Y-76454000D03*
X143256000Y-76454000D03*
D14*
X141986000Y-90424000D03*
D15*
X138176000Y-87884000D03*
X144526000Y-85344000D03*
D16*
X140716000Y-95504000D03*
X143256000Y-95504000D03*
D17*
X194310000Y-58288000D03*
D13*
X196850000Y-58288000D03*
X199390000Y-58288000D03*
X201930000Y-58288000D03*
X201930001Y-50668000D03*
X199390000Y-50668000D03*
X196850001Y-50668000D03*
X194310000Y-50668000D03*
D14*
X141986000Y-109474000D03*
D15*
X138176000Y-106934000D03*
X144526000Y-104394000D03*
D16*
X140716000Y-114554000D03*
X143256000Y-114554000D03*
D14*
X180086000Y-109474000D03*
D15*
X176276000Y-106934000D03*
X182626000Y-104394000D03*
D16*
X178816000Y-114554000D03*
X181356000Y-114554000D03*
D17*
X145897600Y-58623200D03*
D13*
X148437600Y-58623200D03*
X150977600Y-58623200D03*
X153517600Y-58623200D03*
X156057600Y-58623200D03*
X158597600Y-58623200D03*
X161137600Y-58623200D03*
X163677600Y-58623200D03*
X163677600Y-51003200D03*
X161137600Y-51003200D03*
X158597600Y-51003200D03*
X156057600Y-51003200D03*
X153517600Y-51003200D03*
X150977600Y-51003200D03*
X148437600Y-51003200D03*
X145897600Y-51003200D03*
D18*
X199390000Y-88900000D03*
D19*
X194890000Y-96900000D03*
X199390000Y-96900000D03*
X203890000Y-96900000D03*
D10*
X111963200Y-63703200D03*
D13*
X190500000Y-55606000D03*
X190500000Y-53106000D03*
D10*
X198577200Y-71577200D03*
D14*
X122936000Y-109474000D03*
D15*
X119126000Y-106934000D03*
X125476000Y-104394000D03*
D16*
X121666000Y-114554000D03*
X124206000Y-114554000D03*
D14*
X180086000Y-128524000D03*
D15*
X176276000Y-125984000D03*
X182626000Y-123444000D03*
D16*
X178816000Y-133604000D03*
X181356000Y-133604000D03*
D14*
X180086000Y-71374000D03*
D15*
X176276000Y-68834000D03*
X182626000Y-66294000D03*
D16*
X178816000Y-76454000D03*
X181356000Y-76454000D03*
D14*
X161036000Y-90424000D03*
D15*
X157226000Y-87884000D03*
X163576000Y-85344000D03*
D16*
X159766000Y-95504000D03*
X162306000Y-95504000D03*
D20*
X200434888Y-65151000D03*
D13*
X202434888Y-65151000D03*
D14*
X122936000Y-90424000D03*
D15*
X119126000Y-87884000D03*
X125476000Y-85344000D03*
D16*
X121666000Y-95504000D03*
X124206000Y-95504000D03*
D21*
X201625200Y-78740000D03*
X199085200Y-78740000D03*
X196545200Y-78740000D03*
D22*
X141986000Y-57771000D03*
D23*
X141986000Y-56271000D03*
D14*
X122936000Y-71374000D03*
D15*
X119126000Y-68834000D03*
X125476000Y-66294000D03*
D16*
X121666000Y-76454000D03*
X124206000Y-76454000D03*
D14*
X161036000Y-109474000D03*
D15*
X157226000Y-106934000D03*
X163576000Y-104394000D03*
D16*
X159766000Y-114554000D03*
X162306000Y-114554000D03*
D20*
X194056000Y-65151000D03*
D13*
X196056000Y-65151000D03*
M02*
