%TF.GenerationSoftware,KiCad,Pcbnew,9.0.0*%
%TF.CreationDate,2025-06-15T15:39:55+02:00*%
%TF.ProjectId,8-bit computer_Keypad_Module,382d6269-7420-4636-9f6d-70757465725f,rev?*%
%TF.SameCoordinates,Original*%
%TF.FileFunction,Drillmap*%
%TF.FilePolarity,Positive*%
%FSLAX45Y45*%
G04 Gerber Fmt 4.5, Leading zero omitted, Abs format (unit mm)*
G04 Created by KiCad (PCBNEW 9.0.0) date 2025-06-15 15:39:55*
%MOMM*%
%LPD*%
G01*
G04 APERTURE LIST*
%ADD10C,0.050000*%
%ADD11C,0.200000*%
%ADD12C,0.100000*%
%ADD13C,0.150000*%
%ADD14C,0.320000*%
%ADD15C,0.580000*%
G04 APERTURE END LIST*
D10*
X11430000Y-4572000D02*
X20193000Y-4572000D01*
X20193000Y-14097000D02*
X11430000Y-14097000D01*
X20828000Y-13462000D02*
X20193000Y-14097000D01*
X10795000Y-5207000D02*
X11430000Y-4572000D01*
X20828000Y-5207000D02*
X20828000Y-13462000D01*
X10795000Y-13869797D02*
X10983002Y-14097000D01*
X20193000Y-4572000D02*
X20828000Y-5207000D01*
X11430000Y-14097000D02*
X10983002Y-14097000D01*
X10795000Y-13462000D02*
X10795000Y-5207000D01*
X10795000Y-13462000D02*
X10795000Y-13869797D01*
D11*
D12*
X14168600Y-5597100D02*
X14228600Y-5657100D01*
X14228600Y-5597100D02*
X14168600Y-5657100D01*
X14168600Y-5747100D02*
X14228600Y-5807100D01*
X14228600Y-5747100D02*
X14168600Y-5807100D01*
X14233520Y-5078920D02*
G75*
G02*
X14153520Y-5078920I-40000J0D01*
G01*
X14153520Y-5078920D02*
G75*
G02*
X14233520Y-5078920I40000J0D01*
G01*
X14233520Y-5328920D02*
G75*
G02*
X14153520Y-5328920I-40000J0D01*
G01*
X14153520Y-5328920D02*
G75*
G02*
X14233520Y-5328920I40000J0D01*
G01*
X14629760Y-5100320D02*
G75*
G02*
X14549760Y-5100320I-40000J0D01*
G01*
X14549760Y-5100320D02*
G75*
G02*
X14629760Y-5100320I40000J0D01*
G01*
X14629760Y-5862320D02*
G75*
G02*
X14549760Y-5862320I-40000J0D01*
G01*
X14549760Y-5862320D02*
G75*
G02*
X14629760Y-5862320I40000J0D01*
G01*
X14883760Y-5100320D02*
G75*
G02*
X14803760Y-5100320I-40000J0D01*
G01*
X14803760Y-5100320D02*
G75*
G02*
X14883760Y-5100320I40000J0D01*
G01*
X14883760Y-5862320D02*
G75*
G02*
X14803760Y-5862320I-40000J0D01*
G01*
X14803760Y-5862320D02*
G75*
G02*
X14883760Y-5862320I40000J0D01*
G01*
X15137760Y-5100320D02*
G75*
G02*
X15057760Y-5100320I-40000J0D01*
G01*
X15057760Y-5100320D02*
G75*
G02*
X15137760Y-5100320I40000J0D01*
G01*
X15137760Y-5862320D02*
G75*
G02*
X15057760Y-5862320I-40000J0D01*
G01*
X15057760Y-5862320D02*
G75*
G02*
X15137760Y-5862320I40000J0D01*
G01*
X15391760Y-5100320D02*
G75*
G02*
X15311760Y-5100320I-40000J0D01*
G01*
X15311760Y-5100320D02*
G75*
G02*
X15391760Y-5100320I40000J0D01*
G01*
X15391760Y-5862320D02*
G75*
G02*
X15311760Y-5862320I-40000J0D01*
G01*
X15311760Y-5862320D02*
G75*
G02*
X15391760Y-5862320I40000J0D01*
G01*
X15645760Y-5100320D02*
G75*
G02*
X15565760Y-5100320I-40000J0D01*
G01*
X15565760Y-5100320D02*
G75*
G02*
X15645760Y-5100320I40000J0D01*
G01*
X15645760Y-5862320D02*
G75*
G02*
X15565760Y-5862320I-40000J0D01*
G01*
X15565760Y-5862320D02*
G75*
G02*
X15645760Y-5862320I40000J0D01*
G01*
X15899760Y-5100320D02*
G75*
G02*
X15819760Y-5100320I-40000J0D01*
G01*
X15819760Y-5100320D02*
G75*
G02*
X15899760Y-5100320I40000J0D01*
G01*
X15899760Y-5862320D02*
G75*
G02*
X15819760Y-5862320I-40000J0D01*
G01*
X15819760Y-5862320D02*
G75*
G02*
X15899760Y-5862320I40000J0D01*
G01*
X16153760Y-5100320D02*
G75*
G02*
X16073760Y-5100320I-40000J0D01*
G01*
X16073760Y-5100320D02*
G75*
G02*
X16153760Y-5100320I40000J0D01*
G01*
X16153760Y-5862320D02*
G75*
G02*
X16073760Y-5862320I-40000J0D01*
G01*
X16073760Y-5862320D02*
G75*
G02*
X16153760Y-5862320I40000J0D01*
G01*
X16407760Y-5100320D02*
G75*
G02*
X16327760Y-5100320I-40000J0D01*
G01*
X16327760Y-5100320D02*
G75*
G02*
X16407760Y-5100320I40000J0D01*
G01*
X16407760Y-5862320D02*
G75*
G02*
X16327760Y-5862320I-40000J0D01*
G01*
X16327760Y-5862320D02*
G75*
G02*
X16407760Y-5862320I40000J0D01*
G01*
X16829400Y-5308600D02*
G75*
G02*
X16749400Y-5308600I-40000J0D01*
G01*
X16749400Y-5308600D02*
G75*
G02*
X16829400Y-5308600I40000J0D01*
G01*
X16829400Y-5558600D02*
G75*
G02*
X16749400Y-5558600I-40000J0D01*
G01*
X16749400Y-5558600D02*
G75*
G02*
X16829400Y-5558600I40000J0D01*
G01*
X17179920Y-5069840D02*
G75*
G02*
X17099920Y-5069840I-40000J0D01*
G01*
X17099920Y-5069840D02*
G75*
G02*
X17179920Y-5069840I40000J0D01*
G01*
X17179920Y-5831840D02*
G75*
G02*
X17099920Y-5831840I-40000J0D01*
G01*
X17099920Y-5831840D02*
G75*
G02*
X17179920Y-5831840I40000J0D01*
G01*
X17433920Y-5069840D02*
G75*
G02*
X17353920Y-5069840I-40000J0D01*
G01*
X17353920Y-5069840D02*
G75*
G02*
X17433920Y-5069840I40000J0D01*
G01*
X17433920Y-5831840D02*
G75*
G02*
X17353920Y-5831840I-40000J0D01*
G01*
X17353920Y-5831840D02*
G75*
G02*
X17433920Y-5831840I40000J0D01*
G01*
X17687920Y-5069840D02*
G75*
G02*
X17607920Y-5069840I-40000J0D01*
G01*
X17607920Y-5069840D02*
G75*
G02*
X17687920Y-5069840I40000J0D01*
G01*
X17687920Y-5831840D02*
G75*
G02*
X17607920Y-5831840I-40000J0D01*
G01*
X17607920Y-5831840D02*
G75*
G02*
X17687920Y-5831840I40000J0D01*
G01*
X17941920Y-5069840D02*
G75*
G02*
X17861920Y-5069840I-40000J0D01*
G01*
X17861920Y-5069840D02*
G75*
G02*
X17941920Y-5069840I40000J0D01*
G01*
X17941920Y-5831840D02*
G75*
G02*
X17861920Y-5831840I-40000J0D01*
G01*
X17861920Y-5831840D02*
G75*
G02*
X17941920Y-5831840I40000J0D01*
G01*
X18195920Y-5069840D02*
G75*
G02*
X18115920Y-5069840I-40000J0D01*
G01*
X18115920Y-5069840D02*
G75*
G02*
X18195920Y-5069840I40000J0D01*
G01*
X18195920Y-5831840D02*
G75*
G02*
X18115920Y-5831840I-40000J0D01*
G01*
X18115920Y-5831840D02*
G75*
G02*
X18195920Y-5831840I40000J0D01*
G01*
X18449920Y-5069840D02*
G75*
G02*
X18369920Y-5069840I-40000J0D01*
G01*
X18369920Y-5069840D02*
G75*
G02*
X18449920Y-5069840I40000J0D01*
G01*
X18449920Y-5831840D02*
G75*
G02*
X18369920Y-5831840I-40000J0D01*
G01*
X18369920Y-5831840D02*
G75*
G02*
X18449920Y-5831840I40000J0D01*
G01*
X18703920Y-5069840D02*
G75*
G02*
X18623920Y-5069840I-40000J0D01*
G01*
X18623920Y-5069840D02*
G75*
G02*
X18703920Y-5069840I40000J0D01*
G01*
X18703920Y-5831840D02*
G75*
G02*
X18623920Y-5831840I-40000J0D01*
G01*
X18623920Y-5831840D02*
G75*
G02*
X18703920Y-5831840I40000J0D01*
G01*
X19090000Y-5310600D02*
G75*
G02*
X19010000Y-5310600I-40000J0D01*
G01*
X19010000Y-5310600D02*
G75*
G02*
X19090000Y-5310600I40000J0D01*
G01*
X19090000Y-5560600D02*
G75*
G02*
X19010000Y-5560600I-40000J0D01*
G01*
X19010000Y-5560600D02*
G75*
G02*
X19090000Y-5560600I40000J0D01*
G01*
X19445600Y-6515100D02*
G75*
G02*
X19365600Y-6515100I-40000J0D01*
G01*
X19365600Y-6515100D02*
G75*
G02*
X19445600Y-6515100I40000J0D01*
G01*
X19471000Y-5066800D02*
G75*
G02*
X19391000Y-5066800I-40000J0D01*
G01*
X19391000Y-5066800D02*
G75*
G02*
X19471000Y-5066800I40000J0D01*
G01*
X19471000Y-5828800D02*
G75*
G02*
X19391000Y-5828800I-40000J0D01*
G01*
X19391000Y-5828800D02*
G75*
G02*
X19471000Y-5828800I40000J0D01*
G01*
X19645600Y-6515100D02*
G75*
G02*
X19565600Y-6515100I-40000J0D01*
G01*
X19565600Y-6515100D02*
G75*
G02*
X19645600Y-6515100I40000J0D01*
G01*
X19694520Y-7874000D02*
G75*
G02*
X19614520Y-7874000I-40000J0D01*
G01*
X19614520Y-7874000D02*
G75*
G02*
X19694520Y-7874000I40000J0D01*
G01*
X19725000Y-5828800D02*
G75*
G02*
X19645000Y-5828800I-40000J0D01*
G01*
X19645000Y-5828800D02*
G75*
G02*
X19725000Y-5828800I40000J0D01*
G01*
X19725000Y-5066800D02*
G75*
G02*
X19645000Y-5066800I-40000J0D01*
G01*
X19645000Y-5066800D02*
G75*
G02*
X19725000Y-5066800I40000J0D01*
G01*
X19948520Y-7874000D02*
G75*
G02*
X19868520Y-7874000I-40000J0D01*
G01*
X19868520Y-7874000D02*
G75*
G02*
X19948520Y-7874000I40000J0D01*
G01*
X19979000Y-5066800D02*
G75*
G02*
X19899000Y-5066800I-40000J0D01*
G01*
X19899000Y-5066800D02*
G75*
G02*
X19979000Y-5066800I40000J0D01*
G01*
X19979000Y-5828800D02*
G75*
G02*
X19899000Y-5828800I-40000J0D01*
G01*
X19899000Y-5828800D02*
G75*
G02*
X19979000Y-5828800I40000J0D01*
G01*
X20083489Y-6515100D02*
G75*
G02*
X20003489Y-6515100I-40000J0D01*
G01*
X20003489Y-6515100D02*
G75*
G02*
X20083489Y-6515100I40000J0D01*
G01*
X20202520Y-7874000D02*
G75*
G02*
X20122520Y-7874000I-40000J0D01*
G01*
X20122520Y-7874000D02*
G75*
G02*
X20202520Y-7874000I40000J0D01*
G01*
X20233000Y-5828800D02*
G75*
G02*
X20153000Y-5828800I-40000J0D01*
G01*
X20153000Y-5828800D02*
G75*
G02*
X20233000Y-5828800I40000J0D01*
G01*
X20233000Y-5066800D02*
G75*
G02*
X20153000Y-5066800I-40000J0D01*
G01*
X20153000Y-5066800D02*
G75*
G02*
X20233000Y-5066800I40000J0D01*
G01*
X20283489Y-6515100D02*
G75*
G02*
X20203489Y-6515100I-40000J0D01*
G01*
X20203489Y-6515100D02*
G75*
G02*
X20283489Y-6515100I40000J0D01*
G01*
X12166600Y-7595870D02*
X12166600Y-7694930D01*
X12117070Y-7645400D02*
X12216130Y-7645400D01*
X12166600Y-9500870D02*
X12166600Y-9599930D01*
X12117070Y-9550400D02*
X12216130Y-9550400D01*
X12166600Y-11405870D02*
X12166600Y-11504930D01*
X12117070Y-11455400D02*
X12216130Y-11455400D01*
X12166600Y-13310870D02*
X12166600Y-13409930D01*
X12117070Y-13360400D02*
X12216130Y-13360400D01*
X12420600Y-7595870D02*
X12420600Y-7694930D01*
X12371070Y-7645400D02*
X12470130Y-7645400D01*
X12420600Y-9500870D02*
X12420600Y-9599930D01*
X12371070Y-9550400D02*
X12470130Y-9550400D01*
X12420600Y-11405870D02*
X12420600Y-11504930D01*
X12371070Y-11455400D02*
X12470130Y-11455400D01*
X12420600Y-13310870D02*
X12420600Y-13409930D01*
X12371070Y-13360400D02*
X12470130Y-13360400D01*
X14071600Y-7595870D02*
X14071600Y-7694930D01*
X14022070Y-7645400D02*
X14121130Y-7645400D01*
X14071600Y-9500870D02*
X14071600Y-9599930D01*
X14022070Y-9550400D02*
X14121130Y-9550400D01*
X14071600Y-11405870D02*
X14071600Y-11504930D01*
X14022070Y-11455400D02*
X14121130Y-11455400D01*
X14071600Y-13310870D02*
X14071600Y-13409930D01*
X14022070Y-13360400D02*
X14121130Y-13360400D01*
X14325600Y-7595870D02*
X14325600Y-7694930D01*
X14276070Y-7645400D02*
X14375130Y-7645400D01*
X14325600Y-9500870D02*
X14325600Y-9599930D01*
X14276070Y-9550400D02*
X14375130Y-9550400D01*
X14325600Y-11405870D02*
X14325600Y-11504930D01*
X14276070Y-11455400D02*
X14375130Y-11455400D01*
X14325600Y-13310870D02*
X14325600Y-13409930D01*
X14276070Y-13360400D02*
X14375130Y-13360400D01*
X15976600Y-7595870D02*
X15976600Y-7694930D01*
X15927070Y-7645400D02*
X16026130Y-7645400D01*
X15976600Y-9500870D02*
X15976600Y-9599930D01*
X15927070Y-9550400D02*
X16026130Y-9550400D01*
X15976600Y-11405870D02*
X15976600Y-11504930D01*
X15927070Y-11455400D02*
X16026130Y-11455400D01*
X15976600Y-13310870D02*
X15976600Y-13409930D01*
X15927070Y-13360400D02*
X16026130Y-13360400D01*
X16230600Y-7595870D02*
X16230600Y-7694930D01*
X16181070Y-7645400D02*
X16280130Y-7645400D01*
X16230600Y-9500870D02*
X16230600Y-9599930D01*
X16181070Y-9550400D02*
X16280130Y-9550400D01*
X16230600Y-11405870D02*
X16230600Y-11504930D01*
X16181070Y-11455400D02*
X16280130Y-11455400D01*
X16230600Y-13310870D02*
X16230600Y-13409930D01*
X16181070Y-13360400D02*
X16280130Y-13360400D01*
X17881600Y-7595870D02*
X17881600Y-7694930D01*
X17832070Y-7645400D02*
X17931130Y-7645400D01*
X17881600Y-9500870D02*
X17881600Y-9599930D01*
X17832070Y-9550400D02*
X17931130Y-9550400D01*
X17881600Y-11405870D02*
X17881600Y-11504930D01*
X17832070Y-11455400D02*
X17931130Y-11455400D01*
X17881600Y-13310870D02*
X17881600Y-13409930D01*
X17832070Y-13360400D02*
X17931130Y-13360400D01*
X18135600Y-7595870D02*
X18135600Y-7694930D01*
X18086070Y-7645400D02*
X18185130Y-7645400D01*
X18135600Y-9500870D02*
X18135600Y-9599930D01*
X18086070Y-9550400D02*
X18185130Y-9550400D01*
X18135600Y-11405870D02*
X18135600Y-11504930D01*
X18086070Y-11455400D02*
X18185130Y-11455400D01*
X18135600Y-13310870D02*
X18135600Y-13409930D01*
X18086070Y-13360400D02*
X18185130Y-13360400D01*
X11658396Y-5633516D02*
X11658396Y-5562804D01*
X11587684Y-5562804D01*
X11587684Y-5633516D01*
X11658396Y-5633516D01*
X11658396Y-5379516D02*
X11658396Y-5308804D01*
X11587684Y-5308804D01*
X11587684Y-5379516D01*
X11658396Y-5379516D01*
X11912396Y-5379516D02*
X11912396Y-5308804D01*
X11841684Y-5308804D01*
X11841684Y-5379516D01*
X11912396Y-5379516D01*
X11912396Y-5633516D02*
X11912396Y-5562804D01*
X11841684Y-5562804D01*
X11841684Y-5633516D01*
X11912396Y-5633516D01*
X12166396Y-5633516D02*
X12166396Y-5562804D01*
X12095684Y-5562804D01*
X12095684Y-5633516D01*
X12166396Y-5633516D01*
X12166396Y-5379516D02*
X12166396Y-5308804D01*
X12095684Y-5308804D01*
X12095684Y-5379516D01*
X12166396Y-5379516D01*
X12420396Y-5379516D02*
X12420396Y-5308804D01*
X12349684Y-5308804D01*
X12349684Y-5379516D01*
X12420396Y-5379516D01*
X12420396Y-5633516D02*
X12420396Y-5562804D01*
X12349684Y-5562804D01*
X12349684Y-5633516D01*
X12420396Y-5633516D01*
X12674396Y-5633516D02*
X12674396Y-5562804D01*
X12603684Y-5562804D01*
X12603684Y-5633516D01*
X12674396Y-5633516D01*
X12674396Y-5379516D02*
X12674396Y-5308804D01*
X12603684Y-5308804D01*
X12603684Y-5379516D01*
X12674396Y-5379516D01*
X12928396Y-5379516D02*
X12928396Y-5308804D01*
X12857684Y-5308804D01*
X12857684Y-5379516D01*
X12928396Y-5379516D01*
X12928396Y-5633516D02*
X12928396Y-5562804D01*
X12857684Y-5562804D01*
X12857684Y-5633516D01*
X12928396Y-5633516D01*
X13182396Y-5633516D02*
X13182396Y-5562804D01*
X13111684Y-5562804D01*
X13111684Y-5633516D01*
X13182396Y-5633516D01*
X13182396Y-5379516D02*
X13182396Y-5308804D01*
X13111684Y-5308804D01*
X13111684Y-5379516D01*
X13182396Y-5379516D01*
X13436396Y-5379516D02*
X13436396Y-5308804D01*
X13365684Y-5308804D01*
X13365684Y-5379516D01*
X13436396Y-5379516D01*
X13436396Y-5633516D02*
X13436396Y-5562804D01*
X13365684Y-5562804D01*
X13365684Y-5633516D01*
X13436396Y-5633516D01*
D13*
X11912600Y-6958400D02*
X11987600Y-6883400D01*
X11912600Y-6808400D01*
X11837600Y-6883400D01*
X11912600Y-6958400D01*
X11912600Y-8863400D02*
X11987600Y-8788400D01*
X11912600Y-8713400D01*
X11837600Y-8788400D01*
X11912600Y-8863400D01*
X11912600Y-10768400D02*
X11987600Y-10693400D01*
X11912600Y-10618400D01*
X11837600Y-10693400D01*
X11912600Y-10768400D01*
X11912600Y-12673400D02*
X11987600Y-12598400D01*
X11912600Y-12523400D01*
X11837600Y-12598400D01*
X11912600Y-12673400D01*
X12547600Y-6704400D02*
X12622600Y-6629400D01*
X12547600Y-6554400D01*
X12472600Y-6629400D01*
X12547600Y-6704400D01*
X12547600Y-8609400D02*
X12622600Y-8534400D01*
X12547600Y-8459400D01*
X12472600Y-8534400D01*
X12547600Y-8609400D01*
X12547600Y-10514400D02*
X12622600Y-10439400D01*
X12547600Y-10364400D01*
X12472600Y-10439400D01*
X12547600Y-10514400D01*
X12547600Y-12419400D02*
X12622600Y-12344400D01*
X12547600Y-12269400D01*
X12472600Y-12344400D01*
X12547600Y-12419400D01*
X13817600Y-6958400D02*
X13892600Y-6883400D01*
X13817600Y-6808400D01*
X13742600Y-6883400D01*
X13817600Y-6958400D01*
X13817600Y-8863400D02*
X13892600Y-8788400D01*
X13817600Y-8713400D01*
X13742600Y-8788400D01*
X13817600Y-8863400D01*
X13817600Y-10768400D02*
X13892600Y-10693400D01*
X13817600Y-10618400D01*
X13742600Y-10693400D01*
X13817600Y-10768400D01*
X13817600Y-12673400D02*
X13892600Y-12598400D01*
X13817600Y-12523400D01*
X13742600Y-12598400D01*
X13817600Y-12673400D01*
X14452600Y-6704400D02*
X14527600Y-6629400D01*
X14452600Y-6554400D01*
X14377600Y-6629400D01*
X14452600Y-6704400D01*
X14452600Y-8609400D02*
X14527600Y-8534400D01*
X14452600Y-8459400D01*
X14377600Y-8534400D01*
X14452600Y-8609400D01*
X14452600Y-10514400D02*
X14527600Y-10439400D01*
X14452600Y-10364400D01*
X14377600Y-10439400D01*
X14452600Y-10514400D01*
X14452600Y-12419400D02*
X14527600Y-12344400D01*
X14452600Y-12269400D01*
X14377600Y-12344400D01*
X14452600Y-12419400D01*
X15722600Y-6958400D02*
X15797600Y-6883400D01*
X15722600Y-6808400D01*
X15647600Y-6883400D01*
X15722600Y-6958400D01*
X15722600Y-8863400D02*
X15797600Y-8788400D01*
X15722600Y-8713400D01*
X15647600Y-8788400D01*
X15722600Y-8863400D01*
X15722600Y-10768400D02*
X15797600Y-10693400D01*
X15722600Y-10618400D01*
X15647600Y-10693400D01*
X15722600Y-10768400D01*
X15722600Y-12673400D02*
X15797600Y-12598400D01*
X15722600Y-12523400D01*
X15647600Y-12598400D01*
X15722600Y-12673400D01*
X16357600Y-6704400D02*
X16432600Y-6629400D01*
X16357600Y-6554400D01*
X16282600Y-6629400D01*
X16357600Y-6704400D01*
X16357600Y-8609400D02*
X16432600Y-8534400D01*
X16357600Y-8459400D01*
X16282600Y-8534400D01*
X16357600Y-8609400D01*
X16357600Y-10514400D02*
X16432600Y-10439400D01*
X16357600Y-10364400D01*
X16282600Y-10439400D01*
X16357600Y-10514400D01*
X16357600Y-12419400D02*
X16432600Y-12344400D01*
X16357600Y-12269400D01*
X16282600Y-12344400D01*
X16357600Y-12419400D01*
X17627600Y-6958400D02*
X17702600Y-6883400D01*
X17627600Y-6808400D01*
X17552600Y-6883400D01*
X17627600Y-6958400D01*
X17627600Y-8863400D02*
X17702600Y-8788400D01*
X17627600Y-8713400D01*
X17552600Y-8788400D01*
X17627600Y-8863400D01*
X17627600Y-10768400D02*
X17702600Y-10693400D01*
X17627600Y-10618400D01*
X17552600Y-10693400D01*
X17627600Y-10768400D01*
X17627600Y-12673400D02*
X17702600Y-12598400D01*
X17627600Y-12523400D01*
X17552600Y-12598400D01*
X17627600Y-12673400D01*
X18262600Y-6704400D02*
X18337600Y-6629400D01*
X18262600Y-6554400D01*
X18187600Y-6629400D01*
X18262600Y-6704400D01*
X18262600Y-8609400D02*
X18337600Y-8534400D01*
X18262600Y-8459400D01*
X18187600Y-8534400D01*
X18262600Y-8609400D01*
X18262600Y-10514400D02*
X18337600Y-10439400D01*
X18262600Y-10364400D01*
X18187600Y-10439400D01*
X18262600Y-10514400D01*
X18262600Y-12419400D02*
X18337600Y-12344400D01*
X18262600Y-12269400D01*
X18187600Y-12344400D01*
X18262600Y-12419400D01*
X19489000Y-9765000D02*
X19564000Y-9690000D01*
X19489000Y-9615000D01*
X19414000Y-9690000D01*
X19489000Y-9765000D01*
X19939000Y-9765000D02*
X20014000Y-9690000D01*
X19939000Y-9615000D01*
X19864000Y-9690000D01*
X19939000Y-9765000D01*
X20389000Y-9765000D02*
X20464000Y-9690000D01*
X20389000Y-9615000D01*
X20314000Y-9690000D01*
X20389000Y-9765000D01*
D14*
X11036320Y-6210320D02*
X11356320Y-6530320D01*
X11356320Y-6210320D02*
X11036320Y-6530320D01*
X11356320Y-6370320D02*
G75*
G02*
X11036320Y-6370320I-160000J0D01*
G01*
X11036320Y-6370320D02*
G75*
G02*
X11356320Y-6370320I160000J0D01*
G01*
X11082040Y-13530600D02*
X11402040Y-13850600D01*
X11402040Y-13530600D02*
X11082040Y-13850600D01*
X11402040Y-13690600D02*
G75*
G02*
X11082040Y-13690600I-160000J0D01*
G01*
X11082040Y-13690600D02*
G75*
G02*
X11402040Y-13690600I160000J0D01*
G01*
X19697720Y-6997720D02*
X20017720Y-7317720D01*
X20017720Y-6997720D02*
X19697720Y-7317720D01*
X20017720Y-7157720D02*
G75*
G02*
X19697720Y-7157720I-160000J0D01*
G01*
X19697720Y-7157720D02*
G75*
G02*
X20017720Y-7157720I160000J0D01*
G01*
X19875520Y-13200400D02*
X20195520Y-13520400D01*
X20195520Y-13200400D02*
X19875520Y-13520400D01*
X20195520Y-13360400D02*
G75*
G02*
X19875520Y-13360400I-160000J0D01*
G01*
X19875520Y-13360400D02*
G75*
G02*
X20195520Y-13360400I160000J0D01*
G01*
D15*
X19649000Y-8600000D02*
X20229000Y-9180000D01*
X20229000Y-8600000D02*
X19649000Y-9180000D01*
X19939000Y-8600000D02*
X19939000Y-9180000D01*
X19649000Y-8890000D02*
X20229000Y-8890000D01*
D11*
X11053277Y-14410984D02*
X11053277Y-14210984D01*
X11053277Y-14210984D02*
X11100896Y-14210984D01*
X11100896Y-14210984D02*
X11129467Y-14220508D01*
X11129467Y-14220508D02*
X11148515Y-14239555D01*
X11148515Y-14239555D02*
X11158039Y-14258603D01*
X11158039Y-14258603D02*
X11167563Y-14296698D01*
X11167563Y-14296698D02*
X11167563Y-14325269D01*
X11167563Y-14325269D02*
X11158039Y-14363365D01*
X11158039Y-14363365D02*
X11148515Y-14382412D01*
X11148515Y-14382412D02*
X11129467Y-14401460D01*
X11129467Y-14401460D02*
X11100896Y-14410984D01*
X11100896Y-14410984D02*
X11053277Y-14410984D01*
X11253277Y-14410984D02*
X11253277Y-14277650D01*
X11253277Y-14315746D02*
X11262801Y-14296698D01*
X11262801Y-14296698D02*
X11272324Y-14287174D01*
X11272324Y-14287174D02*
X11291372Y-14277650D01*
X11291372Y-14277650D02*
X11310420Y-14277650D01*
X11377086Y-14410984D02*
X11377086Y-14277650D01*
X11377086Y-14210984D02*
X11367562Y-14220508D01*
X11367562Y-14220508D02*
X11377086Y-14230031D01*
X11377086Y-14230031D02*
X11386610Y-14220508D01*
X11386610Y-14220508D02*
X11377086Y-14210984D01*
X11377086Y-14210984D02*
X11377086Y-14230031D01*
X11500896Y-14410984D02*
X11481848Y-14401460D01*
X11481848Y-14401460D02*
X11472324Y-14382412D01*
X11472324Y-14382412D02*
X11472324Y-14210984D01*
X11605658Y-14410984D02*
X11586610Y-14401460D01*
X11586610Y-14401460D02*
X11577086Y-14382412D01*
X11577086Y-14382412D02*
X11577086Y-14210984D01*
X11834229Y-14410984D02*
X11834229Y-14210984D01*
X11834229Y-14210984D02*
X11900896Y-14353841D01*
X11900896Y-14353841D02*
X11967562Y-14210984D01*
X11967562Y-14210984D02*
X11967562Y-14410984D01*
X12148515Y-14410984D02*
X12148515Y-14306222D01*
X12148515Y-14306222D02*
X12138991Y-14287174D01*
X12138991Y-14287174D02*
X12119943Y-14277650D01*
X12119943Y-14277650D02*
X12081848Y-14277650D01*
X12081848Y-14277650D02*
X12062801Y-14287174D01*
X12148515Y-14401460D02*
X12129467Y-14410984D01*
X12129467Y-14410984D02*
X12081848Y-14410984D01*
X12081848Y-14410984D02*
X12062801Y-14401460D01*
X12062801Y-14401460D02*
X12053277Y-14382412D01*
X12053277Y-14382412D02*
X12053277Y-14363365D01*
X12053277Y-14363365D02*
X12062801Y-14344317D01*
X12062801Y-14344317D02*
X12081848Y-14334793D01*
X12081848Y-14334793D02*
X12129467Y-14334793D01*
X12129467Y-14334793D02*
X12148515Y-14325269D01*
X12243753Y-14277650D02*
X12243753Y-14477650D01*
X12243753Y-14287174D02*
X12262801Y-14277650D01*
X12262801Y-14277650D02*
X12300896Y-14277650D01*
X12300896Y-14277650D02*
X12319943Y-14287174D01*
X12319943Y-14287174D02*
X12329467Y-14296698D01*
X12329467Y-14296698D02*
X12338991Y-14315746D01*
X12338991Y-14315746D02*
X12338991Y-14372888D01*
X12338991Y-14372888D02*
X12329467Y-14391936D01*
X12329467Y-14391936D02*
X12319943Y-14401460D01*
X12319943Y-14401460D02*
X12300896Y-14410984D01*
X12300896Y-14410984D02*
X12262801Y-14410984D01*
X12262801Y-14410984D02*
X12243753Y-14401460D01*
X12424705Y-14391936D02*
X12434229Y-14401460D01*
X12434229Y-14401460D02*
X12424705Y-14410984D01*
X12424705Y-14410984D02*
X12415182Y-14401460D01*
X12415182Y-14401460D02*
X12424705Y-14391936D01*
X12424705Y-14391936D02*
X12424705Y-14410984D01*
X12424705Y-14287174D02*
X12434229Y-14296698D01*
X12434229Y-14296698D02*
X12424705Y-14306222D01*
X12424705Y-14306222D02*
X12415182Y-14296698D01*
X12415182Y-14296698D02*
X12424705Y-14287174D01*
X12424705Y-14287174D02*
X12424705Y-14306222D01*
D12*
X10732500Y-14709500D02*
X10792500Y-14769500D01*
X10792500Y-14709500D02*
X10732500Y-14769500D01*
D11*
X11091372Y-14630984D02*
X11110420Y-14630984D01*
X11110420Y-14630984D02*
X11129467Y-14640508D01*
X11129467Y-14640508D02*
X11138991Y-14650031D01*
X11138991Y-14650031D02*
X11148515Y-14669079D01*
X11148515Y-14669079D02*
X11158039Y-14707174D01*
X11158039Y-14707174D02*
X11158039Y-14754793D01*
X11158039Y-14754793D02*
X11148515Y-14792888D01*
X11148515Y-14792888D02*
X11138991Y-14811936D01*
X11138991Y-14811936D02*
X11129467Y-14821460D01*
X11129467Y-14821460D02*
X11110420Y-14830984D01*
X11110420Y-14830984D02*
X11091372Y-14830984D01*
X11091372Y-14830984D02*
X11072324Y-14821460D01*
X11072324Y-14821460D02*
X11062801Y-14811936D01*
X11062801Y-14811936D02*
X11053277Y-14792888D01*
X11053277Y-14792888D02*
X11043753Y-14754793D01*
X11043753Y-14754793D02*
X11043753Y-14707174D01*
X11043753Y-14707174D02*
X11053277Y-14669079D01*
X11053277Y-14669079D02*
X11062801Y-14650031D01*
X11062801Y-14650031D02*
X11072324Y-14640508D01*
X11072324Y-14640508D02*
X11091372Y-14630984D01*
X11243753Y-14811936D02*
X11253277Y-14821460D01*
X11253277Y-14821460D02*
X11243753Y-14830984D01*
X11243753Y-14830984D02*
X11234229Y-14821460D01*
X11234229Y-14821460D02*
X11243753Y-14811936D01*
X11243753Y-14811936D02*
X11243753Y-14830984D01*
X11424705Y-14630984D02*
X11386610Y-14630984D01*
X11386610Y-14630984D02*
X11367562Y-14640508D01*
X11367562Y-14640508D02*
X11358039Y-14650031D01*
X11358039Y-14650031D02*
X11338991Y-14678603D01*
X11338991Y-14678603D02*
X11329467Y-14716698D01*
X11329467Y-14716698D02*
X11329467Y-14792888D01*
X11329467Y-14792888D02*
X11338991Y-14811936D01*
X11338991Y-14811936D02*
X11348515Y-14821460D01*
X11348515Y-14821460D02*
X11367562Y-14830984D01*
X11367562Y-14830984D02*
X11405658Y-14830984D01*
X11405658Y-14830984D02*
X11424705Y-14821460D01*
X11424705Y-14821460D02*
X11434229Y-14811936D01*
X11434229Y-14811936D02*
X11443753Y-14792888D01*
X11443753Y-14792888D02*
X11443753Y-14745269D01*
X11443753Y-14745269D02*
X11434229Y-14726222D01*
X11434229Y-14726222D02*
X11424705Y-14716698D01*
X11424705Y-14716698D02*
X11405658Y-14707174D01*
X11405658Y-14707174D02*
X11367562Y-14707174D01*
X11367562Y-14707174D02*
X11348515Y-14716698D01*
X11348515Y-14716698D02*
X11338991Y-14726222D01*
X11338991Y-14726222D02*
X11329467Y-14745269D01*
X11567562Y-14630984D02*
X11586610Y-14630984D01*
X11586610Y-14630984D02*
X11605658Y-14640508D01*
X11605658Y-14640508D02*
X11615182Y-14650031D01*
X11615182Y-14650031D02*
X11624705Y-14669079D01*
X11624705Y-14669079D02*
X11634229Y-14707174D01*
X11634229Y-14707174D02*
X11634229Y-14754793D01*
X11634229Y-14754793D02*
X11624705Y-14792888D01*
X11624705Y-14792888D02*
X11615182Y-14811936D01*
X11615182Y-14811936D02*
X11605658Y-14821460D01*
X11605658Y-14821460D02*
X11586610Y-14830984D01*
X11586610Y-14830984D02*
X11567562Y-14830984D01*
X11567562Y-14830984D02*
X11548515Y-14821460D01*
X11548515Y-14821460D02*
X11538991Y-14811936D01*
X11538991Y-14811936D02*
X11529467Y-14792888D01*
X11529467Y-14792888D02*
X11519943Y-14754793D01*
X11519943Y-14754793D02*
X11519943Y-14707174D01*
X11519943Y-14707174D02*
X11529467Y-14669079D01*
X11529467Y-14669079D02*
X11538991Y-14650031D01*
X11538991Y-14650031D02*
X11548515Y-14640508D01*
X11548515Y-14640508D02*
X11567562Y-14630984D01*
X11758039Y-14630984D02*
X11777086Y-14630984D01*
X11777086Y-14630984D02*
X11796134Y-14640508D01*
X11796134Y-14640508D02*
X11805658Y-14650031D01*
X11805658Y-14650031D02*
X11815182Y-14669079D01*
X11815182Y-14669079D02*
X11824705Y-14707174D01*
X11824705Y-14707174D02*
X11824705Y-14754793D01*
X11824705Y-14754793D02*
X11815182Y-14792888D01*
X11815182Y-14792888D02*
X11805658Y-14811936D01*
X11805658Y-14811936D02*
X11796134Y-14821460D01*
X11796134Y-14821460D02*
X11777086Y-14830984D01*
X11777086Y-14830984D02*
X11758039Y-14830984D01*
X11758039Y-14830984D02*
X11738991Y-14821460D01*
X11738991Y-14821460D02*
X11729467Y-14811936D01*
X11729467Y-14811936D02*
X11719943Y-14792888D01*
X11719943Y-14792888D02*
X11710420Y-14754793D01*
X11710420Y-14754793D02*
X11710420Y-14707174D01*
X11710420Y-14707174D02*
X11719943Y-14669079D01*
X11719943Y-14669079D02*
X11729467Y-14650031D01*
X11729467Y-14650031D02*
X11738991Y-14640508D01*
X11738991Y-14640508D02*
X11758039Y-14630984D01*
X11910420Y-14830984D02*
X11910420Y-14697650D01*
X11910420Y-14716698D02*
X11919943Y-14707174D01*
X11919943Y-14707174D02*
X11938991Y-14697650D01*
X11938991Y-14697650D02*
X11967563Y-14697650D01*
X11967563Y-14697650D02*
X11986610Y-14707174D01*
X11986610Y-14707174D02*
X11996134Y-14726222D01*
X11996134Y-14726222D02*
X11996134Y-14830984D01*
X11996134Y-14726222D02*
X12005658Y-14707174D01*
X12005658Y-14707174D02*
X12024705Y-14697650D01*
X12024705Y-14697650D02*
X12053277Y-14697650D01*
X12053277Y-14697650D02*
X12072324Y-14707174D01*
X12072324Y-14707174D02*
X12081848Y-14726222D01*
X12081848Y-14726222D02*
X12081848Y-14830984D01*
X12177086Y-14830984D02*
X12177086Y-14697650D01*
X12177086Y-14716698D02*
X12186610Y-14707174D01*
X12186610Y-14707174D02*
X12205658Y-14697650D01*
X12205658Y-14697650D02*
X12234229Y-14697650D01*
X12234229Y-14697650D02*
X12253277Y-14707174D01*
X12253277Y-14707174D02*
X12262801Y-14726222D01*
X12262801Y-14726222D02*
X12262801Y-14830984D01*
X12262801Y-14726222D02*
X12272324Y-14707174D01*
X12272324Y-14707174D02*
X12291372Y-14697650D01*
X12291372Y-14697650D02*
X12319943Y-14697650D01*
X12319943Y-14697650D02*
X12338991Y-14707174D01*
X12338991Y-14707174D02*
X12348515Y-14726222D01*
X12348515Y-14726222D02*
X12348515Y-14830984D01*
X12738991Y-14621460D02*
X12567563Y-14878603D01*
X12996134Y-14630984D02*
X13015182Y-14630984D01*
X13015182Y-14630984D02*
X13034229Y-14640508D01*
X13034229Y-14640508D02*
X13043753Y-14650031D01*
X13043753Y-14650031D02*
X13053277Y-14669079D01*
X13053277Y-14669079D02*
X13062801Y-14707174D01*
X13062801Y-14707174D02*
X13062801Y-14754793D01*
X13062801Y-14754793D02*
X13053277Y-14792888D01*
X13053277Y-14792888D02*
X13043753Y-14811936D01*
X13043753Y-14811936D02*
X13034229Y-14821460D01*
X13034229Y-14821460D02*
X13015182Y-14830984D01*
X13015182Y-14830984D02*
X12996134Y-14830984D01*
X12996134Y-14830984D02*
X12977086Y-14821460D01*
X12977086Y-14821460D02*
X12967563Y-14811936D01*
X12967563Y-14811936D02*
X12958039Y-14792888D01*
X12958039Y-14792888D02*
X12948515Y-14754793D01*
X12948515Y-14754793D02*
X12948515Y-14707174D01*
X12948515Y-14707174D02*
X12958039Y-14669079D01*
X12958039Y-14669079D02*
X12967563Y-14650031D01*
X12967563Y-14650031D02*
X12977086Y-14640508D01*
X12977086Y-14640508D02*
X12996134Y-14630984D01*
X13148515Y-14811936D02*
X13158039Y-14821460D01*
X13158039Y-14821460D02*
X13148515Y-14830984D01*
X13148515Y-14830984D02*
X13138991Y-14821460D01*
X13138991Y-14821460D02*
X13148515Y-14811936D01*
X13148515Y-14811936D02*
X13148515Y-14830984D01*
X13281848Y-14630984D02*
X13300896Y-14630984D01*
X13300896Y-14630984D02*
X13319944Y-14640508D01*
X13319944Y-14640508D02*
X13329467Y-14650031D01*
X13329467Y-14650031D02*
X13338991Y-14669079D01*
X13338991Y-14669079D02*
X13348515Y-14707174D01*
X13348515Y-14707174D02*
X13348515Y-14754793D01*
X13348515Y-14754793D02*
X13338991Y-14792888D01*
X13338991Y-14792888D02*
X13329467Y-14811936D01*
X13329467Y-14811936D02*
X13319944Y-14821460D01*
X13319944Y-14821460D02*
X13300896Y-14830984D01*
X13300896Y-14830984D02*
X13281848Y-14830984D01*
X13281848Y-14830984D02*
X13262801Y-14821460D01*
X13262801Y-14821460D02*
X13253277Y-14811936D01*
X13253277Y-14811936D02*
X13243753Y-14792888D01*
X13243753Y-14792888D02*
X13234229Y-14754793D01*
X13234229Y-14754793D02*
X13234229Y-14707174D01*
X13234229Y-14707174D02*
X13243753Y-14669079D01*
X13243753Y-14669079D02*
X13253277Y-14650031D01*
X13253277Y-14650031D02*
X13262801Y-14640508D01*
X13262801Y-14640508D02*
X13281848Y-14630984D01*
X13424706Y-14650031D02*
X13434229Y-14640508D01*
X13434229Y-14640508D02*
X13453277Y-14630984D01*
X13453277Y-14630984D02*
X13500896Y-14630984D01*
X13500896Y-14630984D02*
X13519944Y-14640508D01*
X13519944Y-14640508D02*
X13529467Y-14650031D01*
X13529467Y-14650031D02*
X13538991Y-14669079D01*
X13538991Y-14669079D02*
X13538991Y-14688127D01*
X13538991Y-14688127D02*
X13529467Y-14716698D01*
X13529467Y-14716698D02*
X13415182Y-14830984D01*
X13415182Y-14830984D02*
X13538991Y-14830984D01*
X13605658Y-14630984D02*
X13729467Y-14630984D01*
X13729467Y-14630984D02*
X13662801Y-14707174D01*
X13662801Y-14707174D02*
X13691372Y-14707174D01*
X13691372Y-14707174D02*
X13710420Y-14716698D01*
X13710420Y-14716698D02*
X13719944Y-14726222D01*
X13719944Y-14726222D02*
X13729467Y-14745269D01*
X13729467Y-14745269D02*
X13729467Y-14792888D01*
X13729467Y-14792888D02*
X13719944Y-14811936D01*
X13719944Y-14811936D02*
X13710420Y-14821460D01*
X13710420Y-14821460D02*
X13691372Y-14830984D01*
X13691372Y-14830984D02*
X13634229Y-14830984D01*
X13634229Y-14830984D02*
X13615182Y-14821460D01*
X13615182Y-14821460D02*
X13605658Y-14811936D01*
X13900896Y-14630984D02*
X13862801Y-14630984D01*
X13862801Y-14630984D02*
X13843753Y-14640508D01*
X13843753Y-14640508D02*
X13834229Y-14650031D01*
X13834229Y-14650031D02*
X13815182Y-14678603D01*
X13815182Y-14678603D02*
X13805658Y-14716698D01*
X13805658Y-14716698D02*
X13805658Y-14792888D01*
X13805658Y-14792888D02*
X13815182Y-14811936D01*
X13815182Y-14811936D02*
X13824706Y-14821460D01*
X13824706Y-14821460D02*
X13843753Y-14830984D01*
X13843753Y-14830984D02*
X13881848Y-14830984D01*
X13881848Y-14830984D02*
X13900896Y-14821460D01*
X13900896Y-14821460D02*
X13910420Y-14811936D01*
X13910420Y-14811936D02*
X13919944Y-14792888D01*
X13919944Y-14792888D02*
X13919944Y-14745269D01*
X13919944Y-14745269D02*
X13910420Y-14726222D01*
X13910420Y-14726222D02*
X13900896Y-14716698D01*
X13900896Y-14716698D02*
X13881848Y-14707174D01*
X13881848Y-14707174D02*
X13843753Y-14707174D01*
X13843753Y-14707174D02*
X13824706Y-14716698D01*
X13824706Y-14716698D02*
X13815182Y-14726222D01*
X13815182Y-14726222D02*
X13805658Y-14745269D01*
X13996134Y-14630984D02*
X13996134Y-14669079D01*
X14072325Y-14630984D02*
X14072325Y-14669079D01*
X14367563Y-14907174D02*
X14358039Y-14897650D01*
X14358039Y-14897650D02*
X14338991Y-14869079D01*
X14338991Y-14869079D02*
X14329468Y-14850031D01*
X14329468Y-14850031D02*
X14319944Y-14821460D01*
X14319944Y-14821460D02*
X14310420Y-14773841D01*
X14310420Y-14773841D02*
X14310420Y-14735746D01*
X14310420Y-14735746D02*
X14319944Y-14688127D01*
X14319944Y-14688127D02*
X14329468Y-14659555D01*
X14329468Y-14659555D02*
X14338991Y-14640508D01*
X14338991Y-14640508D02*
X14358039Y-14611936D01*
X14358039Y-14611936D02*
X14367563Y-14602412D01*
X14434229Y-14650031D02*
X14443753Y-14640508D01*
X14443753Y-14640508D02*
X14462801Y-14630984D01*
X14462801Y-14630984D02*
X14510420Y-14630984D01*
X14510420Y-14630984D02*
X14529468Y-14640508D01*
X14529468Y-14640508D02*
X14538991Y-14650031D01*
X14538991Y-14650031D02*
X14548515Y-14669079D01*
X14548515Y-14669079D02*
X14548515Y-14688127D01*
X14548515Y-14688127D02*
X14538991Y-14716698D01*
X14538991Y-14716698D02*
X14424706Y-14830984D01*
X14424706Y-14830984D02*
X14548515Y-14830984D01*
X14786610Y-14830984D02*
X14786610Y-14630984D01*
X14872325Y-14830984D02*
X14872325Y-14726222D01*
X14872325Y-14726222D02*
X14862801Y-14707174D01*
X14862801Y-14707174D02*
X14843753Y-14697650D01*
X14843753Y-14697650D02*
X14815182Y-14697650D01*
X14815182Y-14697650D02*
X14796134Y-14707174D01*
X14796134Y-14707174D02*
X14786610Y-14716698D01*
X14996134Y-14830984D02*
X14977087Y-14821460D01*
X14977087Y-14821460D02*
X14967563Y-14811936D01*
X14967563Y-14811936D02*
X14958039Y-14792888D01*
X14958039Y-14792888D02*
X14958039Y-14735746D01*
X14958039Y-14735746D02*
X14967563Y-14716698D01*
X14967563Y-14716698D02*
X14977087Y-14707174D01*
X14977087Y-14707174D02*
X14996134Y-14697650D01*
X14996134Y-14697650D02*
X15024706Y-14697650D01*
X15024706Y-14697650D02*
X15043753Y-14707174D01*
X15043753Y-14707174D02*
X15053277Y-14716698D01*
X15053277Y-14716698D02*
X15062801Y-14735746D01*
X15062801Y-14735746D02*
X15062801Y-14792888D01*
X15062801Y-14792888D02*
X15053277Y-14811936D01*
X15053277Y-14811936D02*
X15043753Y-14821460D01*
X15043753Y-14821460D02*
X15024706Y-14830984D01*
X15024706Y-14830984D02*
X14996134Y-14830984D01*
X15177087Y-14830984D02*
X15158039Y-14821460D01*
X15158039Y-14821460D02*
X15148515Y-14802412D01*
X15148515Y-14802412D02*
X15148515Y-14630984D01*
X15329468Y-14821460D02*
X15310420Y-14830984D01*
X15310420Y-14830984D02*
X15272325Y-14830984D01*
X15272325Y-14830984D02*
X15253277Y-14821460D01*
X15253277Y-14821460D02*
X15243753Y-14802412D01*
X15243753Y-14802412D02*
X15243753Y-14726222D01*
X15243753Y-14726222D02*
X15253277Y-14707174D01*
X15253277Y-14707174D02*
X15272325Y-14697650D01*
X15272325Y-14697650D02*
X15310420Y-14697650D01*
X15310420Y-14697650D02*
X15329468Y-14707174D01*
X15329468Y-14707174D02*
X15338991Y-14726222D01*
X15338991Y-14726222D02*
X15338991Y-14745269D01*
X15338991Y-14745269D02*
X15243753Y-14764317D01*
X15415182Y-14821460D02*
X15434230Y-14830984D01*
X15434230Y-14830984D02*
X15472325Y-14830984D01*
X15472325Y-14830984D02*
X15491372Y-14821460D01*
X15491372Y-14821460D02*
X15500896Y-14802412D01*
X15500896Y-14802412D02*
X15500896Y-14792888D01*
X15500896Y-14792888D02*
X15491372Y-14773841D01*
X15491372Y-14773841D02*
X15472325Y-14764317D01*
X15472325Y-14764317D02*
X15443753Y-14764317D01*
X15443753Y-14764317D02*
X15424706Y-14754793D01*
X15424706Y-14754793D02*
X15415182Y-14735746D01*
X15415182Y-14735746D02*
X15415182Y-14726222D01*
X15415182Y-14726222D02*
X15424706Y-14707174D01*
X15424706Y-14707174D02*
X15443753Y-14697650D01*
X15443753Y-14697650D02*
X15472325Y-14697650D01*
X15472325Y-14697650D02*
X15491372Y-14707174D01*
X15567563Y-14907174D02*
X15577087Y-14897650D01*
X15577087Y-14897650D02*
X15596134Y-14869079D01*
X15596134Y-14869079D02*
X15605658Y-14850031D01*
X15605658Y-14850031D02*
X15615182Y-14821460D01*
X15615182Y-14821460D02*
X15624706Y-14773841D01*
X15624706Y-14773841D02*
X15624706Y-14735746D01*
X15624706Y-14735746D02*
X15615182Y-14688127D01*
X15615182Y-14688127D02*
X15605658Y-14659555D01*
X15605658Y-14659555D02*
X15596134Y-14640508D01*
X15596134Y-14640508D02*
X15577087Y-14611936D01*
X15577087Y-14611936D02*
X15567563Y-14602412D01*
D12*
X10792500Y-15003500D02*
G75*
G02*
X10712500Y-15003500I-40000J0D01*
G01*
X10712500Y-15003500D02*
G75*
G02*
X10792500Y-15003500I40000J0D01*
G01*
D11*
X11091372Y-14894984D02*
X11110420Y-14894984D01*
X11110420Y-14894984D02*
X11129467Y-14904508D01*
X11129467Y-14904508D02*
X11138991Y-14914031D01*
X11138991Y-14914031D02*
X11148515Y-14933079D01*
X11148515Y-14933079D02*
X11158039Y-14971174D01*
X11158039Y-14971174D02*
X11158039Y-15018793D01*
X11158039Y-15018793D02*
X11148515Y-15056888D01*
X11148515Y-15056888D02*
X11138991Y-15075936D01*
X11138991Y-15075936D02*
X11129467Y-15085460D01*
X11129467Y-15085460D02*
X11110420Y-15094984D01*
X11110420Y-15094984D02*
X11091372Y-15094984D01*
X11091372Y-15094984D02*
X11072324Y-15085460D01*
X11072324Y-15085460D02*
X11062801Y-15075936D01*
X11062801Y-15075936D02*
X11053277Y-15056888D01*
X11053277Y-15056888D02*
X11043753Y-15018793D01*
X11043753Y-15018793D02*
X11043753Y-14971174D01*
X11043753Y-14971174D02*
X11053277Y-14933079D01*
X11053277Y-14933079D02*
X11062801Y-14914031D01*
X11062801Y-14914031D02*
X11072324Y-14904508D01*
X11072324Y-14904508D02*
X11091372Y-14894984D01*
X11243753Y-15075936D02*
X11253277Y-15085460D01*
X11253277Y-15085460D02*
X11243753Y-15094984D01*
X11243753Y-15094984D02*
X11234229Y-15085460D01*
X11234229Y-15085460D02*
X11243753Y-15075936D01*
X11243753Y-15075936D02*
X11243753Y-15094984D01*
X11367562Y-14980698D02*
X11348515Y-14971174D01*
X11348515Y-14971174D02*
X11338991Y-14961650D01*
X11338991Y-14961650D02*
X11329467Y-14942603D01*
X11329467Y-14942603D02*
X11329467Y-14933079D01*
X11329467Y-14933079D02*
X11338991Y-14914031D01*
X11338991Y-14914031D02*
X11348515Y-14904508D01*
X11348515Y-14904508D02*
X11367562Y-14894984D01*
X11367562Y-14894984D02*
X11405658Y-14894984D01*
X11405658Y-14894984D02*
X11424705Y-14904508D01*
X11424705Y-14904508D02*
X11434229Y-14914031D01*
X11434229Y-14914031D02*
X11443753Y-14933079D01*
X11443753Y-14933079D02*
X11443753Y-14942603D01*
X11443753Y-14942603D02*
X11434229Y-14961650D01*
X11434229Y-14961650D02*
X11424705Y-14971174D01*
X11424705Y-14971174D02*
X11405658Y-14980698D01*
X11405658Y-14980698D02*
X11367562Y-14980698D01*
X11367562Y-14980698D02*
X11348515Y-14990222D01*
X11348515Y-14990222D02*
X11338991Y-14999746D01*
X11338991Y-14999746D02*
X11329467Y-15018793D01*
X11329467Y-15018793D02*
X11329467Y-15056888D01*
X11329467Y-15056888D02*
X11338991Y-15075936D01*
X11338991Y-15075936D02*
X11348515Y-15085460D01*
X11348515Y-15085460D02*
X11367562Y-15094984D01*
X11367562Y-15094984D02*
X11405658Y-15094984D01*
X11405658Y-15094984D02*
X11424705Y-15085460D01*
X11424705Y-15085460D02*
X11434229Y-15075936D01*
X11434229Y-15075936D02*
X11443753Y-15056888D01*
X11443753Y-15056888D02*
X11443753Y-15018793D01*
X11443753Y-15018793D02*
X11434229Y-14999746D01*
X11434229Y-14999746D02*
X11424705Y-14990222D01*
X11424705Y-14990222D02*
X11405658Y-14980698D01*
X11567562Y-14894984D02*
X11586610Y-14894984D01*
X11586610Y-14894984D02*
X11605658Y-14904508D01*
X11605658Y-14904508D02*
X11615182Y-14914031D01*
X11615182Y-14914031D02*
X11624705Y-14933079D01*
X11624705Y-14933079D02*
X11634229Y-14971174D01*
X11634229Y-14971174D02*
X11634229Y-15018793D01*
X11634229Y-15018793D02*
X11624705Y-15056888D01*
X11624705Y-15056888D02*
X11615182Y-15075936D01*
X11615182Y-15075936D02*
X11605658Y-15085460D01*
X11605658Y-15085460D02*
X11586610Y-15094984D01*
X11586610Y-15094984D02*
X11567562Y-15094984D01*
X11567562Y-15094984D02*
X11548515Y-15085460D01*
X11548515Y-15085460D02*
X11538991Y-15075936D01*
X11538991Y-15075936D02*
X11529467Y-15056888D01*
X11529467Y-15056888D02*
X11519943Y-15018793D01*
X11519943Y-15018793D02*
X11519943Y-14971174D01*
X11519943Y-14971174D02*
X11529467Y-14933079D01*
X11529467Y-14933079D02*
X11538991Y-14914031D01*
X11538991Y-14914031D02*
X11548515Y-14904508D01*
X11548515Y-14904508D02*
X11567562Y-14894984D01*
X11758039Y-14894984D02*
X11777086Y-14894984D01*
X11777086Y-14894984D02*
X11796134Y-14904508D01*
X11796134Y-14904508D02*
X11805658Y-14914031D01*
X11805658Y-14914031D02*
X11815182Y-14933079D01*
X11815182Y-14933079D02*
X11824705Y-14971174D01*
X11824705Y-14971174D02*
X11824705Y-15018793D01*
X11824705Y-15018793D02*
X11815182Y-15056888D01*
X11815182Y-15056888D02*
X11805658Y-15075936D01*
X11805658Y-15075936D02*
X11796134Y-15085460D01*
X11796134Y-15085460D02*
X11777086Y-15094984D01*
X11777086Y-15094984D02*
X11758039Y-15094984D01*
X11758039Y-15094984D02*
X11738991Y-15085460D01*
X11738991Y-15085460D02*
X11729467Y-15075936D01*
X11729467Y-15075936D02*
X11719943Y-15056888D01*
X11719943Y-15056888D02*
X11710420Y-15018793D01*
X11710420Y-15018793D02*
X11710420Y-14971174D01*
X11710420Y-14971174D02*
X11719943Y-14933079D01*
X11719943Y-14933079D02*
X11729467Y-14914031D01*
X11729467Y-14914031D02*
X11738991Y-14904508D01*
X11738991Y-14904508D02*
X11758039Y-14894984D01*
X11910420Y-15094984D02*
X11910420Y-14961650D01*
X11910420Y-14980698D02*
X11919943Y-14971174D01*
X11919943Y-14971174D02*
X11938991Y-14961650D01*
X11938991Y-14961650D02*
X11967563Y-14961650D01*
X11967563Y-14961650D02*
X11986610Y-14971174D01*
X11986610Y-14971174D02*
X11996134Y-14990222D01*
X11996134Y-14990222D02*
X11996134Y-15094984D01*
X11996134Y-14990222D02*
X12005658Y-14971174D01*
X12005658Y-14971174D02*
X12024705Y-14961650D01*
X12024705Y-14961650D02*
X12053277Y-14961650D01*
X12053277Y-14961650D02*
X12072324Y-14971174D01*
X12072324Y-14971174D02*
X12081848Y-14990222D01*
X12081848Y-14990222D02*
X12081848Y-15094984D01*
X12177086Y-15094984D02*
X12177086Y-14961650D01*
X12177086Y-14980698D02*
X12186610Y-14971174D01*
X12186610Y-14971174D02*
X12205658Y-14961650D01*
X12205658Y-14961650D02*
X12234229Y-14961650D01*
X12234229Y-14961650D02*
X12253277Y-14971174D01*
X12253277Y-14971174D02*
X12262801Y-14990222D01*
X12262801Y-14990222D02*
X12262801Y-15094984D01*
X12262801Y-14990222D02*
X12272324Y-14971174D01*
X12272324Y-14971174D02*
X12291372Y-14961650D01*
X12291372Y-14961650D02*
X12319943Y-14961650D01*
X12319943Y-14961650D02*
X12338991Y-14971174D01*
X12338991Y-14971174D02*
X12348515Y-14990222D01*
X12348515Y-14990222D02*
X12348515Y-15094984D01*
X12738991Y-14885460D02*
X12567563Y-15142603D01*
X12996134Y-14894984D02*
X13015182Y-14894984D01*
X13015182Y-14894984D02*
X13034229Y-14904508D01*
X13034229Y-14904508D02*
X13043753Y-14914031D01*
X13043753Y-14914031D02*
X13053277Y-14933079D01*
X13053277Y-14933079D02*
X13062801Y-14971174D01*
X13062801Y-14971174D02*
X13062801Y-15018793D01*
X13062801Y-15018793D02*
X13053277Y-15056888D01*
X13053277Y-15056888D02*
X13043753Y-15075936D01*
X13043753Y-15075936D02*
X13034229Y-15085460D01*
X13034229Y-15085460D02*
X13015182Y-15094984D01*
X13015182Y-15094984D02*
X12996134Y-15094984D01*
X12996134Y-15094984D02*
X12977086Y-15085460D01*
X12977086Y-15085460D02*
X12967563Y-15075936D01*
X12967563Y-15075936D02*
X12958039Y-15056888D01*
X12958039Y-15056888D02*
X12948515Y-15018793D01*
X12948515Y-15018793D02*
X12948515Y-14971174D01*
X12948515Y-14971174D02*
X12958039Y-14933079D01*
X12958039Y-14933079D02*
X12967563Y-14914031D01*
X12967563Y-14914031D02*
X12977086Y-14904508D01*
X12977086Y-14904508D02*
X12996134Y-14894984D01*
X13148515Y-15075936D02*
X13158039Y-15085460D01*
X13158039Y-15085460D02*
X13148515Y-15094984D01*
X13148515Y-15094984D02*
X13138991Y-15085460D01*
X13138991Y-15085460D02*
X13148515Y-15075936D01*
X13148515Y-15075936D02*
X13148515Y-15094984D01*
X13281848Y-14894984D02*
X13300896Y-14894984D01*
X13300896Y-14894984D02*
X13319944Y-14904508D01*
X13319944Y-14904508D02*
X13329467Y-14914031D01*
X13329467Y-14914031D02*
X13338991Y-14933079D01*
X13338991Y-14933079D02*
X13348515Y-14971174D01*
X13348515Y-14971174D02*
X13348515Y-15018793D01*
X13348515Y-15018793D02*
X13338991Y-15056888D01*
X13338991Y-15056888D02*
X13329467Y-15075936D01*
X13329467Y-15075936D02*
X13319944Y-15085460D01*
X13319944Y-15085460D02*
X13300896Y-15094984D01*
X13300896Y-15094984D02*
X13281848Y-15094984D01*
X13281848Y-15094984D02*
X13262801Y-15085460D01*
X13262801Y-15085460D02*
X13253277Y-15075936D01*
X13253277Y-15075936D02*
X13243753Y-15056888D01*
X13243753Y-15056888D02*
X13234229Y-15018793D01*
X13234229Y-15018793D02*
X13234229Y-14971174D01*
X13234229Y-14971174D02*
X13243753Y-14933079D01*
X13243753Y-14933079D02*
X13253277Y-14914031D01*
X13253277Y-14914031D02*
X13262801Y-14904508D01*
X13262801Y-14904508D02*
X13281848Y-14894984D01*
X13415182Y-14894984D02*
X13538991Y-14894984D01*
X13538991Y-14894984D02*
X13472325Y-14971174D01*
X13472325Y-14971174D02*
X13500896Y-14971174D01*
X13500896Y-14971174D02*
X13519944Y-14980698D01*
X13519944Y-14980698D02*
X13529467Y-14990222D01*
X13529467Y-14990222D02*
X13538991Y-15009269D01*
X13538991Y-15009269D02*
X13538991Y-15056888D01*
X13538991Y-15056888D02*
X13529467Y-15075936D01*
X13529467Y-15075936D02*
X13519944Y-15085460D01*
X13519944Y-15085460D02*
X13500896Y-15094984D01*
X13500896Y-15094984D02*
X13443753Y-15094984D01*
X13443753Y-15094984D02*
X13424706Y-15085460D01*
X13424706Y-15085460D02*
X13415182Y-15075936D01*
X13729467Y-15094984D02*
X13615182Y-15094984D01*
X13672325Y-15094984D02*
X13672325Y-14894984D01*
X13672325Y-14894984D02*
X13653277Y-14923555D01*
X13653277Y-14923555D02*
X13634229Y-14942603D01*
X13634229Y-14942603D02*
X13615182Y-14952127D01*
X13910420Y-14894984D02*
X13815182Y-14894984D01*
X13815182Y-14894984D02*
X13805658Y-14990222D01*
X13805658Y-14990222D02*
X13815182Y-14980698D01*
X13815182Y-14980698D02*
X13834229Y-14971174D01*
X13834229Y-14971174D02*
X13881848Y-14971174D01*
X13881848Y-14971174D02*
X13900896Y-14980698D01*
X13900896Y-14980698D02*
X13910420Y-14990222D01*
X13910420Y-14990222D02*
X13919944Y-15009269D01*
X13919944Y-15009269D02*
X13919944Y-15056888D01*
X13919944Y-15056888D02*
X13910420Y-15075936D01*
X13910420Y-15075936D02*
X13900896Y-15085460D01*
X13900896Y-15085460D02*
X13881848Y-15094984D01*
X13881848Y-15094984D02*
X13834229Y-15094984D01*
X13834229Y-15094984D02*
X13815182Y-15085460D01*
X13815182Y-15085460D02*
X13805658Y-15075936D01*
X13996134Y-14894984D02*
X13996134Y-14933079D01*
X14072325Y-14894984D02*
X14072325Y-14933079D01*
X14367563Y-15171174D02*
X14358039Y-15161650D01*
X14358039Y-15161650D02*
X14338991Y-15133079D01*
X14338991Y-15133079D02*
X14329468Y-15114031D01*
X14329468Y-15114031D02*
X14319944Y-15085460D01*
X14319944Y-15085460D02*
X14310420Y-15037841D01*
X14310420Y-15037841D02*
X14310420Y-14999746D01*
X14310420Y-14999746D02*
X14319944Y-14952127D01*
X14319944Y-14952127D02*
X14329468Y-14923555D01*
X14329468Y-14923555D02*
X14338991Y-14904508D01*
X14338991Y-14904508D02*
X14358039Y-14875936D01*
X14358039Y-14875936D02*
X14367563Y-14866412D01*
X14538991Y-14894984D02*
X14443753Y-14894984D01*
X14443753Y-14894984D02*
X14434229Y-14990222D01*
X14434229Y-14990222D02*
X14443753Y-14980698D01*
X14443753Y-14980698D02*
X14462801Y-14971174D01*
X14462801Y-14971174D02*
X14510420Y-14971174D01*
X14510420Y-14971174D02*
X14529468Y-14980698D01*
X14529468Y-14980698D02*
X14538991Y-14990222D01*
X14538991Y-14990222D02*
X14548515Y-15009269D01*
X14548515Y-15009269D02*
X14548515Y-15056888D01*
X14548515Y-15056888D02*
X14538991Y-15075936D01*
X14538991Y-15075936D02*
X14529468Y-15085460D01*
X14529468Y-15085460D02*
X14510420Y-15094984D01*
X14510420Y-15094984D02*
X14462801Y-15094984D01*
X14462801Y-15094984D02*
X14443753Y-15085460D01*
X14443753Y-15085460D02*
X14434229Y-15075936D01*
X14738991Y-15094984D02*
X14624706Y-15094984D01*
X14681848Y-15094984D02*
X14681848Y-14894984D01*
X14681848Y-14894984D02*
X14662801Y-14923555D01*
X14662801Y-14923555D02*
X14643753Y-14942603D01*
X14643753Y-14942603D02*
X14624706Y-14952127D01*
X14977087Y-15094984D02*
X14977087Y-14894984D01*
X15062801Y-15094984D02*
X15062801Y-14990222D01*
X15062801Y-14990222D02*
X15053277Y-14971174D01*
X15053277Y-14971174D02*
X15034230Y-14961650D01*
X15034230Y-14961650D02*
X15005658Y-14961650D01*
X15005658Y-14961650D02*
X14986610Y-14971174D01*
X14986610Y-14971174D02*
X14977087Y-14980698D01*
X15186610Y-15094984D02*
X15167563Y-15085460D01*
X15167563Y-15085460D02*
X15158039Y-15075936D01*
X15158039Y-15075936D02*
X15148515Y-15056888D01*
X15148515Y-15056888D02*
X15148515Y-14999746D01*
X15148515Y-14999746D02*
X15158039Y-14980698D01*
X15158039Y-14980698D02*
X15167563Y-14971174D01*
X15167563Y-14971174D02*
X15186610Y-14961650D01*
X15186610Y-14961650D02*
X15215182Y-14961650D01*
X15215182Y-14961650D02*
X15234230Y-14971174D01*
X15234230Y-14971174D02*
X15243753Y-14980698D01*
X15243753Y-14980698D02*
X15253277Y-14999746D01*
X15253277Y-14999746D02*
X15253277Y-15056888D01*
X15253277Y-15056888D02*
X15243753Y-15075936D01*
X15243753Y-15075936D02*
X15234230Y-15085460D01*
X15234230Y-15085460D02*
X15215182Y-15094984D01*
X15215182Y-15094984D02*
X15186610Y-15094984D01*
X15367563Y-15094984D02*
X15348515Y-15085460D01*
X15348515Y-15085460D02*
X15338991Y-15066412D01*
X15338991Y-15066412D02*
X15338991Y-14894984D01*
X15519944Y-15085460D02*
X15500896Y-15094984D01*
X15500896Y-15094984D02*
X15462801Y-15094984D01*
X15462801Y-15094984D02*
X15443753Y-15085460D01*
X15443753Y-15085460D02*
X15434230Y-15066412D01*
X15434230Y-15066412D02*
X15434230Y-14990222D01*
X15434230Y-14990222D02*
X15443753Y-14971174D01*
X15443753Y-14971174D02*
X15462801Y-14961650D01*
X15462801Y-14961650D02*
X15500896Y-14961650D01*
X15500896Y-14961650D02*
X15519944Y-14971174D01*
X15519944Y-14971174D02*
X15529468Y-14990222D01*
X15529468Y-14990222D02*
X15529468Y-15009269D01*
X15529468Y-15009269D02*
X15434230Y-15028317D01*
X15605658Y-15085460D02*
X15624706Y-15094984D01*
X15624706Y-15094984D02*
X15662801Y-15094984D01*
X15662801Y-15094984D02*
X15681849Y-15085460D01*
X15681849Y-15085460D02*
X15691372Y-15066412D01*
X15691372Y-15066412D02*
X15691372Y-15056888D01*
X15691372Y-15056888D02*
X15681849Y-15037841D01*
X15681849Y-15037841D02*
X15662801Y-15028317D01*
X15662801Y-15028317D02*
X15634230Y-15028317D01*
X15634230Y-15028317D02*
X15615182Y-15018793D01*
X15615182Y-15018793D02*
X15605658Y-14999746D01*
X15605658Y-14999746D02*
X15605658Y-14990222D01*
X15605658Y-14990222D02*
X15615182Y-14971174D01*
X15615182Y-14971174D02*
X15634230Y-14961650D01*
X15634230Y-14961650D02*
X15662801Y-14961650D01*
X15662801Y-14961650D02*
X15681849Y-14971174D01*
X15758039Y-15171174D02*
X15767563Y-15161650D01*
X15767563Y-15161650D02*
X15786611Y-15133079D01*
X15786611Y-15133079D02*
X15796134Y-15114031D01*
X15796134Y-15114031D02*
X15805658Y-15085460D01*
X15805658Y-15085460D02*
X15815182Y-15037841D01*
X15815182Y-15037841D02*
X15815182Y-14999746D01*
X15815182Y-14999746D02*
X15805658Y-14952127D01*
X15805658Y-14952127D02*
X15796134Y-14923555D01*
X15796134Y-14923555D02*
X15786611Y-14904508D01*
X15786611Y-14904508D02*
X15767563Y-14875936D01*
X15767563Y-14875936D02*
X15758039Y-14866412D01*
D12*
X10742970Y-15217970D02*
X10742970Y-15317030D01*
X10693440Y-15267500D02*
X10792500Y-15267500D01*
D11*
X11091372Y-15158984D02*
X11110420Y-15158984D01*
X11110420Y-15158984D02*
X11129467Y-15168508D01*
X11129467Y-15168508D02*
X11138991Y-15178031D01*
X11138991Y-15178031D02*
X11148515Y-15197079D01*
X11148515Y-15197079D02*
X11158039Y-15235174D01*
X11158039Y-15235174D02*
X11158039Y-15282793D01*
X11158039Y-15282793D02*
X11148515Y-15320888D01*
X11148515Y-15320888D02*
X11138991Y-15339936D01*
X11138991Y-15339936D02*
X11129467Y-15349460D01*
X11129467Y-15349460D02*
X11110420Y-15358984D01*
X11110420Y-15358984D02*
X11091372Y-15358984D01*
X11091372Y-15358984D02*
X11072324Y-15349460D01*
X11072324Y-15349460D02*
X11062801Y-15339936D01*
X11062801Y-15339936D02*
X11053277Y-15320888D01*
X11053277Y-15320888D02*
X11043753Y-15282793D01*
X11043753Y-15282793D02*
X11043753Y-15235174D01*
X11043753Y-15235174D02*
X11053277Y-15197079D01*
X11053277Y-15197079D02*
X11062801Y-15178031D01*
X11062801Y-15178031D02*
X11072324Y-15168508D01*
X11072324Y-15168508D02*
X11091372Y-15158984D01*
X11243753Y-15339936D02*
X11253277Y-15349460D01*
X11253277Y-15349460D02*
X11243753Y-15358984D01*
X11243753Y-15358984D02*
X11234229Y-15349460D01*
X11234229Y-15349460D02*
X11243753Y-15339936D01*
X11243753Y-15339936D02*
X11243753Y-15358984D01*
X11348515Y-15358984D02*
X11386610Y-15358984D01*
X11386610Y-15358984D02*
X11405658Y-15349460D01*
X11405658Y-15349460D02*
X11415182Y-15339936D01*
X11415182Y-15339936D02*
X11434229Y-15311365D01*
X11434229Y-15311365D02*
X11443753Y-15273269D01*
X11443753Y-15273269D02*
X11443753Y-15197079D01*
X11443753Y-15197079D02*
X11434229Y-15178031D01*
X11434229Y-15178031D02*
X11424705Y-15168508D01*
X11424705Y-15168508D02*
X11405658Y-15158984D01*
X11405658Y-15158984D02*
X11367562Y-15158984D01*
X11367562Y-15158984D02*
X11348515Y-15168508D01*
X11348515Y-15168508D02*
X11338991Y-15178031D01*
X11338991Y-15178031D02*
X11329467Y-15197079D01*
X11329467Y-15197079D02*
X11329467Y-15244698D01*
X11329467Y-15244698D02*
X11338991Y-15263746D01*
X11338991Y-15263746D02*
X11348515Y-15273269D01*
X11348515Y-15273269D02*
X11367562Y-15282793D01*
X11367562Y-15282793D02*
X11405658Y-15282793D01*
X11405658Y-15282793D02*
X11424705Y-15273269D01*
X11424705Y-15273269D02*
X11434229Y-15263746D01*
X11434229Y-15263746D02*
X11443753Y-15244698D01*
X11538991Y-15358984D02*
X11577086Y-15358984D01*
X11577086Y-15358984D02*
X11596134Y-15349460D01*
X11596134Y-15349460D02*
X11605658Y-15339936D01*
X11605658Y-15339936D02*
X11624705Y-15311365D01*
X11624705Y-15311365D02*
X11634229Y-15273269D01*
X11634229Y-15273269D02*
X11634229Y-15197079D01*
X11634229Y-15197079D02*
X11624705Y-15178031D01*
X11624705Y-15178031D02*
X11615182Y-15168508D01*
X11615182Y-15168508D02*
X11596134Y-15158984D01*
X11596134Y-15158984D02*
X11558039Y-15158984D01*
X11558039Y-15158984D02*
X11538991Y-15168508D01*
X11538991Y-15168508D02*
X11529467Y-15178031D01*
X11529467Y-15178031D02*
X11519943Y-15197079D01*
X11519943Y-15197079D02*
X11519943Y-15244698D01*
X11519943Y-15244698D02*
X11529467Y-15263746D01*
X11529467Y-15263746D02*
X11538991Y-15273269D01*
X11538991Y-15273269D02*
X11558039Y-15282793D01*
X11558039Y-15282793D02*
X11596134Y-15282793D01*
X11596134Y-15282793D02*
X11615182Y-15273269D01*
X11615182Y-15273269D02*
X11624705Y-15263746D01*
X11624705Y-15263746D02*
X11634229Y-15244698D01*
X11824705Y-15358984D02*
X11710420Y-15358984D01*
X11767562Y-15358984D02*
X11767562Y-15158984D01*
X11767562Y-15158984D02*
X11748515Y-15187555D01*
X11748515Y-15187555D02*
X11729467Y-15206603D01*
X11729467Y-15206603D02*
X11710420Y-15216127D01*
X11910420Y-15358984D02*
X11910420Y-15225650D01*
X11910420Y-15244698D02*
X11919943Y-15235174D01*
X11919943Y-15235174D02*
X11938991Y-15225650D01*
X11938991Y-15225650D02*
X11967563Y-15225650D01*
X11967563Y-15225650D02*
X11986610Y-15235174D01*
X11986610Y-15235174D02*
X11996134Y-15254222D01*
X11996134Y-15254222D02*
X11996134Y-15358984D01*
X11996134Y-15254222D02*
X12005658Y-15235174D01*
X12005658Y-15235174D02*
X12024705Y-15225650D01*
X12024705Y-15225650D02*
X12053277Y-15225650D01*
X12053277Y-15225650D02*
X12072324Y-15235174D01*
X12072324Y-15235174D02*
X12081848Y-15254222D01*
X12081848Y-15254222D02*
X12081848Y-15358984D01*
X12177086Y-15358984D02*
X12177086Y-15225650D01*
X12177086Y-15244698D02*
X12186610Y-15235174D01*
X12186610Y-15235174D02*
X12205658Y-15225650D01*
X12205658Y-15225650D02*
X12234229Y-15225650D01*
X12234229Y-15225650D02*
X12253277Y-15235174D01*
X12253277Y-15235174D02*
X12262801Y-15254222D01*
X12262801Y-15254222D02*
X12262801Y-15358984D01*
X12262801Y-15254222D02*
X12272324Y-15235174D01*
X12272324Y-15235174D02*
X12291372Y-15225650D01*
X12291372Y-15225650D02*
X12319943Y-15225650D01*
X12319943Y-15225650D02*
X12338991Y-15235174D01*
X12338991Y-15235174D02*
X12348515Y-15254222D01*
X12348515Y-15254222D02*
X12348515Y-15358984D01*
X12738991Y-15149460D02*
X12567563Y-15406603D01*
X12996134Y-15158984D02*
X13015182Y-15158984D01*
X13015182Y-15158984D02*
X13034229Y-15168508D01*
X13034229Y-15168508D02*
X13043753Y-15178031D01*
X13043753Y-15178031D02*
X13053277Y-15197079D01*
X13053277Y-15197079D02*
X13062801Y-15235174D01*
X13062801Y-15235174D02*
X13062801Y-15282793D01*
X13062801Y-15282793D02*
X13053277Y-15320888D01*
X13053277Y-15320888D02*
X13043753Y-15339936D01*
X13043753Y-15339936D02*
X13034229Y-15349460D01*
X13034229Y-15349460D02*
X13015182Y-15358984D01*
X13015182Y-15358984D02*
X12996134Y-15358984D01*
X12996134Y-15358984D02*
X12977086Y-15349460D01*
X12977086Y-15349460D02*
X12967563Y-15339936D01*
X12967563Y-15339936D02*
X12958039Y-15320888D01*
X12958039Y-15320888D02*
X12948515Y-15282793D01*
X12948515Y-15282793D02*
X12948515Y-15235174D01*
X12948515Y-15235174D02*
X12958039Y-15197079D01*
X12958039Y-15197079D02*
X12967563Y-15178031D01*
X12967563Y-15178031D02*
X12977086Y-15168508D01*
X12977086Y-15168508D02*
X12996134Y-15158984D01*
X13148515Y-15339936D02*
X13158039Y-15349460D01*
X13158039Y-15349460D02*
X13148515Y-15358984D01*
X13148515Y-15358984D02*
X13138991Y-15349460D01*
X13138991Y-15349460D02*
X13148515Y-15339936D01*
X13148515Y-15339936D02*
X13148515Y-15358984D01*
X13281848Y-15158984D02*
X13300896Y-15158984D01*
X13300896Y-15158984D02*
X13319944Y-15168508D01*
X13319944Y-15168508D02*
X13329467Y-15178031D01*
X13329467Y-15178031D02*
X13338991Y-15197079D01*
X13338991Y-15197079D02*
X13348515Y-15235174D01*
X13348515Y-15235174D02*
X13348515Y-15282793D01*
X13348515Y-15282793D02*
X13338991Y-15320888D01*
X13338991Y-15320888D02*
X13329467Y-15339936D01*
X13329467Y-15339936D02*
X13319944Y-15349460D01*
X13319944Y-15349460D02*
X13300896Y-15358984D01*
X13300896Y-15358984D02*
X13281848Y-15358984D01*
X13281848Y-15358984D02*
X13262801Y-15349460D01*
X13262801Y-15349460D02*
X13253277Y-15339936D01*
X13253277Y-15339936D02*
X13243753Y-15320888D01*
X13243753Y-15320888D02*
X13234229Y-15282793D01*
X13234229Y-15282793D02*
X13234229Y-15235174D01*
X13234229Y-15235174D02*
X13243753Y-15197079D01*
X13243753Y-15197079D02*
X13253277Y-15178031D01*
X13253277Y-15178031D02*
X13262801Y-15168508D01*
X13262801Y-15168508D02*
X13281848Y-15158984D01*
X13415182Y-15158984D02*
X13538991Y-15158984D01*
X13538991Y-15158984D02*
X13472325Y-15235174D01*
X13472325Y-15235174D02*
X13500896Y-15235174D01*
X13500896Y-15235174D02*
X13519944Y-15244698D01*
X13519944Y-15244698D02*
X13529467Y-15254222D01*
X13529467Y-15254222D02*
X13538991Y-15273269D01*
X13538991Y-15273269D02*
X13538991Y-15320888D01*
X13538991Y-15320888D02*
X13529467Y-15339936D01*
X13529467Y-15339936D02*
X13519944Y-15349460D01*
X13519944Y-15349460D02*
X13500896Y-15358984D01*
X13500896Y-15358984D02*
X13443753Y-15358984D01*
X13443753Y-15358984D02*
X13424706Y-15349460D01*
X13424706Y-15349460D02*
X13415182Y-15339936D01*
X13634229Y-15358984D02*
X13672325Y-15358984D01*
X13672325Y-15358984D02*
X13691372Y-15349460D01*
X13691372Y-15349460D02*
X13700896Y-15339936D01*
X13700896Y-15339936D02*
X13719944Y-15311365D01*
X13719944Y-15311365D02*
X13729467Y-15273269D01*
X13729467Y-15273269D02*
X13729467Y-15197079D01*
X13729467Y-15197079D02*
X13719944Y-15178031D01*
X13719944Y-15178031D02*
X13710420Y-15168508D01*
X13710420Y-15168508D02*
X13691372Y-15158984D01*
X13691372Y-15158984D02*
X13653277Y-15158984D01*
X13653277Y-15158984D02*
X13634229Y-15168508D01*
X13634229Y-15168508D02*
X13624706Y-15178031D01*
X13624706Y-15178031D02*
X13615182Y-15197079D01*
X13615182Y-15197079D02*
X13615182Y-15244698D01*
X13615182Y-15244698D02*
X13624706Y-15263746D01*
X13624706Y-15263746D02*
X13634229Y-15273269D01*
X13634229Y-15273269D02*
X13653277Y-15282793D01*
X13653277Y-15282793D02*
X13691372Y-15282793D01*
X13691372Y-15282793D02*
X13710420Y-15273269D01*
X13710420Y-15273269D02*
X13719944Y-15263746D01*
X13719944Y-15263746D02*
X13729467Y-15244698D01*
X13853277Y-15158984D02*
X13872325Y-15158984D01*
X13872325Y-15158984D02*
X13891372Y-15168508D01*
X13891372Y-15168508D02*
X13900896Y-15178031D01*
X13900896Y-15178031D02*
X13910420Y-15197079D01*
X13910420Y-15197079D02*
X13919944Y-15235174D01*
X13919944Y-15235174D02*
X13919944Y-15282793D01*
X13919944Y-15282793D02*
X13910420Y-15320888D01*
X13910420Y-15320888D02*
X13900896Y-15339936D01*
X13900896Y-15339936D02*
X13891372Y-15349460D01*
X13891372Y-15349460D02*
X13872325Y-15358984D01*
X13872325Y-15358984D02*
X13853277Y-15358984D01*
X13853277Y-15358984D02*
X13834229Y-15349460D01*
X13834229Y-15349460D02*
X13824706Y-15339936D01*
X13824706Y-15339936D02*
X13815182Y-15320888D01*
X13815182Y-15320888D02*
X13805658Y-15282793D01*
X13805658Y-15282793D02*
X13805658Y-15235174D01*
X13805658Y-15235174D02*
X13815182Y-15197079D01*
X13815182Y-15197079D02*
X13824706Y-15178031D01*
X13824706Y-15178031D02*
X13834229Y-15168508D01*
X13834229Y-15168508D02*
X13853277Y-15158984D01*
X13996134Y-15158984D02*
X13996134Y-15197079D01*
X14072325Y-15158984D02*
X14072325Y-15197079D01*
X14367563Y-15435174D02*
X14358039Y-15425650D01*
X14358039Y-15425650D02*
X14338991Y-15397079D01*
X14338991Y-15397079D02*
X14329468Y-15378031D01*
X14329468Y-15378031D02*
X14319944Y-15349460D01*
X14319944Y-15349460D02*
X14310420Y-15301841D01*
X14310420Y-15301841D02*
X14310420Y-15263746D01*
X14310420Y-15263746D02*
X14319944Y-15216127D01*
X14319944Y-15216127D02*
X14329468Y-15187555D01*
X14329468Y-15187555D02*
X14338991Y-15168508D01*
X14338991Y-15168508D02*
X14358039Y-15139936D01*
X14358039Y-15139936D02*
X14367563Y-15130412D01*
X14424706Y-15158984D02*
X14548515Y-15158984D01*
X14548515Y-15158984D02*
X14481848Y-15235174D01*
X14481848Y-15235174D02*
X14510420Y-15235174D01*
X14510420Y-15235174D02*
X14529468Y-15244698D01*
X14529468Y-15244698D02*
X14538991Y-15254222D01*
X14538991Y-15254222D02*
X14548515Y-15273269D01*
X14548515Y-15273269D02*
X14548515Y-15320888D01*
X14548515Y-15320888D02*
X14538991Y-15339936D01*
X14538991Y-15339936D02*
X14529468Y-15349460D01*
X14529468Y-15349460D02*
X14510420Y-15358984D01*
X14510420Y-15358984D02*
X14453277Y-15358984D01*
X14453277Y-15358984D02*
X14434229Y-15349460D01*
X14434229Y-15349460D02*
X14424706Y-15339936D01*
X14624706Y-15178031D02*
X14634229Y-15168508D01*
X14634229Y-15168508D02*
X14653277Y-15158984D01*
X14653277Y-15158984D02*
X14700896Y-15158984D01*
X14700896Y-15158984D02*
X14719944Y-15168508D01*
X14719944Y-15168508D02*
X14729468Y-15178031D01*
X14729468Y-15178031D02*
X14738991Y-15197079D01*
X14738991Y-15197079D02*
X14738991Y-15216127D01*
X14738991Y-15216127D02*
X14729468Y-15244698D01*
X14729468Y-15244698D02*
X14615182Y-15358984D01*
X14615182Y-15358984D02*
X14738991Y-15358984D01*
X14977087Y-15358984D02*
X14977087Y-15158984D01*
X15062801Y-15358984D02*
X15062801Y-15254222D01*
X15062801Y-15254222D02*
X15053277Y-15235174D01*
X15053277Y-15235174D02*
X15034230Y-15225650D01*
X15034230Y-15225650D02*
X15005658Y-15225650D01*
X15005658Y-15225650D02*
X14986610Y-15235174D01*
X14986610Y-15235174D02*
X14977087Y-15244698D01*
X15186610Y-15358984D02*
X15167563Y-15349460D01*
X15167563Y-15349460D02*
X15158039Y-15339936D01*
X15158039Y-15339936D02*
X15148515Y-15320888D01*
X15148515Y-15320888D02*
X15148515Y-15263746D01*
X15148515Y-15263746D02*
X15158039Y-15244698D01*
X15158039Y-15244698D02*
X15167563Y-15235174D01*
X15167563Y-15235174D02*
X15186610Y-15225650D01*
X15186610Y-15225650D02*
X15215182Y-15225650D01*
X15215182Y-15225650D02*
X15234230Y-15235174D01*
X15234230Y-15235174D02*
X15243753Y-15244698D01*
X15243753Y-15244698D02*
X15253277Y-15263746D01*
X15253277Y-15263746D02*
X15253277Y-15320888D01*
X15253277Y-15320888D02*
X15243753Y-15339936D01*
X15243753Y-15339936D02*
X15234230Y-15349460D01*
X15234230Y-15349460D02*
X15215182Y-15358984D01*
X15215182Y-15358984D02*
X15186610Y-15358984D01*
X15367563Y-15358984D02*
X15348515Y-15349460D01*
X15348515Y-15349460D02*
X15338991Y-15330412D01*
X15338991Y-15330412D02*
X15338991Y-15158984D01*
X15519944Y-15349460D02*
X15500896Y-15358984D01*
X15500896Y-15358984D02*
X15462801Y-15358984D01*
X15462801Y-15358984D02*
X15443753Y-15349460D01*
X15443753Y-15349460D02*
X15434230Y-15330412D01*
X15434230Y-15330412D02*
X15434230Y-15254222D01*
X15434230Y-15254222D02*
X15443753Y-15235174D01*
X15443753Y-15235174D02*
X15462801Y-15225650D01*
X15462801Y-15225650D02*
X15500896Y-15225650D01*
X15500896Y-15225650D02*
X15519944Y-15235174D01*
X15519944Y-15235174D02*
X15529468Y-15254222D01*
X15529468Y-15254222D02*
X15529468Y-15273269D01*
X15529468Y-15273269D02*
X15434230Y-15292317D01*
X15605658Y-15349460D02*
X15624706Y-15358984D01*
X15624706Y-15358984D02*
X15662801Y-15358984D01*
X15662801Y-15358984D02*
X15681849Y-15349460D01*
X15681849Y-15349460D02*
X15691372Y-15330412D01*
X15691372Y-15330412D02*
X15691372Y-15320888D01*
X15691372Y-15320888D02*
X15681849Y-15301841D01*
X15681849Y-15301841D02*
X15662801Y-15292317D01*
X15662801Y-15292317D02*
X15634230Y-15292317D01*
X15634230Y-15292317D02*
X15615182Y-15282793D01*
X15615182Y-15282793D02*
X15605658Y-15263746D01*
X15605658Y-15263746D02*
X15605658Y-15254222D01*
X15605658Y-15254222D02*
X15615182Y-15235174D01*
X15615182Y-15235174D02*
X15634230Y-15225650D01*
X15634230Y-15225650D02*
X15662801Y-15225650D01*
X15662801Y-15225650D02*
X15681849Y-15235174D01*
X15758039Y-15435174D02*
X15767563Y-15425650D01*
X15767563Y-15425650D02*
X15786611Y-15397079D01*
X15786611Y-15397079D02*
X15796134Y-15378031D01*
X15796134Y-15378031D02*
X15805658Y-15349460D01*
X15805658Y-15349460D02*
X15815182Y-15301841D01*
X15815182Y-15301841D02*
X15815182Y-15263746D01*
X15815182Y-15263746D02*
X15805658Y-15216127D01*
X15805658Y-15216127D02*
X15796134Y-15187555D01*
X15796134Y-15187555D02*
X15786611Y-15168508D01*
X15786611Y-15168508D02*
X15767563Y-15139936D01*
X15767563Y-15139936D02*
X15758039Y-15130412D01*
D12*
X10777856Y-15566856D02*
X10777856Y-15496144D01*
X10707144Y-15496144D01*
X10707144Y-15566856D01*
X10777856Y-15566856D01*
D11*
X11158039Y-15622984D02*
X11043753Y-15622984D01*
X11100896Y-15622984D02*
X11100896Y-15422984D01*
X11100896Y-15422984D02*
X11081848Y-15451555D01*
X11081848Y-15451555D02*
X11062801Y-15470603D01*
X11062801Y-15470603D02*
X11043753Y-15480127D01*
X11243753Y-15603936D02*
X11253277Y-15613460D01*
X11253277Y-15613460D02*
X11243753Y-15622984D01*
X11243753Y-15622984D02*
X11234229Y-15613460D01*
X11234229Y-15613460D02*
X11243753Y-15603936D01*
X11243753Y-15603936D02*
X11243753Y-15622984D01*
X11377086Y-15422984D02*
X11396134Y-15422984D01*
X11396134Y-15422984D02*
X11415182Y-15432508D01*
X11415182Y-15432508D02*
X11424705Y-15442031D01*
X11424705Y-15442031D02*
X11434229Y-15461079D01*
X11434229Y-15461079D02*
X11443753Y-15499174D01*
X11443753Y-15499174D02*
X11443753Y-15546793D01*
X11443753Y-15546793D02*
X11434229Y-15584888D01*
X11434229Y-15584888D02*
X11424705Y-15603936D01*
X11424705Y-15603936D02*
X11415182Y-15613460D01*
X11415182Y-15613460D02*
X11396134Y-15622984D01*
X11396134Y-15622984D02*
X11377086Y-15622984D01*
X11377086Y-15622984D02*
X11358039Y-15613460D01*
X11358039Y-15613460D02*
X11348515Y-15603936D01*
X11348515Y-15603936D02*
X11338991Y-15584888D01*
X11338991Y-15584888D02*
X11329467Y-15546793D01*
X11329467Y-15546793D02*
X11329467Y-15499174D01*
X11329467Y-15499174D02*
X11338991Y-15461079D01*
X11338991Y-15461079D02*
X11348515Y-15442031D01*
X11348515Y-15442031D02*
X11358039Y-15432508D01*
X11358039Y-15432508D02*
X11377086Y-15422984D01*
X11567562Y-15422984D02*
X11586610Y-15422984D01*
X11586610Y-15422984D02*
X11605658Y-15432508D01*
X11605658Y-15432508D02*
X11615182Y-15442031D01*
X11615182Y-15442031D02*
X11624705Y-15461079D01*
X11624705Y-15461079D02*
X11634229Y-15499174D01*
X11634229Y-15499174D02*
X11634229Y-15546793D01*
X11634229Y-15546793D02*
X11624705Y-15584888D01*
X11624705Y-15584888D02*
X11615182Y-15603936D01*
X11615182Y-15603936D02*
X11605658Y-15613460D01*
X11605658Y-15613460D02*
X11586610Y-15622984D01*
X11586610Y-15622984D02*
X11567562Y-15622984D01*
X11567562Y-15622984D02*
X11548515Y-15613460D01*
X11548515Y-15613460D02*
X11538991Y-15603936D01*
X11538991Y-15603936D02*
X11529467Y-15584888D01*
X11529467Y-15584888D02*
X11519943Y-15546793D01*
X11519943Y-15546793D02*
X11519943Y-15499174D01*
X11519943Y-15499174D02*
X11529467Y-15461079D01*
X11529467Y-15461079D02*
X11538991Y-15442031D01*
X11538991Y-15442031D02*
X11548515Y-15432508D01*
X11548515Y-15432508D02*
X11567562Y-15422984D01*
X11758039Y-15422984D02*
X11777086Y-15422984D01*
X11777086Y-15422984D02*
X11796134Y-15432508D01*
X11796134Y-15432508D02*
X11805658Y-15442031D01*
X11805658Y-15442031D02*
X11815182Y-15461079D01*
X11815182Y-15461079D02*
X11824705Y-15499174D01*
X11824705Y-15499174D02*
X11824705Y-15546793D01*
X11824705Y-15546793D02*
X11815182Y-15584888D01*
X11815182Y-15584888D02*
X11805658Y-15603936D01*
X11805658Y-15603936D02*
X11796134Y-15613460D01*
X11796134Y-15613460D02*
X11777086Y-15622984D01*
X11777086Y-15622984D02*
X11758039Y-15622984D01*
X11758039Y-15622984D02*
X11738991Y-15613460D01*
X11738991Y-15613460D02*
X11729467Y-15603936D01*
X11729467Y-15603936D02*
X11719943Y-15584888D01*
X11719943Y-15584888D02*
X11710420Y-15546793D01*
X11710420Y-15546793D02*
X11710420Y-15499174D01*
X11710420Y-15499174D02*
X11719943Y-15461079D01*
X11719943Y-15461079D02*
X11729467Y-15442031D01*
X11729467Y-15442031D02*
X11738991Y-15432508D01*
X11738991Y-15432508D02*
X11758039Y-15422984D01*
X11910420Y-15622984D02*
X11910420Y-15489650D01*
X11910420Y-15508698D02*
X11919943Y-15499174D01*
X11919943Y-15499174D02*
X11938991Y-15489650D01*
X11938991Y-15489650D02*
X11967563Y-15489650D01*
X11967563Y-15489650D02*
X11986610Y-15499174D01*
X11986610Y-15499174D02*
X11996134Y-15518222D01*
X11996134Y-15518222D02*
X11996134Y-15622984D01*
X11996134Y-15518222D02*
X12005658Y-15499174D01*
X12005658Y-15499174D02*
X12024705Y-15489650D01*
X12024705Y-15489650D02*
X12053277Y-15489650D01*
X12053277Y-15489650D02*
X12072324Y-15499174D01*
X12072324Y-15499174D02*
X12081848Y-15518222D01*
X12081848Y-15518222D02*
X12081848Y-15622984D01*
X12177086Y-15622984D02*
X12177086Y-15489650D01*
X12177086Y-15508698D02*
X12186610Y-15499174D01*
X12186610Y-15499174D02*
X12205658Y-15489650D01*
X12205658Y-15489650D02*
X12234229Y-15489650D01*
X12234229Y-15489650D02*
X12253277Y-15499174D01*
X12253277Y-15499174D02*
X12262801Y-15518222D01*
X12262801Y-15518222D02*
X12262801Y-15622984D01*
X12262801Y-15518222D02*
X12272324Y-15499174D01*
X12272324Y-15499174D02*
X12291372Y-15489650D01*
X12291372Y-15489650D02*
X12319943Y-15489650D01*
X12319943Y-15489650D02*
X12338991Y-15499174D01*
X12338991Y-15499174D02*
X12348515Y-15518222D01*
X12348515Y-15518222D02*
X12348515Y-15622984D01*
X12738991Y-15413460D02*
X12567563Y-15670603D01*
X12996134Y-15422984D02*
X13015182Y-15422984D01*
X13015182Y-15422984D02*
X13034229Y-15432508D01*
X13034229Y-15432508D02*
X13043753Y-15442031D01*
X13043753Y-15442031D02*
X13053277Y-15461079D01*
X13053277Y-15461079D02*
X13062801Y-15499174D01*
X13062801Y-15499174D02*
X13062801Y-15546793D01*
X13062801Y-15546793D02*
X13053277Y-15584888D01*
X13053277Y-15584888D02*
X13043753Y-15603936D01*
X13043753Y-15603936D02*
X13034229Y-15613460D01*
X13034229Y-15613460D02*
X13015182Y-15622984D01*
X13015182Y-15622984D02*
X12996134Y-15622984D01*
X12996134Y-15622984D02*
X12977086Y-15613460D01*
X12977086Y-15613460D02*
X12967563Y-15603936D01*
X12967563Y-15603936D02*
X12958039Y-15584888D01*
X12958039Y-15584888D02*
X12948515Y-15546793D01*
X12948515Y-15546793D02*
X12948515Y-15499174D01*
X12948515Y-15499174D02*
X12958039Y-15461079D01*
X12958039Y-15461079D02*
X12967563Y-15442031D01*
X12967563Y-15442031D02*
X12977086Y-15432508D01*
X12977086Y-15432508D02*
X12996134Y-15422984D01*
X13148515Y-15603936D02*
X13158039Y-15613460D01*
X13158039Y-15613460D02*
X13148515Y-15622984D01*
X13148515Y-15622984D02*
X13138991Y-15613460D01*
X13138991Y-15613460D02*
X13148515Y-15603936D01*
X13148515Y-15603936D02*
X13148515Y-15622984D01*
X13281848Y-15422984D02*
X13300896Y-15422984D01*
X13300896Y-15422984D02*
X13319944Y-15432508D01*
X13319944Y-15432508D02*
X13329467Y-15442031D01*
X13329467Y-15442031D02*
X13338991Y-15461079D01*
X13338991Y-15461079D02*
X13348515Y-15499174D01*
X13348515Y-15499174D02*
X13348515Y-15546793D01*
X13348515Y-15546793D02*
X13338991Y-15584888D01*
X13338991Y-15584888D02*
X13329467Y-15603936D01*
X13329467Y-15603936D02*
X13319944Y-15613460D01*
X13319944Y-15613460D02*
X13300896Y-15622984D01*
X13300896Y-15622984D02*
X13281848Y-15622984D01*
X13281848Y-15622984D02*
X13262801Y-15613460D01*
X13262801Y-15613460D02*
X13253277Y-15603936D01*
X13253277Y-15603936D02*
X13243753Y-15584888D01*
X13243753Y-15584888D02*
X13234229Y-15546793D01*
X13234229Y-15546793D02*
X13234229Y-15499174D01*
X13234229Y-15499174D02*
X13243753Y-15461079D01*
X13243753Y-15461079D02*
X13253277Y-15442031D01*
X13253277Y-15442031D02*
X13262801Y-15432508D01*
X13262801Y-15432508D02*
X13281848Y-15422984D01*
X13415182Y-15422984D02*
X13538991Y-15422984D01*
X13538991Y-15422984D02*
X13472325Y-15499174D01*
X13472325Y-15499174D02*
X13500896Y-15499174D01*
X13500896Y-15499174D02*
X13519944Y-15508698D01*
X13519944Y-15508698D02*
X13529467Y-15518222D01*
X13529467Y-15518222D02*
X13538991Y-15537269D01*
X13538991Y-15537269D02*
X13538991Y-15584888D01*
X13538991Y-15584888D02*
X13529467Y-15603936D01*
X13529467Y-15603936D02*
X13519944Y-15613460D01*
X13519944Y-15613460D02*
X13500896Y-15622984D01*
X13500896Y-15622984D02*
X13443753Y-15622984D01*
X13443753Y-15622984D02*
X13424706Y-15613460D01*
X13424706Y-15613460D02*
X13415182Y-15603936D01*
X13634229Y-15622984D02*
X13672325Y-15622984D01*
X13672325Y-15622984D02*
X13691372Y-15613460D01*
X13691372Y-15613460D02*
X13700896Y-15603936D01*
X13700896Y-15603936D02*
X13719944Y-15575365D01*
X13719944Y-15575365D02*
X13729467Y-15537269D01*
X13729467Y-15537269D02*
X13729467Y-15461079D01*
X13729467Y-15461079D02*
X13719944Y-15442031D01*
X13719944Y-15442031D02*
X13710420Y-15432508D01*
X13710420Y-15432508D02*
X13691372Y-15422984D01*
X13691372Y-15422984D02*
X13653277Y-15422984D01*
X13653277Y-15422984D02*
X13634229Y-15432508D01*
X13634229Y-15432508D02*
X13624706Y-15442031D01*
X13624706Y-15442031D02*
X13615182Y-15461079D01*
X13615182Y-15461079D02*
X13615182Y-15508698D01*
X13615182Y-15508698D02*
X13624706Y-15527746D01*
X13624706Y-15527746D02*
X13634229Y-15537269D01*
X13634229Y-15537269D02*
X13653277Y-15546793D01*
X13653277Y-15546793D02*
X13691372Y-15546793D01*
X13691372Y-15546793D02*
X13710420Y-15537269D01*
X13710420Y-15537269D02*
X13719944Y-15527746D01*
X13719944Y-15527746D02*
X13729467Y-15508698D01*
X13900896Y-15489650D02*
X13900896Y-15622984D01*
X13853277Y-15413460D02*
X13805658Y-15556317D01*
X13805658Y-15556317D02*
X13929467Y-15556317D01*
X13996134Y-15422984D02*
X13996134Y-15461079D01*
X14072325Y-15422984D02*
X14072325Y-15461079D01*
X14367563Y-15699174D02*
X14358039Y-15689650D01*
X14358039Y-15689650D02*
X14338991Y-15661079D01*
X14338991Y-15661079D02*
X14329468Y-15642031D01*
X14329468Y-15642031D02*
X14319944Y-15613460D01*
X14319944Y-15613460D02*
X14310420Y-15565841D01*
X14310420Y-15565841D02*
X14310420Y-15527746D01*
X14310420Y-15527746D02*
X14319944Y-15480127D01*
X14319944Y-15480127D02*
X14329468Y-15451555D01*
X14329468Y-15451555D02*
X14338991Y-15432508D01*
X14338991Y-15432508D02*
X14358039Y-15403936D01*
X14358039Y-15403936D02*
X14367563Y-15394412D01*
X14548515Y-15622984D02*
X14434229Y-15622984D01*
X14491372Y-15622984D02*
X14491372Y-15422984D01*
X14491372Y-15422984D02*
X14472325Y-15451555D01*
X14472325Y-15451555D02*
X14453277Y-15470603D01*
X14453277Y-15470603D02*
X14434229Y-15480127D01*
X14719944Y-15422984D02*
X14681848Y-15422984D01*
X14681848Y-15422984D02*
X14662801Y-15432508D01*
X14662801Y-15432508D02*
X14653277Y-15442031D01*
X14653277Y-15442031D02*
X14634229Y-15470603D01*
X14634229Y-15470603D02*
X14624706Y-15508698D01*
X14624706Y-15508698D02*
X14624706Y-15584888D01*
X14624706Y-15584888D02*
X14634229Y-15603936D01*
X14634229Y-15603936D02*
X14643753Y-15613460D01*
X14643753Y-15613460D02*
X14662801Y-15622984D01*
X14662801Y-15622984D02*
X14700896Y-15622984D01*
X14700896Y-15622984D02*
X14719944Y-15613460D01*
X14719944Y-15613460D02*
X14729468Y-15603936D01*
X14729468Y-15603936D02*
X14738991Y-15584888D01*
X14738991Y-15584888D02*
X14738991Y-15537269D01*
X14738991Y-15537269D02*
X14729468Y-15518222D01*
X14729468Y-15518222D02*
X14719944Y-15508698D01*
X14719944Y-15508698D02*
X14700896Y-15499174D01*
X14700896Y-15499174D02*
X14662801Y-15499174D01*
X14662801Y-15499174D02*
X14643753Y-15508698D01*
X14643753Y-15508698D02*
X14634229Y-15518222D01*
X14634229Y-15518222D02*
X14624706Y-15537269D01*
X14977087Y-15622984D02*
X14977087Y-15422984D01*
X15062801Y-15622984D02*
X15062801Y-15518222D01*
X15062801Y-15518222D02*
X15053277Y-15499174D01*
X15053277Y-15499174D02*
X15034230Y-15489650D01*
X15034230Y-15489650D02*
X15005658Y-15489650D01*
X15005658Y-15489650D02*
X14986610Y-15499174D01*
X14986610Y-15499174D02*
X14977087Y-15508698D01*
X15186610Y-15622984D02*
X15167563Y-15613460D01*
X15167563Y-15613460D02*
X15158039Y-15603936D01*
X15158039Y-15603936D02*
X15148515Y-15584888D01*
X15148515Y-15584888D02*
X15148515Y-15527746D01*
X15148515Y-15527746D02*
X15158039Y-15508698D01*
X15158039Y-15508698D02*
X15167563Y-15499174D01*
X15167563Y-15499174D02*
X15186610Y-15489650D01*
X15186610Y-15489650D02*
X15215182Y-15489650D01*
X15215182Y-15489650D02*
X15234230Y-15499174D01*
X15234230Y-15499174D02*
X15243753Y-15508698D01*
X15243753Y-15508698D02*
X15253277Y-15527746D01*
X15253277Y-15527746D02*
X15253277Y-15584888D01*
X15253277Y-15584888D02*
X15243753Y-15603936D01*
X15243753Y-15603936D02*
X15234230Y-15613460D01*
X15234230Y-15613460D02*
X15215182Y-15622984D01*
X15215182Y-15622984D02*
X15186610Y-15622984D01*
X15367563Y-15622984D02*
X15348515Y-15613460D01*
X15348515Y-15613460D02*
X15338991Y-15594412D01*
X15338991Y-15594412D02*
X15338991Y-15422984D01*
X15519944Y-15613460D02*
X15500896Y-15622984D01*
X15500896Y-15622984D02*
X15462801Y-15622984D01*
X15462801Y-15622984D02*
X15443753Y-15613460D01*
X15443753Y-15613460D02*
X15434230Y-15594412D01*
X15434230Y-15594412D02*
X15434230Y-15518222D01*
X15434230Y-15518222D02*
X15443753Y-15499174D01*
X15443753Y-15499174D02*
X15462801Y-15489650D01*
X15462801Y-15489650D02*
X15500896Y-15489650D01*
X15500896Y-15489650D02*
X15519944Y-15499174D01*
X15519944Y-15499174D02*
X15529468Y-15518222D01*
X15529468Y-15518222D02*
X15529468Y-15537269D01*
X15529468Y-15537269D02*
X15434230Y-15556317D01*
X15605658Y-15613460D02*
X15624706Y-15622984D01*
X15624706Y-15622984D02*
X15662801Y-15622984D01*
X15662801Y-15622984D02*
X15681849Y-15613460D01*
X15681849Y-15613460D02*
X15691372Y-15594412D01*
X15691372Y-15594412D02*
X15691372Y-15584888D01*
X15691372Y-15584888D02*
X15681849Y-15565841D01*
X15681849Y-15565841D02*
X15662801Y-15556317D01*
X15662801Y-15556317D02*
X15634230Y-15556317D01*
X15634230Y-15556317D02*
X15615182Y-15546793D01*
X15615182Y-15546793D02*
X15605658Y-15527746D01*
X15605658Y-15527746D02*
X15605658Y-15518222D01*
X15605658Y-15518222D02*
X15615182Y-15499174D01*
X15615182Y-15499174D02*
X15634230Y-15489650D01*
X15634230Y-15489650D02*
X15662801Y-15489650D01*
X15662801Y-15489650D02*
X15681849Y-15499174D01*
X15758039Y-15699174D02*
X15767563Y-15689650D01*
X15767563Y-15689650D02*
X15786611Y-15661079D01*
X15786611Y-15661079D02*
X15796134Y-15642031D01*
X15796134Y-15642031D02*
X15805658Y-15613460D01*
X15805658Y-15613460D02*
X15815182Y-15565841D01*
X15815182Y-15565841D02*
X15815182Y-15527746D01*
X15815182Y-15527746D02*
X15805658Y-15480127D01*
X15805658Y-15480127D02*
X15796134Y-15451555D01*
X15796134Y-15451555D02*
X15786611Y-15432508D01*
X15786611Y-15432508D02*
X15767563Y-15403936D01*
X15767563Y-15403936D02*
X15758039Y-15394412D01*
D13*
X10717500Y-15870500D02*
X10792500Y-15795500D01*
X10717500Y-15720500D01*
X10642500Y-15795500D01*
X10717500Y-15870500D01*
D11*
X11158039Y-15886984D02*
X11043753Y-15886984D01*
X11100896Y-15886984D02*
X11100896Y-15686984D01*
X11100896Y-15686984D02*
X11081848Y-15715555D01*
X11081848Y-15715555D02*
X11062801Y-15734603D01*
X11062801Y-15734603D02*
X11043753Y-15744127D01*
X11243753Y-15867936D02*
X11253277Y-15877460D01*
X11253277Y-15877460D02*
X11243753Y-15886984D01*
X11243753Y-15886984D02*
X11234229Y-15877460D01*
X11234229Y-15877460D02*
X11243753Y-15867936D01*
X11243753Y-15867936D02*
X11243753Y-15886984D01*
X11434229Y-15686984D02*
X11338991Y-15686984D01*
X11338991Y-15686984D02*
X11329467Y-15782222D01*
X11329467Y-15782222D02*
X11338991Y-15772698D01*
X11338991Y-15772698D02*
X11358039Y-15763174D01*
X11358039Y-15763174D02*
X11405658Y-15763174D01*
X11405658Y-15763174D02*
X11424705Y-15772698D01*
X11424705Y-15772698D02*
X11434229Y-15782222D01*
X11434229Y-15782222D02*
X11443753Y-15801269D01*
X11443753Y-15801269D02*
X11443753Y-15848888D01*
X11443753Y-15848888D02*
X11434229Y-15867936D01*
X11434229Y-15867936D02*
X11424705Y-15877460D01*
X11424705Y-15877460D02*
X11405658Y-15886984D01*
X11405658Y-15886984D02*
X11358039Y-15886984D01*
X11358039Y-15886984D02*
X11338991Y-15877460D01*
X11338991Y-15877460D02*
X11329467Y-15867936D01*
X11567562Y-15686984D02*
X11586610Y-15686984D01*
X11586610Y-15686984D02*
X11605658Y-15696508D01*
X11605658Y-15696508D02*
X11615182Y-15706031D01*
X11615182Y-15706031D02*
X11624705Y-15725079D01*
X11624705Y-15725079D02*
X11634229Y-15763174D01*
X11634229Y-15763174D02*
X11634229Y-15810793D01*
X11634229Y-15810793D02*
X11624705Y-15848888D01*
X11624705Y-15848888D02*
X11615182Y-15867936D01*
X11615182Y-15867936D02*
X11605658Y-15877460D01*
X11605658Y-15877460D02*
X11586610Y-15886984D01*
X11586610Y-15886984D02*
X11567562Y-15886984D01*
X11567562Y-15886984D02*
X11548515Y-15877460D01*
X11548515Y-15877460D02*
X11538991Y-15867936D01*
X11538991Y-15867936D02*
X11529467Y-15848888D01*
X11529467Y-15848888D02*
X11519943Y-15810793D01*
X11519943Y-15810793D02*
X11519943Y-15763174D01*
X11519943Y-15763174D02*
X11529467Y-15725079D01*
X11529467Y-15725079D02*
X11538991Y-15706031D01*
X11538991Y-15706031D02*
X11548515Y-15696508D01*
X11548515Y-15696508D02*
X11567562Y-15686984D01*
X11758039Y-15686984D02*
X11777086Y-15686984D01*
X11777086Y-15686984D02*
X11796134Y-15696508D01*
X11796134Y-15696508D02*
X11805658Y-15706031D01*
X11805658Y-15706031D02*
X11815182Y-15725079D01*
X11815182Y-15725079D02*
X11824705Y-15763174D01*
X11824705Y-15763174D02*
X11824705Y-15810793D01*
X11824705Y-15810793D02*
X11815182Y-15848888D01*
X11815182Y-15848888D02*
X11805658Y-15867936D01*
X11805658Y-15867936D02*
X11796134Y-15877460D01*
X11796134Y-15877460D02*
X11777086Y-15886984D01*
X11777086Y-15886984D02*
X11758039Y-15886984D01*
X11758039Y-15886984D02*
X11738991Y-15877460D01*
X11738991Y-15877460D02*
X11729467Y-15867936D01*
X11729467Y-15867936D02*
X11719943Y-15848888D01*
X11719943Y-15848888D02*
X11710420Y-15810793D01*
X11710420Y-15810793D02*
X11710420Y-15763174D01*
X11710420Y-15763174D02*
X11719943Y-15725079D01*
X11719943Y-15725079D02*
X11729467Y-15706031D01*
X11729467Y-15706031D02*
X11738991Y-15696508D01*
X11738991Y-15696508D02*
X11758039Y-15686984D01*
X11910420Y-15886984D02*
X11910420Y-15753650D01*
X11910420Y-15772698D02*
X11919943Y-15763174D01*
X11919943Y-15763174D02*
X11938991Y-15753650D01*
X11938991Y-15753650D02*
X11967563Y-15753650D01*
X11967563Y-15753650D02*
X11986610Y-15763174D01*
X11986610Y-15763174D02*
X11996134Y-15782222D01*
X11996134Y-15782222D02*
X11996134Y-15886984D01*
X11996134Y-15782222D02*
X12005658Y-15763174D01*
X12005658Y-15763174D02*
X12024705Y-15753650D01*
X12024705Y-15753650D02*
X12053277Y-15753650D01*
X12053277Y-15753650D02*
X12072324Y-15763174D01*
X12072324Y-15763174D02*
X12081848Y-15782222D01*
X12081848Y-15782222D02*
X12081848Y-15886984D01*
X12177086Y-15886984D02*
X12177086Y-15753650D01*
X12177086Y-15772698D02*
X12186610Y-15763174D01*
X12186610Y-15763174D02*
X12205658Y-15753650D01*
X12205658Y-15753650D02*
X12234229Y-15753650D01*
X12234229Y-15753650D02*
X12253277Y-15763174D01*
X12253277Y-15763174D02*
X12262801Y-15782222D01*
X12262801Y-15782222D02*
X12262801Y-15886984D01*
X12262801Y-15782222D02*
X12272324Y-15763174D01*
X12272324Y-15763174D02*
X12291372Y-15753650D01*
X12291372Y-15753650D02*
X12319943Y-15753650D01*
X12319943Y-15753650D02*
X12338991Y-15763174D01*
X12338991Y-15763174D02*
X12348515Y-15782222D01*
X12348515Y-15782222D02*
X12348515Y-15886984D01*
X12738991Y-15677460D02*
X12567563Y-15934603D01*
X12996134Y-15686984D02*
X13015182Y-15686984D01*
X13015182Y-15686984D02*
X13034229Y-15696508D01*
X13034229Y-15696508D02*
X13043753Y-15706031D01*
X13043753Y-15706031D02*
X13053277Y-15725079D01*
X13053277Y-15725079D02*
X13062801Y-15763174D01*
X13062801Y-15763174D02*
X13062801Y-15810793D01*
X13062801Y-15810793D02*
X13053277Y-15848888D01*
X13053277Y-15848888D02*
X13043753Y-15867936D01*
X13043753Y-15867936D02*
X13034229Y-15877460D01*
X13034229Y-15877460D02*
X13015182Y-15886984D01*
X13015182Y-15886984D02*
X12996134Y-15886984D01*
X12996134Y-15886984D02*
X12977086Y-15877460D01*
X12977086Y-15877460D02*
X12967563Y-15867936D01*
X12967563Y-15867936D02*
X12958039Y-15848888D01*
X12958039Y-15848888D02*
X12948515Y-15810793D01*
X12948515Y-15810793D02*
X12948515Y-15763174D01*
X12948515Y-15763174D02*
X12958039Y-15725079D01*
X12958039Y-15725079D02*
X12967563Y-15706031D01*
X12967563Y-15706031D02*
X12977086Y-15696508D01*
X12977086Y-15696508D02*
X12996134Y-15686984D01*
X13148515Y-15867936D02*
X13158039Y-15877460D01*
X13158039Y-15877460D02*
X13148515Y-15886984D01*
X13148515Y-15886984D02*
X13138991Y-15877460D01*
X13138991Y-15877460D02*
X13148515Y-15867936D01*
X13148515Y-15867936D02*
X13148515Y-15886984D01*
X13281848Y-15686984D02*
X13300896Y-15686984D01*
X13300896Y-15686984D02*
X13319944Y-15696508D01*
X13319944Y-15696508D02*
X13329467Y-15706031D01*
X13329467Y-15706031D02*
X13338991Y-15725079D01*
X13338991Y-15725079D02*
X13348515Y-15763174D01*
X13348515Y-15763174D02*
X13348515Y-15810793D01*
X13348515Y-15810793D02*
X13338991Y-15848888D01*
X13338991Y-15848888D02*
X13329467Y-15867936D01*
X13329467Y-15867936D02*
X13319944Y-15877460D01*
X13319944Y-15877460D02*
X13300896Y-15886984D01*
X13300896Y-15886984D02*
X13281848Y-15886984D01*
X13281848Y-15886984D02*
X13262801Y-15877460D01*
X13262801Y-15877460D02*
X13253277Y-15867936D01*
X13253277Y-15867936D02*
X13243753Y-15848888D01*
X13243753Y-15848888D02*
X13234229Y-15810793D01*
X13234229Y-15810793D02*
X13234229Y-15763174D01*
X13234229Y-15763174D02*
X13243753Y-15725079D01*
X13243753Y-15725079D02*
X13253277Y-15706031D01*
X13253277Y-15706031D02*
X13262801Y-15696508D01*
X13262801Y-15696508D02*
X13281848Y-15686984D01*
X13529467Y-15686984D02*
X13434229Y-15686984D01*
X13434229Y-15686984D02*
X13424706Y-15782222D01*
X13424706Y-15782222D02*
X13434229Y-15772698D01*
X13434229Y-15772698D02*
X13453277Y-15763174D01*
X13453277Y-15763174D02*
X13500896Y-15763174D01*
X13500896Y-15763174D02*
X13519944Y-15772698D01*
X13519944Y-15772698D02*
X13529467Y-15782222D01*
X13529467Y-15782222D02*
X13538991Y-15801269D01*
X13538991Y-15801269D02*
X13538991Y-15848888D01*
X13538991Y-15848888D02*
X13529467Y-15867936D01*
X13529467Y-15867936D02*
X13519944Y-15877460D01*
X13519944Y-15877460D02*
X13500896Y-15886984D01*
X13500896Y-15886984D02*
X13453277Y-15886984D01*
X13453277Y-15886984D02*
X13434229Y-15877460D01*
X13434229Y-15877460D02*
X13424706Y-15867936D01*
X13634229Y-15886984D02*
X13672325Y-15886984D01*
X13672325Y-15886984D02*
X13691372Y-15877460D01*
X13691372Y-15877460D02*
X13700896Y-15867936D01*
X13700896Y-15867936D02*
X13719944Y-15839365D01*
X13719944Y-15839365D02*
X13729467Y-15801269D01*
X13729467Y-15801269D02*
X13729467Y-15725079D01*
X13729467Y-15725079D02*
X13719944Y-15706031D01*
X13719944Y-15706031D02*
X13710420Y-15696508D01*
X13710420Y-15696508D02*
X13691372Y-15686984D01*
X13691372Y-15686984D02*
X13653277Y-15686984D01*
X13653277Y-15686984D02*
X13634229Y-15696508D01*
X13634229Y-15696508D02*
X13624706Y-15706031D01*
X13624706Y-15706031D02*
X13615182Y-15725079D01*
X13615182Y-15725079D02*
X13615182Y-15772698D01*
X13615182Y-15772698D02*
X13624706Y-15791746D01*
X13624706Y-15791746D02*
X13634229Y-15801269D01*
X13634229Y-15801269D02*
X13653277Y-15810793D01*
X13653277Y-15810793D02*
X13691372Y-15810793D01*
X13691372Y-15810793D02*
X13710420Y-15801269D01*
X13710420Y-15801269D02*
X13719944Y-15791746D01*
X13719944Y-15791746D02*
X13729467Y-15772698D01*
X13919944Y-15886984D02*
X13805658Y-15886984D01*
X13862801Y-15886984D02*
X13862801Y-15686984D01*
X13862801Y-15686984D02*
X13843753Y-15715555D01*
X13843753Y-15715555D02*
X13824706Y-15734603D01*
X13824706Y-15734603D02*
X13805658Y-15744127D01*
X13996134Y-15686984D02*
X13996134Y-15725079D01*
X14072325Y-15686984D02*
X14072325Y-15725079D01*
X14367563Y-15963174D02*
X14358039Y-15953650D01*
X14358039Y-15953650D02*
X14338991Y-15925079D01*
X14338991Y-15925079D02*
X14329468Y-15906031D01*
X14329468Y-15906031D02*
X14319944Y-15877460D01*
X14319944Y-15877460D02*
X14310420Y-15829841D01*
X14310420Y-15829841D02*
X14310420Y-15791746D01*
X14310420Y-15791746D02*
X14319944Y-15744127D01*
X14319944Y-15744127D02*
X14329468Y-15715555D01*
X14329468Y-15715555D02*
X14338991Y-15696508D01*
X14338991Y-15696508D02*
X14358039Y-15667936D01*
X14358039Y-15667936D02*
X14367563Y-15658412D01*
X14424706Y-15686984D02*
X14548515Y-15686984D01*
X14548515Y-15686984D02*
X14481848Y-15763174D01*
X14481848Y-15763174D02*
X14510420Y-15763174D01*
X14510420Y-15763174D02*
X14529468Y-15772698D01*
X14529468Y-15772698D02*
X14538991Y-15782222D01*
X14538991Y-15782222D02*
X14548515Y-15801269D01*
X14548515Y-15801269D02*
X14548515Y-15848888D01*
X14548515Y-15848888D02*
X14538991Y-15867936D01*
X14538991Y-15867936D02*
X14529468Y-15877460D01*
X14529468Y-15877460D02*
X14510420Y-15886984D01*
X14510420Y-15886984D02*
X14453277Y-15886984D01*
X14453277Y-15886984D02*
X14434229Y-15877460D01*
X14434229Y-15877460D02*
X14424706Y-15867936D01*
X14729468Y-15686984D02*
X14634229Y-15686984D01*
X14634229Y-15686984D02*
X14624706Y-15782222D01*
X14624706Y-15782222D02*
X14634229Y-15772698D01*
X14634229Y-15772698D02*
X14653277Y-15763174D01*
X14653277Y-15763174D02*
X14700896Y-15763174D01*
X14700896Y-15763174D02*
X14719944Y-15772698D01*
X14719944Y-15772698D02*
X14729468Y-15782222D01*
X14729468Y-15782222D02*
X14738991Y-15801269D01*
X14738991Y-15801269D02*
X14738991Y-15848888D01*
X14738991Y-15848888D02*
X14729468Y-15867936D01*
X14729468Y-15867936D02*
X14719944Y-15877460D01*
X14719944Y-15877460D02*
X14700896Y-15886984D01*
X14700896Y-15886984D02*
X14653277Y-15886984D01*
X14653277Y-15886984D02*
X14634229Y-15877460D01*
X14634229Y-15877460D02*
X14624706Y-15867936D01*
X14977087Y-15886984D02*
X14977087Y-15686984D01*
X15062801Y-15886984D02*
X15062801Y-15782222D01*
X15062801Y-15782222D02*
X15053277Y-15763174D01*
X15053277Y-15763174D02*
X15034230Y-15753650D01*
X15034230Y-15753650D02*
X15005658Y-15753650D01*
X15005658Y-15753650D02*
X14986610Y-15763174D01*
X14986610Y-15763174D02*
X14977087Y-15772698D01*
X15186610Y-15886984D02*
X15167563Y-15877460D01*
X15167563Y-15877460D02*
X15158039Y-15867936D01*
X15158039Y-15867936D02*
X15148515Y-15848888D01*
X15148515Y-15848888D02*
X15148515Y-15791746D01*
X15148515Y-15791746D02*
X15158039Y-15772698D01*
X15158039Y-15772698D02*
X15167563Y-15763174D01*
X15167563Y-15763174D02*
X15186610Y-15753650D01*
X15186610Y-15753650D02*
X15215182Y-15753650D01*
X15215182Y-15753650D02*
X15234230Y-15763174D01*
X15234230Y-15763174D02*
X15243753Y-15772698D01*
X15243753Y-15772698D02*
X15253277Y-15791746D01*
X15253277Y-15791746D02*
X15253277Y-15848888D01*
X15253277Y-15848888D02*
X15243753Y-15867936D01*
X15243753Y-15867936D02*
X15234230Y-15877460D01*
X15234230Y-15877460D02*
X15215182Y-15886984D01*
X15215182Y-15886984D02*
X15186610Y-15886984D01*
X15367563Y-15886984D02*
X15348515Y-15877460D01*
X15348515Y-15877460D02*
X15338991Y-15858412D01*
X15338991Y-15858412D02*
X15338991Y-15686984D01*
X15519944Y-15877460D02*
X15500896Y-15886984D01*
X15500896Y-15886984D02*
X15462801Y-15886984D01*
X15462801Y-15886984D02*
X15443753Y-15877460D01*
X15443753Y-15877460D02*
X15434230Y-15858412D01*
X15434230Y-15858412D02*
X15434230Y-15782222D01*
X15434230Y-15782222D02*
X15443753Y-15763174D01*
X15443753Y-15763174D02*
X15462801Y-15753650D01*
X15462801Y-15753650D02*
X15500896Y-15753650D01*
X15500896Y-15753650D02*
X15519944Y-15763174D01*
X15519944Y-15763174D02*
X15529468Y-15782222D01*
X15529468Y-15782222D02*
X15529468Y-15801269D01*
X15529468Y-15801269D02*
X15434230Y-15820317D01*
X15605658Y-15877460D02*
X15624706Y-15886984D01*
X15624706Y-15886984D02*
X15662801Y-15886984D01*
X15662801Y-15886984D02*
X15681849Y-15877460D01*
X15681849Y-15877460D02*
X15691372Y-15858412D01*
X15691372Y-15858412D02*
X15691372Y-15848888D01*
X15691372Y-15848888D02*
X15681849Y-15829841D01*
X15681849Y-15829841D02*
X15662801Y-15820317D01*
X15662801Y-15820317D02*
X15634230Y-15820317D01*
X15634230Y-15820317D02*
X15615182Y-15810793D01*
X15615182Y-15810793D02*
X15605658Y-15791746D01*
X15605658Y-15791746D02*
X15605658Y-15782222D01*
X15605658Y-15782222D02*
X15615182Y-15763174D01*
X15615182Y-15763174D02*
X15634230Y-15753650D01*
X15634230Y-15753650D02*
X15662801Y-15753650D01*
X15662801Y-15753650D02*
X15681849Y-15763174D01*
X15758039Y-15963174D02*
X15767563Y-15953650D01*
X15767563Y-15953650D02*
X15786611Y-15925079D01*
X15786611Y-15925079D02*
X15796134Y-15906031D01*
X15796134Y-15906031D02*
X15805658Y-15877460D01*
X15805658Y-15877460D02*
X15815182Y-15829841D01*
X15815182Y-15829841D02*
X15815182Y-15791746D01*
X15815182Y-15791746D02*
X15805658Y-15744127D01*
X15805658Y-15744127D02*
X15796134Y-15715555D01*
X15796134Y-15715555D02*
X15786611Y-15696508D01*
X15786611Y-15696508D02*
X15767563Y-15667936D01*
X15767563Y-15667936D02*
X15758039Y-15658412D01*
X10592500Y-15965500D02*
X10792500Y-16165500D01*
X10792500Y-15965500D02*
X10592500Y-16165500D01*
X10792500Y-16065500D02*
G75*
G02*
X10592500Y-16065500I-100000J0D01*
G01*
X10592500Y-16065500D02*
G75*
G02*
X10792500Y-16065500I100000J0D01*
G01*
X11034229Y-15956984D02*
X11158039Y-15956984D01*
X11158039Y-15956984D02*
X11091372Y-16033174D01*
X11091372Y-16033174D02*
X11119944Y-16033174D01*
X11119944Y-16033174D02*
X11138991Y-16042698D01*
X11138991Y-16042698D02*
X11148515Y-16052222D01*
X11148515Y-16052222D02*
X11158039Y-16071269D01*
X11158039Y-16071269D02*
X11158039Y-16118888D01*
X11158039Y-16118888D02*
X11148515Y-16137936D01*
X11148515Y-16137936D02*
X11138991Y-16147460D01*
X11138991Y-16147460D02*
X11119944Y-16156984D01*
X11119944Y-16156984D02*
X11062801Y-16156984D01*
X11062801Y-16156984D02*
X11043753Y-16147460D01*
X11043753Y-16147460D02*
X11034229Y-16137936D01*
X11243753Y-16137936D02*
X11253277Y-16147460D01*
X11253277Y-16147460D02*
X11243753Y-16156984D01*
X11243753Y-16156984D02*
X11234229Y-16147460D01*
X11234229Y-16147460D02*
X11243753Y-16137936D01*
X11243753Y-16137936D02*
X11243753Y-16156984D01*
X11329467Y-15976031D02*
X11338991Y-15966508D01*
X11338991Y-15966508D02*
X11358039Y-15956984D01*
X11358039Y-15956984D02*
X11405658Y-15956984D01*
X11405658Y-15956984D02*
X11424705Y-15966508D01*
X11424705Y-15966508D02*
X11434229Y-15976031D01*
X11434229Y-15976031D02*
X11443753Y-15995079D01*
X11443753Y-15995079D02*
X11443753Y-16014127D01*
X11443753Y-16014127D02*
X11434229Y-16042698D01*
X11434229Y-16042698D02*
X11319943Y-16156984D01*
X11319943Y-16156984D02*
X11443753Y-16156984D01*
X11567562Y-15956984D02*
X11586610Y-15956984D01*
X11586610Y-15956984D02*
X11605658Y-15966508D01*
X11605658Y-15966508D02*
X11615182Y-15976031D01*
X11615182Y-15976031D02*
X11624705Y-15995079D01*
X11624705Y-15995079D02*
X11634229Y-16033174D01*
X11634229Y-16033174D02*
X11634229Y-16080793D01*
X11634229Y-16080793D02*
X11624705Y-16118888D01*
X11624705Y-16118888D02*
X11615182Y-16137936D01*
X11615182Y-16137936D02*
X11605658Y-16147460D01*
X11605658Y-16147460D02*
X11586610Y-16156984D01*
X11586610Y-16156984D02*
X11567562Y-16156984D01*
X11567562Y-16156984D02*
X11548515Y-16147460D01*
X11548515Y-16147460D02*
X11538991Y-16137936D01*
X11538991Y-16137936D02*
X11529467Y-16118888D01*
X11529467Y-16118888D02*
X11519943Y-16080793D01*
X11519943Y-16080793D02*
X11519943Y-16033174D01*
X11519943Y-16033174D02*
X11529467Y-15995079D01*
X11529467Y-15995079D02*
X11538991Y-15976031D01*
X11538991Y-15976031D02*
X11548515Y-15966508D01*
X11548515Y-15966508D02*
X11567562Y-15956984D01*
X11758039Y-15956984D02*
X11777086Y-15956984D01*
X11777086Y-15956984D02*
X11796134Y-15966508D01*
X11796134Y-15966508D02*
X11805658Y-15976031D01*
X11805658Y-15976031D02*
X11815182Y-15995079D01*
X11815182Y-15995079D02*
X11824705Y-16033174D01*
X11824705Y-16033174D02*
X11824705Y-16080793D01*
X11824705Y-16080793D02*
X11815182Y-16118888D01*
X11815182Y-16118888D02*
X11805658Y-16137936D01*
X11805658Y-16137936D02*
X11796134Y-16147460D01*
X11796134Y-16147460D02*
X11777086Y-16156984D01*
X11777086Y-16156984D02*
X11758039Y-16156984D01*
X11758039Y-16156984D02*
X11738991Y-16147460D01*
X11738991Y-16147460D02*
X11729467Y-16137936D01*
X11729467Y-16137936D02*
X11719943Y-16118888D01*
X11719943Y-16118888D02*
X11710420Y-16080793D01*
X11710420Y-16080793D02*
X11710420Y-16033174D01*
X11710420Y-16033174D02*
X11719943Y-15995079D01*
X11719943Y-15995079D02*
X11729467Y-15976031D01*
X11729467Y-15976031D02*
X11738991Y-15966508D01*
X11738991Y-15966508D02*
X11758039Y-15956984D01*
X11910420Y-16156984D02*
X11910420Y-16023650D01*
X11910420Y-16042698D02*
X11919943Y-16033174D01*
X11919943Y-16033174D02*
X11938991Y-16023650D01*
X11938991Y-16023650D02*
X11967563Y-16023650D01*
X11967563Y-16023650D02*
X11986610Y-16033174D01*
X11986610Y-16033174D02*
X11996134Y-16052222D01*
X11996134Y-16052222D02*
X11996134Y-16156984D01*
X11996134Y-16052222D02*
X12005658Y-16033174D01*
X12005658Y-16033174D02*
X12024705Y-16023650D01*
X12024705Y-16023650D02*
X12053277Y-16023650D01*
X12053277Y-16023650D02*
X12072324Y-16033174D01*
X12072324Y-16033174D02*
X12081848Y-16052222D01*
X12081848Y-16052222D02*
X12081848Y-16156984D01*
X12177086Y-16156984D02*
X12177086Y-16023650D01*
X12177086Y-16042698D02*
X12186610Y-16033174D01*
X12186610Y-16033174D02*
X12205658Y-16023650D01*
X12205658Y-16023650D02*
X12234229Y-16023650D01*
X12234229Y-16023650D02*
X12253277Y-16033174D01*
X12253277Y-16033174D02*
X12262801Y-16052222D01*
X12262801Y-16052222D02*
X12262801Y-16156984D01*
X12262801Y-16052222D02*
X12272324Y-16033174D01*
X12272324Y-16033174D02*
X12291372Y-16023650D01*
X12291372Y-16023650D02*
X12319943Y-16023650D01*
X12319943Y-16023650D02*
X12338991Y-16033174D01*
X12338991Y-16033174D02*
X12348515Y-16052222D01*
X12348515Y-16052222D02*
X12348515Y-16156984D01*
X12738991Y-15947460D02*
X12567563Y-16204603D01*
X12996134Y-15956984D02*
X13015182Y-15956984D01*
X13015182Y-15956984D02*
X13034229Y-15966508D01*
X13034229Y-15966508D02*
X13043753Y-15976031D01*
X13043753Y-15976031D02*
X13053277Y-15995079D01*
X13053277Y-15995079D02*
X13062801Y-16033174D01*
X13062801Y-16033174D02*
X13062801Y-16080793D01*
X13062801Y-16080793D02*
X13053277Y-16118888D01*
X13053277Y-16118888D02*
X13043753Y-16137936D01*
X13043753Y-16137936D02*
X13034229Y-16147460D01*
X13034229Y-16147460D02*
X13015182Y-16156984D01*
X13015182Y-16156984D02*
X12996134Y-16156984D01*
X12996134Y-16156984D02*
X12977086Y-16147460D01*
X12977086Y-16147460D02*
X12967563Y-16137936D01*
X12967563Y-16137936D02*
X12958039Y-16118888D01*
X12958039Y-16118888D02*
X12948515Y-16080793D01*
X12948515Y-16080793D02*
X12948515Y-16033174D01*
X12948515Y-16033174D02*
X12958039Y-15995079D01*
X12958039Y-15995079D02*
X12967563Y-15976031D01*
X12967563Y-15976031D02*
X12977086Y-15966508D01*
X12977086Y-15966508D02*
X12996134Y-15956984D01*
X13148515Y-16137936D02*
X13158039Y-16147460D01*
X13158039Y-16147460D02*
X13148515Y-16156984D01*
X13148515Y-16156984D02*
X13138991Y-16147460D01*
X13138991Y-16147460D02*
X13148515Y-16137936D01*
X13148515Y-16137936D02*
X13148515Y-16156984D01*
X13348515Y-16156984D02*
X13234229Y-16156984D01*
X13291372Y-16156984D02*
X13291372Y-15956984D01*
X13291372Y-15956984D02*
X13272325Y-15985555D01*
X13272325Y-15985555D02*
X13253277Y-16004603D01*
X13253277Y-16004603D02*
X13234229Y-16014127D01*
X13424706Y-15976031D02*
X13434229Y-15966508D01*
X13434229Y-15966508D02*
X13453277Y-15956984D01*
X13453277Y-15956984D02*
X13500896Y-15956984D01*
X13500896Y-15956984D02*
X13519944Y-15966508D01*
X13519944Y-15966508D02*
X13529467Y-15976031D01*
X13529467Y-15976031D02*
X13538991Y-15995079D01*
X13538991Y-15995079D02*
X13538991Y-16014127D01*
X13538991Y-16014127D02*
X13529467Y-16042698D01*
X13529467Y-16042698D02*
X13415182Y-16156984D01*
X13415182Y-16156984D02*
X13538991Y-16156984D01*
X13710420Y-15956984D02*
X13672325Y-15956984D01*
X13672325Y-15956984D02*
X13653277Y-15966508D01*
X13653277Y-15966508D02*
X13643753Y-15976031D01*
X13643753Y-15976031D02*
X13624706Y-16004603D01*
X13624706Y-16004603D02*
X13615182Y-16042698D01*
X13615182Y-16042698D02*
X13615182Y-16118888D01*
X13615182Y-16118888D02*
X13624706Y-16137936D01*
X13624706Y-16137936D02*
X13634229Y-16147460D01*
X13634229Y-16147460D02*
X13653277Y-16156984D01*
X13653277Y-16156984D02*
X13691372Y-16156984D01*
X13691372Y-16156984D02*
X13710420Y-16147460D01*
X13710420Y-16147460D02*
X13719944Y-16137936D01*
X13719944Y-16137936D02*
X13729467Y-16118888D01*
X13729467Y-16118888D02*
X13729467Y-16071269D01*
X13729467Y-16071269D02*
X13719944Y-16052222D01*
X13719944Y-16052222D02*
X13710420Y-16042698D01*
X13710420Y-16042698D02*
X13691372Y-16033174D01*
X13691372Y-16033174D02*
X13653277Y-16033174D01*
X13653277Y-16033174D02*
X13634229Y-16042698D01*
X13634229Y-16042698D02*
X13624706Y-16052222D01*
X13624706Y-16052222D02*
X13615182Y-16071269D01*
X13853277Y-15956984D02*
X13872325Y-15956984D01*
X13872325Y-15956984D02*
X13891372Y-15966508D01*
X13891372Y-15966508D02*
X13900896Y-15976031D01*
X13900896Y-15976031D02*
X13910420Y-15995079D01*
X13910420Y-15995079D02*
X13919944Y-16033174D01*
X13919944Y-16033174D02*
X13919944Y-16080793D01*
X13919944Y-16080793D02*
X13910420Y-16118888D01*
X13910420Y-16118888D02*
X13900896Y-16137936D01*
X13900896Y-16137936D02*
X13891372Y-16147460D01*
X13891372Y-16147460D02*
X13872325Y-16156984D01*
X13872325Y-16156984D02*
X13853277Y-16156984D01*
X13853277Y-16156984D02*
X13834229Y-16147460D01*
X13834229Y-16147460D02*
X13824706Y-16137936D01*
X13824706Y-16137936D02*
X13815182Y-16118888D01*
X13815182Y-16118888D02*
X13805658Y-16080793D01*
X13805658Y-16080793D02*
X13805658Y-16033174D01*
X13805658Y-16033174D02*
X13815182Y-15995079D01*
X13815182Y-15995079D02*
X13824706Y-15976031D01*
X13824706Y-15976031D02*
X13834229Y-15966508D01*
X13834229Y-15966508D02*
X13853277Y-15956984D01*
X13996134Y-15956984D02*
X13996134Y-15995079D01*
X14072325Y-15956984D02*
X14072325Y-15995079D01*
X14367563Y-16233174D02*
X14358039Y-16223650D01*
X14358039Y-16223650D02*
X14338991Y-16195079D01*
X14338991Y-16195079D02*
X14329468Y-16176031D01*
X14329468Y-16176031D02*
X14319944Y-16147460D01*
X14319944Y-16147460D02*
X14310420Y-16099841D01*
X14310420Y-16099841D02*
X14310420Y-16061746D01*
X14310420Y-16061746D02*
X14319944Y-16014127D01*
X14319944Y-16014127D02*
X14329468Y-15985555D01*
X14329468Y-15985555D02*
X14338991Y-15966508D01*
X14338991Y-15966508D02*
X14358039Y-15937936D01*
X14358039Y-15937936D02*
X14367563Y-15928412D01*
X14529468Y-16023650D02*
X14529468Y-16156984D01*
X14481848Y-15947460D02*
X14434229Y-16090317D01*
X14434229Y-16090317D02*
X14558039Y-16090317D01*
X14786610Y-16156984D02*
X14786610Y-15956984D01*
X14872325Y-16156984D02*
X14872325Y-16052222D01*
X14872325Y-16052222D02*
X14862801Y-16033174D01*
X14862801Y-16033174D02*
X14843753Y-16023650D01*
X14843753Y-16023650D02*
X14815182Y-16023650D01*
X14815182Y-16023650D02*
X14796134Y-16033174D01*
X14796134Y-16033174D02*
X14786610Y-16042698D01*
X14996134Y-16156984D02*
X14977087Y-16147460D01*
X14977087Y-16147460D02*
X14967563Y-16137936D01*
X14967563Y-16137936D02*
X14958039Y-16118888D01*
X14958039Y-16118888D02*
X14958039Y-16061746D01*
X14958039Y-16061746D02*
X14967563Y-16042698D01*
X14967563Y-16042698D02*
X14977087Y-16033174D01*
X14977087Y-16033174D02*
X14996134Y-16023650D01*
X14996134Y-16023650D02*
X15024706Y-16023650D01*
X15024706Y-16023650D02*
X15043753Y-16033174D01*
X15043753Y-16033174D02*
X15053277Y-16042698D01*
X15053277Y-16042698D02*
X15062801Y-16061746D01*
X15062801Y-16061746D02*
X15062801Y-16118888D01*
X15062801Y-16118888D02*
X15053277Y-16137936D01*
X15053277Y-16137936D02*
X15043753Y-16147460D01*
X15043753Y-16147460D02*
X15024706Y-16156984D01*
X15024706Y-16156984D02*
X14996134Y-16156984D01*
X15177087Y-16156984D02*
X15158039Y-16147460D01*
X15158039Y-16147460D02*
X15148515Y-16128412D01*
X15148515Y-16128412D02*
X15148515Y-15956984D01*
X15329468Y-16147460D02*
X15310420Y-16156984D01*
X15310420Y-16156984D02*
X15272325Y-16156984D01*
X15272325Y-16156984D02*
X15253277Y-16147460D01*
X15253277Y-16147460D02*
X15243753Y-16128412D01*
X15243753Y-16128412D02*
X15243753Y-16052222D01*
X15243753Y-16052222D02*
X15253277Y-16033174D01*
X15253277Y-16033174D02*
X15272325Y-16023650D01*
X15272325Y-16023650D02*
X15310420Y-16023650D01*
X15310420Y-16023650D02*
X15329468Y-16033174D01*
X15329468Y-16033174D02*
X15338991Y-16052222D01*
X15338991Y-16052222D02*
X15338991Y-16071269D01*
X15338991Y-16071269D02*
X15243753Y-16090317D01*
X15415182Y-16147460D02*
X15434230Y-16156984D01*
X15434230Y-16156984D02*
X15472325Y-16156984D01*
X15472325Y-16156984D02*
X15491372Y-16147460D01*
X15491372Y-16147460D02*
X15500896Y-16128412D01*
X15500896Y-16128412D02*
X15500896Y-16118888D01*
X15500896Y-16118888D02*
X15491372Y-16099841D01*
X15491372Y-16099841D02*
X15472325Y-16090317D01*
X15472325Y-16090317D02*
X15443753Y-16090317D01*
X15443753Y-16090317D02*
X15424706Y-16080793D01*
X15424706Y-16080793D02*
X15415182Y-16061746D01*
X15415182Y-16061746D02*
X15415182Y-16052222D01*
X15415182Y-16052222D02*
X15424706Y-16033174D01*
X15424706Y-16033174D02*
X15443753Y-16023650D01*
X15443753Y-16023650D02*
X15472325Y-16023650D01*
X15472325Y-16023650D02*
X15491372Y-16033174D01*
X15567563Y-16233174D02*
X15577087Y-16223650D01*
X15577087Y-16223650D02*
X15596134Y-16195079D01*
X15596134Y-16195079D02*
X15605658Y-16176031D01*
X15605658Y-16176031D02*
X15615182Y-16147460D01*
X15615182Y-16147460D02*
X15624706Y-16099841D01*
X15624706Y-16099841D02*
X15624706Y-16061746D01*
X15624706Y-16061746D02*
X15615182Y-16014127D01*
X15615182Y-16014127D02*
X15605658Y-15985555D01*
X15605658Y-15985555D02*
X15596134Y-15966508D01*
X15596134Y-15966508D02*
X15577087Y-15937936D01*
X15577087Y-15937936D02*
X15567563Y-15928412D01*
X10592500Y-16285500D02*
X10792500Y-16485500D01*
X10792500Y-16285500D02*
X10592500Y-16485500D01*
X10692500Y-16285500D02*
X10692500Y-16485500D01*
X10592500Y-16385500D02*
X10792500Y-16385500D01*
X11148515Y-16276984D02*
X11053277Y-16276984D01*
X11053277Y-16276984D02*
X11043753Y-16372222D01*
X11043753Y-16372222D02*
X11053277Y-16362698D01*
X11053277Y-16362698D02*
X11072324Y-16353174D01*
X11072324Y-16353174D02*
X11119944Y-16353174D01*
X11119944Y-16353174D02*
X11138991Y-16362698D01*
X11138991Y-16362698D02*
X11148515Y-16372222D01*
X11148515Y-16372222D02*
X11158039Y-16391269D01*
X11158039Y-16391269D02*
X11158039Y-16438888D01*
X11158039Y-16438888D02*
X11148515Y-16457936D01*
X11148515Y-16457936D02*
X11138991Y-16467460D01*
X11138991Y-16467460D02*
X11119944Y-16476984D01*
X11119944Y-16476984D02*
X11072324Y-16476984D01*
X11072324Y-16476984D02*
X11053277Y-16467460D01*
X11053277Y-16467460D02*
X11043753Y-16457936D01*
X11243753Y-16457936D02*
X11253277Y-16467460D01*
X11253277Y-16467460D02*
X11243753Y-16476984D01*
X11243753Y-16476984D02*
X11234229Y-16467460D01*
X11234229Y-16467460D02*
X11243753Y-16457936D01*
X11243753Y-16457936D02*
X11243753Y-16476984D01*
X11367562Y-16362698D02*
X11348515Y-16353174D01*
X11348515Y-16353174D02*
X11338991Y-16343650D01*
X11338991Y-16343650D02*
X11329467Y-16324603D01*
X11329467Y-16324603D02*
X11329467Y-16315079D01*
X11329467Y-16315079D02*
X11338991Y-16296031D01*
X11338991Y-16296031D02*
X11348515Y-16286508D01*
X11348515Y-16286508D02*
X11367562Y-16276984D01*
X11367562Y-16276984D02*
X11405658Y-16276984D01*
X11405658Y-16276984D02*
X11424705Y-16286508D01*
X11424705Y-16286508D02*
X11434229Y-16296031D01*
X11434229Y-16296031D02*
X11443753Y-16315079D01*
X11443753Y-16315079D02*
X11443753Y-16324603D01*
X11443753Y-16324603D02*
X11434229Y-16343650D01*
X11434229Y-16343650D02*
X11424705Y-16353174D01*
X11424705Y-16353174D02*
X11405658Y-16362698D01*
X11405658Y-16362698D02*
X11367562Y-16362698D01*
X11367562Y-16362698D02*
X11348515Y-16372222D01*
X11348515Y-16372222D02*
X11338991Y-16381746D01*
X11338991Y-16381746D02*
X11329467Y-16400793D01*
X11329467Y-16400793D02*
X11329467Y-16438888D01*
X11329467Y-16438888D02*
X11338991Y-16457936D01*
X11338991Y-16457936D02*
X11348515Y-16467460D01*
X11348515Y-16467460D02*
X11367562Y-16476984D01*
X11367562Y-16476984D02*
X11405658Y-16476984D01*
X11405658Y-16476984D02*
X11424705Y-16467460D01*
X11424705Y-16467460D02*
X11434229Y-16457936D01*
X11434229Y-16457936D02*
X11443753Y-16438888D01*
X11443753Y-16438888D02*
X11443753Y-16400793D01*
X11443753Y-16400793D02*
X11434229Y-16381746D01*
X11434229Y-16381746D02*
X11424705Y-16372222D01*
X11424705Y-16372222D02*
X11405658Y-16362698D01*
X11567562Y-16276984D02*
X11586610Y-16276984D01*
X11586610Y-16276984D02*
X11605658Y-16286508D01*
X11605658Y-16286508D02*
X11615182Y-16296031D01*
X11615182Y-16296031D02*
X11624705Y-16315079D01*
X11624705Y-16315079D02*
X11634229Y-16353174D01*
X11634229Y-16353174D02*
X11634229Y-16400793D01*
X11634229Y-16400793D02*
X11624705Y-16438888D01*
X11624705Y-16438888D02*
X11615182Y-16457936D01*
X11615182Y-16457936D02*
X11605658Y-16467460D01*
X11605658Y-16467460D02*
X11586610Y-16476984D01*
X11586610Y-16476984D02*
X11567562Y-16476984D01*
X11567562Y-16476984D02*
X11548515Y-16467460D01*
X11548515Y-16467460D02*
X11538991Y-16457936D01*
X11538991Y-16457936D02*
X11529467Y-16438888D01*
X11529467Y-16438888D02*
X11519943Y-16400793D01*
X11519943Y-16400793D02*
X11519943Y-16353174D01*
X11519943Y-16353174D02*
X11529467Y-16315079D01*
X11529467Y-16315079D02*
X11538991Y-16296031D01*
X11538991Y-16296031D02*
X11548515Y-16286508D01*
X11548515Y-16286508D02*
X11567562Y-16276984D01*
X11758039Y-16276984D02*
X11777086Y-16276984D01*
X11777086Y-16276984D02*
X11796134Y-16286508D01*
X11796134Y-16286508D02*
X11805658Y-16296031D01*
X11805658Y-16296031D02*
X11815182Y-16315079D01*
X11815182Y-16315079D02*
X11824705Y-16353174D01*
X11824705Y-16353174D02*
X11824705Y-16400793D01*
X11824705Y-16400793D02*
X11815182Y-16438888D01*
X11815182Y-16438888D02*
X11805658Y-16457936D01*
X11805658Y-16457936D02*
X11796134Y-16467460D01*
X11796134Y-16467460D02*
X11777086Y-16476984D01*
X11777086Y-16476984D02*
X11758039Y-16476984D01*
X11758039Y-16476984D02*
X11738991Y-16467460D01*
X11738991Y-16467460D02*
X11729467Y-16457936D01*
X11729467Y-16457936D02*
X11719943Y-16438888D01*
X11719943Y-16438888D02*
X11710420Y-16400793D01*
X11710420Y-16400793D02*
X11710420Y-16353174D01*
X11710420Y-16353174D02*
X11719943Y-16315079D01*
X11719943Y-16315079D02*
X11729467Y-16296031D01*
X11729467Y-16296031D02*
X11738991Y-16286508D01*
X11738991Y-16286508D02*
X11758039Y-16276984D01*
X11910420Y-16476984D02*
X11910420Y-16343650D01*
X11910420Y-16362698D02*
X11919943Y-16353174D01*
X11919943Y-16353174D02*
X11938991Y-16343650D01*
X11938991Y-16343650D02*
X11967563Y-16343650D01*
X11967563Y-16343650D02*
X11986610Y-16353174D01*
X11986610Y-16353174D02*
X11996134Y-16372222D01*
X11996134Y-16372222D02*
X11996134Y-16476984D01*
X11996134Y-16372222D02*
X12005658Y-16353174D01*
X12005658Y-16353174D02*
X12024705Y-16343650D01*
X12024705Y-16343650D02*
X12053277Y-16343650D01*
X12053277Y-16343650D02*
X12072324Y-16353174D01*
X12072324Y-16353174D02*
X12081848Y-16372222D01*
X12081848Y-16372222D02*
X12081848Y-16476984D01*
X12177086Y-16476984D02*
X12177086Y-16343650D01*
X12177086Y-16362698D02*
X12186610Y-16353174D01*
X12186610Y-16353174D02*
X12205658Y-16343650D01*
X12205658Y-16343650D02*
X12234229Y-16343650D01*
X12234229Y-16343650D02*
X12253277Y-16353174D01*
X12253277Y-16353174D02*
X12262801Y-16372222D01*
X12262801Y-16372222D02*
X12262801Y-16476984D01*
X12262801Y-16372222D02*
X12272324Y-16353174D01*
X12272324Y-16353174D02*
X12291372Y-16343650D01*
X12291372Y-16343650D02*
X12319943Y-16343650D01*
X12319943Y-16343650D02*
X12338991Y-16353174D01*
X12338991Y-16353174D02*
X12348515Y-16372222D01*
X12348515Y-16372222D02*
X12348515Y-16476984D01*
X12738991Y-16267460D02*
X12567563Y-16524603D01*
X12996134Y-16276984D02*
X13015182Y-16276984D01*
X13015182Y-16276984D02*
X13034229Y-16286508D01*
X13034229Y-16286508D02*
X13043753Y-16296031D01*
X13043753Y-16296031D02*
X13053277Y-16315079D01*
X13053277Y-16315079D02*
X13062801Y-16353174D01*
X13062801Y-16353174D02*
X13062801Y-16400793D01*
X13062801Y-16400793D02*
X13053277Y-16438888D01*
X13053277Y-16438888D02*
X13043753Y-16457936D01*
X13043753Y-16457936D02*
X13034229Y-16467460D01*
X13034229Y-16467460D02*
X13015182Y-16476984D01*
X13015182Y-16476984D02*
X12996134Y-16476984D01*
X12996134Y-16476984D02*
X12977086Y-16467460D01*
X12977086Y-16467460D02*
X12967563Y-16457936D01*
X12967563Y-16457936D02*
X12958039Y-16438888D01*
X12958039Y-16438888D02*
X12948515Y-16400793D01*
X12948515Y-16400793D02*
X12948515Y-16353174D01*
X12948515Y-16353174D02*
X12958039Y-16315079D01*
X12958039Y-16315079D02*
X12967563Y-16296031D01*
X12967563Y-16296031D02*
X12977086Y-16286508D01*
X12977086Y-16286508D02*
X12996134Y-16276984D01*
X13148515Y-16457936D02*
X13158039Y-16467460D01*
X13158039Y-16467460D02*
X13148515Y-16476984D01*
X13148515Y-16476984D02*
X13138991Y-16467460D01*
X13138991Y-16467460D02*
X13148515Y-16457936D01*
X13148515Y-16457936D02*
X13148515Y-16476984D01*
X13234229Y-16296031D02*
X13243753Y-16286508D01*
X13243753Y-16286508D02*
X13262801Y-16276984D01*
X13262801Y-16276984D02*
X13310420Y-16276984D01*
X13310420Y-16276984D02*
X13329467Y-16286508D01*
X13329467Y-16286508D02*
X13338991Y-16296031D01*
X13338991Y-16296031D02*
X13348515Y-16315079D01*
X13348515Y-16315079D02*
X13348515Y-16334127D01*
X13348515Y-16334127D02*
X13338991Y-16362698D01*
X13338991Y-16362698D02*
X13224706Y-16476984D01*
X13224706Y-16476984D02*
X13348515Y-16476984D01*
X13424706Y-16296031D02*
X13434229Y-16286508D01*
X13434229Y-16286508D02*
X13453277Y-16276984D01*
X13453277Y-16276984D02*
X13500896Y-16276984D01*
X13500896Y-16276984D02*
X13519944Y-16286508D01*
X13519944Y-16286508D02*
X13529467Y-16296031D01*
X13529467Y-16296031D02*
X13538991Y-16315079D01*
X13538991Y-16315079D02*
X13538991Y-16334127D01*
X13538991Y-16334127D02*
X13529467Y-16362698D01*
X13529467Y-16362698D02*
X13415182Y-16476984D01*
X13415182Y-16476984D02*
X13538991Y-16476984D01*
X13653277Y-16362698D02*
X13634229Y-16353174D01*
X13634229Y-16353174D02*
X13624706Y-16343650D01*
X13624706Y-16343650D02*
X13615182Y-16324603D01*
X13615182Y-16324603D02*
X13615182Y-16315079D01*
X13615182Y-16315079D02*
X13624706Y-16296031D01*
X13624706Y-16296031D02*
X13634229Y-16286508D01*
X13634229Y-16286508D02*
X13653277Y-16276984D01*
X13653277Y-16276984D02*
X13691372Y-16276984D01*
X13691372Y-16276984D02*
X13710420Y-16286508D01*
X13710420Y-16286508D02*
X13719944Y-16296031D01*
X13719944Y-16296031D02*
X13729467Y-16315079D01*
X13729467Y-16315079D02*
X13729467Y-16324603D01*
X13729467Y-16324603D02*
X13719944Y-16343650D01*
X13719944Y-16343650D02*
X13710420Y-16353174D01*
X13710420Y-16353174D02*
X13691372Y-16362698D01*
X13691372Y-16362698D02*
X13653277Y-16362698D01*
X13653277Y-16362698D02*
X13634229Y-16372222D01*
X13634229Y-16372222D02*
X13624706Y-16381746D01*
X13624706Y-16381746D02*
X13615182Y-16400793D01*
X13615182Y-16400793D02*
X13615182Y-16438888D01*
X13615182Y-16438888D02*
X13624706Y-16457936D01*
X13624706Y-16457936D02*
X13634229Y-16467460D01*
X13634229Y-16467460D02*
X13653277Y-16476984D01*
X13653277Y-16476984D02*
X13691372Y-16476984D01*
X13691372Y-16476984D02*
X13710420Y-16467460D01*
X13710420Y-16467460D02*
X13719944Y-16457936D01*
X13719944Y-16457936D02*
X13729467Y-16438888D01*
X13729467Y-16438888D02*
X13729467Y-16400793D01*
X13729467Y-16400793D02*
X13719944Y-16381746D01*
X13719944Y-16381746D02*
X13710420Y-16372222D01*
X13710420Y-16372222D02*
X13691372Y-16362698D01*
X13796134Y-16276984D02*
X13919944Y-16276984D01*
X13919944Y-16276984D02*
X13853277Y-16353174D01*
X13853277Y-16353174D02*
X13881848Y-16353174D01*
X13881848Y-16353174D02*
X13900896Y-16362698D01*
X13900896Y-16362698D02*
X13910420Y-16372222D01*
X13910420Y-16372222D02*
X13919944Y-16391269D01*
X13919944Y-16391269D02*
X13919944Y-16438888D01*
X13919944Y-16438888D02*
X13910420Y-16457936D01*
X13910420Y-16457936D02*
X13900896Y-16467460D01*
X13900896Y-16467460D02*
X13881848Y-16476984D01*
X13881848Y-16476984D02*
X13824706Y-16476984D01*
X13824706Y-16476984D02*
X13805658Y-16467460D01*
X13805658Y-16467460D02*
X13796134Y-16457936D01*
X13996134Y-16276984D02*
X13996134Y-16315079D01*
X14072325Y-16276984D02*
X14072325Y-16315079D01*
X14367563Y-16553174D02*
X14358039Y-16543650D01*
X14358039Y-16543650D02*
X14338991Y-16515079D01*
X14338991Y-16515079D02*
X14329468Y-16496031D01*
X14329468Y-16496031D02*
X14319944Y-16467460D01*
X14319944Y-16467460D02*
X14310420Y-16419841D01*
X14310420Y-16419841D02*
X14310420Y-16381746D01*
X14310420Y-16381746D02*
X14319944Y-16334127D01*
X14319944Y-16334127D02*
X14329468Y-16305555D01*
X14329468Y-16305555D02*
X14338991Y-16286508D01*
X14338991Y-16286508D02*
X14358039Y-16257936D01*
X14358039Y-16257936D02*
X14367563Y-16248412D01*
X14548515Y-16476984D02*
X14434229Y-16476984D01*
X14491372Y-16476984D02*
X14491372Y-16276984D01*
X14491372Y-16276984D02*
X14472325Y-16305555D01*
X14472325Y-16305555D02*
X14453277Y-16324603D01*
X14453277Y-16324603D02*
X14434229Y-16334127D01*
X14786610Y-16476984D02*
X14786610Y-16276984D01*
X14872325Y-16476984D02*
X14872325Y-16372222D01*
X14872325Y-16372222D02*
X14862801Y-16353174D01*
X14862801Y-16353174D02*
X14843753Y-16343650D01*
X14843753Y-16343650D02*
X14815182Y-16343650D01*
X14815182Y-16343650D02*
X14796134Y-16353174D01*
X14796134Y-16353174D02*
X14786610Y-16362698D01*
X14996134Y-16476984D02*
X14977087Y-16467460D01*
X14977087Y-16467460D02*
X14967563Y-16457936D01*
X14967563Y-16457936D02*
X14958039Y-16438888D01*
X14958039Y-16438888D02*
X14958039Y-16381746D01*
X14958039Y-16381746D02*
X14967563Y-16362698D01*
X14967563Y-16362698D02*
X14977087Y-16353174D01*
X14977087Y-16353174D02*
X14996134Y-16343650D01*
X14996134Y-16343650D02*
X15024706Y-16343650D01*
X15024706Y-16343650D02*
X15043753Y-16353174D01*
X15043753Y-16353174D02*
X15053277Y-16362698D01*
X15053277Y-16362698D02*
X15062801Y-16381746D01*
X15062801Y-16381746D02*
X15062801Y-16438888D01*
X15062801Y-16438888D02*
X15053277Y-16457936D01*
X15053277Y-16457936D02*
X15043753Y-16467460D01*
X15043753Y-16467460D02*
X15024706Y-16476984D01*
X15024706Y-16476984D02*
X14996134Y-16476984D01*
X15177087Y-16476984D02*
X15158039Y-16467460D01*
X15158039Y-16467460D02*
X15148515Y-16448412D01*
X15148515Y-16448412D02*
X15148515Y-16276984D01*
X15329468Y-16467460D02*
X15310420Y-16476984D01*
X15310420Y-16476984D02*
X15272325Y-16476984D01*
X15272325Y-16476984D02*
X15253277Y-16467460D01*
X15253277Y-16467460D02*
X15243753Y-16448412D01*
X15243753Y-16448412D02*
X15243753Y-16372222D01*
X15243753Y-16372222D02*
X15253277Y-16353174D01*
X15253277Y-16353174D02*
X15272325Y-16343650D01*
X15272325Y-16343650D02*
X15310420Y-16343650D01*
X15310420Y-16343650D02*
X15329468Y-16353174D01*
X15329468Y-16353174D02*
X15338991Y-16372222D01*
X15338991Y-16372222D02*
X15338991Y-16391269D01*
X15338991Y-16391269D02*
X15243753Y-16410317D01*
X15405658Y-16553174D02*
X15415182Y-16543650D01*
X15415182Y-16543650D02*
X15434230Y-16515079D01*
X15434230Y-16515079D02*
X15443753Y-16496031D01*
X15443753Y-16496031D02*
X15453277Y-16467460D01*
X15453277Y-16467460D02*
X15462801Y-16419841D01*
X15462801Y-16419841D02*
X15462801Y-16381746D01*
X15462801Y-16381746D02*
X15453277Y-16334127D01*
X15453277Y-16334127D02*
X15443753Y-16305555D01*
X15443753Y-16305555D02*
X15434230Y-16286508D01*
X15434230Y-16286508D02*
X15415182Y-16257936D01*
X15415182Y-16257936D02*
X15405658Y-16248412D01*
M02*
