%TF.GenerationSoftware,KiCad,Pcbnew,9.0.0*%
%TF.CreationDate,2025-06-15T15:39:55+02:00*%
%TF.ProjectId,8-bit computer_Keypad_Module,382d6269-7420-4636-9f6d-70757465725f,rev?*%
%TF.SameCoordinates,Original*%
%TF.FileFunction,Drillmap*%
%TF.FilePolarity,Positive*%
%FSLAX45Y45*%
G04 Gerber Fmt 4.5, Leading zero omitted, Abs format (unit mm)*
G04 Created by KiCad (PCBNEW 9.0.0) date 2025-06-15 15:39:55*
%MOMM*%
%LPD*%
G01*
G04 APERTURE LIST*
%ADD10C,0.050000*%
%ADD11C,0.200000*%
%ADD12C,0.400000*%
G04 APERTURE END LIST*
D10*
X11430000Y-4572000D02*
X20193000Y-4572000D01*
X20193000Y-14097000D02*
X11430000Y-14097000D01*
X20828000Y-13462000D02*
X20193000Y-14097000D01*
X10795000Y-5207000D02*
X11430000Y-4572000D01*
X20828000Y-5207000D02*
X20828000Y-13462000D01*
X10795000Y-13869797D02*
X10983002Y-14097000D01*
X20193000Y-4572000D02*
X20828000Y-5207000D01*
X11430000Y-14097000D02*
X10983002Y-14097000D01*
X10795000Y-13462000D02*
X10795000Y-5207000D01*
X10795000Y-13462000D02*
X10795000Y-13869797D01*
D11*
D12*
X12093600Y-6937400D02*
X12493600Y-7337400D01*
X12493600Y-6937400D02*
X12093600Y-7337400D01*
X12093600Y-8842400D02*
X12493600Y-9242400D01*
X12493600Y-8842400D02*
X12093600Y-9242400D01*
X12093600Y-10747400D02*
X12493600Y-11147400D01*
X12493600Y-10747400D02*
X12093600Y-11147400D01*
X12093600Y-12652400D02*
X12493600Y-13052400D01*
X12493600Y-12652400D02*
X12093600Y-13052400D01*
X13998600Y-6937400D02*
X14398600Y-7337400D01*
X14398600Y-6937400D02*
X13998600Y-7337400D01*
X13998600Y-8842400D02*
X14398600Y-9242400D01*
X14398600Y-8842400D02*
X13998600Y-9242400D01*
X13998600Y-10747400D02*
X14398600Y-11147400D01*
X14398600Y-10747400D02*
X13998600Y-11147400D01*
X13998600Y-12652400D02*
X14398600Y-13052400D01*
X14398600Y-12652400D02*
X13998600Y-13052400D01*
X15903600Y-6937400D02*
X16303600Y-7337400D01*
X16303600Y-6937400D02*
X15903600Y-7337400D01*
X15903600Y-8842400D02*
X16303600Y-9242400D01*
X16303600Y-8842400D02*
X15903600Y-9242400D01*
X15903600Y-10747400D02*
X16303600Y-11147400D01*
X16303600Y-10747400D02*
X15903600Y-11147400D01*
X15903600Y-12652400D02*
X16303600Y-13052400D01*
X16303600Y-12652400D02*
X15903600Y-13052400D01*
X17808600Y-6937400D02*
X18208600Y-7337400D01*
X18208600Y-6937400D02*
X17808600Y-7337400D01*
X17808600Y-8842400D02*
X18208600Y-9242400D01*
X18208600Y-8842400D02*
X17808600Y-9242400D01*
X17808600Y-10747400D02*
X18208600Y-11147400D01*
X18208600Y-10747400D02*
X17808600Y-11147400D01*
X17808600Y-12652400D02*
X18208600Y-13052400D01*
X18208600Y-12652400D02*
X17808600Y-13052400D01*
D11*
X11053277Y-14410984D02*
X11053277Y-14210984D01*
X11053277Y-14210984D02*
X11100896Y-14210984D01*
X11100896Y-14210984D02*
X11129467Y-14220508D01*
X11129467Y-14220508D02*
X11148515Y-14239555D01*
X11148515Y-14239555D02*
X11158039Y-14258603D01*
X11158039Y-14258603D02*
X11167563Y-14296698D01*
X11167563Y-14296698D02*
X11167563Y-14325269D01*
X11167563Y-14325269D02*
X11158039Y-14363365D01*
X11158039Y-14363365D02*
X11148515Y-14382412D01*
X11148515Y-14382412D02*
X11129467Y-14401460D01*
X11129467Y-14401460D02*
X11100896Y-14410984D01*
X11100896Y-14410984D02*
X11053277Y-14410984D01*
X11253277Y-14410984D02*
X11253277Y-14277650D01*
X11253277Y-14315746D02*
X11262801Y-14296698D01*
X11262801Y-14296698D02*
X11272324Y-14287174D01*
X11272324Y-14287174D02*
X11291372Y-14277650D01*
X11291372Y-14277650D02*
X11310420Y-14277650D01*
X11377086Y-14410984D02*
X11377086Y-14277650D01*
X11377086Y-14210984D02*
X11367562Y-14220508D01*
X11367562Y-14220508D02*
X11377086Y-14230031D01*
X11377086Y-14230031D02*
X11386610Y-14220508D01*
X11386610Y-14220508D02*
X11377086Y-14210984D01*
X11377086Y-14210984D02*
X11377086Y-14230031D01*
X11500896Y-14410984D02*
X11481848Y-14401460D01*
X11481848Y-14401460D02*
X11472324Y-14382412D01*
X11472324Y-14382412D02*
X11472324Y-14210984D01*
X11605658Y-14410984D02*
X11586610Y-14401460D01*
X11586610Y-14401460D02*
X11577086Y-14382412D01*
X11577086Y-14382412D02*
X11577086Y-14210984D01*
X11834229Y-14410984D02*
X11834229Y-14210984D01*
X11834229Y-14210984D02*
X11900896Y-14353841D01*
X11900896Y-14353841D02*
X11967562Y-14210984D01*
X11967562Y-14210984D02*
X11967562Y-14410984D01*
X12148515Y-14410984D02*
X12148515Y-14306222D01*
X12148515Y-14306222D02*
X12138991Y-14287174D01*
X12138991Y-14287174D02*
X12119943Y-14277650D01*
X12119943Y-14277650D02*
X12081848Y-14277650D01*
X12081848Y-14277650D02*
X12062801Y-14287174D01*
X12148515Y-14401460D02*
X12129467Y-14410984D01*
X12129467Y-14410984D02*
X12081848Y-14410984D01*
X12081848Y-14410984D02*
X12062801Y-14401460D01*
X12062801Y-14401460D02*
X12053277Y-14382412D01*
X12053277Y-14382412D02*
X12053277Y-14363365D01*
X12053277Y-14363365D02*
X12062801Y-14344317D01*
X12062801Y-14344317D02*
X12081848Y-14334793D01*
X12081848Y-14334793D02*
X12129467Y-14334793D01*
X12129467Y-14334793D02*
X12148515Y-14325269D01*
X12243753Y-14277650D02*
X12243753Y-14477650D01*
X12243753Y-14287174D02*
X12262801Y-14277650D01*
X12262801Y-14277650D02*
X12300896Y-14277650D01*
X12300896Y-14277650D02*
X12319943Y-14287174D01*
X12319943Y-14287174D02*
X12329467Y-14296698D01*
X12329467Y-14296698D02*
X12338991Y-14315746D01*
X12338991Y-14315746D02*
X12338991Y-14372888D01*
X12338991Y-14372888D02*
X12329467Y-14391936D01*
X12329467Y-14391936D02*
X12319943Y-14401460D01*
X12319943Y-14401460D02*
X12300896Y-14410984D01*
X12300896Y-14410984D02*
X12262801Y-14410984D01*
X12262801Y-14410984D02*
X12243753Y-14401460D01*
X12424705Y-14391936D02*
X12434229Y-14401460D01*
X12434229Y-14401460D02*
X12424705Y-14410984D01*
X12424705Y-14410984D02*
X12415182Y-14401460D01*
X12415182Y-14401460D02*
X12424705Y-14391936D01*
X12424705Y-14391936D02*
X12424705Y-14410984D01*
X12424705Y-14287174D02*
X12434229Y-14296698D01*
X12434229Y-14296698D02*
X12424705Y-14306222D01*
X12424705Y-14306222D02*
X12415182Y-14296698D01*
X12415182Y-14296698D02*
X12424705Y-14287174D01*
X12424705Y-14287174D02*
X12424705Y-14306222D01*
X10592500Y-14639500D02*
X10792500Y-14839500D01*
X10792500Y-14639500D02*
X10592500Y-14839500D01*
X11138991Y-14697650D02*
X11138991Y-14830984D01*
X11091372Y-14621460D02*
X11043753Y-14764317D01*
X11043753Y-14764317D02*
X11167563Y-14764317D01*
X11243753Y-14811936D02*
X11253277Y-14821460D01*
X11253277Y-14821460D02*
X11243753Y-14830984D01*
X11243753Y-14830984D02*
X11234229Y-14821460D01*
X11234229Y-14821460D02*
X11243753Y-14811936D01*
X11243753Y-14811936D02*
X11243753Y-14830984D01*
X11377086Y-14630984D02*
X11396134Y-14630984D01*
X11396134Y-14630984D02*
X11415182Y-14640508D01*
X11415182Y-14640508D02*
X11424705Y-14650031D01*
X11424705Y-14650031D02*
X11434229Y-14669079D01*
X11434229Y-14669079D02*
X11443753Y-14707174D01*
X11443753Y-14707174D02*
X11443753Y-14754793D01*
X11443753Y-14754793D02*
X11434229Y-14792888D01*
X11434229Y-14792888D02*
X11424705Y-14811936D01*
X11424705Y-14811936D02*
X11415182Y-14821460D01*
X11415182Y-14821460D02*
X11396134Y-14830984D01*
X11396134Y-14830984D02*
X11377086Y-14830984D01*
X11377086Y-14830984D02*
X11358039Y-14821460D01*
X11358039Y-14821460D02*
X11348515Y-14811936D01*
X11348515Y-14811936D02*
X11338991Y-14792888D01*
X11338991Y-14792888D02*
X11329467Y-14754793D01*
X11329467Y-14754793D02*
X11329467Y-14707174D01*
X11329467Y-14707174D02*
X11338991Y-14669079D01*
X11338991Y-14669079D02*
X11348515Y-14650031D01*
X11348515Y-14650031D02*
X11358039Y-14640508D01*
X11358039Y-14640508D02*
X11377086Y-14630984D01*
X11567562Y-14630984D02*
X11586610Y-14630984D01*
X11586610Y-14630984D02*
X11605658Y-14640508D01*
X11605658Y-14640508D02*
X11615182Y-14650031D01*
X11615182Y-14650031D02*
X11624705Y-14669079D01*
X11624705Y-14669079D02*
X11634229Y-14707174D01*
X11634229Y-14707174D02*
X11634229Y-14754793D01*
X11634229Y-14754793D02*
X11624705Y-14792888D01*
X11624705Y-14792888D02*
X11615182Y-14811936D01*
X11615182Y-14811936D02*
X11605658Y-14821460D01*
X11605658Y-14821460D02*
X11586610Y-14830984D01*
X11586610Y-14830984D02*
X11567562Y-14830984D01*
X11567562Y-14830984D02*
X11548515Y-14821460D01*
X11548515Y-14821460D02*
X11538991Y-14811936D01*
X11538991Y-14811936D02*
X11529467Y-14792888D01*
X11529467Y-14792888D02*
X11519943Y-14754793D01*
X11519943Y-14754793D02*
X11519943Y-14707174D01*
X11519943Y-14707174D02*
X11529467Y-14669079D01*
X11529467Y-14669079D02*
X11538991Y-14650031D01*
X11538991Y-14650031D02*
X11548515Y-14640508D01*
X11548515Y-14640508D02*
X11567562Y-14630984D01*
X11758039Y-14630984D02*
X11777086Y-14630984D01*
X11777086Y-14630984D02*
X11796134Y-14640508D01*
X11796134Y-14640508D02*
X11805658Y-14650031D01*
X11805658Y-14650031D02*
X11815182Y-14669079D01*
X11815182Y-14669079D02*
X11824705Y-14707174D01*
X11824705Y-14707174D02*
X11824705Y-14754793D01*
X11824705Y-14754793D02*
X11815182Y-14792888D01*
X11815182Y-14792888D02*
X11805658Y-14811936D01*
X11805658Y-14811936D02*
X11796134Y-14821460D01*
X11796134Y-14821460D02*
X11777086Y-14830984D01*
X11777086Y-14830984D02*
X11758039Y-14830984D01*
X11758039Y-14830984D02*
X11738991Y-14821460D01*
X11738991Y-14821460D02*
X11729467Y-14811936D01*
X11729467Y-14811936D02*
X11719943Y-14792888D01*
X11719943Y-14792888D02*
X11710420Y-14754793D01*
X11710420Y-14754793D02*
X11710420Y-14707174D01*
X11710420Y-14707174D02*
X11719943Y-14669079D01*
X11719943Y-14669079D02*
X11729467Y-14650031D01*
X11729467Y-14650031D02*
X11738991Y-14640508D01*
X11738991Y-14640508D02*
X11758039Y-14630984D01*
X11910420Y-14830984D02*
X11910420Y-14697650D01*
X11910420Y-14716698D02*
X11919943Y-14707174D01*
X11919943Y-14707174D02*
X11938991Y-14697650D01*
X11938991Y-14697650D02*
X11967563Y-14697650D01*
X11967563Y-14697650D02*
X11986610Y-14707174D01*
X11986610Y-14707174D02*
X11996134Y-14726222D01*
X11996134Y-14726222D02*
X11996134Y-14830984D01*
X11996134Y-14726222D02*
X12005658Y-14707174D01*
X12005658Y-14707174D02*
X12024705Y-14697650D01*
X12024705Y-14697650D02*
X12053277Y-14697650D01*
X12053277Y-14697650D02*
X12072324Y-14707174D01*
X12072324Y-14707174D02*
X12081848Y-14726222D01*
X12081848Y-14726222D02*
X12081848Y-14830984D01*
X12177086Y-14830984D02*
X12177086Y-14697650D01*
X12177086Y-14716698D02*
X12186610Y-14707174D01*
X12186610Y-14707174D02*
X12205658Y-14697650D01*
X12205658Y-14697650D02*
X12234229Y-14697650D01*
X12234229Y-14697650D02*
X12253277Y-14707174D01*
X12253277Y-14707174D02*
X12262801Y-14726222D01*
X12262801Y-14726222D02*
X12262801Y-14830984D01*
X12262801Y-14726222D02*
X12272324Y-14707174D01*
X12272324Y-14707174D02*
X12291372Y-14697650D01*
X12291372Y-14697650D02*
X12319943Y-14697650D01*
X12319943Y-14697650D02*
X12338991Y-14707174D01*
X12338991Y-14707174D02*
X12348515Y-14726222D01*
X12348515Y-14726222D02*
X12348515Y-14830984D01*
X12738991Y-14621460D02*
X12567563Y-14878603D01*
X12996134Y-14630984D02*
X13015182Y-14630984D01*
X13015182Y-14630984D02*
X13034229Y-14640508D01*
X13034229Y-14640508D02*
X13043753Y-14650031D01*
X13043753Y-14650031D02*
X13053277Y-14669079D01*
X13053277Y-14669079D02*
X13062801Y-14707174D01*
X13062801Y-14707174D02*
X13062801Y-14754793D01*
X13062801Y-14754793D02*
X13053277Y-14792888D01*
X13053277Y-14792888D02*
X13043753Y-14811936D01*
X13043753Y-14811936D02*
X13034229Y-14821460D01*
X13034229Y-14821460D02*
X13015182Y-14830984D01*
X13015182Y-14830984D02*
X12996134Y-14830984D01*
X12996134Y-14830984D02*
X12977086Y-14821460D01*
X12977086Y-14821460D02*
X12967563Y-14811936D01*
X12967563Y-14811936D02*
X12958039Y-14792888D01*
X12958039Y-14792888D02*
X12948515Y-14754793D01*
X12948515Y-14754793D02*
X12948515Y-14707174D01*
X12948515Y-14707174D02*
X12958039Y-14669079D01*
X12958039Y-14669079D02*
X12967563Y-14650031D01*
X12967563Y-14650031D02*
X12977086Y-14640508D01*
X12977086Y-14640508D02*
X12996134Y-14630984D01*
X13148515Y-14811936D02*
X13158039Y-14821460D01*
X13158039Y-14821460D02*
X13148515Y-14830984D01*
X13148515Y-14830984D02*
X13138991Y-14821460D01*
X13138991Y-14821460D02*
X13148515Y-14811936D01*
X13148515Y-14811936D02*
X13148515Y-14830984D01*
X13348515Y-14830984D02*
X13234229Y-14830984D01*
X13291372Y-14830984D02*
X13291372Y-14630984D01*
X13291372Y-14630984D02*
X13272325Y-14659555D01*
X13272325Y-14659555D02*
X13253277Y-14678603D01*
X13253277Y-14678603D02*
X13234229Y-14688127D01*
X13529467Y-14630984D02*
X13434229Y-14630984D01*
X13434229Y-14630984D02*
X13424706Y-14726222D01*
X13424706Y-14726222D02*
X13434229Y-14716698D01*
X13434229Y-14716698D02*
X13453277Y-14707174D01*
X13453277Y-14707174D02*
X13500896Y-14707174D01*
X13500896Y-14707174D02*
X13519944Y-14716698D01*
X13519944Y-14716698D02*
X13529467Y-14726222D01*
X13529467Y-14726222D02*
X13538991Y-14745269D01*
X13538991Y-14745269D02*
X13538991Y-14792888D01*
X13538991Y-14792888D02*
X13529467Y-14811936D01*
X13529467Y-14811936D02*
X13519944Y-14821460D01*
X13519944Y-14821460D02*
X13500896Y-14830984D01*
X13500896Y-14830984D02*
X13453277Y-14830984D01*
X13453277Y-14830984D02*
X13434229Y-14821460D01*
X13434229Y-14821460D02*
X13424706Y-14811936D01*
X13605658Y-14630984D02*
X13738991Y-14630984D01*
X13738991Y-14630984D02*
X13653277Y-14830984D01*
X13910420Y-14630984D02*
X13815182Y-14630984D01*
X13815182Y-14630984D02*
X13805658Y-14726222D01*
X13805658Y-14726222D02*
X13815182Y-14716698D01*
X13815182Y-14716698D02*
X13834229Y-14707174D01*
X13834229Y-14707174D02*
X13881848Y-14707174D01*
X13881848Y-14707174D02*
X13900896Y-14716698D01*
X13900896Y-14716698D02*
X13910420Y-14726222D01*
X13910420Y-14726222D02*
X13919944Y-14745269D01*
X13919944Y-14745269D02*
X13919944Y-14792888D01*
X13919944Y-14792888D02*
X13910420Y-14811936D01*
X13910420Y-14811936D02*
X13900896Y-14821460D01*
X13900896Y-14821460D02*
X13881848Y-14830984D01*
X13881848Y-14830984D02*
X13834229Y-14830984D01*
X13834229Y-14830984D02*
X13815182Y-14821460D01*
X13815182Y-14821460D02*
X13805658Y-14811936D01*
X13996134Y-14630984D02*
X13996134Y-14669079D01*
X14072325Y-14630984D02*
X14072325Y-14669079D01*
X14367563Y-14907174D02*
X14358039Y-14897650D01*
X14358039Y-14897650D02*
X14338991Y-14869079D01*
X14338991Y-14869079D02*
X14329468Y-14850031D01*
X14329468Y-14850031D02*
X14319944Y-14821460D01*
X14319944Y-14821460D02*
X14310420Y-14773841D01*
X14310420Y-14773841D02*
X14310420Y-14735746D01*
X14310420Y-14735746D02*
X14319944Y-14688127D01*
X14319944Y-14688127D02*
X14329468Y-14659555D01*
X14329468Y-14659555D02*
X14338991Y-14640508D01*
X14338991Y-14640508D02*
X14358039Y-14611936D01*
X14358039Y-14611936D02*
X14367563Y-14602412D01*
X14548515Y-14830984D02*
X14434229Y-14830984D01*
X14491372Y-14830984D02*
X14491372Y-14630984D01*
X14491372Y-14630984D02*
X14472325Y-14659555D01*
X14472325Y-14659555D02*
X14453277Y-14678603D01*
X14453277Y-14678603D02*
X14434229Y-14688127D01*
X14719944Y-14630984D02*
X14681848Y-14630984D01*
X14681848Y-14630984D02*
X14662801Y-14640508D01*
X14662801Y-14640508D02*
X14653277Y-14650031D01*
X14653277Y-14650031D02*
X14634229Y-14678603D01*
X14634229Y-14678603D02*
X14624706Y-14716698D01*
X14624706Y-14716698D02*
X14624706Y-14792888D01*
X14624706Y-14792888D02*
X14634229Y-14811936D01*
X14634229Y-14811936D02*
X14643753Y-14821460D01*
X14643753Y-14821460D02*
X14662801Y-14830984D01*
X14662801Y-14830984D02*
X14700896Y-14830984D01*
X14700896Y-14830984D02*
X14719944Y-14821460D01*
X14719944Y-14821460D02*
X14729468Y-14811936D01*
X14729468Y-14811936D02*
X14738991Y-14792888D01*
X14738991Y-14792888D02*
X14738991Y-14745269D01*
X14738991Y-14745269D02*
X14729468Y-14726222D01*
X14729468Y-14726222D02*
X14719944Y-14716698D01*
X14719944Y-14716698D02*
X14700896Y-14707174D01*
X14700896Y-14707174D02*
X14662801Y-14707174D01*
X14662801Y-14707174D02*
X14643753Y-14716698D01*
X14643753Y-14716698D02*
X14634229Y-14726222D01*
X14634229Y-14726222D02*
X14624706Y-14745269D01*
X14977087Y-14830984D02*
X14977087Y-14630984D01*
X15062801Y-14830984D02*
X15062801Y-14726222D01*
X15062801Y-14726222D02*
X15053277Y-14707174D01*
X15053277Y-14707174D02*
X15034230Y-14697650D01*
X15034230Y-14697650D02*
X15005658Y-14697650D01*
X15005658Y-14697650D02*
X14986610Y-14707174D01*
X14986610Y-14707174D02*
X14977087Y-14716698D01*
X15186610Y-14830984D02*
X15167563Y-14821460D01*
X15167563Y-14821460D02*
X15158039Y-14811936D01*
X15158039Y-14811936D02*
X15148515Y-14792888D01*
X15148515Y-14792888D02*
X15148515Y-14735746D01*
X15148515Y-14735746D02*
X15158039Y-14716698D01*
X15158039Y-14716698D02*
X15167563Y-14707174D01*
X15167563Y-14707174D02*
X15186610Y-14697650D01*
X15186610Y-14697650D02*
X15215182Y-14697650D01*
X15215182Y-14697650D02*
X15234230Y-14707174D01*
X15234230Y-14707174D02*
X15243753Y-14716698D01*
X15243753Y-14716698D02*
X15253277Y-14735746D01*
X15253277Y-14735746D02*
X15253277Y-14792888D01*
X15253277Y-14792888D02*
X15243753Y-14811936D01*
X15243753Y-14811936D02*
X15234230Y-14821460D01*
X15234230Y-14821460D02*
X15215182Y-14830984D01*
X15215182Y-14830984D02*
X15186610Y-14830984D01*
X15367563Y-14830984D02*
X15348515Y-14821460D01*
X15348515Y-14821460D02*
X15338991Y-14802412D01*
X15338991Y-14802412D02*
X15338991Y-14630984D01*
X15519944Y-14821460D02*
X15500896Y-14830984D01*
X15500896Y-14830984D02*
X15462801Y-14830984D01*
X15462801Y-14830984D02*
X15443753Y-14821460D01*
X15443753Y-14821460D02*
X15434230Y-14802412D01*
X15434230Y-14802412D02*
X15434230Y-14726222D01*
X15434230Y-14726222D02*
X15443753Y-14707174D01*
X15443753Y-14707174D02*
X15462801Y-14697650D01*
X15462801Y-14697650D02*
X15500896Y-14697650D01*
X15500896Y-14697650D02*
X15519944Y-14707174D01*
X15519944Y-14707174D02*
X15529468Y-14726222D01*
X15529468Y-14726222D02*
X15529468Y-14745269D01*
X15529468Y-14745269D02*
X15434230Y-14764317D01*
X15605658Y-14821460D02*
X15624706Y-14830984D01*
X15624706Y-14830984D02*
X15662801Y-14830984D01*
X15662801Y-14830984D02*
X15681849Y-14821460D01*
X15681849Y-14821460D02*
X15691372Y-14802412D01*
X15691372Y-14802412D02*
X15691372Y-14792888D01*
X15691372Y-14792888D02*
X15681849Y-14773841D01*
X15681849Y-14773841D02*
X15662801Y-14764317D01*
X15662801Y-14764317D02*
X15634230Y-14764317D01*
X15634230Y-14764317D02*
X15615182Y-14754793D01*
X15615182Y-14754793D02*
X15605658Y-14735746D01*
X15605658Y-14735746D02*
X15605658Y-14726222D01*
X15605658Y-14726222D02*
X15615182Y-14707174D01*
X15615182Y-14707174D02*
X15634230Y-14697650D01*
X15634230Y-14697650D02*
X15662801Y-14697650D01*
X15662801Y-14697650D02*
X15681849Y-14707174D01*
X15758039Y-14907174D02*
X15767563Y-14897650D01*
X15767563Y-14897650D02*
X15786611Y-14869079D01*
X15786611Y-14869079D02*
X15796134Y-14850031D01*
X15796134Y-14850031D02*
X15805658Y-14821460D01*
X15805658Y-14821460D02*
X15815182Y-14773841D01*
X15815182Y-14773841D02*
X15815182Y-14735746D01*
X15815182Y-14735746D02*
X15805658Y-14688127D01*
X15805658Y-14688127D02*
X15796134Y-14659555D01*
X15796134Y-14659555D02*
X15786611Y-14640508D01*
X15786611Y-14640508D02*
X15767563Y-14611936D01*
X15767563Y-14611936D02*
X15758039Y-14602412D01*
X16119944Y-14907174D02*
X16110420Y-14897650D01*
X16110420Y-14897650D02*
X16091372Y-14869079D01*
X16091372Y-14869079D02*
X16081849Y-14850031D01*
X16081849Y-14850031D02*
X16072325Y-14821460D01*
X16072325Y-14821460D02*
X16062801Y-14773841D01*
X16062801Y-14773841D02*
X16062801Y-14735746D01*
X16062801Y-14735746D02*
X16072325Y-14688127D01*
X16072325Y-14688127D02*
X16081849Y-14659555D01*
X16081849Y-14659555D02*
X16091372Y-14640508D01*
X16091372Y-14640508D02*
X16110420Y-14611936D01*
X16110420Y-14611936D02*
X16119944Y-14602412D01*
X16196134Y-14697650D02*
X16196134Y-14830984D01*
X16196134Y-14716698D02*
X16205658Y-14707174D01*
X16205658Y-14707174D02*
X16224706Y-14697650D01*
X16224706Y-14697650D02*
X16253277Y-14697650D01*
X16253277Y-14697650D02*
X16272325Y-14707174D01*
X16272325Y-14707174D02*
X16281849Y-14726222D01*
X16281849Y-14726222D02*
X16281849Y-14830984D01*
X16405658Y-14830984D02*
X16386611Y-14821460D01*
X16386611Y-14821460D02*
X16377087Y-14811936D01*
X16377087Y-14811936D02*
X16367563Y-14792888D01*
X16367563Y-14792888D02*
X16367563Y-14735746D01*
X16367563Y-14735746D02*
X16377087Y-14716698D01*
X16377087Y-14716698D02*
X16386611Y-14707174D01*
X16386611Y-14707174D02*
X16405658Y-14697650D01*
X16405658Y-14697650D02*
X16434230Y-14697650D01*
X16434230Y-14697650D02*
X16453277Y-14707174D01*
X16453277Y-14707174D02*
X16462801Y-14716698D01*
X16462801Y-14716698D02*
X16472325Y-14735746D01*
X16472325Y-14735746D02*
X16472325Y-14792888D01*
X16472325Y-14792888D02*
X16462801Y-14811936D01*
X16462801Y-14811936D02*
X16453277Y-14821460D01*
X16453277Y-14821460D02*
X16434230Y-14830984D01*
X16434230Y-14830984D02*
X16405658Y-14830984D01*
X16529468Y-14697650D02*
X16605658Y-14697650D01*
X16558039Y-14630984D02*
X16558039Y-14802412D01*
X16558039Y-14802412D02*
X16567563Y-14821460D01*
X16567563Y-14821460D02*
X16586611Y-14830984D01*
X16586611Y-14830984D02*
X16605658Y-14830984D01*
X16824706Y-14697650D02*
X16824706Y-14897650D01*
X16824706Y-14707174D02*
X16843754Y-14697650D01*
X16843754Y-14697650D02*
X16881849Y-14697650D01*
X16881849Y-14697650D02*
X16900896Y-14707174D01*
X16900896Y-14707174D02*
X16910420Y-14716698D01*
X16910420Y-14716698D02*
X16919944Y-14735746D01*
X16919944Y-14735746D02*
X16919944Y-14792888D01*
X16919944Y-14792888D02*
X16910420Y-14811936D01*
X16910420Y-14811936D02*
X16900896Y-14821460D01*
X16900896Y-14821460D02*
X16881849Y-14830984D01*
X16881849Y-14830984D02*
X16843754Y-14830984D01*
X16843754Y-14830984D02*
X16824706Y-14821460D01*
X17034230Y-14830984D02*
X17015182Y-14821460D01*
X17015182Y-14821460D02*
X17005658Y-14802412D01*
X17005658Y-14802412D02*
X17005658Y-14630984D01*
X17196135Y-14830984D02*
X17196135Y-14726222D01*
X17196135Y-14726222D02*
X17186611Y-14707174D01*
X17186611Y-14707174D02*
X17167563Y-14697650D01*
X17167563Y-14697650D02*
X17129468Y-14697650D01*
X17129468Y-14697650D02*
X17110420Y-14707174D01*
X17196135Y-14821460D02*
X17177087Y-14830984D01*
X17177087Y-14830984D02*
X17129468Y-14830984D01*
X17129468Y-14830984D02*
X17110420Y-14821460D01*
X17110420Y-14821460D02*
X17100896Y-14802412D01*
X17100896Y-14802412D02*
X17100896Y-14783365D01*
X17100896Y-14783365D02*
X17110420Y-14764317D01*
X17110420Y-14764317D02*
X17129468Y-14754793D01*
X17129468Y-14754793D02*
X17177087Y-14754793D01*
X17177087Y-14754793D02*
X17196135Y-14745269D01*
X17262801Y-14697650D02*
X17338992Y-14697650D01*
X17291373Y-14630984D02*
X17291373Y-14802412D01*
X17291373Y-14802412D02*
X17300896Y-14821460D01*
X17300896Y-14821460D02*
X17319944Y-14830984D01*
X17319944Y-14830984D02*
X17338992Y-14830984D01*
X17481849Y-14821460D02*
X17462801Y-14830984D01*
X17462801Y-14830984D02*
X17424706Y-14830984D01*
X17424706Y-14830984D02*
X17405658Y-14821460D01*
X17405658Y-14821460D02*
X17396135Y-14802412D01*
X17396135Y-14802412D02*
X17396135Y-14726222D01*
X17396135Y-14726222D02*
X17405658Y-14707174D01*
X17405658Y-14707174D02*
X17424706Y-14697650D01*
X17424706Y-14697650D02*
X17462801Y-14697650D01*
X17462801Y-14697650D02*
X17481849Y-14707174D01*
X17481849Y-14707174D02*
X17491373Y-14726222D01*
X17491373Y-14726222D02*
X17491373Y-14745269D01*
X17491373Y-14745269D02*
X17396135Y-14764317D01*
X17662801Y-14830984D02*
X17662801Y-14630984D01*
X17662801Y-14821460D02*
X17643754Y-14830984D01*
X17643754Y-14830984D02*
X17605658Y-14830984D01*
X17605658Y-14830984D02*
X17586611Y-14821460D01*
X17586611Y-14821460D02*
X17577087Y-14811936D01*
X17577087Y-14811936D02*
X17567563Y-14792888D01*
X17567563Y-14792888D02*
X17567563Y-14735746D01*
X17567563Y-14735746D02*
X17577087Y-14716698D01*
X17577087Y-14716698D02*
X17586611Y-14707174D01*
X17586611Y-14707174D02*
X17605658Y-14697650D01*
X17605658Y-14697650D02*
X17643754Y-14697650D01*
X17643754Y-14697650D02*
X17662801Y-14707174D01*
X17738992Y-14907174D02*
X17748516Y-14897650D01*
X17748516Y-14897650D02*
X17767563Y-14869079D01*
X17767563Y-14869079D02*
X17777087Y-14850031D01*
X17777087Y-14850031D02*
X17786611Y-14821460D01*
X17786611Y-14821460D02*
X17796135Y-14773841D01*
X17796135Y-14773841D02*
X17796135Y-14735746D01*
X17796135Y-14735746D02*
X17786611Y-14688127D01*
X17786611Y-14688127D02*
X17777087Y-14659555D01*
X17777087Y-14659555D02*
X17767563Y-14640508D01*
X17767563Y-14640508D02*
X17748516Y-14611936D01*
X17748516Y-14611936D02*
X17738992Y-14602412D01*
M02*
