M48
; DRILL file {KiCad 9.0.0} date 2025-06-15T15:39:55+0200
; FORMAT={-:-/ absolute / metric / decimal}
; #@! TF.CreationDate,2025-06-15T15:39:55+02:00
; #@! TF.GenerationSoftware,Kicad,Pcbnew,9.0.0
; #@! TF.FileFunction,Plated,1,2,PTH
FMAT,2
METRIC
; #@! TA.AperFunction,Plated,PTH,ComponentDrill
T1C0.600
; #@! TA.AperFunction,Plated,PTH,ComponentDrill
T2C0.800
; #@! TA.AperFunction,Plated,PTH,ComponentDrill
T3C0.991
; #@! TA.AperFunction,Plated,PTH,ComponentDrill
T4C1.000
; #@! TA.AperFunction,Plated,PTH,ComponentDrill
T5C1.500
; #@! TA.AperFunction,Plated,PTH,ComponentDrill
T6C3.200
; #@! TA.AperFunction,Plated,PTH,ComponentDrill
T7C5.800
%
G90
G05
T1
X141.986Y-56.271
X141.986Y-57.771
T2
X141.935Y-50.789
X141.935Y-53.289
X145.898Y-51.003
X145.898Y-58.623
X148.438Y-51.003
X148.438Y-58.623
X150.978Y-51.003
X150.978Y-58.623
X153.518Y-51.003
X153.518Y-58.623
X156.058Y-51.003
X156.058Y-58.623
X158.598Y-51.003
X158.598Y-58.623
X161.138Y-51.003
X161.138Y-58.623
X163.678Y-51.003
X163.678Y-58.623
X167.894Y-53.086
X167.894Y-55.586
X171.399Y-50.698
X171.399Y-58.318
X173.939Y-50.698
X173.939Y-58.318
X176.479Y-50.698
X176.479Y-58.318
X179.019Y-50.698
X179.019Y-58.318
X181.559Y-50.698
X181.559Y-58.318
X184.099Y-50.698
X184.099Y-58.318
X186.639Y-50.698
X186.639Y-58.318
X190.5Y-53.106
X190.5Y-55.606
X194.056Y-65.151
X194.31Y-50.668
X194.31Y-58.288
X196.056Y-65.151
X196.545Y-78.74
X196.85Y-58.288
X196.85Y-50.668
X199.085Y-78.74
X199.39Y-50.668
X199.39Y-58.288
X200.435Y-65.151
X201.625Y-78.74
X201.93Y-58.288
X201.93Y-50.668
X202.435Y-65.151
T3
X121.666Y-76.454
X121.666Y-95.504
X121.666Y-114.554
X121.666Y-133.604
X124.206Y-76.454
X124.206Y-95.504
X124.206Y-114.554
X124.206Y-133.604
X140.716Y-76.454
X140.716Y-95.504
X140.716Y-114.554
X140.716Y-133.604
X143.256Y-76.454
X143.256Y-95.504
X143.256Y-114.554
X143.256Y-133.604
X159.766Y-76.454
X159.766Y-95.504
X159.766Y-114.554
X159.766Y-133.604
X162.306Y-76.454
X162.306Y-95.504
X162.306Y-114.554
X162.306Y-133.604
X178.816Y-76.454
X178.816Y-95.504
X178.816Y-114.554
X178.816Y-133.604
X181.356Y-76.454
X181.356Y-95.504
X181.356Y-114.554
X181.356Y-133.604
T4
X116.23Y-55.982
X116.23Y-53.442
X118.77Y-53.442
X118.77Y-55.982
X121.31Y-55.982
X121.31Y-53.442
X123.85Y-53.442
X123.85Y-55.982
X126.39Y-55.982
X126.39Y-53.442
X128.93Y-53.442
X128.93Y-55.982
X131.47Y-55.982
X131.47Y-53.442
X134.01Y-53.442
X134.01Y-55.982
T5
X119.126Y-68.834
X119.126Y-87.884
X119.126Y-106.934
X119.126Y-125.984
X125.476Y-66.294
X125.476Y-85.344
X125.476Y-104.394
X125.476Y-123.444
X138.176Y-68.834
X138.176Y-87.884
X138.176Y-106.934
X138.176Y-125.984
X144.526Y-66.294
X144.526Y-85.344
X144.526Y-104.394
X144.526Y-123.444
X157.226Y-68.834
X157.226Y-87.884
X157.226Y-106.934
X157.226Y-125.984
X163.576Y-66.294
X163.576Y-85.344
X163.576Y-104.394
X163.576Y-123.444
X176.276Y-68.834
X176.276Y-87.884
X176.276Y-106.934
X176.276Y-125.984
X182.626Y-66.294
X182.626Y-85.344
X182.626Y-104.394
X182.626Y-123.444
X194.89Y-96.9
X199.39Y-96.9
X203.89Y-96.9
T6
X111.963Y-63.703
X112.42Y-136.906
X198.577Y-71.577
X200.355Y-133.604
T7
X199.39Y-88.9
M30
