%FSLAX45Y45*%
G04 Gerber Fmt 4.5, Leading zero omitted, Abs format (unit mm)*
G04 Created by KiCad (PCBNEW (5.1.10)-1) date 2023-01-28 17:34:13*
%MOMM*%
%LPD*%
G01*
G04 APERTURE LIST*
%TA.AperFunction,Profile*%
%ADD10C,0.050000*%
%TD*%
%ADD11C,0.200000*%
%ADD12C,0.300000*%
G04 APERTURE END LIST*
D10*
X10191750Y-6800850D02*
X10191750Y-6985000D01*
X18954750Y-6800850D02*
X10191750Y-6800850D01*
X18954750Y-6985000D02*
X18954750Y-6800850D01*
X18954750Y-6985000D02*
X18954750Y-11811000D01*
X10191750Y-12065000D02*
X10191750Y-11811000D01*
X18954750Y-11811000D02*
X18954750Y-12065000D01*
X10191750Y-11811000D02*
X10191750Y-6985000D01*
X18954750Y-12065000D02*
X10191750Y-12065000D01*
D11*
X13709750Y-10885500D02*
X13785750Y-10961500D01*
X13785750Y-10885500D02*
X13709750Y-10961500D01*
X13963750Y-11139500D02*
X14039750Y-11215500D01*
X14039750Y-11139500D02*
X13963750Y-11215500D01*
X14217750Y-10885500D02*
X14293750Y-10961500D01*
X14293750Y-10885500D02*
X14217750Y-10961500D01*
X11134600Y-10684700D02*
G75*
G03*
X11134600Y-10684700I-38100J0D01*
G01*
X11134600Y-10934700D02*
G75*
G03*
X11134600Y-10934700I-38100J0D01*
G01*
X11134600Y-11184700D02*
G75*
G03*
X11134600Y-11184700I-38100J0D01*
G01*
X11674600Y-10684700D02*
G75*
G03*
X11674600Y-10684700I-38100J0D01*
G01*
X11674600Y-10934700D02*
G75*
G03*
X11674600Y-10934700I-38100J0D01*
G01*
X11674600Y-11184700D02*
G75*
G03*
X11674600Y-11184700I-38100J0D01*
G01*
X10953750Y-7707000D02*
X10953750Y-7787000D01*
X10913750Y-7747000D02*
X10993750Y-7747000D01*
X10953750Y-7961000D02*
X10953750Y-8041000D01*
X10913750Y-8001000D02*
X10993750Y-8001000D01*
X10953750Y-8215000D02*
X10953750Y-8295000D01*
X10913750Y-8255000D02*
X10993750Y-8255000D01*
X10953750Y-8469000D02*
X10953750Y-8549000D01*
X10913750Y-8509000D02*
X10993750Y-8509000D01*
X10953750Y-8723000D02*
X10953750Y-8803000D01*
X10913750Y-8763000D02*
X10993750Y-8763000D01*
X10953750Y-8977000D02*
X10953750Y-9057000D01*
X10913750Y-9017000D02*
X10993750Y-9017000D01*
X10953750Y-9231000D02*
X10953750Y-9311000D01*
X10913750Y-9271000D02*
X10993750Y-9271000D01*
X11080750Y-9993000D02*
X11080750Y-10073000D01*
X11040750Y-10033000D02*
X11120750Y-10033000D01*
X11334750Y-9993000D02*
X11334750Y-10073000D01*
X11294750Y-10033000D02*
X11374750Y-10033000D01*
X11588750Y-9993000D02*
X11588750Y-10073000D01*
X11548750Y-10033000D02*
X11628750Y-10033000D01*
X11715750Y-7707000D02*
X11715750Y-7787000D01*
X11675750Y-7747000D02*
X11755750Y-7747000D01*
X11715750Y-7961000D02*
X11715750Y-8041000D01*
X11675750Y-8001000D02*
X11755750Y-8001000D01*
X11715750Y-8215000D02*
X11715750Y-8295000D01*
X11675750Y-8255000D02*
X11755750Y-8255000D01*
X11715750Y-8469000D02*
X11715750Y-8549000D01*
X11675750Y-8509000D02*
X11755750Y-8509000D01*
X11715750Y-8723000D02*
X11715750Y-8803000D01*
X11675750Y-8763000D02*
X11755750Y-8763000D01*
X11715750Y-8977000D02*
X11715750Y-9057000D01*
X11675750Y-9017000D02*
X11755750Y-9017000D01*
X11715750Y-9231000D02*
X11715750Y-9311000D01*
X11675750Y-9271000D02*
X11755750Y-9271000D01*
X12223750Y-7707000D02*
X12223750Y-7787000D01*
X12183750Y-7747000D02*
X12263750Y-7747000D01*
X12223750Y-7961000D02*
X12223750Y-8041000D01*
X12183750Y-8001000D02*
X12263750Y-8001000D01*
X12223750Y-8215000D02*
X12223750Y-8295000D01*
X12183750Y-8255000D02*
X12263750Y-8255000D01*
X12223750Y-8469000D02*
X12223750Y-8549000D01*
X12183750Y-8509000D02*
X12263750Y-8509000D01*
X12223750Y-8723000D02*
X12223750Y-8803000D01*
X12183750Y-8763000D02*
X12263750Y-8763000D01*
X12223750Y-8977000D02*
X12223750Y-9057000D01*
X12183750Y-9017000D02*
X12263750Y-9017000D01*
X12223750Y-9231000D02*
X12223750Y-9311000D01*
X12183750Y-9271000D02*
X12263750Y-9271000D01*
X12223750Y-9739000D02*
X12223750Y-9819000D01*
X12183750Y-9779000D02*
X12263750Y-9779000D01*
X12223750Y-10120000D02*
X12223750Y-10200000D01*
X12183750Y-10160000D02*
X12263750Y-10160000D01*
X12223750Y-11644000D02*
X12223750Y-11724000D01*
X12183750Y-11684000D02*
X12263750Y-11684000D01*
X12985750Y-7707000D02*
X12985750Y-7787000D01*
X12945750Y-7747000D02*
X13025750Y-7747000D01*
X12985750Y-7961000D02*
X12985750Y-8041000D01*
X12945750Y-8001000D02*
X13025750Y-8001000D01*
X12985750Y-8215000D02*
X12985750Y-8295000D01*
X12945750Y-8255000D02*
X13025750Y-8255000D01*
X12985750Y-8469000D02*
X12985750Y-8549000D01*
X12945750Y-8509000D02*
X13025750Y-8509000D01*
X12985750Y-8723000D02*
X12985750Y-8803000D01*
X12945750Y-8763000D02*
X13025750Y-8763000D01*
X12985750Y-8977000D02*
X12985750Y-9057000D01*
X12945750Y-9017000D02*
X13025750Y-9017000D01*
X12985750Y-9231000D02*
X12985750Y-9311000D01*
X12945750Y-9271000D02*
X13025750Y-9271000D01*
X13239750Y-9739000D02*
X13239750Y-9819000D01*
X13199750Y-9779000D02*
X13279750Y-9779000D01*
X13239750Y-10120000D02*
X13239750Y-10200000D01*
X13199750Y-10160000D02*
X13279750Y-10160000D01*
X13239750Y-11644000D02*
X13239750Y-11724000D01*
X13199750Y-11684000D02*
X13279750Y-11684000D01*
X13493750Y-7707000D02*
X13493750Y-7787000D01*
X13453750Y-7747000D02*
X13533750Y-7747000D01*
X13493750Y-7961000D02*
X13493750Y-8041000D01*
X13453750Y-8001000D02*
X13533750Y-8001000D01*
X13493750Y-8215000D02*
X13493750Y-8295000D01*
X13453750Y-8255000D02*
X13533750Y-8255000D01*
X13493750Y-8469000D02*
X13493750Y-8549000D01*
X13453750Y-8509000D02*
X13533750Y-8509000D01*
X13493750Y-8723000D02*
X13493750Y-8803000D01*
X13453750Y-8763000D02*
X13533750Y-8763000D01*
X13493750Y-8977000D02*
X13493750Y-9057000D01*
X13453750Y-9017000D02*
X13533750Y-9017000D01*
X13493750Y-9231000D02*
X13493750Y-9311000D01*
X13453750Y-9271000D02*
X13533750Y-9271000D01*
X14001750Y-11644000D02*
X14001750Y-11724000D01*
X13961750Y-11684000D02*
X14041750Y-11684000D01*
X14255750Y-7707000D02*
X14255750Y-7787000D01*
X14215750Y-7747000D02*
X14295750Y-7747000D01*
X14255750Y-7961000D02*
X14255750Y-8041000D01*
X14215750Y-8001000D02*
X14295750Y-8001000D01*
X14255750Y-8215000D02*
X14255750Y-8295000D01*
X14215750Y-8255000D02*
X14295750Y-8255000D01*
X14255750Y-8469000D02*
X14255750Y-8549000D01*
X14215750Y-8509000D02*
X14295750Y-8509000D01*
X14255750Y-8723000D02*
X14255750Y-8803000D01*
X14215750Y-8763000D02*
X14295750Y-8763000D01*
X14255750Y-8977000D02*
X14255750Y-9057000D01*
X14215750Y-9017000D02*
X14295750Y-9017000D01*
X14255750Y-9231000D02*
X14255750Y-9311000D01*
X14215750Y-9271000D02*
X14295750Y-9271000D01*
X14763750Y-7707000D02*
X14763750Y-7787000D01*
X14723750Y-7747000D02*
X14803750Y-7747000D01*
X14763750Y-7961000D02*
X14763750Y-8041000D01*
X14723750Y-8001000D02*
X14803750Y-8001000D01*
X14763750Y-8215000D02*
X14763750Y-8295000D01*
X14723750Y-8255000D02*
X14803750Y-8255000D01*
X14763750Y-8469000D02*
X14763750Y-8549000D01*
X14723750Y-8509000D02*
X14803750Y-8509000D01*
X14763750Y-8723000D02*
X14763750Y-8803000D01*
X14723750Y-8763000D02*
X14803750Y-8763000D01*
X14763750Y-8977000D02*
X14763750Y-9057000D01*
X14723750Y-9017000D02*
X14803750Y-9017000D01*
X14763750Y-9231000D02*
X14763750Y-9311000D01*
X14723750Y-9271000D02*
X14803750Y-9271000D01*
X15017750Y-11644000D02*
X15017750Y-11724000D01*
X14977750Y-11684000D02*
X15057750Y-11684000D01*
X15525750Y-7707000D02*
X15525750Y-7787000D01*
X15485750Y-7747000D02*
X15565750Y-7747000D01*
X15525750Y-7961000D02*
X15525750Y-8041000D01*
X15485750Y-8001000D02*
X15565750Y-8001000D01*
X15525750Y-8215000D02*
X15525750Y-8295000D01*
X15485750Y-8255000D02*
X15565750Y-8255000D01*
X15525750Y-8469000D02*
X15525750Y-8549000D01*
X15485750Y-8509000D02*
X15565750Y-8509000D01*
X15525750Y-8723000D02*
X15525750Y-8803000D01*
X15485750Y-8763000D02*
X15565750Y-8763000D01*
X15525750Y-8977000D02*
X15525750Y-9057000D01*
X15485750Y-9017000D02*
X15565750Y-9017000D01*
X15525750Y-9231000D02*
X15525750Y-9311000D01*
X15485750Y-9271000D02*
X15565750Y-9271000D01*
X15652750Y-10120000D02*
X15652750Y-10200000D01*
X15612750Y-10160000D02*
X15692750Y-10160000D01*
X15652750Y-11136000D02*
X15652750Y-11216000D01*
X15612750Y-11176000D02*
X15692750Y-11176000D01*
X16033750Y-8469000D02*
X16033750Y-8549000D01*
X15993750Y-8509000D02*
X16073750Y-8509000D01*
X16033750Y-8723000D02*
X16033750Y-8803000D01*
X15993750Y-8763000D02*
X16073750Y-8763000D01*
X16033750Y-8977000D02*
X16033750Y-9057000D01*
X15993750Y-9017000D02*
X16073750Y-9017000D01*
X16033750Y-9231000D02*
X16033750Y-9311000D01*
X15993750Y-9271000D02*
X16073750Y-9271000D01*
X16160750Y-10628000D02*
X16160750Y-10708000D01*
X16120750Y-10668000D02*
X16200750Y-10668000D01*
X16160750Y-11009000D02*
X16160750Y-11089000D01*
X16120750Y-11049000D02*
X16200750Y-11049000D01*
X16287750Y-9993000D02*
X16287750Y-10073000D01*
X16247750Y-10033000D02*
X16327750Y-10033000D01*
X16537750Y-9993000D02*
X16537750Y-10073000D01*
X16497750Y-10033000D02*
X16577750Y-10033000D01*
X16795750Y-8469000D02*
X16795750Y-8549000D01*
X16755750Y-8509000D02*
X16835750Y-8509000D01*
X16795750Y-8723000D02*
X16795750Y-8803000D01*
X16755750Y-8763000D02*
X16835750Y-8763000D01*
X16795750Y-8977000D02*
X16795750Y-9057000D01*
X16755750Y-9017000D02*
X16835750Y-9017000D01*
X16795750Y-9231000D02*
X16795750Y-9311000D01*
X16755750Y-9271000D02*
X16835750Y-9271000D01*
X17049750Y-9993000D02*
X17049750Y-10073000D01*
X17009750Y-10033000D02*
X17089750Y-10033000D01*
X17176750Y-10628000D02*
X17176750Y-10708000D01*
X17136750Y-10668000D02*
X17216750Y-10668000D01*
X17176750Y-11009000D02*
X17176750Y-11089000D01*
X17136750Y-11049000D02*
X17216750Y-11049000D01*
X17299750Y-9993000D02*
X17299750Y-10073000D01*
X17259750Y-10033000D02*
X17339750Y-10033000D01*
X17303750Y-8469000D02*
X17303750Y-8549000D01*
X17263750Y-8509000D02*
X17343750Y-8509000D01*
X17303750Y-8723000D02*
X17303750Y-8803000D01*
X17263750Y-8763000D02*
X17343750Y-8763000D01*
X17303750Y-8977000D02*
X17303750Y-9057000D01*
X17263750Y-9017000D02*
X17343750Y-9017000D01*
X17303750Y-9231000D02*
X17303750Y-9311000D01*
X17263750Y-9271000D02*
X17343750Y-9271000D01*
X17811750Y-9993000D02*
X17811750Y-10073000D01*
X17771750Y-10033000D02*
X17851750Y-10033000D01*
X18061750Y-9993000D02*
X18061750Y-10073000D01*
X18021750Y-10033000D02*
X18101750Y-10033000D01*
X18065750Y-8469000D02*
X18065750Y-8549000D01*
X18025750Y-8509000D02*
X18105750Y-8509000D01*
X18065750Y-8723000D02*
X18065750Y-8803000D01*
X18025750Y-8763000D02*
X18105750Y-8763000D01*
X18065750Y-8977000D02*
X18065750Y-9057000D01*
X18025750Y-9017000D02*
X18105750Y-9017000D01*
X18065750Y-9231000D02*
X18065750Y-9311000D01*
X18025750Y-9271000D02*
X18105750Y-9271000D01*
X17843570Y-10953820D02*
X17843570Y-10890180D01*
X17779930Y-10890180D01*
X17779930Y-10953820D01*
X17843570Y-10953820D01*
X18097570Y-10953820D02*
X18097570Y-10890180D01*
X18033930Y-10890180D01*
X18033930Y-10953820D01*
X18097570Y-10953820D01*
X17265650Y-7492200D02*
X17315650Y-7442200D01*
X17265650Y-7392200D01*
X17215650Y-7442200D01*
X17265650Y-7492200D01*
X17265650Y-7746200D02*
X17315650Y-7696200D01*
X17265650Y-7646200D01*
X17215650Y-7696200D01*
X17265650Y-7746200D01*
X17519650Y-7492200D02*
X17569650Y-7442200D01*
X17519650Y-7392200D01*
X17469650Y-7442200D01*
X17519650Y-7492200D01*
X17519650Y-7746200D02*
X17569650Y-7696200D01*
X17519650Y-7646200D01*
X17469650Y-7696200D01*
X17519650Y-7746200D01*
X17773650Y-7492200D02*
X17823650Y-7442200D01*
X17773650Y-7392200D01*
X17723650Y-7442200D01*
X17773650Y-7492200D01*
X17773650Y-7746200D02*
X17823650Y-7696200D01*
X17773650Y-7646200D01*
X17723650Y-7696200D01*
X17773650Y-7746200D01*
X18027650Y-7492200D02*
X18077650Y-7442200D01*
X18027650Y-7392200D01*
X17977650Y-7442200D01*
X18027650Y-7492200D01*
X18027650Y-7746200D02*
X18077650Y-7696200D01*
X18027650Y-7646200D01*
X17977650Y-7696200D01*
X18027650Y-7746200D01*
X12295750Y-10613000D02*
X12405750Y-10723000D01*
X12405750Y-10613000D02*
X12295750Y-10723000D01*
X12405750Y-10668000D02*
G75*
G03*
X12405750Y-10668000I-55000J0D01*
G01*
X12295750Y-11063000D02*
X12405750Y-11173000D01*
X12405750Y-11063000D02*
X12295750Y-11173000D01*
X12405750Y-11118000D02*
G75*
G03*
X12405750Y-11118000I-55000J0D01*
G01*
X12945750Y-10613000D02*
X13055750Y-10723000D01*
X13055750Y-10613000D02*
X12945750Y-10723000D01*
X13055750Y-10668000D02*
G75*
G03*
X13055750Y-10668000I-55000J0D01*
G01*
X12945750Y-11063000D02*
X13055750Y-11173000D01*
X13055750Y-11063000D02*
X12945750Y-11173000D01*
X13055750Y-11118000D02*
G75*
G03*
X13055750Y-11118000I-55000J0D01*
G01*
D12*
X10475678Y-12533214D02*
X10475678Y-12233214D01*
X10547107Y-12233214D01*
X10589964Y-12247500D01*
X10618536Y-12276071D01*
X10632821Y-12304643D01*
X10647107Y-12361786D01*
X10647107Y-12404643D01*
X10632821Y-12461786D01*
X10618536Y-12490357D01*
X10589964Y-12518929D01*
X10547107Y-12533214D01*
X10475678Y-12533214D01*
X10775678Y-12533214D02*
X10775678Y-12333214D01*
X10775678Y-12390357D02*
X10789964Y-12361786D01*
X10804250Y-12347500D01*
X10832821Y-12333214D01*
X10861393Y-12333214D01*
X10961393Y-12533214D02*
X10961393Y-12333214D01*
X10961393Y-12233214D02*
X10947107Y-12247500D01*
X10961393Y-12261786D01*
X10975678Y-12247500D01*
X10961393Y-12233214D01*
X10961393Y-12261786D01*
X11147107Y-12533214D02*
X11118536Y-12518929D01*
X11104250Y-12490357D01*
X11104250Y-12233214D01*
X11304250Y-12533214D02*
X11275678Y-12518929D01*
X11261393Y-12490357D01*
X11261393Y-12233214D01*
X11647107Y-12533214D02*
X11647107Y-12233214D01*
X11747107Y-12447500D01*
X11847107Y-12233214D01*
X11847107Y-12533214D01*
X12118536Y-12533214D02*
X12118536Y-12376071D01*
X12104250Y-12347500D01*
X12075678Y-12333214D01*
X12018536Y-12333214D01*
X11989964Y-12347500D01*
X12118536Y-12518929D02*
X12089964Y-12533214D01*
X12018536Y-12533214D01*
X11989964Y-12518929D01*
X11975678Y-12490357D01*
X11975678Y-12461786D01*
X11989964Y-12433214D01*
X12018536Y-12418929D01*
X12089964Y-12418929D01*
X12118536Y-12404643D01*
X12261393Y-12333214D02*
X12261393Y-12633214D01*
X12261393Y-12347500D02*
X12289964Y-12333214D01*
X12347107Y-12333214D01*
X12375678Y-12347500D01*
X12389964Y-12361786D01*
X12404250Y-12390357D01*
X12404250Y-12476071D01*
X12389964Y-12504643D01*
X12375678Y-12518929D01*
X12347107Y-12533214D01*
X12289964Y-12533214D01*
X12261393Y-12518929D01*
X12532821Y-12504643D02*
X12547107Y-12518929D01*
X12532821Y-12533214D01*
X12518536Y-12518929D01*
X12532821Y-12504643D01*
X12532821Y-12533214D01*
X12532821Y-12347500D02*
X12547107Y-12361786D01*
X12532821Y-12376071D01*
X12518536Y-12361786D01*
X12532821Y-12347500D01*
X12532821Y-12376071D01*
X10113250Y-12989500D02*
X10189250Y-13065500D01*
X10189250Y-12989500D02*
X10113250Y-13065500D01*
X10532821Y-12863214D02*
X10561393Y-12863214D01*
X10589964Y-12877500D01*
X10604250Y-12891786D01*
X10618536Y-12920357D01*
X10632821Y-12977500D01*
X10632821Y-13048929D01*
X10618536Y-13106071D01*
X10604250Y-13134643D01*
X10589964Y-13148929D01*
X10561393Y-13163214D01*
X10532821Y-13163214D01*
X10504250Y-13148929D01*
X10489964Y-13134643D01*
X10475678Y-13106071D01*
X10461393Y-13048929D01*
X10461393Y-12977500D01*
X10475678Y-12920357D01*
X10489964Y-12891786D01*
X10504250Y-12877500D01*
X10532821Y-12863214D01*
X10761393Y-13134643D02*
X10775678Y-13148929D01*
X10761393Y-13163214D01*
X10747107Y-13148929D01*
X10761393Y-13134643D01*
X10761393Y-13163214D01*
X10875678Y-12863214D02*
X11075678Y-12863214D01*
X10947107Y-13163214D01*
X11318536Y-12863214D02*
X11261393Y-12863214D01*
X11232821Y-12877500D01*
X11218536Y-12891786D01*
X11189964Y-12934643D01*
X11175678Y-12991786D01*
X11175678Y-13106071D01*
X11189964Y-13134643D01*
X11204250Y-13148929D01*
X11232821Y-13163214D01*
X11289964Y-13163214D01*
X11318536Y-13148929D01*
X11332821Y-13134643D01*
X11347107Y-13106071D01*
X11347107Y-13034643D01*
X11332821Y-13006071D01*
X11318536Y-12991786D01*
X11289964Y-12977500D01*
X11232821Y-12977500D01*
X11204250Y-12991786D01*
X11189964Y-13006071D01*
X11175678Y-13034643D01*
X11532821Y-12863214D02*
X11561393Y-12863214D01*
X11589964Y-12877500D01*
X11604250Y-12891786D01*
X11618536Y-12920357D01*
X11632821Y-12977500D01*
X11632821Y-13048929D01*
X11618536Y-13106071D01*
X11604250Y-13134643D01*
X11589964Y-13148929D01*
X11561393Y-13163214D01*
X11532821Y-13163214D01*
X11504250Y-13148929D01*
X11489964Y-13134643D01*
X11475678Y-13106071D01*
X11461393Y-13048929D01*
X11461393Y-12977500D01*
X11475678Y-12920357D01*
X11489964Y-12891786D01*
X11504250Y-12877500D01*
X11532821Y-12863214D01*
X11761393Y-13163214D02*
X11761393Y-12963214D01*
X11761393Y-12991786D02*
X11775678Y-12977500D01*
X11804250Y-12963214D01*
X11847107Y-12963214D01*
X11875678Y-12977500D01*
X11889964Y-13006071D01*
X11889964Y-13163214D01*
X11889964Y-13006071D02*
X11904250Y-12977500D01*
X11932821Y-12963214D01*
X11975678Y-12963214D01*
X12004250Y-12977500D01*
X12018536Y-13006071D01*
X12018536Y-13163214D01*
X12161393Y-13163214D02*
X12161393Y-12963214D01*
X12161393Y-12991786D02*
X12175678Y-12977500D01*
X12204250Y-12963214D01*
X12247107Y-12963214D01*
X12275678Y-12977500D01*
X12289964Y-13006071D01*
X12289964Y-13163214D01*
X12289964Y-13006071D02*
X12304250Y-12977500D01*
X12332821Y-12963214D01*
X12375678Y-12963214D01*
X12404250Y-12977500D01*
X12418536Y-13006071D01*
X12418536Y-13163214D01*
X13004250Y-12848929D02*
X12747107Y-13234643D01*
X13389964Y-12863214D02*
X13418536Y-12863214D01*
X13447107Y-12877500D01*
X13461393Y-12891786D01*
X13475678Y-12920357D01*
X13489964Y-12977500D01*
X13489964Y-13048929D01*
X13475678Y-13106071D01*
X13461393Y-13134643D01*
X13447107Y-13148929D01*
X13418536Y-13163214D01*
X13389964Y-13163214D01*
X13361393Y-13148929D01*
X13347107Y-13134643D01*
X13332821Y-13106071D01*
X13318536Y-13048929D01*
X13318536Y-12977500D01*
X13332821Y-12920357D01*
X13347107Y-12891786D01*
X13361393Y-12877500D01*
X13389964Y-12863214D01*
X13618536Y-13134643D02*
X13632821Y-13148929D01*
X13618536Y-13163214D01*
X13604250Y-13148929D01*
X13618536Y-13134643D01*
X13618536Y-13163214D01*
X13818536Y-12863214D02*
X13847107Y-12863214D01*
X13875678Y-12877500D01*
X13889964Y-12891786D01*
X13904250Y-12920357D01*
X13918536Y-12977500D01*
X13918536Y-13048929D01*
X13904250Y-13106071D01*
X13889964Y-13134643D01*
X13875678Y-13148929D01*
X13847107Y-13163214D01*
X13818536Y-13163214D01*
X13789964Y-13148929D01*
X13775678Y-13134643D01*
X13761393Y-13106071D01*
X13747107Y-13048929D01*
X13747107Y-12977500D01*
X13761393Y-12920357D01*
X13775678Y-12891786D01*
X13789964Y-12877500D01*
X13818536Y-12863214D01*
X14032821Y-12891786D02*
X14047107Y-12877500D01*
X14075678Y-12863214D01*
X14147107Y-12863214D01*
X14175678Y-12877500D01*
X14189964Y-12891786D01*
X14204250Y-12920357D01*
X14204250Y-12948929D01*
X14189964Y-12991786D01*
X14018536Y-13163214D01*
X14204250Y-13163214D01*
X14347107Y-13163214D02*
X14404250Y-13163214D01*
X14432821Y-13148929D01*
X14447107Y-13134643D01*
X14475678Y-13091786D01*
X14489964Y-13034643D01*
X14489964Y-12920357D01*
X14475678Y-12891786D01*
X14461393Y-12877500D01*
X14432821Y-12863214D01*
X14375678Y-12863214D01*
X14347107Y-12877500D01*
X14332821Y-12891786D01*
X14318536Y-12920357D01*
X14318536Y-12991786D01*
X14332821Y-13020357D01*
X14347107Y-13034643D01*
X14375678Y-13048929D01*
X14432821Y-13048929D01*
X14461393Y-13034643D01*
X14475678Y-13020357D01*
X14489964Y-12991786D01*
X14632821Y-13163214D02*
X14689964Y-13163214D01*
X14718536Y-13148929D01*
X14732821Y-13134643D01*
X14761393Y-13091786D01*
X14775678Y-13034643D01*
X14775678Y-12920357D01*
X14761393Y-12891786D01*
X14747107Y-12877500D01*
X14718536Y-12863214D01*
X14661393Y-12863214D01*
X14632821Y-12877500D01*
X14618536Y-12891786D01*
X14604250Y-12920357D01*
X14604250Y-12991786D01*
X14618536Y-13020357D01*
X14632821Y-13034643D01*
X14661393Y-13048929D01*
X14718536Y-13048929D01*
X14747107Y-13034643D01*
X14761393Y-13020357D01*
X14775678Y-12991786D01*
X14889964Y-12863214D02*
X14889964Y-12920357D01*
X15004250Y-12863214D02*
X15004250Y-12920357D01*
X15447107Y-13277500D02*
X15432821Y-13263214D01*
X15404250Y-13220357D01*
X15389964Y-13191786D01*
X15375678Y-13148929D01*
X15361393Y-13077500D01*
X15361393Y-13020357D01*
X15375678Y-12948929D01*
X15389964Y-12906071D01*
X15404250Y-12877500D01*
X15432821Y-12834643D01*
X15447107Y-12820357D01*
X15532821Y-12863214D02*
X15718536Y-12863214D01*
X15618536Y-12977500D01*
X15661393Y-12977500D01*
X15689964Y-12991786D01*
X15704250Y-13006071D01*
X15718536Y-13034643D01*
X15718536Y-13106071D01*
X15704250Y-13134643D01*
X15689964Y-13148929D01*
X15661393Y-13163214D01*
X15575678Y-13163214D01*
X15547107Y-13148929D01*
X15532821Y-13134643D01*
X16075678Y-13163214D02*
X16075678Y-12863214D01*
X16204250Y-13163214D02*
X16204250Y-13006071D01*
X16189964Y-12977500D01*
X16161393Y-12963214D01*
X16118536Y-12963214D01*
X16089964Y-12977500D01*
X16075678Y-12991786D01*
X16389964Y-13163214D02*
X16361393Y-13148929D01*
X16347107Y-13134643D01*
X16332821Y-13106071D01*
X16332821Y-13020357D01*
X16347107Y-12991786D01*
X16361393Y-12977500D01*
X16389964Y-12963214D01*
X16432821Y-12963214D01*
X16461393Y-12977500D01*
X16475678Y-12991786D01*
X16489964Y-13020357D01*
X16489964Y-13106071D01*
X16475678Y-13134643D01*
X16461393Y-13148929D01*
X16432821Y-13163214D01*
X16389964Y-13163214D01*
X16661393Y-13163214D02*
X16632821Y-13148929D01*
X16618536Y-13120357D01*
X16618536Y-12863214D01*
X16889964Y-13148929D02*
X16861393Y-13163214D01*
X16804250Y-13163214D01*
X16775678Y-13148929D01*
X16761393Y-13120357D01*
X16761393Y-13006071D01*
X16775678Y-12977500D01*
X16804250Y-12963214D01*
X16861393Y-12963214D01*
X16889964Y-12977500D01*
X16904250Y-13006071D01*
X16904250Y-13034643D01*
X16761393Y-13063214D01*
X17018536Y-13148929D02*
X17047107Y-13163214D01*
X17104250Y-13163214D01*
X17132821Y-13148929D01*
X17147107Y-13120357D01*
X17147107Y-13106071D01*
X17132821Y-13077500D01*
X17104250Y-13063214D01*
X17061393Y-13063214D01*
X17032821Y-13048929D01*
X17018536Y-13020357D01*
X17018536Y-13006071D01*
X17032821Y-12977500D01*
X17061393Y-12963214D01*
X17104250Y-12963214D01*
X17132821Y-12977500D01*
X17247107Y-13277500D02*
X17261393Y-13263214D01*
X17289964Y-13220357D01*
X17304250Y-13191786D01*
X17318536Y-13148929D01*
X17332821Y-13077500D01*
X17332821Y-13020357D01*
X17318536Y-12948929D01*
X17304250Y-12906071D01*
X17289964Y-12877500D01*
X17261393Y-12834643D01*
X17247107Y-12820357D01*
X10189250Y-13423500D02*
G75*
G03*
X10189250Y-13423500I-38100J0D01*
G01*
X10532821Y-13259214D02*
X10561393Y-13259214D01*
X10589964Y-13273500D01*
X10604250Y-13287786D01*
X10618536Y-13316357D01*
X10632821Y-13373500D01*
X10632821Y-13444929D01*
X10618536Y-13502071D01*
X10604250Y-13530643D01*
X10589964Y-13544929D01*
X10561393Y-13559214D01*
X10532821Y-13559214D01*
X10504250Y-13544929D01*
X10489964Y-13530643D01*
X10475678Y-13502071D01*
X10461393Y-13444929D01*
X10461393Y-13373500D01*
X10475678Y-13316357D01*
X10489964Y-13287786D01*
X10504250Y-13273500D01*
X10532821Y-13259214D01*
X10761393Y-13530643D02*
X10775678Y-13544929D01*
X10761393Y-13559214D01*
X10747107Y-13544929D01*
X10761393Y-13530643D01*
X10761393Y-13559214D01*
X10875678Y-13259214D02*
X11075678Y-13259214D01*
X10947107Y-13559214D01*
X11318536Y-13259214D02*
X11261393Y-13259214D01*
X11232821Y-13273500D01*
X11218536Y-13287786D01*
X11189964Y-13330643D01*
X11175678Y-13387786D01*
X11175678Y-13502071D01*
X11189964Y-13530643D01*
X11204250Y-13544929D01*
X11232821Y-13559214D01*
X11289964Y-13559214D01*
X11318536Y-13544929D01*
X11332821Y-13530643D01*
X11347107Y-13502071D01*
X11347107Y-13430643D01*
X11332821Y-13402071D01*
X11318536Y-13387786D01*
X11289964Y-13373500D01*
X11232821Y-13373500D01*
X11204250Y-13387786D01*
X11189964Y-13402071D01*
X11175678Y-13430643D01*
X11461393Y-13287786D02*
X11475678Y-13273500D01*
X11504250Y-13259214D01*
X11575678Y-13259214D01*
X11604250Y-13273500D01*
X11618536Y-13287786D01*
X11632821Y-13316357D01*
X11632821Y-13344929D01*
X11618536Y-13387786D01*
X11447107Y-13559214D01*
X11632821Y-13559214D01*
X11761393Y-13559214D02*
X11761393Y-13359214D01*
X11761393Y-13387786D02*
X11775678Y-13373500D01*
X11804250Y-13359214D01*
X11847107Y-13359214D01*
X11875678Y-13373500D01*
X11889964Y-13402071D01*
X11889964Y-13559214D01*
X11889964Y-13402071D02*
X11904250Y-13373500D01*
X11932821Y-13359214D01*
X11975678Y-13359214D01*
X12004250Y-13373500D01*
X12018536Y-13402071D01*
X12018536Y-13559214D01*
X12161393Y-13559214D02*
X12161393Y-13359214D01*
X12161393Y-13387786D02*
X12175678Y-13373500D01*
X12204250Y-13359214D01*
X12247107Y-13359214D01*
X12275678Y-13373500D01*
X12289964Y-13402071D01*
X12289964Y-13559214D01*
X12289964Y-13402071D02*
X12304250Y-13373500D01*
X12332821Y-13359214D01*
X12375678Y-13359214D01*
X12404250Y-13373500D01*
X12418536Y-13402071D01*
X12418536Y-13559214D01*
X13004250Y-13244929D02*
X12747107Y-13630643D01*
X13389964Y-13259214D02*
X13418536Y-13259214D01*
X13447107Y-13273500D01*
X13461393Y-13287786D01*
X13475678Y-13316357D01*
X13489964Y-13373500D01*
X13489964Y-13444929D01*
X13475678Y-13502071D01*
X13461393Y-13530643D01*
X13447107Y-13544929D01*
X13418536Y-13559214D01*
X13389964Y-13559214D01*
X13361393Y-13544929D01*
X13347107Y-13530643D01*
X13332821Y-13502071D01*
X13318536Y-13444929D01*
X13318536Y-13373500D01*
X13332821Y-13316357D01*
X13347107Y-13287786D01*
X13361393Y-13273500D01*
X13389964Y-13259214D01*
X13618536Y-13530643D02*
X13632821Y-13544929D01*
X13618536Y-13559214D01*
X13604250Y-13544929D01*
X13618536Y-13530643D01*
X13618536Y-13559214D01*
X13818536Y-13259214D02*
X13847107Y-13259214D01*
X13875678Y-13273500D01*
X13889964Y-13287786D01*
X13904250Y-13316357D01*
X13918536Y-13373500D01*
X13918536Y-13444929D01*
X13904250Y-13502071D01*
X13889964Y-13530643D01*
X13875678Y-13544929D01*
X13847107Y-13559214D01*
X13818536Y-13559214D01*
X13789964Y-13544929D01*
X13775678Y-13530643D01*
X13761393Y-13502071D01*
X13747107Y-13444929D01*
X13747107Y-13373500D01*
X13761393Y-13316357D01*
X13775678Y-13287786D01*
X13789964Y-13273500D01*
X13818536Y-13259214D01*
X14018536Y-13259214D02*
X14204250Y-13259214D01*
X14104250Y-13373500D01*
X14147107Y-13373500D01*
X14175678Y-13387786D01*
X14189964Y-13402071D01*
X14204250Y-13430643D01*
X14204250Y-13502071D01*
X14189964Y-13530643D01*
X14175678Y-13544929D01*
X14147107Y-13559214D01*
X14061393Y-13559214D01*
X14032821Y-13544929D01*
X14018536Y-13530643D01*
X14389964Y-13259214D02*
X14418536Y-13259214D01*
X14447107Y-13273500D01*
X14461393Y-13287786D01*
X14475678Y-13316357D01*
X14489964Y-13373500D01*
X14489964Y-13444929D01*
X14475678Y-13502071D01*
X14461393Y-13530643D01*
X14447107Y-13544929D01*
X14418536Y-13559214D01*
X14389964Y-13559214D01*
X14361393Y-13544929D01*
X14347107Y-13530643D01*
X14332821Y-13502071D01*
X14318536Y-13444929D01*
X14318536Y-13373500D01*
X14332821Y-13316357D01*
X14347107Y-13287786D01*
X14361393Y-13273500D01*
X14389964Y-13259214D01*
X14675678Y-13259214D02*
X14704250Y-13259214D01*
X14732821Y-13273500D01*
X14747107Y-13287786D01*
X14761393Y-13316357D01*
X14775678Y-13373500D01*
X14775678Y-13444929D01*
X14761393Y-13502071D01*
X14747107Y-13530643D01*
X14732821Y-13544929D01*
X14704250Y-13559214D01*
X14675678Y-13559214D01*
X14647107Y-13544929D01*
X14632821Y-13530643D01*
X14618536Y-13502071D01*
X14604250Y-13444929D01*
X14604250Y-13373500D01*
X14618536Y-13316357D01*
X14632821Y-13287786D01*
X14647107Y-13273500D01*
X14675678Y-13259214D01*
X14889964Y-13259214D02*
X14889964Y-13316357D01*
X15004250Y-13259214D02*
X15004250Y-13316357D01*
X15447107Y-13673500D02*
X15432821Y-13659214D01*
X15404250Y-13616357D01*
X15389964Y-13587786D01*
X15375678Y-13544929D01*
X15361393Y-13473500D01*
X15361393Y-13416357D01*
X15375678Y-13344929D01*
X15389964Y-13302071D01*
X15404250Y-13273500D01*
X15432821Y-13230643D01*
X15447107Y-13216357D01*
X15689964Y-13259214D02*
X15632821Y-13259214D01*
X15604250Y-13273500D01*
X15589964Y-13287786D01*
X15561393Y-13330643D01*
X15547107Y-13387786D01*
X15547107Y-13502071D01*
X15561393Y-13530643D01*
X15575678Y-13544929D01*
X15604250Y-13559214D01*
X15661393Y-13559214D01*
X15689964Y-13544929D01*
X15704250Y-13530643D01*
X15718536Y-13502071D01*
X15718536Y-13430643D01*
X15704250Y-13402071D01*
X15689964Y-13387786D01*
X15661393Y-13373500D01*
X15604250Y-13373500D01*
X15575678Y-13387786D01*
X15561393Y-13402071D01*
X15547107Y-13430643D01*
X16075678Y-13559214D02*
X16075678Y-13259214D01*
X16204250Y-13559214D02*
X16204250Y-13402071D01*
X16189964Y-13373500D01*
X16161393Y-13359214D01*
X16118536Y-13359214D01*
X16089964Y-13373500D01*
X16075678Y-13387786D01*
X16389964Y-13559214D02*
X16361393Y-13544929D01*
X16347107Y-13530643D01*
X16332821Y-13502071D01*
X16332821Y-13416357D01*
X16347107Y-13387786D01*
X16361393Y-13373500D01*
X16389964Y-13359214D01*
X16432821Y-13359214D01*
X16461393Y-13373500D01*
X16475678Y-13387786D01*
X16489964Y-13416357D01*
X16489964Y-13502071D01*
X16475678Y-13530643D01*
X16461393Y-13544929D01*
X16432821Y-13559214D01*
X16389964Y-13559214D01*
X16661393Y-13559214D02*
X16632821Y-13544929D01*
X16618536Y-13516357D01*
X16618536Y-13259214D01*
X16889964Y-13544929D02*
X16861393Y-13559214D01*
X16804250Y-13559214D01*
X16775678Y-13544929D01*
X16761393Y-13516357D01*
X16761393Y-13402071D01*
X16775678Y-13373500D01*
X16804250Y-13359214D01*
X16861393Y-13359214D01*
X16889964Y-13373500D01*
X16904250Y-13402071D01*
X16904250Y-13430643D01*
X16761393Y-13459214D01*
X17018536Y-13544929D02*
X17047107Y-13559214D01*
X17104250Y-13559214D01*
X17132821Y-13544929D01*
X17147107Y-13516357D01*
X17147107Y-13502071D01*
X17132821Y-13473500D01*
X17104250Y-13459214D01*
X17061393Y-13459214D01*
X17032821Y-13444929D01*
X17018536Y-13416357D01*
X17018536Y-13402071D01*
X17032821Y-13373500D01*
X17061393Y-13359214D01*
X17104250Y-13359214D01*
X17132821Y-13373500D01*
X17247107Y-13673500D02*
X17261393Y-13659214D01*
X17289964Y-13616357D01*
X17304250Y-13587786D01*
X17318536Y-13544929D01*
X17332821Y-13473500D01*
X17332821Y-13416357D01*
X17318536Y-13344929D01*
X17304250Y-13302071D01*
X17289964Y-13273500D01*
X17261393Y-13230643D01*
X17247107Y-13216357D01*
X10149250Y-13779500D02*
X10149250Y-13859500D01*
X10109250Y-13819500D02*
X10189250Y-13819500D01*
X10532821Y-13655214D02*
X10561393Y-13655214D01*
X10589964Y-13669500D01*
X10604250Y-13683786D01*
X10618536Y-13712357D01*
X10632821Y-13769500D01*
X10632821Y-13840929D01*
X10618536Y-13898071D01*
X10604250Y-13926643D01*
X10589964Y-13940929D01*
X10561393Y-13955214D01*
X10532821Y-13955214D01*
X10504250Y-13940929D01*
X10489964Y-13926643D01*
X10475678Y-13898071D01*
X10461393Y-13840929D01*
X10461393Y-13769500D01*
X10475678Y-13712357D01*
X10489964Y-13683786D01*
X10504250Y-13669500D01*
X10532821Y-13655214D01*
X10761393Y-13926643D02*
X10775678Y-13940929D01*
X10761393Y-13955214D01*
X10747107Y-13940929D01*
X10761393Y-13926643D01*
X10761393Y-13955214D01*
X10947107Y-13783786D02*
X10918536Y-13769500D01*
X10904250Y-13755214D01*
X10889964Y-13726643D01*
X10889964Y-13712357D01*
X10904250Y-13683786D01*
X10918536Y-13669500D01*
X10947107Y-13655214D01*
X11004250Y-13655214D01*
X11032821Y-13669500D01*
X11047107Y-13683786D01*
X11061393Y-13712357D01*
X11061393Y-13726643D01*
X11047107Y-13755214D01*
X11032821Y-13769500D01*
X11004250Y-13783786D01*
X10947107Y-13783786D01*
X10918536Y-13798071D01*
X10904250Y-13812357D01*
X10889964Y-13840929D01*
X10889964Y-13898071D01*
X10904250Y-13926643D01*
X10918536Y-13940929D01*
X10947107Y-13955214D01*
X11004250Y-13955214D01*
X11032821Y-13940929D01*
X11047107Y-13926643D01*
X11061393Y-13898071D01*
X11061393Y-13840929D01*
X11047107Y-13812357D01*
X11032821Y-13798071D01*
X11004250Y-13783786D01*
X11247107Y-13655214D02*
X11275678Y-13655214D01*
X11304250Y-13669500D01*
X11318536Y-13683786D01*
X11332821Y-13712357D01*
X11347107Y-13769500D01*
X11347107Y-13840929D01*
X11332821Y-13898071D01*
X11318536Y-13926643D01*
X11304250Y-13940929D01*
X11275678Y-13955214D01*
X11247107Y-13955214D01*
X11218536Y-13940929D01*
X11204250Y-13926643D01*
X11189964Y-13898071D01*
X11175678Y-13840929D01*
X11175678Y-13769500D01*
X11189964Y-13712357D01*
X11204250Y-13683786D01*
X11218536Y-13669500D01*
X11247107Y-13655214D01*
X11532821Y-13655214D02*
X11561393Y-13655214D01*
X11589964Y-13669500D01*
X11604250Y-13683786D01*
X11618536Y-13712357D01*
X11632821Y-13769500D01*
X11632821Y-13840929D01*
X11618536Y-13898071D01*
X11604250Y-13926643D01*
X11589964Y-13940929D01*
X11561393Y-13955214D01*
X11532821Y-13955214D01*
X11504250Y-13940929D01*
X11489964Y-13926643D01*
X11475678Y-13898071D01*
X11461393Y-13840929D01*
X11461393Y-13769500D01*
X11475678Y-13712357D01*
X11489964Y-13683786D01*
X11504250Y-13669500D01*
X11532821Y-13655214D01*
X11761393Y-13955214D02*
X11761393Y-13755214D01*
X11761393Y-13783786D02*
X11775678Y-13769500D01*
X11804250Y-13755214D01*
X11847107Y-13755214D01*
X11875678Y-13769500D01*
X11889964Y-13798071D01*
X11889964Y-13955214D01*
X11889964Y-13798071D02*
X11904250Y-13769500D01*
X11932821Y-13755214D01*
X11975678Y-13755214D01*
X12004250Y-13769500D01*
X12018536Y-13798071D01*
X12018536Y-13955214D01*
X12161393Y-13955214D02*
X12161393Y-13755214D01*
X12161393Y-13783786D02*
X12175678Y-13769500D01*
X12204250Y-13755214D01*
X12247107Y-13755214D01*
X12275678Y-13769500D01*
X12289964Y-13798071D01*
X12289964Y-13955214D01*
X12289964Y-13798071D02*
X12304250Y-13769500D01*
X12332821Y-13755214D01*
X12375678Y-13755214D01*
X12404250Y-13769500D01*
X12418536Y-13798071D01*
X12418536Y-13955214D01*
X13004250Y-13640929D02*
X12747107Y-14026643D01*
X13389964Y-13655214D02*
X13418536Y-13655214D01*
X13447107Y-13669500D01*
X13461393Y-13683786D01*
X13475678Y-13712357D01*
X13489964Y-13769500D01*
X13489964Y-13840929D01*
X13475678Y-13898071D01*
X13461393Y-13926643D01*
X13447107Y-13940929D01*
X13418536Y-13955214D01*
X13389964Y-13955214D01*
X13361393Y-13940929D01*
X13347107Y-13926643D01*
X13332821Y-13898071D01*
X13318536Y-13840929D01*
X13318536Y-13769500D01*
X13332821Y-13712357D01*
X13347107Y-13683786D01*
X13361393Y-13669500D01*
X13389964Y-13655214D01*
X13618536Y-13926643D02*
X13632821Y-13940929D01*
X13618536Y-13955214D01*
X13604250Y-13940929D01*
X13618536Y-13926643D01*
X13618536Y-13955214D01*
X13818536Y-13655214D02*
X13847107Y-13655214D01*
X13875678Y-13669500D01*
X13889964Y-13683786D01*
X13904250Y-13712357D01*
X13918536Y-13769500D01*
X13918536Y-13840929D01*
X13904250Y-13898071D01*
X13889964Y-13926643D01*
X13875678Y-13940929D01*
X13847107Y-13955214D01*
X13818536Y-13955214D01*
X13789964Y-13940929D01*
X13775678Y-13926643D01*
X13761393Y-13898071D01*
X13747107Y-13840929D01*
X13747107Y-13769500D01*
X13761393Y-13712357D01*
X13775678Y-13683786D01*
X13789964Y-13669500D01*
X13818536Y-13655214D01*
X14018536Y-13655214D02*
X14204250Y-13655214D01*
X14104250Y-13769500D01*
X14147107Y-13769500D01*
X14175678Y-13783786D01*
X14189964Y-13798071D01*
X14204250Y-13826643D01*
X14204250Y-13898071D01*
X14189964Y-13926643D01*
X14175678Y-13940929D01*
X14147107Y-13955214D01*
X14061393Y-13955214D01*
X14032821Y-13940929D01*
X14018536Y-13926643D01*
X14489964Y-13955214D02*
X14318536Y-13955214D01*
X14404250Y-13955214D02*
X14404250Y-13655214D01*
X14375678Y-13698071D01*
X14347107Y-13726643D01*
X14318536Y-13740929D01*
X14761393Y-13655214D02*
X14618536Y-13655214D01*
X14604250Y-13798071D01*
X14618536Y-13783786D01*
X14647107Y-13769500D01*
X14718536Y-13769500D01*
X14747107Y-13783786D01*
X14761393Y-13798071D01*
X14775678Y-13826643D01*
X14775678Y-13898071D01*
X14761393Y-13926643D01*
X14747107Y-13940929D01*
X14718536Y-13955214D01*
X14647107Y-13955214D01*
X14618536Y-13940929D01*
X14604250Y-13926643D01*
X14889964Y-13655214D02*
X14889964Y-13712357D01*
X15004250Y-13655214D02*
X15004250Y-13712357D01*
X15447107Y-14069500D02*
X15432821Y-14055214D01*
X15404250Y-14012357D01*
X15389964Y-13983786D01*
X15375678Y-13940929D01*
X15361393Y-13869500D01*
X15361393Y-13812357D01*
X15375678Y-13740929D01*
X15389964Y-13698071D01*
X15404250Y-13669500D01*
X15432821Y-13626643D01*
X15447107Y-13612357D01*
X15575678Y-13955214D02*
X15632821Y-13955214D01*
X15661393Y-13940929D01*
X15675678Y-13926643D01*
X15704250Y-13883786D01*
X15718536Y-13826643D01*
X15718536Y-13712357D01*
X15704250Y-13683786D01*
X15689964Y-13669500D01*
X15661393Y-13655214D01*
X15604250Y-13655214D01*
X15575678Y-13669500D01*
X15561393Y-13683786D01*
X15547107Y-13712357D01*
X15547107Y-13783786D01*
X15561393Y-13812357D01*
X15575678Y-13826643D01*
X15604250Y-13840929D01*
X15661393Y-13840929D01*
X15689964Y-13826643D01*
X15704250Y-13812357D01*
X15718536Y-13783786D01*
X15989964Y-13655214D02*
X15847107Y-13655214D01*
X15832821Y-13798071D01*
X15847107Y-13783786D01*
X15875678Y-13769500D01*
X15947107Y-13769500D01*
X15975678Y-13783786D01*
X15989964Y-13798071D01*
X16004250Y-13826643D01*
X16004250Y-13898071D01*
X15989964Y-13926643D01*
X15975678Y-13940929D01*
X15947107Y-13955214D01*
X15875678Y-13955214D01*
X15847107Y-13940929D01*
X15832821Y-13926643D01*
X16361393Y-13955214D02*
X16361393Y-13655214D01*
X16489964Y-13955214D02*
X16489964Y-13798071D01*
X16475678Y-13769500D01*
X16447107Y-13755214D01*
X16404250Y-13755214D01*
X16375678Y-13769500D01*
X16361393Y-13783786D01*
X16675678Y-13955214D02*
X16647107Y-13940929D01*
X16632821Y-13926643D01*
X16618536Y-13898071D01*
X16618536Y-13812357D01*
X16632821Y-13783786D01*
X16647107Y-13769500D01*
X16675678Y-13755214D01*
X16718536Y-13755214D01*
X16747107Y-13769500D01*
X16761393Y-13783786D01*
X16775678Y-13812357D01*
X16775678Y-13898071D01*
X16761393Y-13926643D01*
X16747107Y-13940929D01*
X16718536Y-13955214D01*
X16675678Y-13955214D01*
X16947107Y-13955214D02*
X16918536Y-13940929D01*
X16904250Y-13912357D01*
X16904250Y-13655214D01*
X17175678Y-13940929D02*
X17147107Y-13955214D01*
X17089964Y-13955214D01*
X17061393Y-13940929D01*
X17047107Y-13912357D01*
X17047107Y-13798071D01*
X17061393Y-13769500D01*
X17089964Y-13755214D01*
X17147107Y-13755214D01*
X17175678Y-13769500D01*
X17189964Y-13798071D01*
X17189964Y-13826643D01*
X17047107Y-13855214D01*
X17304250Y-13940929D02*
X17332821Y-13955214D01*
X17389964Y-13955214D01*
X17418536Y-13940929D01*
X17432821Y-13912357D01*
X17432821Y-13898071D01*
X17418536Y-13869500D01*
X17389964Y-13855214D01*
X17347107Y-13855214D01*
X17318536Y-13840929D01*
X17304250Y-13812357D01*
X17304250Y-13798071D01*
X17318536Y-13769500D01*
X17347107Y-13755214D01*
X17389964Y-13755214D01*
X17418536Y-13769500D01*
X17532821Y-14069500D02*
X17547107Y-14055214D01*
X17575678Y-14012357D01*
X17589964Y-13983786D01*
X17604250Y-13940929D01*
X17618536Y-13869500D01*
X17618536Y-13812357D01*
X17604250Y-13740929D01*
X17589964Y-13698071D01*
X17575678Y-13669500D01*
X17547107Y-13626643D01*
X17532821Y-13612357D01*
X10176070Y-14247320D02*
X10176070Y-14183680D01*
X10112430Y-14183680D01*
X10112430Y-14247320D01*
X10176070Y-14247320D01*
X10532821Y-14051214D02*
X10561393Y-14051214D01*
X10589964Y-14065500D01*
X10604250Y-14079786D01*
X10618536Y-14108357D01*
X10632821Y-14165500D01*
X10632821Y-14236929D01*
X10618536Y-14294071D01*
X10604250Y-14322643D01*
X10589964Y-14336929D01*
X10561393Y-14351214D01*
X10532821Y-14351214D01*
X10504250Y-14336929D01*
X10489964Y-14322643D01*
X10475678Y-14294071D01*
X10461393Y-14236929D01*
X10461393Y-14165500D01*
X10475678Y-14108357D01*
X10489964Y-14079786D01*
X10504250Y-14065500D01*
X10532821Y-14051214D01*
X10761393Y-14322643D02*
X10775678Y-14336929D01*
X10761393Y-14351214D01*
X10747107Y-14336929D01*
X10761393Y-14322643D01*
X10761393Y-14351214D01*
X10918536Y-14351214D02*
X10975678Y-14351214D01*
X11004250Y-14336929D01*
X11018536Y-14322643D01*
X11047107Y-14279786D01*
X11061393Y-14222643D01*
X11061393Y-14108357D01*
X11047107Y-14079786D01*
X11032821Y-14065500D01*
X11004250Y-14051214D01*
X10947107Y-14051214D01*
X10918536Y-14065500D01*
X10904250Y-14079786D01*
X10889964Y-14108357D01*
X10889964Y-14179786D01*
X10904250Y-14208357D01*
X10918536Y-14222643D01*
X10947107Y-14236929D01*
X11004250Y-14236929D01*
X11032821Y-14222643D01*
X11047107Y-14208357D01*
X11061393Y-14179786D01*
X11247107Y-14051214D02*
X11275678Y-14051214D01*
X11304250Y-14065500D01*
X11318536Y-14079786D01*
X11332821Y-14108357D01*
X11347107Y-14165500D01*
X11347107Y-14236929D01*
X11332821Y-14294071D01*
X11318536Y-14322643D01*
X11304250Y-14336929D01*
X11275678Y-14351214D01*
X11247107Y-14351214D01*
X11218536Y-14336929D01*
X11204250Y-14322643D01*
X11189964Y-14294071D01*
X11175678Y-14236929D01*
X11175678Y-14165500D01*
X11189964Y-14108357D01*
X11204250Y-14079786D01*
X11218536Y-14065500D01*
X11247107Y-14051214D01*
X11532821Y-14051214D02*
X11561393Y-14051214D01*
X11589964Y-14065500D01*
X11604250Y-14079786D01*
X11618536Y-14108357D01*
X11632821Y-14165500D01*
X11632821Y-14236929D01*
X11618536Y-14294071D01*
X11604250Y-14322643D01*
X11589964Y-14336929D01*
X11561393Y-14351214D01*
X11532821Y-14351214D01*
X11504250Y-14336929D01*
X11489964Y-14322643D01*
X11475678Y-14294071D01*
X11461393Y-14236929D01*
X11461393Y-14165500D01*
X11475678Y-14108357D01*
X11489964Y-14079786D01*
X11504250Y-14065500D01*
X11532821Y-14051214D01*
X11761393Y-14351214D02*
X11761393Y-14151214D01*
X11761393Y-14179786D02*
X11775678Y-14165500D01*
X11804250Y-14151214D01*
X11847107Y-14151214D01*
X11875678Y-14165500D01*
X11889964Y-14194071D01*
X11889964Y-14351214D01*
X11889964Y-14194071D02*
X11904250Y-14165500D01*
X11932821Y-14151214D01*
X11975678Y-14151214D01*
X12004250Y-14165500D01*
X12018536Y-14194071D01*
X12018536Y-14351214D01*
X12161393Y-14351214D02*
X12161393Y-14151214D01*
X12161393Y-14179786D02*
X12175678Y-14165500D01*
X12204250Y-14151214D01*
X12247107Y-14151214D01*
X12275678Y-14165500D01*
X12289964Y-14194071D01*
X12289964Y-14351214D01*
X12289964Y-14194071D02*
X12304250Y-14165500D01*
X12332821Y-14151214D01*
X12375678Y-14151214D01*
X12404250Y-14165500D01*
X12418536Y-14194071D01*
X12418536Y-14351214D01*
X13004250Y-14036929D02*
X12747107Y-14422643D01*
X13389964Y-14051214D02*
X13418536Y-14051214D01*
X13447107Y-14065500D01*
X13461393Y-14079786D01*
X13475678Y-14108357D01*
X13489964Y-14165500D01*
X13489964Y-14236929D01*
X13475678Y-14294071D01*
X13461393Y-14322643D01*
X13447107Y-14336929D01*
X13418536Y-14351214D01*
X13389964Y-14351214D01*
X13361393Y-14336929D01*
X13347107Y-14322643D01*
X13332821Y-14294071D01*
X13318536Y-14236929D01*
X13318536Y-14165500D01*
X13332821Y-14108357D01*
X13347107Y-14079786D01*
X13361393Y-14065500D01*
X13389964Y-14051214D01*
X13618536Y-14322643D02*
X13632821Y-14336929D01*
X13618536Y-14351214D01*
X13604250Y-14336929D01*
X13618536Y-14322643D01*
X13618536Y-14351214D01*
X13818536Y-14051214D02*
X13847107Y-14051214D01*
X13875678Y-14065500D01*
X13889964Y-14079786D01*
X13904250Y-14108357D01*
X13918536Y-14165500D01*
X13918536Y-14236929D01*
X13904250Y-14294071D01*
X13889964Y-14322643D01*
X13875678Y-14336929D01*
X13847107Y-14351214D01*
X13818536Y-14351214D01*
X13789964Y-14336929D01*
X13775678Y-14322643D01*
X13761393Y-14294071D01*
X13747107Y-14236929D01*
X13747107Y-14165500D01*
X13761393Y-14108357D01*
X13775678Y-14079786D01*
X13789964Y-14065500D01*
X13818536Y-14051214D01*
X14018536Y-14051214D02*
X14204250Y-14051214D01*
X14104250Y-14165500D01*
X14147107Y-14165500D01*
X14175678Y-14179786D01*
X14189964Y-14194071D01*
X14204250Y-14222643D01*
X14204250Y-14294071D01*
X14189964Y-14322643D01*
X14175678Y-14336929D01*
X14147107Y-14351214D01*
X14061393Y-14351214D01*
X14032821Y-14336929D01*
X14018536Y-14322643D01*
X14475678Y-14051214D02*
X14332821Y-14051214D01*
X14318536Y-14194071D01*
X14332821Y-14179786D01*
X14361393Y-14165500D01*
X14432821Y-14165500D01*
X14461393Y-14179786D01*
X14475678Y-14194071D01*
X14489964Y-14222643D01*
X14489964Y-14294071D01*
X14475678Y-14322643D01*
X14461393Y-14336929D01*
X14432821Y-14351214D01*
X14361393Y-14351214D01*
X14332821Y-14336929D01*
X14318536Y-14322643D01*
X14747107Y-14151214D02*
X14747107Y-14351214D01*
X14675678Y-14036929D02*
X14604250Y-14251214D01*
X14789964Y-14251214D01*
X14889964Y-14051214D02*
X14889964Y-14108357D01*
X15004250Y-14051214D02*
X15004250Y-14108357D01*
X15447107Y-14465500D02*
X15432821Y-14451214D01*
X15404250Y-14408357D01*
X15389964Y-14379786D01*
X15375678Y-14336929D01*
X15361393Y-14265500D01*
X15361393Y-14208357D01*
X15375678Y-14136929D01*
X15389964Y-14094071D01*
X15404250Y-14065500D01*
X15432821Y-14022643D01*
X15447107Y-14008357D01*
X15547107Y-14079786D02*
X15561393Y-14065500D01*
X15589964Y-14051214D01*
X15661393Y-14051214D01*
X15689964Y-14065500D01*
X15704250Y-14079786D01*
X15718536Y-14108357D01*
X15718536Y-14136929D01*
X15704250Y-14179786D01*
X15532821Y-14351214D01*
X15718536Y-14351214D01*
X16075678Y-14351214D02*
X16075678Y-14051214D01*
X16204250Y-14351214D02*
X16204250Y-14194071D01*
X16189964Y-14165500D01*
X16161393Y-14151214D01*
X16118536Y-14151214D01*
X16089964Y-14165500D01*
X16075678Y-14179786D01*
X16389964Y-14351214D02*
X16361393Y-14336929D01*
X16347107Y-14322643D01*
X16332821Y-14294071D01*
X16332821Y-14208357D01*
X16347107Y-14179786D01*
X16361393Y-14165500D01*
X16389964Y-14151214D01*
X16432821Y-14151214D01*
X16461393Y-14165500D01*
X16475678Y-14179786D01*
X16489964Y-14208357D01*
X16489964Y-14294071D01*
X16475678Y-14322643D01*
X16461393Y-14336929D01*
X16432821Y-14351214D01*
X16389964Y-14351214D01*
X16661393Y-14351214D02*
X16632821Y-14336929D01*
X16618536Y-14308357D01*
X16618536Y-14051214D01*
X16889964Y-14336929D02*
X16861393Y-14351214D01*
X16804250Y-14351214D01*
X16775678Y-14336929D01*
X16761393Y-14308357D01*
X16761393Y-14194071D01*
X16775678Y-14165500D01*
X16804250Y-14151214D01*
X16861393Y-14151214D01*
X16889964Y-14165500D01*
X16904250Y-14194071D01*
X16904250Y-14222643D01*
X16761393Y-14251214D01*
X17018536Y-14336929D02*
X17047107Y-14351214D01*
X17104250Y-14351214D01*
X17132821Y-14336929D01*
X17147107Y-14308357D01*
X17147107Y-14294071D01*
X17132821Y-14265500D01*
X17104250Y-14251214D01*
X17061393Y-14251214D01*
X17032821Y-14236929D01*
X17018536Y-14208357D01*
X17018536Y-14194071D01*
X17032821Y-14165500D01*
X17061393Y-14151214D01*
X17104250Y-14151214D01*
X17132821Y-14165500D01*
X17247107Y-14465500D02*
X17261393Y-14451214D01*
X17289964Y-14408357D01*
X17304250Y-14379786D01*
X17318536Y-14336929D01*
X17332821Y-14265500D01*
X17332821Y-14208357D01*
X17318536Y-14136929D01*
X17304250Y-14094071D01*
X17289964Y-14065500D01*
X17261393Y-14022643D01*
X17247107Y-14008357D01*
X10139250Y-14661500D02*
X10189250Y-14611500D01*
X10139250Y-14561500D01*
X10089250Y-14611500D01*
X10139250Y-14661500D01*
X10632821Y-14747214D02*
X10461393Y-14747214D01*
X10547107Y-14747214D02*
X10547107Y-14447214D01*
X10518536Y-14490071D01*
X10489964Y-14518643D01*
X10461393Y-14532929D01*
X10761393Y-14718643D02*
X10775678Y-14732929D01*
X10761393Y-14747214D01*
X10747107Y-14732929D01*
X10761393Y-14718643D01*
X10761393Y-14747214D01*
X10961393Y-14447214D02*
X10989964Y-14447214D01*
X11018536Y-14461500D01*
X11032821Y-14475786D01*
X11047107Y-14504357D01*
X11061393Y-14561500D01*
X11061393Y-14632929D01*
X11047107Y-14690071D01*
X11032821Y-14718643D01*
X11018536Y-14732929D01*
X10989964Y-14747214D01*
X10961393Y-14747214D01*
X10932821Y-14732929D01*
X10918536Y-14718643D01*
X10904250Y-14690071D01*
X10889964Y-14632929D01*
X10889964Y-14561500D01*
X10904250Y-14504357D01*
X10918536Y-14475786D01*
X10932821Y-14461500D01*
X10961393Y-14447214D01*
X11247107Y-14447214D02*
X11275678Y-14447214D01*
X11304250Y-14461500D01*
X11318536Y-14475786D01*
X11332821Y-14504357D01*
X11347107Y-14561500D01*
X11347107Y-14632929D01*
X11332821Y-14690071D01*
X11318536Y-14718643D01*
X11304250Y-14732929D01*
X11275678Y-14747214D01*
X11247107Y-14747214D01*
X11218536Y-14732929D01*
X11204250Y-14718643D01*
X11189964Y-14690071D01*
X11175678Y-14632929D01*
X11175678Y-14561500D01*
X11189964Y-14504357D01*
X11204250Y-14475786D01*
X11218536Y-14461500D01*
X11247107Y-14447214D01*
X11532821Y-14447214D02*
X11561393Y-14447214D01*
X11589964Y-14461500D01*
X11604250Y-14475786D01*
X11618536Y-14504357D01*
X11632821Y-14561500D01*
X11632821Y-14632929D01*
X11618536Y-14690071D01*
X11604250Y-14718643D01*
X11589964Y-14732929D01*
X11561393Y-14747214D01*
X11532821Y-14747214D01*
X11504250Y-14732929D01*
X11489964Y-14718643D01*
X11475678Y-14690071D01*
X11461393Y-14632929D01*
X11461393Y-14561500D01*
X11475678Y-14504357D01*
X11489964Y-14475786D01*
X11504250Y-14461500D01*
X11532821Y-14447214D01*
X11761393Y-14747214D02*
X11761393Y-14547214D01*
X11761393Y-14575786D02*
X11775678Y-14561500D01*
X11804250Y-14547214D01*
X11847107Y-14547214D01*
X11875678Y-14561500D01*
X11889964Y-14590071D01*
X11889964Y-14747214D01*
X11889964Y-14590071D02*
X11904250Y-14561500D01*
X11932821Y-14547214D01*
X11975678Y-14547214D01*
X12004250Y-14561500D01*
X12018536Y-14590071D01*
X12018536Y-14747214D01*
X12161393Y-14747214D02*
X12161393Y-14547214D01*
X12161393Y-14575786D02*
X12175678Y-14561500D01*
X12204250Y-14547214D01*
X12247107Y-14547214D01*
X12275678Y-14561500D01*
X12289964Y-14590071D01*
X12289964Y-14747214D01*
X12289964Y-14590071D02*
X12304250Y-14561500D01*
X12332821Y-14547214D01*
X12375678Y-14547214D01*
X12404250Y-14561500D01*
X12418536Y-14590071D01*
X12418536Y-14747214D01*
X13004250Y-14432929D02*
X12747107Y-14818643D01*
X13389964Y-14447214D02*
X13418536Y-14447214D01*
X13447107Y-14461500D01*
X13461393Y-14475786D01*
X13475678Y-14504357D01*
X13489964Y-14561500D01*
X13489964Y-14632929D01*
X13475678Y-14690071D01*
X13461393Y-14718643D01*
X13447107Y-14732929D01*
X13418536Y-14747214D01*
X13389964Y-14747214D01*
X13361393Y-14732929D01*
X13347107Y-14718643D01*
X13332821Y-14690071D01*
X13318536Y-14632929D01*
X13318536Y-14561500D01*
X13332821Y-14504357D01*
X13347107Y-14475786D01*
X13361393Y-14461500D01*
X13389964Y-14447214D01*
X13618536Y-14718643D02*
X13632821Y-14732929D01*
X13618536Y-14747214D01*
X13604250Y-14732929D01*
X13618536Y-14718643D01*
X13618536Y-14747214D01*
X13818536Y-14447214D02*
X13847107Y-14447214D01*
X13875678Y-14461500D01*
X13889964Y-14475786D01*
X13904250Y-14504357D01*
X13918536Y-14561500D01*
X13918536Y-14632929D01*
X13904250Y-14690071D01*
X13889964Y-14718643D01*
X13875678Y-14732929D01*
X13847107Y-14747214D01*
X13818536Y-14747214D01*
X13789964Y-14732929D01*
X13775678Y-14718643D01*
X13761393Y-14690071D01*
X13747107Y-14632929D01*
X13747107Y-14561500D01*
X13761393Y-14504357D01*
X13775678Y-14475786D01*
X13789964Y-14461500D01*
X13818536Y-14447214D01*
X14018536Y-14447214D02*
X14204250Y-14447214D01*
X14104250Y-14561500D01*
X14147107Y-14561500D01*
X14175678Y-14575786D01*
X14189964Y-14590071D01*
X14204250Y-14618643D01*
X14204250Y-14690071D01*
X14189964Y-14718643D01*
X14175678Y-14732929D01*
X14147107Y-14747214D01*
X14061393Y-14747214D01*
X14032821Y-14732929D01*
X14018536Y-14718643D01*
X14347107Y-14747214D02*
X14404250Y-14747214D01*
X14432821Y-14732929D01*
X14447107Y-14718643D01*
X14475678Y-14675786D01*
X14489964Y-14618643D01*
X14489964Y-14504357D01*
X14475678Y-14475786D01*
X14461393Y-14461500D01*
X14432821Y-14447214D01*
X14375678Y-14447214D01*
X14347107Y-14461500D01*
X14332821Y-14475786D01*
X14318536Y-14504357D01*
X14318536Y-14575786D01*
X14332821Y-14604357D01*
X14347107Y-14618643D01*
X14375678Y-14632929D01*
X14432821Y-14632929D01*
X14461393Y-14618643D01*
X14475678Y-14604357D01*
X14489964Y-14575786D01*
X14747107Y-14547214D02*
X14747107Y-14747214D01*
X14675678Y-14432929D02*
X14604250Y-14647214D01*
X14789964Y-14647214D01*
X14889964Y-14447214D02*
X14889964Y-14504357D01*
X15004250Y-14447214D02*
X15004250Y-14504357D01*
X15447107Y-14861500D02*
X15432821Y-14847214D01*
X15404250Y-14804357D01*
X15389964Y-14775786D01*
X15375678Y-14732929D01*
X15361393Y-14661500D01*
X15361393Y-14604357D01*
X15375678Y-14532929D01*
X15389964Y-14490071D01*
X15404250Y-14461500D01*
X15432821Y-14418643D01*
X15447107Y-14404357D01*
X15604250Y-14575786D02*
X15575678Y-14561500D01*
X15561393Y-14547214D01*
X15547107Y-14518643D01*
X15547107Y-14504357D01*
X15561393Y-14475786D01*
X15575678Y-14461500D01*
X15604250Y-14447214D01*
X15661393Y-14447214D01*
X15689964Y-14461500D01*
X15704250Y-14475786D01*
X15718536Y-14504357D01*
X15718536Y-14518643D01*
X15704250Y-14547214D01*
X15689964Y-14561500D01*
X15661393Y-14575786D01*
X15604250Y-14575786D01*
X15575678Y-14590071D01*
X15561393Y-14604357D01*
X15547107Y-14632929D01*
X15547107Y-14690071D01*
X15561393Y-14718643D01*
X15575678Y-14732929D01*
X15604250Y-14747214D01*
X15661393Y-14747214D01*
X15689964Y-14732929D01*
X15704250Y-14718643D01*
X15718536Y-14690071D01*
X15718536Y-14632929D01*
X15704250Y-14604357D01*
X15689964Y-14590071D01*
X15661393Y-14575786D01*
X16075678Y-14747214D02*
X16075678Y-14447214D01*
X16204250Y-14747214D02*
X16204250Y-14590071D01*
X16189964Y-14561500D01*
X16161393Y-14547214D01*
X16118536Y-14547214D01*
X16089964Y-14561500D01*
X16075678Y-14575786D01*
X16389964Y-14747214D02*
X16361393Y-14732929D01*
X16347107Y-14718643D01*
X16332821Y-14690071D01*
X16332821Y-14604357D01*
X16347107Y-14575786D01*
X16361393Y-14561500D01*
X16389964Y-14547214D01*
X16432821Y-14547214D01*
X16461393Y-14561500D01*
X16475678Y-14575786D01*
X16489964Y-14604357D01*
X16489964Y-14690071D01*
X16475678Y-14718643D01*
X16461393Y-14732929D01*
X16432821Y-14747214D01*
X16389964Y-14747214D01*
X16661393Y-14747214D02*
X16632821Y-14732929D01*
X16618536Y-14704357D01*
X16618536Y-14447214D01*
X16889964Y-14732929D02*
X16861393Y-14747214D01*
X16804250Y-14747214D01*
X16775678Y-14732929D01*
X16761393Y-14704357D01*
X16761393Y-14590071D01*
X16775678Y-14561500D01*
X16804250Y-14547214D01*
X16861393Y-14547214D01*
X16889964Y-14561500D01*
X16904250Y-14590071D01*
X16904250Y-14618643D01*
X16761393Y-14647214D01*
X17018536Y-14732929D02*
X17047107Y-14747214D01*
X17104250Y-14747214D01*
X17132821Y-14732929D01*
X17147107Y-14704357D01*
X17147107Y-14690071D01*
X17132821Y-14661500D01*
X17104250Y-14647214D01*
X17061393Y-14647214D01*
X17032821Y-14632929D01*
X17018536Y-14604357D01*
X17018536Y-14590071D01*
X17032821Y-14561500D01*
X17061393Y-14547214D01*
X17104250Y-14547214D01*
X17132821Y-14561500D01*
X17247107Y-14861500D02*
X17261393Y-14847214D01*
X17289964Y-14804357D01*
X17304250Y-14775786D01*
X17318536Y-14732929D01*
X17332821Y-14661500D01*
X17332821Y-14604357D01*
X17318536Y-14532929D01*
X17304250Y-14490071D01*
X17289964Y-14461500D01*
X17261393Y-14418643D01*
X17247107Y-14404357D01*
X10079250Y-14952500D02*
X10189250Y-15062500D01*
X10189250Y-14952500D02*
X10079250Y-15062500D01*
X10189250Y-15007500D02*
G75*
G03*
X10189250Y-15007500I-55000J0D01*
G01*
X10632821Y-15143214D02*
X10461393Y-15143214D01*
X10547107Y-15143214D02*
X10547107Y-14843214D01*
X10518536Y-14886071D01*
X10489964Y-14914643D01*
X10461393Y-14928929D01*
X10761393Y-15114643D02*
X10775678Y-15128929D01*
X10761393Y-15143214D01*
X10747107Y-15128929D01*
X10761393Y-15114643D01*
X10761393Y-15143214D01*
X11061393Y-15143214D02*
X10889964Y-15143214D01*
X10975678Y-15143214D02*
X10975678Y-14843214D01*
X10947107Y-14886071D01*
X10918536Y-14914643D01*
X10889964Y-14928929D01*
X11247107Y-14843214D02*
X11275678Y-14843214D01*
X11304250Y-14857500D01*
X11318536Y-14871786D01*
X11332821Y-14900357D01*
X11347107Y-14957500D01*
X11347107Y-15028929D01*
X11332821Y-15086071D01*
X11318536Y-15114643D01*
X11304250Y-15128929D01*
X11275678Y-15143214D01*
X11247107Y-15143214D01*
X11218536Y-15128929D01*
X11204250Y-15114643D01*
X11189964Y-15086071D01*
X11175678Y-15028929D01*
X11175678Y-14957500D01*
X11189964Y-14900357D01*
X11204250Y-14871786D01*
X11218536Y-14857500D01*
X11247107Y-14843214D01*
X11532821Y-14843214D02*
X11561393Y-14843214D01*
X11589964Y-14857500D01*
X11604250Y-14871786D01*
X11618536Y-14900357D01*
X11632821Y-14957500D01*
X11632821Y-15028929D01*
X11618536Y-15086071D01*
X11604250Y-15114643D01*
X11589964Y-15128929D01*
X11561393Y-15143214D01*
X11532821Y-15143214D01*
X11504250Y-15128929D01*
X11489964Y-15114643D01*
X11475678Y-15086071D01*
X11461393Y-15028929D01*
X11461393Y-14957500D01*
X11475678Y-14900357D01*
X11489964Y-14871786D01*
X11504250Y-14857500D01*
X11532821Y-14843214D01*
X11761393Y-15143214D02*
X11761393Y-14943214D01*
X11761393Y-14971786D02*
X11775678Y-14957500D01*
X11804250Y-14943214D01*
X11847107Y-14943214D01*
X11875678Y-14957500D01*
X11889964Y-14986071D01*
X11889964Y-15143214D01*
X11889964Y-14986071D02*
X11904250Y-14957500D01*
X11932821Y-14943214D01*
X11975678Y-14943214D01*
X12004250Y-14957500D01*
X12018536Y-14986071D01*
X12018536Y-15143214D01*
X12161393Y-15143214D02*
X12161393Y-14943214D01*
X12161393Y-14971786D02*
X12175678Y-14957500D01*
X12204250Y-14943214D01*
X12247107Y-14943214D01*
X12275678Y-14957500D01*
X12289964Y-14986071D01*
X12289964Y-15143214D01*
X12289964Y-14986071D02*
X12304250Y-14957500D01*
X12332821Y-14943214D01*
X12375678Y-14943214D01*
X12404250Y-14957500D01*
X12418536Y-14986071D01*
X12418536Y-15143214D01*
X13004250Y-14828929D02*
X12747107Y-15214643D01*
X13389964Y-14843214D02*
X13418536Y-14843214D01*
X13447107Y-14857500D01*
X13461393Y-14871786D01*
X13475678Y-14900357D01*
X13489964Y-14957500D01*
X13489964Y-15028929D01*
X13475678Y-15086071D01*
X13461393Y-15114643D01*
X13447107Y-15128929D01*
X13418536Y-15143214D01*
X13389964Y-15143214D01*
X13361393Y-15128929D01*
X13347107Y-15114643D01*
X13332821Y-15086071D01*
X13318536Y-15028929D01*
X13318536Y-14957500D01*
X13332821Y-14900357D01*
X13347107Y-14871786D01*
X13361393Y-14857500D01*
X13389964Y-14843214D01*
X13618536Y-15114643D02*
X13632821Y-15128929D01*
X13618536Y-15143214D01*
X13604250Y-15128929D01*
X13618536Y-15114643D01*
X13618536Y-15143214D01*
X13818536Y-14843214D02*
X13847107Y-14843214D01*
X13875678Y-14857500D01*
X13889964Y-14871786D01*
X13904250Y-14900357D01*
X13918536Y-14957500D01*
X13918536Y-15028929D01*
X13904250Y-15086071D01*
X13889964Y-15114643D01*
X13875678Y-15128929D01*
X13847107Y-15143214D01*
X13818536Y-15143214D01*
X13789964Y-15128929D01*
X13775678Y-15114643D01*
X13761393Y-15086071D01*
X13747107Y-15028929D01*
X13747107Y-14957500D01*
X13761393Y-14900357D01*
X13775678Y-14871786D01*
X13789964Y-14857500D01*
X13818536Y-14843214D01*
X14175678Y-14943214D02*
X14175678Y-15143214D01*
X14104250Y-14828929D02*
X14032821Y-15043214D01*
X14218536Y-15043214D01*
X14304250Y-14843214D02*
X14489964Y-14843214D01*
X14389964Y-14957500D01*
X14432821Y-14957500D01*
X14461393Y-14971786D01*
X14475678Y-14986071D01*
X14489964Y-15014643D01*
X14489964Y-15086071D01*
X14475678Y-15114643D01*
X14461393Y-15128929D01*
X14432821Y-15143214D01*
X14347107Y-15143214D01*
X14318536Y-15128929D01*
X14304250Y-15114643D01*
X14589964Y-14843214D02*
X14775678Y-14843214D01*
X14675678Y-14957500D01*
X14718536Y-14957500D01*
X14747107Y-14971786D01*
X14761393Y-14986071D01*
X14775678Y-15014643D01*
X14775678Y-15086071D01*
X14761393Y-15114643D01*
X14747107Y-15128929D01*
X14718536Y-15143214D01*
X14632821Y-15143214D01*
X14604250Y-15128929D01*
X14589964Y-15114643D01*
X14889964Y-14843214D02*
X14889964Y-14900357D01*
X15004250Y-14843214D02*
X15004250Y-14900357D01*
X15447107Y-15257500D02*
X15432821Y-15243214D01*
X15404250Y-15200357D01*
X15389964Y-15171786D01*
X15375678Y-15128929D01*
X15361393Y-15057500D01*
X15361393Y-15000357D01*
X15375678Y-14928929D01*
X15389964Y-14886071D01*
X15404250Y-14857500D01*
X15432821Y-14814643D01*
X15447107Y-14800357D01*
X15689964Y-14943214D02*
X15689964Y-15143214D01*
X15618536Y-14828929D02*
X15547107Y-15043214D01*
X15732821Y-15043214D01*
X16075678Y-15143214D02*
X16075678Y-14843214D01*
X16204250Y-15143214D02*
X16204250Y-14986071D01*
X16189964Y-14957500D01*
X16161393Y-14943214D01*
X16118536Y-14943214D01*
X16089964Y-14957500D01*
X16075678Y-14971786D01*
X16389964Y-15143214D02*
X16361393Y-15128929D01*
X16347107Y-15114643D01*
X16332821Y-15086071D01*
X16332821Y-15000357D01*
X16347107Y-14971786D01*
X16361393Y-14957500D01*
X16389964Y-14943214D01*
X16432821Y-14943214D01*
X16461393Y-14957500D01*
X16475678Y-14971786D01*
X16489964Y-15000357D01*
X16489964Y-15086071D01*
X16475678Y-15114643D01*
X16461393Y-15128929D01*
X16432821Y-15143214D01*
X16389964Y-15143214D01*
X16661393Y-15143214D02*
X16632821Y-15128929D01*
X16618536Y-15100357D01*
X16618536Y-14843214D01*
X16889964Y-15128929D02*
X16861393Y-15143214D01*
X16804250Y-15143214D01*
X16775678Y-15128929D01*
X16761393Y-15100357D01*
X16761393Y-14986071D01*
X16775678Y-14957500D01*
X16804250Y-14943214D01*
X16861393Y-14943214D01*
X16889964Y-14957500D01*
X16904250Y-14986071D01*
X16904250Y-15014643D01*
X16761393Y-15043214D01*
X17018536Y-15128929D02*
X17047107Y-15143214D01*
X17104250Y-15143214D01*
X17132821Y-15128929D01*
X17147107Y-15100357D01*
X17147107Y-15086071D01*
X17132821Y-15057500D01*
X17104250Y-15043214D01*
X17061393Y-15043214D01*
X17032821Y-15028929D01*
X17018536Y-15000357D01*
X17018536Y-14986071D01*
X17032821Y-14957500D01*
X17061393Y-14943214D01*
X17104250Y-14943214D01*
X17132821Y-14957500D01*
X17247107Y-15257500D02*
X17261393Y-15243214D01*
X17289964Y-15200357D01*
X17304250Y-15171786D01*
X17318536Y-15128929D01*
X17332821Y-15057500D01*
X17332821Y-15000357D01*
X17318536Y-14928929D01*
X17304250Y-14886071D01*
X17289964Y-14857500D01*
X17261393Y-14814643D01*
X17247107Y-14800357D01*
M02*
