G04 #@! TF.GenerationSoftware,KiCad,Pcbnew,(5.1.10)-1*
G04 #@! TF.CreationDate,2023-01-28T17:33:24+01:00*
G04 #@! TF.ProjectId,8-bit-computer_clock_pcb,382d6269-742d-4636-9f6d-70757465725f,rev?*
G04 #@! TF.SameCoordinates,Original*
G04 #@! TF.FileFunction,Copper,L1,Top*
G04 #@! TF.FilePolarity,Positive*
%FSLAX46Y46*%
G04 Gerber Fmt 4.6, Leading zero omitted, Abs format (unit mm)*
G04 Created by KiCad (PCBNEW (5.1.10)-1) date 2023-01-28 17:33:24*
%MOMM*%
%LPD*%
G01*
G04 APERTURE LIST*
G04 #@! TA.AperFunction,ComponentPad*
%ADD10C,1.700000*%
G04 #@! TD*
G04 #@! TA.AperFunction,ComponentPad*
%ADD11O,1.600000X1.600000*%
G04 #@! TD*
G04 #@! TA.AperFunction,ComponentPad*
%ADD12R,1.600000X1.600000*%
G04 #@! TD*
G04 #@! TA.AperFunction,ComponentPad*
%ADD13C,1.600000*%
G04 #@! TD*
G04 #@! TA.AperFunction,ComponentPad*
%ADD14R,1.800000X1.800000*%
G04 #@! TD*
G04 #@! TA.AperFunction,ComponentPad*
%ADD15C,1.800000*%
G04 #@! TD*
G04 #@! TA.AperFunction,ComponentPad*
%ADD16C,1.400000*%
G04 #@! TD*
G04 #@! TA.AperFunction,ComponentPad*
%ADD17R,1.268000X1.268000*%
G04 #@! TD*
G04 #@! TA.AperFunction,ComponentPad*
%ADD18C,1.268000*%
G04 #@! TD*
G04 #@! TA.AperFunction,ComponentPad*
%ADD19C,2.000000*%
G04 #@! TD*
G04 #@! TA.AperFunction,ComponentPad*
%ADD20C,1.524000*%
G04 #@! TD*
G04 #@! TA.AperFunction,Conductor*
%ADD21C,0.400000*%
G04 #@! TD*
G04 #@! TA.AperFunction,NonConductor*
%ADD22C,0.254000*%
G04 #@! TD*
G04 #@! TA.AperFunction,NonConductor*
%ADD23C,0.100000*%
G04 #@! TD*
G04 APERTURE END LIST*
G04 #@! TA.AperFunction,ComponentPad*
G36*
G01*
X173256500Y-77812000D02*
X172056500Y-77812000D01*
G75*
G02*
X171806500Y-77562000I0J250000D01*
G01*
X171806500Y-76362000D01*
G75*
G02*
X172056500Y-76112000I250000J0D01*
G01*
X173256500Y-76112000D01*
G75*
G02*
X173506500Y-76362000I0J-250000D01*
G01*
X173506500Y-77562000D01*
G75*
G02*
X173256500Y-77812000I-250000J0D01*
G01*
G37*
G04 #@! TD.AperFunction*
D10*
X175196500Y-76962000D03*
X177736500Y-76962000D03*
X180276500Y-76962000D03*
X172656500Y-74422000D03*
X175196500Y-74422000D03*
X177736500Y-74422000D03*
X180276500Y-74422000D03*
D11*
X180657500Y-85090000D03*
X173037500Y-92710000D03*
X180657500Y-87630000D03*
X173037500Y-90170000D03*
X180657500Y-90170000D03*
X173037500Y-87630000D03*
X180657500Y-92710000D03*
D12*
X173037500Y-85090000D03*
D13*
X165377500Y-100330000D03*
D12*
X162877500Y-100330000D03*
X170497500Y-100330000D03*
D13*
X172997500Y-100330000D03*
D12*
X178117500Y-100330000D03*
D13*
X180617500Y-100330000D03*
D14*
X178117500Y-109220000D03*
D15*
X180657500Y-109220000D03*
D16*
X110807500Y-100330000D03*
X113347500Y-100330000D03*
X115887500Y-100330000D03*
D13*
X171767500Y-106680000D03*
D11*
X161607500Y-106680000D03*
D13*
X140017500Y-116840000D03*
D11*
X150177500Y-116840000D03*
D13*
X156527500Y-111760000D03*
D11*
X156527500Y-101600000D03*
D13*
X122237500Y-97790000D03*
D11*
X132397500Y-97790000D03*
X132397500Y-116840000D03*
D13*
X122237500Y-116840000D03*
D11*
X122237500Y-101600000D03*
D13*
X132397500Y-101600000D03*
D11*
X171767500Y-110490000D03*
D13*
X161607500Y-110490000D03*
D17*
X137477500Y-109235000D03*
D18*
X140017500Y-111775000D03*
X142557500Y-109235000D03*
D19*
X123507500Y-111180000D03*
X123507500Y-106680000D03*
X130007500Y-111180000D03*
X130007500Y-106680000D03*
D12*
X160337500Y-85090000D03*
D11*
X167957500Y-92710000D03*
X160337500Y-87630000D03*
X167957500Y-90170000D03*
X160337500Y-90170000D03*
X167957500Y-87630000D03*
X160337500Y-92710000D03*
X167957500Y-85090000D03*
X117157500Y-77470000D03*
X109537500Y-92710000D03*
X117157500Y-80010000D03*
X109537500Y-90170000D03*
X117157500Y-82550000D03*
X109537500Y-87630000D03*
X117157500Y-85090000D03*
X109537500Y-85090000D03*
X117157500Y-87630000D03*
X109537500Y-82550000D03*
X117157500Y-90170000D03*
X109537500Y-80010000D03*
X117157500Y-92710000D03*
D12*
X109537500Y-77470000D03*
D11*
X129857500Y-77470000D03*
X122237500Y-92710000D03*
X129857500Y-80010000D03*
X122237500Y-90170000D03*
X129857500Y-82550000D03*
X122237500Y-87630000D03*
X129857500Y-85090000D03*
X122237500Y-85090000D03*
X129857500Y-87630000D03*
X122237500Y-82550000D03*
X129857500Y-90170000D03*
X122237500Y-80010000D03*
X129857500Y-92710000D03*
D12*
X122237500Y-77470000D03*
X134937500Y-77470000D03*
D11*
X142557500Y-92710000D03*
X134937500Y-80010000D03*
X142557500Y-90170000D03*
X134937500Y-82550000D03*
X142557500Y-87630000D03*
X134937500Y-85090000D03*
X142557500Y-85090000D03*
X134937500Y-87630000D03*
X142557500Y-82550000D03*
X134937500Y-90170000D03*
X142557500Y-80010000D03*
X134937500Y-92710000D03*
X142557500Y-77470000D03*
D12*
X147637500Y-77470000D03*
D11*
X155257500Y-92710000D03*
X147637500Y-80010000D03*
X155257500Y-90170000D03*
X147637500Y-82550000D03*
X155257500Y-87630000D03*
X147637500Y-85090000D03*
X155257500Y-85090000D03*
X147637500Y-87630000D03*
X155257500Y-82550000D03*
X147637500Y-90170000D03*
X155257500Y-80010000D03*
X147637500Y-92710000D03*
X155257500Y-77470000D03*
D20*
X116365000Y-106847000D03*
X110965000Y-106847000D03*
X116365000Y-109347000D03*
X116365000Y-111847000D03*
X110965000Y-109347000D03*
X110965000Y-111847000D03*
D21*
X166577501Y-101530001D02*
X165377500Y-100330000D01*
X181193501Y-101530001D02*
X166577501Y-101530001D01*
X181817501Y-100906001D02*
X181193501Y-101530001D01*
X181817501Y-93870001D02*
X181817501Y-100906001D01*
X180657500Y-92710000D02*
X181817501Y-93870001D01*
X128587500Y-76200000D02*
X129857500Y-77470000D01*
X118427500Y-76200000D02*
X128587500Y-76200000D01*
X117157500Y-77470000D02*
X118427500Y-76200000D01*
X141287500Y-76200000D02*
X142557500Y-77470000D01*
X128587500Y-76200000D02*
X141287500Y-76200000D01*
X153987500Y-76200000D02*
X155257500Y-77470000D01*
X141287500Y-76200000D02*
X153987500Y-76200000D01*
X162877500Y-85090000D02*
X167957500Y-85090000D01*
X155257500Y-77470000D02*
X162877500Y-85090000D01*
X171837499Y-91509999D02*
X173037500Y-92710000D01*
X171837499Y-88969999D02*
X171837499Y-91509999D01*
X167957500Y-85090000D02*
X171837499Y-88969999D01*
X162877500Y-90170000D02*
X160337500Y-92710000D01*
X162877500Y-85090000D02*
X162877500Y-90170000D01*
X160337500Y-97790000D02*
X162877500Y-100330000D01*
X160337500Y-92710000D02*
X160337500Y-97790000D01*
X162877500Y-105410000D02*
X161607500Y-106680000D01*
X162877500Y-100330000D02*
X162877500Y-105410000D01*
X153223502Y-116840000D02*
X150177500Y-116840000D01*
X160407499Y-109656003D02*
X153223502Y-116840000D01*
X160407499Y-107880001D02*
X160407499Y-109656003D01*
X161607500Y-106680000D02*
X160407499Y-107880001D01*
X150177500Y-115324678D02*
X141532822Y-106680000D01*
X150177500Y-116840000D02*
X150177500Y-115324678D01*
X169157501Y-83889999D02*
X167957500Y-85090000D01*
X179457499Y-83889999D02*
X169157501Y-83889999D01*
X180657500Y-85090000D02*
X179457499Y-83889999D01*
X135701498Y-106680000D02*
X141532822Y-106680000D01*
X131197499Y-102176001D02*
X135701498Y-106680000D01*
X131197499Y-98990001D02*
X131197499Y-102176001D01*
X132397500Y-97790000D02*
X131197499Y-98990001D01*
X116207500Y-109180000D02*
X121120500Y-104267000D01*
X125920500Y-104267000D02*
X132397500Y-97790000D01*
X121120500Y-104267000D02*
X125920500Y-104267000D01*
X161607500Y-101600000D02*
X162877500Y-100330000D01*
X156527500Y-101600000D02*
X161607500Y-101600000D01*
X181526501Y-75672001D02*
X180276500Y-74422000D01*
X181526501Y-77562001D02*
X181526501Y-75672001D01*
X179457499Y-79631003D02*
X181526501Y-77562001D01*
X179457499Y-83889999D02*
X179457499Y-79631003D01*
X121037499Y-93910001D02*
X122237500Y-92710000D01*
X110737501Y-93910001D02*
X121037499Y-93910001D01*
X109537500Y-92710000D02*
X110737501Y-93910001D01*
X133737499Y-93910001D02*
X134937500Y-92710000D01*
X123437501Y-93910001D02*
X133737499Y-93910001D01*
X122237500Y-92710000D02*
X123437501Y-93910001D01*
X146437499Y-93910001D02*
X147637500Y-92710000D01*
X136137501Y-93910001D02*
X146437499Y-93910001D01*
X134937500Y-92710000D02*
X136137501Y-93910001D01*
X160337500Y-85853998D02*
X160337500Y-85090000D01*
X156527500Y-89663998D02*
X160337500Y-85853998D01*
X134937500Y-99060000D02*
X132397500Y-101600000D01*
X134937500Y-92710000D02*
X134937500Y-99060000D01*
X155693503Y-91509999D02*
X156527500Y-90676002D01*
X156527500Y-90676002D02*
X156527500Y-89663998D01*
X148837501Y-91509999D02*
X155693503Y-91509999D01*
X147637500Y-92710000D02*
X148837501Y-91509999D01*
X178117500Y-87630000D02*
X180657500Y-90170000D01*
X173037500Y-87630000D02*
X178117500Y-87630000D01*
X178117500Y-92710000D02*
X178117500Y-100330000D01*
X180657500Y-90170000D02*
X178117500Y-92710000D01*
X121367500Y-116840000D02*
X122237500Y-116840000D01*
X116207500Y-111680000D02*
X121367500Y-116840000D01*
X143897499Y-81210001D02*
X147637500Y-77470000D01*
X136137501Y-81210001D02*
X143897499Y-81210001D01*
X134937500Y-80010000D02*
X136137501Y-81210001D01*
X121037499Y-81210001D02*
X122237500Y-80010000D01*
X110877499Y-81210001D02*
X121037499Y-81210001D01*
X109537500Y-82550000D02*
X110877499Y-81210001D01*
X133737499Y-78670001D02*
X134937500Y-77470000D01*
X133737499Y-80446003D02*
X133737499Y-78670001D01*
X123437501Y-83750001D02*
X130433501Y-83750001D01*
X130433501Y-83750001D02*
X133737499Y-80446003D01*
X122237500Y-82550000D02*
X123437501Y-83750001D01*
X142557500Y-90170000D02*
X134937500Y-90170000D01*
X134937500Y-82550000D02*
X134937500Y-85090000D01*
X140017500Y-87630000D02*
X142557500Y-85090000D01*
X134937500Y-87630000D02*
X140017500Y-87630000D01*
X145097500Y-82550000D02*
X147637500Y-80010000D01*
X142557500Y-82550000D02*
X145097500Y-82550000D01*
X140017500Y-111775000D02*
X140017500Y-116840000D01*
X141217501Y-118040001D02*
X140017500Y-116840000D01*
X155833501Y-118040001D02*
X141217501Y-118040001D01*
X178162044Y-105410000D02*
X168463502Y-105410000D01*
X182417510Y-89390010D02*
X182417510Y-101154534D01*
X168463502Y-105410000D02*
X155833501Y-118040001D01*
X182417510Y-101154534D02*
X178162044Y-105410000D01*
X180657500Y-87630000D02*
X182417510Y-89390010D01*
X176446501Y-73171999D02*
X175196500Y-74422000D01*
X180876501Y-73171999D02*
X176446501Y-73171999D01*
X183017520Y-75313018D02*
X180876501Y-73171999D01*
X183017520Y-106859980D02*
X183017520Y-75313018D01*
X180657500Y-109220000D02*
X183017520Y-106859980D01*
X110807500Y-101280000D02*
X110807500Y-100330000D01*
X116207500Y-106680000D02*
X110807500Y-101280000D01*
X114617500Y-101600000D02*
X122237500Y-101600000D01*
X113347500Y-100330000D02*
X114617500Y-101600000D01*
X118427500Y-97790000D02*
X115887500Y-100330000D01*
X122237500Y-97790000D02*
X118427500Y-97790000D01*
X168148000Y-76962000D02*
X172656500Y-76962000D01*
X166785991Y-75599991D02*
X168148000Y-76962000D01*
X111407509Y-75599991D02*
X166785991Y-75599991D01*
X109537500Y-77470000D02*
X111407509Y-75599991D01*
X146437499Y-83750001D02*
X147637500Y-82550000D01*
X146437499Y-88830001D02*
X146437499Y-83750001D01*
X142557500Y-92710000D02*
X146437499Y-88830001D01*
D22*
X188887500Y-69817581D02*
X188887500Y-69817582D01*
X188887501Y-118077572D01*
X188887500Y-118077582D01*
X188887501Y-119990000D01*
X102577500Y-119990000D01*
X102577500Y-106709408D01*
X109568000Y-106709408D01*
X109568000Y-106984592D01*
X109621686Y-107254490D01*
X109726995Y-107508727D01*
X109879880Y-107737535D01*
X110074465Y-107932120D01*
X110303273Y-108085005D01*
X110332231Y-108097000D01*
X110303273Y-108108995D01*
X110074465Y-108261880D01*
X109879880Y-108456465D01*
X109726995Y-108685273D01*
X109621686Y-108939510D01*
X109568000Y-109209408D01*
X109568000Y-109484592D01*
X109621686Y-109754490D01*
X109726995Y-110008727D01*
X109879880Y-110237535D01*
X110074465Y-110432120D01*
X110303273Y-110585005D01*
X110332231Y-110597000D01*
X110303273Y-110608995D01*
X110074465Y-110761880D01*
X109879880Y-110956465D01*
X109726995Y-111185273D01*
X109621686Y-111439510D01*
X109568000Y-111709408D01*
X109568000Y-111984592D01*
X109621686Y-112254490D01*
X109726995Y-112508727D01*
X109879880Y-112737535D01*
X110074465Y-112932120D01*
X110303273Y-113085005D01*
X110557510Y-113190314D01*
X110827408Y-113244000D01*
X111102592Y-113244000D01*
X111372490Y-113190314D01*
X111626727Y-113085005D01*
X111855535Y-112932120D01*
X112050120Y-112737535D01*
X112203005Y-112508727D01*
X112308314Y-112254490D01*
X112362000Y-111984592D01*
X112362000Y-111709408D01*
X112308314Y-111439510D01*
X112203005Y-111185273D01*
X112050120Y-110956465D01*
X111855535Y-110761880D01*
X111626727Y-110608995D01*
X111597769Y-110597000D01*
X111626727Y-110585005D01*
X111855535Y-110432120D01*
X112050120Y-110237535D01*
X112203005Y-110008727D01*
X112308314Y-109754490D01*
X112362000Y-109484592D01*
X112362000Y-109209408D01*
X112308314Y-108939510D01*
X112203005Y-108685273D01*
X112050120Y-108456465D01*
X111855535Y-108261880D01*
X111626727Y-108108995D01*
X111597769Y-108097000D01*
X111626727Y-108085005D01*
X111855535Y-107932120D01*
X112050120Y-107737535D01*
X112203005Y-107508727D01*
X112308314Y-107254490D01*
X112362000Y-106984592D01*
X112362000Y-106709408D01*
X112308314Y-106439510D01*
X112203005Y-106185273D01*
X112050120Y-105956465D01*
X111855535Y-105761880D01*
X111626727Y-105608995D01*
X111372490Y-105503686D01*
X111102592Y-105450000D01*
X110827408Y-105450000D01*
X110557510Y-105503686D01*
X110303273Y-105608995D01*
X110074465Y-105761880D01*
X109879880Y-105956465D01*
X109726995Y-106185273D01*
X109621686Y-106439510D01*
X109568000Y-106709408D01*
X102577500Y-106709408D01*
X102577500Y-76670000D01*
X108099428Y-76670000D01*
X108099428Y-78270000D01*
X108111688Y-78394482D01*
X108147998Y-78514180D01*
X108206963Y-78624494D01*
X108286315Y-78721185D01*
X108383006Y-78800537D01*
X108493320Y-78859502D01*
X108613018Y-78895812D01*
X108621461Y-78896643D01*
X108422863Y-79095241D01*
X108265820Y-79330273D01*
X108157647Y-79591426D01*
X108102500Y-79868665D01*
X108102500Y-80151335D01*
X108157647Y-80428574D01*
X108265820Y-80689727D01*
X108422863Y-80924759D01*
X108622741Y-81124637D01*
X108855259Y-81280000D01*
X108622741Y-81435363D01*
X108422863Y-81635241D01*
X108265820Y-81870273D01*
X108157647Y-82131426D01*
X108102500Y-82408665D01*
X108102500Y-82691335D01*
X108157647Y-82968574D01*
X108265820Y-83229727D01*
X108422863Y-83464759D01*
X108622741Y-83664637D01*
X108855259Y-83820000D01*
X108622741Y-83975363D01*
X108422863Y-84175241D01*
X108265820Y-84410273D01*
X108157647Y-84671426D01*
X108102500Y-84948665D01*
X108102500Y-85231335D01*
X108157647Y-85508574D01*
X108265820Y-85769727D01*
X108422863Y-86004759D01*
X108622741Y-86204637D01*
X108855259Y-86360000D01*
X108622741Y-86515363D01*
X108422863Y-86715241D01*
X108265820Y-86950273D01*
X108157647Y-87211426D01*
X108102500Y-87488665D01*
X108102500Y-87771335D01*
X108157647Y-88048574D01*
X108265820Y-88309727D01*
X108422863Y-88544759D01*
X108622741Y-88744637D01*
X108855259Y-88900000D01*
X108622741Y-89055363D01*
X108422863Y-89255241D01*
X108265820Y-89490273D01*
X108157647Y-89751426D01*
X108102500Y-90028665D01*
X108102500Y-90311335D01*
X108157647Y-90588574D01*
X108265820Y-90849727D01*
X108422863Y-91084759D01*
X108622741Y-91284637D01*
X108855259Y-91440000D01*
X108622741Y-91595363D01*
X108422863Y-91795241D01*
X108265820Y-92030273D01*
X108157647Y-92291426D01*
X108102500Y-92568665D01*
X108102500Y-92851335D01*
X108157647Y-93128574D01*
X108265820Y-93389727D01*
X108422863Y-93624759D01*
X108622741Y-93824637D01*
X108857773Y-93981680D01*
X109118926Y-94089853D01*
X109396165Y-94145000D01*
X109678835Y-94145000D01*
X109772917Y-94126286D01*
X110118064Y-94471433D01*
X110144210Y-94503292D01*
X110271355Y-94607637D01*
X110416414Y-94685173D01*
X110573812Y-94732919D01*
X110696482Y-94745001D01*
X110696483Y-94745001D01*
X110737501Y-94749041D01*
X110778519Y-94745001D01*
X120996481Y-94745001D01*
X121037499Y-94749041D01*
X121078517Y-94745001D01*
X121078518Y-94745001D01*
X121201188Y-94732919D01*
X121358586Y-94685173D01*
X121503645Y-94607637D01*
X121630790Y-94503292D01*
X121656944Y-94471423D01*
X122002082Y-94126286D01*
X122096165Y-94145000D01*
X122378835Y-94145000D01*
X122472917Y-94126286D01*
X122818064Y-94471433D01*
X122844210Y-94503292D01*
X122971355Y-94607637D01*
X123116414Y-94685173D01*
X123273812Y-94732919D01*
X123396482Y-94745001D01*
X123396483Y-94745001D01*
X123437501Y-94749041D01*
X123478519Y-94745001D01*
X133696481Y-94745001D01*
X133737499Y-94749041D01*
X133778517Y-94745001D01*
X133778518Y-94745001D01*
X133901188Y-94732919D01*
X134058586Y-94685173D01*
X134102500Y-94661700D01*
X134102501Y-98714131D01*
X132632918Y-100183715D01*
X132538835Y-100165000D01*
X132256165Y-100165000D01*
X132032499Y-100209491D01*
X132032499Y-99335869D01*
X132162082Y-99206286D01*
X132256165Y-99225000D01*
X132538835Y-99225000D01*
X132816074Y-99169853D01*
X133077227Y-99061680D01*
X133312259Y-98904637D01*
X133512137Y-98704759D01*
X133669180Y-98469727D01*
X133777353Y-98208574D01*
X133832500Y-97931335D01*
X133832500Y-97648665D01*
X133777353Y-97371426D01*
X133669180Y-97110273D01*
X133512137Y-96875241D01*
X133312259Y-96675363D01*
X133077227Y-96518320D01*
X132816074Y-96410147D01*
X132538835Y-96355000D01*
X132256165Y-96355000D01*
X131978926Y-96410147D01*
X131717773Y-96518320D01*
X131482741Y-96675363D01*
X131282863Y-96875241D01*
X131125820Y-97110273D01*
X131017647Y-97371426D01*
X130962500Y-97648665D01*
X130962500Y-97931335D01*
X130981214Y-98025418D01*
X130636073Y-98370559D01*
X130604208Y-98396710D01*
X130578060Y-98428572D01*
X125574633Y-103432000D01*
X121161515Y-103432000D01*
X121120499Y-103427960D01*
X121079483Y-103432000D01*
X121079481Y-103432000D01*
X120956811Y-103444082D01*
X120799413Y-103491828D01*
X120654354Y-103569364D01*
X120527209Y-103673709D01*
X120501061Y-103705571D01*
X117718071Y-106488562D01*
X117708314Y-106439510D01*
X117603005Y-106185273D01*
X117450120Y-105956465D01*
X117255535Y-105761880D01*
X117026727Y-105608995D01*
X116772490Y-105503686D01*
X116502592Y-105450000D01*
X116227408Y-105450000D01*
X116169822Y-105461454D01*
X111862454Y-101154087D01*
X111990561Y-100962359D01*
X112077500Y-100752470D01*
X112164439Y-100962359D01*
X112310538Y-101181013D01*
X112496487Y-101366962D01*
X112715141Y-101513061D01*
X112958095Y-101613696D01*
X113216014Y-101665000D01*
X113478986Y-101665000D01*
X113497875Y-101661243D01*
X113998058Y-102161426D01*
X114024209Y-102193291D01*
X114151354Y-102297636D01*
X114296413Y-102375172D01*
X114453811Y-102422918D01*
X114576481Y-102435000D01*
X114576483Y-102435000D01*
X114617499Y-102439040D01*
X114658515Y-102435000D01*
X121069570Y-102435000D01*
X121122863Y-102514759D01*
X121322741Y-102714637D01*
X121557773Y-102871680D01*
X121818926Y-102979853D01*
X122096165Y-103035000D01*
X122378835Y-103035000D01*
X122656074Y-102979853D01*
X122917227Y-102871680D01*
X123152259Y-102714637D01*
X123352137Y-102514759D01*
X123509180Y-102279727D01*
X123617353Y-102018574D01*
X123672500Y-101741335D01*
X123672500Y-101458665D01*
X123617353Y-101181426D01*
X123509180Y-100920273D01*
X123352137Y-100685241D01*
X123152259Y-100485363D01*
X122917227Y-100328320D01*
X122656074Y-100220147D01*
X122378835Y-100165000D01*
X122096165Y-100165000D01*
X121818926Y-100220147D01*
X121557773Y-100328320D01*
X121322741Y-100485363D01*
X121122863Y-100685241D01*
X121069570Y-100765000D01*
X117152310Y-100765000D01*
X117171196Y-100719405D01*
X117222500Y-100461486D01*
X117222500Y-100198514D01*
X117218743Y-100179625D01*
X118773368Y-98625000D01*
X121069570Y-98625000D01*
X121122863Y-98704759D01*
X121322741Y-98904637D01*
X121557773Y-99061680D01*
X121818926Y-99169853D01*
X122096165Y-99225000D01*
X122378835Y-99225000D01*
X122656074Y-99169853D01*
X122917227Y-99061680D01*
X123152259Y-98904637D01*
X123352137Y-98704759D01*
X123509180Y-98469727D01*
X123617353Y-98208574D01*
X123672500Y-97931335D01*
X123672500Y-97648665D01*
X123617353Y-97371426D01*
X123509180Y-97110273D01*
X123352137Y-96875241D01*
X123152259Y-96675363D01*
X122917227Y-96518320D01*
X122656074Y-96410147D01*
X122378835Y-96355000D01*
X122096165Y-96355000D01*
X121818926Y-96410147D01*
X121557773Y-96518320D01*
X121322741Y-96675363D01*
X121122863Y-96875241D01*
X121069570Y-96955000D01*
X118468507Y-96955000D01*
X118427499Y-96950961D01*
X118386491Y-96955000D01*
X118386481Y-96955000D01*
X118263811Y-96967082D01*
X118106413Y-97014828D01*
X117961354Y-97092364D01*
X117834209Y-97196709D01*
X117808059Y-97228573D01*
X116037875Y-98998757D01*
X116018986Y-98995000D01*
X115756014Y-98995000D01*
X115498095Y-99046304D01*
X115255141Y-99146939D01*
X115036487Y-99293038D01*
X114850538Y-99478987D01*
X114704439Y-99697641D01*
X114617500Y-99907530D01*
X114530561Y-99697641D01*
X114384462Y-99478987D01*
X114198513Y-99293038D01*
X113979859Y-99146939D01*
X113736905Y-99046304D01*
X113478986Y-98995000D01*
X113216014Y-98995000D01*
X112958095Y-99046304D01*
X112715141Y-99146939D01*
X112496487Y-99293038D01*
X112310538Y-99478987D01*
X112164439Y-99697641D01*
X112077500Y-99907530D01*
X111990561Y-99697641D01*
X111844462Y-99478987D01*
X111658513Y-99293038D01*
X111439859Y-99146939D01*
X111196905Y-99046304D01*
X110938986Y-98995000D01*
X110676014Y-98995000D01*
X110418095Y-99046304D01*
X110175141Y-99146939D01*
X109956487Y-99293038D01*
X109770538Y-99478987D01*
X109624439Y-99697641D01*
X109523804Y-99940595D01*
X109472500Y-100198514D01*
X109472500Y-100461486D01*
X109523804Y-100719405D01*
X109624439Y-100962359D01*
X109770538Y-101181013D01*
X109956487Y-101366962D01*
X109978472Y-101381652D01*
X109984582Y-101443688D01*
X110032328Y-101601086D01*
X110109864Y-101746145D01*
X110214209Y-101873291D01*
X110246079Y-101899446D01*
X114982607Y-106635975D01*
X114968000Y-106709408D01*
X114968000Y-106984592D01*
X115021686Y-107254490D01*
X115126995Y-107508727D01*
X115279880Y-107737535D01*
X115474465Y-107932120D01*
X115703273Y-108085005D01*
X115732231Y-108097000D01*
X115703273Y-108108995D01*
X115474465Y-108261880D01*
X115279880Y-108456465D01*
X115126995Y-108685273D01*
X115021686Y-108939510D01*
X114968000Y-109209408D01*
X114968000Y-109484592D01*
X115021686Y-109754490D01*
X115126995Y-110008727D01*
X115279880Y-110237535D01*
X115474465Y-110432120D01*
X115703273Y-110585005D01*
X115732231Y-110597000D01*
X115703273Y-110608995D01*
X115474465Y-110761880D01*
X115279880Y-110956465D01*
X115126995Y-111185273D01*
X115021686Y-111439510D01*
X114968000Y-111709408D01*
X114968000Y-111984592D01*
X115021686Y-112254490D01*
X115126995Y-112508727D01*
X115279880Y-112737535D01*
X115474465Y-112932120D01*
X115703273Y-113085005D01*
X115957510Y-113190314D01*
X116227408Y-113244000D01*
X116502592Y-113244000D01*
X116576026Y-113229393D01*
X120748059Y-117401427D01*
X120774209Y-117433291D01*
X120879532Y-117519727D01*
X120901354Y-117537636D01*
X121020250Y-117601188D01*
X121122863Y-117754759D01*
X121322741Y-117954637D01*
X121557773Y-118111680D01*
X121818926Y-118219853D01*
X122096165Y-118275000D01*
X122378835Y-118275000D01*
X122656074Y-118219853D01*
X122917227Y-118111680D01*
X123152259Y-117954637D01*
X123352137Y-117754759D01*
X123509180Y-117519727D01*
X123617353Y-117258574D01*
X123672500Y-116981335D01*
X123672500Y-116698665D01*
X130962500Y-116698665D01*
X130962500Y-116981335D01*
X131017647Y-117258574D01*
X131125820Y-117519727D01*
X131282863Y-117754759D01*
X131482741Y-117954637D01*
X131717773Y-118111680D01*
X131978926Y-118219853D01*
X132256165Y-118275000D01*
X132538835Y-118275000D01*
X132816074Y-118219853D01*
X133077227Y-118111680D01*
X133312259Y-117954637D01*
X133512137Y-117754759D01*
X133669180Y-117519727D01*
X133777353Y-117258574D01*
X133832500Y-116981335D01*
X133832500Y-116698665D01*
X133777353Y-116421426D01*
X133669180Y-116160273D01*
X133512137Y-115925241D01*
X133312259Y-115725363D01*
X133077227Y-115568320D01*
X132816074Y-115460147D01*
X132538835Y-115405000D01*
X132256165Y-115405000D01*
X131978926Y-115460147D01*
X131717773Y-115568320D01*
X131482741Y-115725363D01*
X131282863Y-115925241D01*
X131125820Y-116160273D01*
X131017647Y-116421426D01*
X130962500Y-116698665D01*
X123672500Y-116698665D01*
X123617353Y-116421426D01*
X123509180Y-116160273D01*
X123352137Y-115925241D01*
X123152259Y-115725363D01*
X122917227Y-115568320D01*
X122656074Y-115460147D01*
X122378835Y-115405000D01*
X122096165Y-115405000D01*
X121818926Y-115460147D01*
X121557773Y-115568320D01*
X121389275Y-115680907D01*
X117750545Y-112042178D01*
X117762000Y-111984592D01*
X117762000Y-111709408D01*
X117708314Y-111439510D01*
X117603005Y-111185273D01*
X117491883Y-111018967D01*
X121872500Y-111018967D01*
X121872500Y-111341033D01*
X121935332Y-111656912D01*
X122058582Y-111954463D01*
X122237513Y-112222252D01*
X122465248Y-112449987D01*
X122733037Y-112628918D01*
X123030588Y-112752168D01*
X123346467Y-112815000D01*
X123668533Y-112815000D01*
X123984412Y-112752168D01*
X124281963Y-112628918D01*
X124549752Y-112449987D01*
X124777487Y-112222252D01*
X124956418Y-111954463D01*
X125079668Y-111656912D01*
X125142500Y-111341033D01*
X125142500Y-111018967D01*
X128372500Y-111018967D01*
X128372500Y-111341033D01*
X128435332Y-111656912D01*
X128558582Y-111954463D01*
X128737513Y-112222252D01*
X128965248Y-112449987D01*
X129233037Y-112628918D01*
X129530588Y-112752168D01*
X129846467Y-112815000D01*
X130168533Y-112815000D01*
X130484412Y-112752168D01*
X130781963Y-112628918D01*
X131049752Y-112449987D01*
X131277487Y-112222252D01*
X131456418Y-111954463D01*
X131579668Y-111656912D01*
X131642500Y-111341033D01*
X131642500Y-111018967D01*
X131579668Y-110703088D01*
X131456418Y-110405537D01*
X131277487Y-110137748D01*
X131049752Y-109910013D01*
X130781963Y-109731082D01*
X130484412Y-109607832D01*
X130168533Y-109545000D01*
X129846467Y-109545000D01*
X129530588Y-109607832D01*
X129233037Y-109731082D01*
X128965248Y-109910013D01*
X128737513Y-110137748D01*
X128558582Y-110405537D01*
X128435332Y-110703088D01*
X128372500Y-111018967D01*
X125142500Y-111018967D01*
X125079668Y-110703088D01*
X124956418Y-110405537D01*
X124777487Y-110137748D01*
X124549752Y-109910013D01*
X124281963Y-109731082D01*
X123984412Y-109607832D01*
X123668533Y-109545000D01*
X123346467Y-109545000D01*
X123030588Y-109607832D01*
X122733037Y-109731082D01*
X122465248Y-109910013D01*
X122237513Y-110137748D01*
X122058582Y-110405537D01*
X121935332Y-110703088D01*
X121872500Y-111018967D01*
X117491883Y-111018967D01*
X117450120Y-110956465D01*
X117255535Y-110761880D01*
X117026727Y-110608995D01*
X116997769Y-110597000D01*
X117026727Y-110585005D01*
X117255535Y-110432120D01*
X117450120Y-110237535D01*
X117603005Y-110008727D01*
X117708314Y-109754490D01*
X117762000Y-109484592D01*
X117762000Y-109209408D01*
X117708314Y-108939510D01*
X117685042Y-108883326D01*
X117967368Y-108601000D01*
X136205428Y-108601000D01*
X136205428Y-109869000D01*
X136217688Y-109993482D01*
X136253998Y-110113180D01*
X136312963Y-110223494D01*
X136392315Y-110320185D01*
X136489006Y-110399537D01*
X136599320Y-110458502D01*
X136719018Y-110494812D01*
X136843500Y-110507072D01*
X138111500Y-110507072D01*
X138235982Y-110494812D01*
X138355680Y-110458502D01*
X138465994Y-110399537D01*
X138562685Y-110320185D01*
X138642037Y-110223494D01*
X138701002Y-110113180D01*
X138737312Y-109993482D01*
X138749572Y-109869000D01*
X138749572Y-108601000D01*
X138737312Y-108476518D01*
X138701002Y-108356820D01*
X138642037Y-108246506D01*
X138562685Y-108149815D01*
X138465994Y-108070463D01*
X138355680Y-108011498D01*
X138235982Y-107975188D01*
X138111500Y-107962928D01*
X136843500Y-107962928D01*
X136719018Y-107975188D01*
X136599320Y-108011498D01*
X136489006Y-108070463D01*
X136392315Y-108149815D01*
X136312963Y-108246506D01*
X136253998Y-108356820D01*
X136217688Y-108476518D01*
X136205428Y-108601000D01*
X117967368Y-108601000D01*
X121466368Y-105102000D01*
X123059908Y-105102000D01*
X123030588Y-105107832D01*
X122733037Y-105231082D01*
X122465248Y-105410013D01*
X122237513Y-105637748D01*
X122058582Y-105905537D01*
X121935332Y-106203088D01*
X121872500Y-106518967D01*
X121872500Y-106841033D01*
X121935332Y-107156912D01*
X122058582Y-107454463D01*
X122237513Y-107722252D01*
X122465248Y-107949987D01*
X122733037Y-108128918D01*
X123030588Y-108252168D01*
X123346467Y-108315000D01*
X123668533Y-108315000D01*
X123984412Y-108252168D01*
X124281963Y-108128918D01*
X124549752Y-107949987D01*
X124777487Y-107722252D01*
X124956418Y-107454463D01*
X125079668Y-107156912D01*
X125142500Y-106841033D01*
X125142500Y-106518967D01*
X128372500Y-106518967D01*
X128372500Y-106841033D01*
X128435332Y-107156912D01*
X128558582Y-107454463D01*
X128737513Y-107722252D01*
X128965248Y-107949987D01*
X129233037Y-108128918D01*
X129530588Y-108252168D01*
X129846467Y-108315000D01*
X130168533Y-108315000D01*
X130484412Y-108252168D01*
X130781963Y-108128918D01*
X131049752Y-107949987D01*
X131277487Y-107722252D01*
X131456418Y-107454463D01*
X131579668Y-107156912D01*
X131642500Y-106841033D01*
X131642500Y-106518967D01*
X131579668Y-106203088D01*
X131456418Y-105905537D01*
X131277487Y-105637748D01*
X131049752Y-105410013D01*
X130781963Y-105231082D01*
X130484412Y-105107832D01*
X130168533Y-105045000D01*
X129846467Y-105045000D01*
X129530588Y-105107832D01*
X129233037Y-105231082D01*
X128965248Y-105410013D01*
X128737513Y-105637748D01*
X128558582Y-105905537D01*
X128435332Y-106203088D01*
X128372500Y-106518967D01*
X125142500Y-106518967D01*
X125079668Y-106203088D01*
X124956418Y-105905537D01*
X124777487Y-105637748D01*
X124549752Y-105410013D01*
X124281963Y-105231082D01*
X123984412Y-105107832D01*
X123955092Y-105102000D01*
X125879482Y-105102000D01*
X125920500Y-105106040D01*
X125961518Y-105102000D01*
X125961519Y-105102000D01*
X126084189Y-105089918D01*
X126241587Y-105042172D01*
X126386646Y-104964636D01*
X126513791Y-104860291D01*
X126539946Y-104828421D01*
X130362500Y-101005868D01*
X130362500Y-102134973D01*
X130358459Y-102176001D01*
X130374581Y-102339689D01*
X130422327Y-102497087D01*
X130422328Y-102497088D01*
X130499864Y-102642147D01*
X130604209Y-102769292D01*
X130636073Y-102795442D01*
X135082057Y-107241427D01*
X135108207Y-107273291D01*
X135235352Y-107377636D01*
X135380411Y-107455172D01*
X135537809Y-107502918D01*
X135660479Y-107515000D01*
X135660489Y-107515000D01*
X135701497Y-107519039D01*
X135742505Y-107515000D01*
X141186955Y-107515000D01*
X141852085Y-108180130D01*
X141748560Y-108249303D01*
X141571803Y-108426060D01*
X141432927Y-108633903D01*
X141337267Y-108864846D01*
X141288500Y-109110014D01*
X141288500Y-109359986D01*
X141337267Y-109605154D01*
X141432927Y-109836097D01*
X141571803Y-110043940D01*
X141748560Y-110220697D01*
X141956403Y-110359573D01*
X142187346Y-110455233D01*
X142432514Y-110504000D01*
X142682486Y-110504000D01*
X142927654Y-110455233D01*
X143158597Y-110359573D01*
X143366440Y-110220697D01*
X143543197Y-110043940D01*
X143612370Y-109940415D01*
X149342501Y-115670548D01*
X149342501Y-115672069D01*
X149262741Y-115725363D01*
X149062863Y-115925241D01*
X148905820Y-116160273D01*
X148797647Y-116421426D01*
X148742500Y-116698665D01*
X148742500Y-116981335D01*
X148786991Y-117205001D01*
X141563370Y-117205001D01*
X141433786Y-117075417D01*
X141452500Y-116981335D01*
X141452500Y-116698665D01*
X141397353Y-116421426D01*
X141289180Y-116160273D01*
X141132137Y-115925241D01*
X140932259Y-115725363D01*
X140852500Y-115672070D01*
X140852500Y-112734637D01*
X141003197Y-112583940D01*
X141142073Y-112376097D01*
X141237733Y-112145154D01*
X141286500Y-111899986D01*
X141286500Y-111650014D01*
X141237733Y-111404846D01*
X141142073Y-111173903D01*
X141003197Y-110966060D01*
X140826440Y-110789303D01*
X140618597Y-110650427D01*
X140387654Y-110554767D01*
X140142486Y-110506000D01*
X139892514Y-110506000D01*
X139647346Y-110554767D01*
X139416403Y-110650427D01*
X139208560Y-110789303D01*
X139031803Y-110966060D01*
X138892927Y-111173903D01*
X138797267Y-111404846D01*
X138748500Y-111650014D01*
X138748500Y-111899986D01*
X138797267Y-112145154D01*
X138892927Y-112376097D01*
X139031803Y-112583940D01*
X139182500Y-112734637D01*
X139182501Y-115672069D01*
X139102741Y-115725363D01*
X138902863Y-115925241D01*
X138745820Y-116160273D01*
X138637647Y-116421426D01*
X138582500Y-116698665D01*
X138582500Y-116981335D01*
X138637647Y-117258574D01*
X138745820Y-117519727D01*
X138902863Y-117754759D01*
X139102741Y-117954637D01*
X139337773Y-118111680D01*
X139598926Y-118219853D01*
X139876165Y-118275000D01*
X140158835Y-118275000D01*
X140252917Y-118256286D01*
X140598064Y-118601433D01*
X140624210Y-118633292D01*
X140751355Y-118737637D01*
X140896414Y-118815173D01*
X141053812Y-118862919D01*
X141176482Y-118875001D01*
X141176483Y-118875001D01*
X141217501Y-118879041D01*
X141258519Y-118875001D01*
X155792483Y-118875001D01*
X155833501Y-118879041D01*
X155874519Y-118875001D01*
X155874520Y-118875001D01*
X155997190Y-118862919D01*
X156154588Y-118815173D01*
X156299647Y-118737637D01*
X156426792Y-118633292D01*
X156452947Y-118601422D01*
X164705705Y-110348665D01*
X170332500Y-110348665D01*
X170332500Y-110631335D01*
X170387647Y-110908574D01*
X170495820Y-111169727D01*
X170652863Y-111404759D01*
X170852741Y-111604637D01*
X171087773Y-111761680D01*
X171348926Y-111869853D01*
X171626165Y-111925000D01*
X171908835Y-111925000D01*
X172186074Y-111869853D01*
X172447227Y-111761680D01*
X172682259Y-111604637D01*
X172882137Y-111404759D01*
X173039180Y-111169727D01*
X173147353Y-110908574D01*
X173202500Y-110631335D01*
X173202500Y-110348665D01*
X173147353Y-110071426D01*
X173039180Y-109810273D01*
X172882137Y-109575241D01*
X172682259Y-109375363D01*
X172447227Y-109218320D01*
X172186074Y-109110147D01*
X171908835Y-109055000D01*
X171626165Y-109055000D01*
X171348926Y-109110147D01*
X171087773Y-109218320D01*
X170852741Y-109375363D01*
X170652863Y-109575241D01*
X170495820Y-109810273D01*
X170387647Y-110071426D01*
X170332500Y-110348665D01*
X164705705Y-110348665D01*
X168809371Y-106245000D01*
X170394451Y-106245000D01*
X170387647Y-106261426D01*
X170332500Y-106538665D01*
X170332500Y-106821335D01*
X170387647Y-107098574D01*
X170495820Y-107359727D01*
X170652863Y-107594759D01*
X170852741Y-107794637D01*
X171087773Y-107951680D01*
X171348926Y-108059853D01*
X171626165Y-108115000D01*
X171908835Y-108115000D01*
X172186074Y-108059853D01*
X172447227Y-107951680D01*
X172682259Y-107794637D01*
X172882137Y-107594759D01*
X173039180Y-107359727D01*
X173147353Y-107098574D01*
X173202500Y-106821335D01*
X173202500Y-106538665D01*
X173147353Y-106261426D01*
X173140549Y-106245000D01*
X178121026Y-106245000D01*
X178162044Y-106249040D01*
X178203062Y-106245000D01*
X178203063Y-106245000D01*
X178325733Y-106232918D01*
X178483131Y-106185172D01*
X178628190Y-106107636D01*
X178755335Y-106003291D01*
X178781490Y-105971421D01*
X182182520Y-102570392D01*
X182182520Y-106514112D01*
X180977961Y-107718671D01*
X180808684Y-107685000D01*
X180506316Y-107685000D01*
X180209757Y-107743989D01*
X179930405Y-107859701D01*
X179678995Y-108027688D01*
X179612556Y-108094127D01*
X179607002Y-108075820D01*
X179548037Y-107965506D01*
X179468685Y-107868815D01*
X179371994Y-107789463D01*
X179261680Y-107730498D01*
X179141982Y-107694188D01*
X179017500Y-107681928D01*
X177217500Y-107681928D01*
X177093018Y-107694188D01*
X176973320Y-107730498D01*
X176863006Y-107789463D01*
X176766315Y-107868815D01*
X176686963Y-107965506D01*
X176627998Y-108075820D01*
X176591688Y-108195518D01*
X176579428Y-108320000D01*
X176579428Y-110120000D01*
X176591688Y-110244482D01*
X176627998Y-110364180D01*
X176686963Y-110474494D01*
X176766315Y-110571185D01*
X176863006Y-110650537D01*
X176973320Y-110709502D01*
X177093018Y-110745812D01*
X177217500Y-110758072D01*
X179017500Y-110758072D01*
X179141982Y-110745812D01*
X179261680Y-110709502D01*
X179371994Y-110650537D01*
X179468685Y-110571185D01*
X179548037Y-110474494D01*
X179607002Y-110364180D01*
X179612556Y-110345873D01*
X179678995Y-110412312D01*
X179930405Y-110580299D01*
X180209757Y-110696011D01*
X180506316Y-110755000D01*
X180808684Y-110755000D01*
X181105243Y-110696011D01*
X181384595Y-110580299D01*
X181636005Y-110412312D01*
X181849812Y-110198505D01*
X182017799Y-109947095D01*
X182133511Y-109667743D01*
X182192500Y-109371184D01*
X182192500Y-109068816D01*
X182158829Y-108899539D01*
X183578948Y-107479420D01*
X183610811Y-107453271D01*
X183715156Y-107326126D01*
X183792692Y-107181067D01*
X183840438Y-107023669D01*
X183852520Y-106900999D01*
X183852520Y-106900989D01*
X183856559Y-106859981D01*
X183852520Y-106818973D01*
X183852520Y-75354036D01*
X183856560Y-75313017D01*
X183840438Y-75149329D01*
X183792692Y-74991931D01*
X183715156Y-74846872D01*
X183610811Y-74719727D01*
X183578947Y-74693577D01*
X181495947Y-72610578D01*
X181469792Y-72578708D01*
X181342647Y-72474363D01*
X181197588Y-72396827D01*
X181040190Y-72349081D01*
X180917520Y-72336999D01*
X180917519Y-72336999D01*
X180876501Y-72332959D01*
X180835483Y-72336999D01*
X176487508Y-72336999D01*
X176446500Y-72332960D01*
X176405492Y-72336999D01*
X176405482Y-72336999D01*
X176282812Y-72349081D01*
X176125414Y-72396827D01*
X175980355Y-72474363D01*
X175853210Y-72578708D01*
X175827059Y-72610573D01*
X175474439Y-72963193D01*
X175342760Y-72937000D01*
X175050240Y-72937000D01*
X174763342Y-72994068D01*
X174493089Y-73106010D01*
X174249868Y-73268525D01*
X174043025Y-73475368D01*
X173926500Y-73649760D01*
X173809975Y-73475368D01*
X173603132Y-73268525D01*
X173359911Y-73106010D01*
X173089658Y-72994068D01*
X172802760Y-72937000D01*
X172510240Y-72937000D01*
X172223342Y-72994068D01*
X171953089Y-73106010D01*
X171709868Y-73268525D01*
X171503025Y-73475368D01*
X171340510Y-73718589D01*
X171228568Y-73988842D01*
X171171500Y-74275740D01*
X171171500Y-74568260D01*
X171228568Y-74855158D01*
X171340510Y-75125411D01*
X171503025Y-75368632D01*
X171690108Y-75555715D01*
X171563114Y-75623595D01*
X171428538Y-75734038D01*
X171318095Y-75868614D01*
X171236028Y-76022150D01*
X171204222Y-76127000D01*
X168493869Y-76127000D01*
X167405437Y-75038569D01*
X167379282Y-75006700D01*
X167252137Y-74902355D01*
X167107078Y-74824819D01*
X166949680Y-74777073D01*
X166827010Y-74764991D01*
X166827009Y-74764991D01*
X166785991Y-74760951D01*
X166744973Y-74764991D01*
X111448527Y-74764991D01*
X111407508Y-74760951D01*
X111366490Y-74764991D01*
X111243820Y-74777073D01*
X111086422Y-74824819D01*
X110941363Y-74902355D01*
X110814218Y-75006700D01*
X110788068Y-75038564D01*
X109794705Y-76031928D01*
X108737500Y-76031928D01*
X108613018Y-76044188D01*
X108493320Y-76080498D01*
X108383006Y-76139463D01*
X108286315Y-76218815D01*
X108206963Y-76315506D01*
X108147998Y-76425820D01*
X108111688Y-76545518D01*
X108099428Y-76670000D01*
X102577500Y-76670000D01*
X102577500Y-68668500D01*
X188887501Y-68668500D01*
X188887500Y-69817581D01*
G04 #@! TA.AperFunction,NonConductor*
D23*
G36*
X188887500Y-69817581D02*
G01*
X188887500Y-69817582D01*
X188887501Y-118077572D01*
X188887500Y-118077582D01*
X188887501Y-119990000D01*
X102577500Y-119990000D01*
X102577500Y-106709408D01*
X109568000Y-106709408D01*
X109568000Y-106984592D01*
X109621686Y-107254490D01*
X109726995Y-107508727D01*
X109879880Y-107737535D01*
X110074465Y-107932120D01*
X110303273Y-108085005D01*
X110332231Y-108097000D01*
X110303273Y-108108995D01*
X110074465Y-108261880D01*
X109879880Y-108456465D01*
X109726995Y-108685273D01*
X109621686Y-108939510D01*
X109568000Y-109209408D01*
X109568000Y-109484592D01*
X109621686Y-109754490D01*
X109726995Y-110008727D01*
X109879880Y-110237535D01*
X110074465Y-110432120D01*
X110303273Y-110585005D01*
X110332231Y-110597000D01*
X110303273Y-110608995D01*
X110074465Y-110761880D01*
X109879880Y-110956465D01*
X109726995Y-111185273D01*
X109621686Y-111439510D01*
X109568000Y-111709408D01*
X109568000Y-111984592D01*
X109621686Y-112254490D01*
X109726995Y-112508727D01*
X109879880Y-112737535D01*
X110074465Y-112932120D01*
X110303273Y-113085005D01*
X110557510Y-113190314D01*
X110827408Y-113244000D01*
X111102592Y-113244000D01*
X111372490Y-113190314D01*
X111626727Y-113085005D01*
X111855535Y-112932120D01*
X112050120Y-112737535D01*
X112203005Y-112508727D01*
X112308314Y-112254490D01*
X112362000Y-111984592D01*
X112362000Y-111709408D01*
X112308314Y-111439510D01*
X112203005Y-111185273D01*
X112050120Y-110956465D01*
X111855535Y-110761880D01*
X111626727Y-110608995D01*
X111597769Y-110597000D01*
X111626727Y-110585005D01*
X111855535Y-110432120D01*
X112050120Y-110237535D01*
X112203005Y-110008727D01*
X112308314Y-109754490D01*
X112362000Y-109484592D01*
X112362000Y-109209408D01*
X112308314Y-108939510D01*
X112203005Y-108685273D01*
X112050120Y-108456465D01*
X111855535Y-108261880D01*
X111626727Y-108108995D01*
X111597769Y-108097000D01*
X111626727Y-108085005D01*
X111855535Y-107932120D01*
X112050120Y-107737535D01*
X112203005Y-107508727D01*
X112308314Y-107254490D01*
X112362000Y-106984592D01*
X112362000Y-106709408D01*
X112308314Y-106439510D01*
X112203005Y-106185273D01*
X112050120Y-105956465D01*
X111855535Y-105761880D01*
X111626727Y-105608995D01*
X111372490Y-105503686D01*
X111102592Y-105450000D01*
X110827408Y-105450000D01*
X110557510Y-105503686D01*
X110303273Y-105608995D01*
X110074465Y-105761880D01*
X109879880Y-105956465D01*
X109726995Y-106185273D01*
X109621686Y-106439510D01*
X109568000Y-106709408D01*
X102577500Y-106709408D01*
X102577500Y-76670000D01*
X108099428Y-76670000D01*
X108099428Y-78270000D01*
X108111688Y-78394482D01*
X108147998Y-78514180D01*
X108206963Y-78624494D01*
X108286315Y-78721185D01*
X108383006Y-78800537D01*
X108493320Y-78859502D01*
X108613018Y-78895812D01*
X108621461Y-78896643D01*
X108422863Y-79095241D01*
X108265820Y-79330273D01*
X108157647Y-79591426D01*
X108102500Y-79868665D01*
X108102500Y-80151335D01*
X108157647Y-80428574D01*
X108265820Y-80689727D01*
X108422863Y-80924759D01*
X108622741Y-81124637D01*
X108855259Y-81280000D01*
X108622741Y-81435363D01*
X108422863Y-81635241D01*
X108265820Y-81870273D01*
X108157647Y-82131426D01*
X108102500Y-82408665D01*
X108102500Y-82691335D01*
X108157647Y-82968574D01*
X108265820Y-83229727D01*
X108422863Y-83464759D01*
X108622741Y-83664637D01*
X108855259Y-83820000D01*
X108622741Y-83975363D01*
X108422863Y-84175241D01*
X108265820Y-84410273D01*
X108157647Y-84671426D01*
X108102500Y-84948665D01*
X108102500Y-85231335D01*
X108157647Y-85508574D01*
X108265820Y-85769727D01*
X108422863Y-86004759D01*
X108622741Y-86204637D01*
X108855259Y-86360000D01*
X108622741Y-86515363D01*
X108422863Y-86715241D01*
X108265820Y-86950273D01*
X108157647Y-87211426D01*
X108102500Y-87488665D01*
X108102500Y-87771335D01*
X108157647Y-88048574D01*
X108265820Y-88309727D01*
X108422863Y-88544759D01*
X108622741Y-88744637D01*
X108855259Y-88900000D01*
X108622741Y-89055363D01*
X108422863Y-89255241D01*
X108265820Y-89490273D01*
X108157647Y-89751426D01*
X108102500Y-90028665D01*
X108102500Y-90311335D01*
X108157647Y-90588574D01*
X108265820Y-90849727D01*
X108422863Y-91084759D01*
X108622741Y-91284637D01*
X108855259Y-91440000D01*
X108622741Y-91595363D01*
X108422863Y-91795241D01*
X108265820Y-92030273D01*
X108157647Y-92291426D01*
X108102500Y-92568665D01*
X108102500Y-92851335D01*
X108157647Y-93128574D01*
X108265820Y-93389727D01*
X108422863Y-93624759D01*
X108622741Y-93824637D01*
X108857773Y-93981680D01*
X109118926Y-94089853D01*
X109396165Y-94145000D01*
X109678835Y-94145000D01*
X109772917Y-94126286D01*
X110118064Y-94471433D01*
X110144210Y-94503292D01*
X110271355Y-94607637D01*
X110416414Y-94685173D01*
X110573812Y-94732919D01*
X110696482Y-94745001D01*
X110696483Y-94745001D01*
X110737501Y-94749041D01*
X110778519Y-94745001D01*
X120996481Y-94745001D01*
X121037499Y-94749041D01*
X121078517Y-94745001D01*
X121078518Y-94745001D01*
X121201188Y-94732919D01*
X121358586Y-94685173D01*
X121503645Y-94607637D01*
X121630790Y-94503292D01*
X121656944Y-94471423D01*
X122002082Y-94126286D01*
X122096165Y-94145000D01*
X122378835Y-94145000D01*
X122472917Y-94126286D01*
X122818064Y-94471433D01*
X122844210Y-94503292D01*
X122971355Y-94607637D01*
X123116414Y-94685173D01*
X123273812Y-94732919D01*
X123396482Y-94745001D01*
X123396483Y-94745001D01*
X123437501Y-94749041D01*
X123478519Y-94745001D01*
X133696481Y-94745001D01*
X133737499Y-94749041D01*
X133778517Y-94745001D01*
X133778518Y-94745001D01*
X133901188Y-94732919D01*
X134058586Y-94685173D01*
X134102500Y-94661700D01*
X134102501Y-98714131D01*
X132632918Y-100183715D01*
X132538835Y-100165000D01*
X132256165Y-100165000D01*
X132032499Y-100209491D01*
X132032499Y-99335869D01*
X132162082Y-99206286D01*
X132256165Y-99225000D01*
X132538835Y-99225000D01*
X132816074Y-99169853D01*
X133077227Y-99061680D01*
X133312259Y-98904637D01*
X133512137Y-98704759D01*
X133669180Y-98469727D01*
X133777353Y-98208574D01*
X133832500Y-97931335D01*
X133832500Y-97648665D01*
X133777353Y-97371426D01*
X133669180Y-97110273D01*
X133512137Y-96875241D01*
X133312259Y-96675363D01*
X133077227Y-96518320D01*
X132816074Y-96410147D01*
X132538835Y-96355000D01*
X132256165Y-96355000D01*
X131978926Y-96410147D01*
X131717773Y-96518320D01*
X131482741Y-96675363D01*
X131282863Y-96875241D01*
X131125820Y-97110273D01*
X131017647Y-97371426D01*
X130962500Y-97648665D01*
X130962500Y-97931335D01*
X130981214Y-98025418D01*
X130636073Y-98370559D01*
X130604208Y-98396710D01*
X130578060Y-98428572D01*
X125574633Y-103432000D01*
X121161515Y-103432000D01*
X121120499Y-103427960D01*
X121079483Y-103432000D01*
X121079481Y-103432000D01*
X120956811Y-103444082D01*
X120799413Y-103491828D01*
X120654354Y-103569364D01*
X120527209Y-103673709D01*
X120501061Y-103705571D01*
X117718071Y-106488562D01*
X117708314Y-106439510D01*
X117603005Y-106185273D01*
X117450120Y-105956465D01*
X117255535Y-105761880D01*
X117026727Y-105608995D01*
X116772490Y-105503686D01*
X116502592Y-105450000D01*
X116227408Y-105450000D01*
X116169822Y-105461454D01*
X111862454Y-101154087D01*
X111990561Y-100962359D01*
X112077500Y-100752470D01*
X112164439Y-100962359D01*
X112310538Y-101181013D01*
X112496487Y-101366962D01*
X112715141Y-101513061D01*
X112958095Y-101613696D01*
X113216014Y-101665000D01*
X113478986Y-101665000D01*
X113497875Y-101661243D01*
X113998058Y-102161426D01*
X114024209Y-102193291D01*
X114151354Y-102297636D01*
X114296413Y-102375172D01*
X114453811Y-102422918D01*
X114576481Y-102435000D01*
X114576483Y-102435000D01*
X114617499Y-102439040D01*
X114658515Y-102435000D01*
X121069570Y-102435000D01*
X121122863Y-102514759D01*
X121322741Y-102714637D01*
X121557773Y-102871680D01*
X121818926Y-102979853D01*
X122096165Y-103035000D01*
X122378835Y-103035000D01*
X122656074Y-102979853D01*
X122917227Y-102871680D01*
X123152259Y-102714637D01*
X123352137Y-102514759D01*
X123509180Y-102279727D01*
X123617353Y-102018574D01*
X123672500Y-101741335D01*
X123672500Y-101458665D01*
X123617353Y-101181426D01*
X123509180Y-100920273D01*
X123352137Y-100685241D01*
X123152259Y-100485363D01*
X122917227Y-100328320D01*
X122656074Y-100220147D01*
X122378835Y-100165000D01*
X122096165Y-100165000D01*
X121818926Y-100220147D01*
X121557773Y-100328320D01*
X121322741Y-100485363D01*
X121122863Y-100685241D01*
X121069570Y-100765000D01*
X117152310Y-100765000D01*
X117171196Y-100719405D01*
X117222500Y-100461486D01*
X117222500Y-100198514D01*
X117218743Y-100179625D01*
X118773368Y-98625000D01*
X121069570Y-98625000D01*
X121122863Y-98704759D01*
X121322741Y-98904637D01*
X121557773Y-99061680D01*
X121818926Y-99169853D01*
X122096165Y-99225000D01*
X122378835Y-99225000D01*
X122656074Y-99169853D01*
X122917227Y-99061680D01*
X123152259Y-98904637D01*
X123352137Y-98704759D01*
X123509180Y-98469727D01*
X123617353Y-98208574D01*
X123672500Y-97931335D01*
X123672500Y-97648665D01*
X123617353Y-97371426D01*
X123509180Y-97110273D01*
X123352137Y-96875241D01*
X123152259Y-96675363D01*
X122917227Y-96518320D01*
X122656074Y-96410147D01*
X122378835Y-96355000D01*
X122096165Y-96355000D01*
X121818926Y-96410147D01*
X121557773Y-96518320D01*
X121322741Y-96675363D01*
X121122863Y-96875241D01*
X121069570Y-96955000D01*
X118468507Y-96955000D01*
X118427499Y-96950961D01*
X118386491Y-96955000D01*
X118386481Y-96955000D01*
X118263811Y-96967082D01*
X118106413Y-97014828D01*
X117961354Y-97092364D01*
X117834209Y-97196709D01*
X117808059Y-97228573D01*
X116037875Y-98998757D01*
X116018986Y-98995000D01*
X115756014Y-98995000D01*
X115498095Y-99046304D01*
X115255141Y-99146939D01*
X115036487Y-99293038D01*
X114850538Y-99478987D01*
X114704439Y-99697641D01*
X114617500Y-99907530D01*
X114530561Y-99697641D01*
X114384462Y-99478987D01*
X114198513Y-99293038D01*
X113979859Y-99146939D01*
X113736905Y-99046304D01*
X113478986Y-98995000D01*
X113216014Y-98995000D01*
X112958095Y-99046304D01*
X112715141Y-99146939D01*
X112496487Y-99293038D01*
X112310538Y-99478987D01*
X112164439Y-99697641D01*
X112077500Y-99907530D01*
X111990561Y-99697641D01*
X111844462Y-99478987D01*
X111658513Y-99293038D01*
X111439859Y-99146939D01*
X111196905Y-99046304D01*
X110938986Y-98995000D01*
X110676014Y-98995000D01*
X110418095Y-99046304D01*
X110175141Y-99146939D01*
X109956487Y-99293038D01*
X109770538Y-99478987D01*
X109624439Y-99697641D01*
X109523804Y-99940595D01*
X109472500Y-100198514D01*
X109472500Y-100461486D01*
X109523804Y-100719405D01*
X109624439Y-100962359D01*
X109770538Y-101181013D01*
X109956487Y-101366962D01*
X109978472Y-101381652D01*
X109984582Y-101443688D01*
X110032328Y-101601086D01*
X110109864Y-101746145D01*
X110214209Y-101873291D01*
X110246079Y-101899446D01*
X114982607Y-106635975D01*
X114968000Y-106709408D01*
X114968000Y-106984592D01*
X115021686Y-107254490D01*
X115126995Y-107508727D01*
X115279880Y-107737535D01*
X115474465Y-107932120D01*
X115703273Y-108085005D01*
X115732231Y-108097000D01*
X115703273Y-108108995D01*
X115474465Y-108261880D01*
X115279880Y-108456465D01*
X115126995Y-108685273D01*
X115021686Y-108939510D01*
X114968000Y-109209408D01*
X114968000Y-109484592D01*
X115021686Y-109754490D01*
X115126995Y-110008727D01*
X115279880Y-110237535D01*
X115474465Y-110432120D01*
X115703273Y-110585005D01*
X115732231Y-110597000D01*
X115703273Y-110608995D01*
X115474465Y-110761880D01*
X115279880Y-110956465D01*
X115126995Y-111185273D01*
X115021686Y-111439510D01*
X114968000Y-111709408D01*
X114968000Y-111984592D01*
X115021686Y-112254490D01*
X115126995Y-112508727D01*
X115279880Y-112737535D01*
X115474465Y-112932120D01*
X115703273Y-113085005D01*
X115957510Y-113190314D01*
X116227408Y-113244000D01*
X116502592Y-113244000D01*
X116576026Y-113229393D01*
X120748059Y-117401427D01*
X120774209Y-117433291D01*
X120879532Y-117519727D01*
X120901354Y-117537636D01*
X121020250Y-117601188D01*
X121122863Y-117754759D01*
X121322741Y-117954637D01*
X121557773Y-118111680D01*
X121818926Y-118219853D01*
X122096165Y-118275000D01*
X122378835Y-118275000D01*
X122656074Y-118219853D01*
X122917227Y-118111680D01*
X123152259Y-117954637D01*
X123352137Y-117754759D01*
X123509180Y-117519727D01*
X123617353Y-117258574D01*
X123672500Y-116981335D01*
X123672500Y-116698665D01*
X130962500Y-116698665D01*
X130962500Y-116981335D01*
X131017647Y-117258574D01*
X131125820Y-117519727D01*
X131282863Y-117754759D01*
X131482741Y-117954637D01*
X131717773Y-118111680D01*
X131978926Y-118219853D01*
X132256165Y-118275000D01*
X132538835Y-118275000D01*
X132816074Y-118219853D01*
X133077227Y-118111680D01*
X133312259Y-117954637D01*
X133512137Y-117754759D01*
X133669180Y-117519727D01*
X133777353Y-117258574D01*
X133832500Y-116981335D01*
X133832500Y-116698665D01*
X133777353Y-116421426D01*
X133669180Y-116160273D01*
X133512137Y-115925241D01*
X133312259Y-115725363D01*
X133077227Y-115568320D01*
X132816074Y-115460147D01*
X132538835Y-115405000D01*
X132256165Y-115405000D01*
X131978926Y-115460147D01*
X131717773Y-115568320D01*
X131482741Y-115725363D01*
X131282863Y-115925241D01*
X131125820Y-116160273D01*
X131017647Y-116421426D01*
X130962500Y-116698665D01*
X123672500Y-116698665D01*
X123617353Y-116421426D01*
X123509180Y-116160273D01*
X123352137Y-115925241D01*
X123152259Y-115725363D01*
X122917227Y-115568320D01*
X122656074Y-115460147D01*
X122378835Y-115405000D01*
X122096165Y-115405000D01*
X121818926Y-115460147D01*
X121557773Y-115568320D01*
X121389275Y-115680907D01*
X117750545Y-112042178D01*
X117762000Y-111984592D01*
X117762000Y-111709408D01*
X117708314Y-111439510D01*
X117603005Y-111185273D01*
X117491883Y-111018967D01*
X121872500Y-111018967D01*
X121872500Y-111341033D01*
X121935332Y-111656912D01*
X122058582Y-111954463D01*
X122237513Y-112222252D01*
X122465248Y-112449987D01*
X122733037Y-112628918D01*
X123030588Y-112752168D01*
X123346467Y-112815000D01*
X123668533Y-112815000D01*
X123984412Y-112752168D01*
X124281963Y-112628918D01*
X124549752Y-112449987D01*
X124777487Y-112222252D01*
X124956418Y-111954463D01*
X125079668Y-111656912D01*
X125142500Y-111341033D01*
X125142500Y-111018967D01*
X128372500Y-111018967D01*
X128372500Y-111341033D01*
X128435332Y-111656912D01*
X128558582Y-111954463D01*
X128737513Y-112222252D01*
X128965248Y-112449987D01*
X129233037Y-112628918D01*
X129530588Y-112752168D01*
X129846467Y-112815000D01*
X130168533Y-112815000D01*
X130484412Y-112752168D01*
X130781963Y-112628918D01*
X131049752Y-112449987D01*
X131277487Y-112222252D01*
X131456418Y-111954463D01*
X131579668Y-111656912D01*
X131642500Y-111341033D01*
X131642500Y-111018967D01*
X131579668Y-110703088D01*
X131456418Y-110405537D01*
X131277487Y-110137748D01*
X131049752Y-109910013D01*
X130781963Y-109731082D01*
X130484412Y-109607832D01*
X130168533Y-109545000D01*
X129846467Y-109545000D01*
X129530588Y-109607832D01*
X129233037Y-109731082D01*
X128965248Y-109910013D01*
X128737513Y-110137748D01*
X128558582Y-110405537D01*
X128435332Y-110703088D01*
X128372500Y-111018967D01*
X125142500Y-111018967D01*
X125079668Y-110703088D01*
X124956418Y-110405537D01*
X124777487Y-110137748D01*
X124549752Y-109910013D01*
X124281963Y-109731082D01*
X123984412Y-109607832D01*
X123668533Y-109545000D01*
X123346467Y-109545000D01*
X123030588Y-109607832D01*
X122733037Y-109731082D01*
X122465248Y-109910013D01*
X122237513Y-110137748D01*
X122058582Y-110405537D01*
X121935332Y-110703088D01*
X121872500Y-111018967D01*
X117491883Y-111018967D01*
X117450120Y-110956465D01*
X117255535Y-110761880D01*
X117026727Y-110608995D01*
X116997769Y-110597000D01*
X117026727Y-110585005D01*
X117255535Y-110432120D01*
X117450120Y-110237535D01*
X117603005Y-110008727D01*
X117708314Y-109754490D01*
X117762000Y-109484592D01*
X117762000Y-109209408D01*
X117708314Y-108939510D01*
X117685042Y-108883326D01*
X117967368Y-108601000D01*
X136205428Y-108601000D01*
X136205428Y-109869000D01*
X136217688Y-109993482D01*
X136253998Y-110113180D01*
X136312963Y-110223494D01*
X136392315Y-110320185D01*
X136489006Y-110399537D01*
X136599320Y-110458502D01*
X136719018Y-110494812D01*
X136843500Y-110507072D01*
X138111500Y-110507072D01*
X138235982Y-110494812D01*
X138355680Y-110458502D01*
X138465994Y-110399537D01*
X138562685Y-110320185D01*
X138642037Y-110223494D01*
X138701002Y-110113180D01*
X138737312Y-109993482D01*
X138749572Y-109869000D01*
X138749572Y-108601000D01*
X138737312Y-108476518D01*
X138701002Y-108356820D01*
X138642037Y-108246506D01*
X138562685Y-108149815D01*
X138465994Y-108070463D01*
X138355680Y-108011498D01*
X138235982Y-107975188D01*
X138111500Y-107962928D01*
X136843500Y-107962928D01*
X136719018Y-107975188D01*
X136599320Y-108011498D01*
X136489006Y-108070463D01*
X136392315Y-108149815D01*
X136312963Y-108246506D01*
X136253998Y-108356820D01*
X136217688Y-108476518D01*
X136205428Y-108601000D01*
X117967368Y-108601000D01*
X121466368Y-105102000D01*
X123059908Y-105102000D01*
X123030588Y-105107832D01*
X122733037Y-105231082D01*
X122465248Y-105410013D01*
X122237513Y-105637748D01*
X122058582Y-105905537D01*
X121935332Y-106203088D01*
X121872500Y-106518967D01*
X121872500Y-106841033D01*
X121935332Y-107156912D01*
X122058582Y-107454463D01*
X122237513Y-107722252D01*
X122465248Y-107949987D01*
X122733037Y-108128918D01*
X123030588Y-108252168D01*
X123346467Y-108315000D01*
X123668533Y-108315000D01*
X123984412Y-108252168D01*
X124281963Y-108128918D01*
X124549752Y-107949987D01*
X124777487Y-107722252D01*
X124956418Y-107454463D01*
X125079668Y-107156912D01*
X125142500Y-106841033D01*
X125142500Y-106518967D01*
X128372500Y-106518967D01*
X128372500Y-106841033D01*
X128435332Y-107156912D01*
X128558582Y-107454463D01*
X128737513Y-107722252D01*
X128965248Y-107949987D01*
X129233037Y-108128918D01*
X129530588Y-108252168D01*
X129846467Y-108315000D01*
X130168533Y-108315000D01*
X130484412Y-108252168D01*
X130781963Y-108128918D01*
X131049752Y-107949987D01*
X131277487Y-107722252D01*
X131456418Y-107454463D01*
X131579668Y-107156912D01*
X131642500Y-106841033D01*
X131642500Y-106518967D01*
X131579668Y-106203088D01*
X131456418Y-105905537D01*
X131277487Y-105637748D01*
X131049752Y-105410013D01*
X130781963Y-105231082D01*
X130484412Y-105107832D01*
X130168533Y-105045000D01*
X129846467Y-105045000D01*
X129530588Y-105107832D01*
X129233037Y-105231082D01*
X128965248Y-105410013D01*
X128737513Y-105637748D01*
X128558582Y-105905537D01*
X128435332Y-106203088D01*
X128372500Y-106518967D01*
X125142500Y-106518967D01*
X125079668Y-106203088D01*
X124956418Y-105905537D01*
X124777487Y-105637748D01*
X124549752Y-105410013D01*
X124281963Y-105231082D01*
X123984412Y-105107832D01*
X123955092Y-105102000D01*
X125879482Y-105102000D01*
X125920500Y-105106040D01*
X125961518Y-105102000D01*
X125961519Y-105102000D01*
X126084189Y-105089918D01*
X126241587Y-105042172D01*
X126386646Y-104964636D01*
X126513791Y-104860291D01*
X126539946Y-104828421D01*
X130362500Y-101005868D01*
X130362500Y-102134973D01*
X130358459Y-102176001D01*
X130374581Y-102339689D01*
X130422327Y-102497087D01*
X130422328Y-102497088D01*
X130499864Y-102642147D01*
X130604209Y-102769292D01*
X130636073Y-102795442D01*
X135082057Y-107241427D01*
X135108207Y-107273291D01*
X135235352Y-107377636D01*
X135380411Y-107455172D01*
X135537809Y-107502918D01*
X135660479Y-107515000D01*
X135660489Y-107515000D01*
X135701497Y-107519039D01*
X135742505Y-107515000D01*
X141186955Y-107515000D01*
X141852085Y-108180130D01*
X141748560Y-108249303D01*
X141571803Y-108426060D01*
X141432927Y-108633903D01*
X141337267Y-108864846D01*
X141288500Y-109110014D01*
X141288500Y-109359986D01*
X141337267Y-109605154D01*
X141432927Y-109836097D01*
X141571803Y-110043940D01*
X141748560Y-110220697D01*
X141956403Y-110359573D01*
X142187346Y-110455233D01*
X142432514Y-110504000D01*
X142682486Y-110504000D01*
X142927654Y-110455233D01*
X143158597Y-110359573D01*
X143366440Y-110220697D01*
X143543197Y-110043940D01*
X143612370Y-109940415D01*
X149342501Y-115670548D01*
X149342501Y-115672069D01*
X149262741Y-115725363D01*
X149062863Y-115925241D01*
X148905820Y-116160273D01*
X148797647Y-116421426D01*
X148742500Y-116698665D01*
X148742500Y-116981335D01*
X148786991Y-117205001D01*
X141563370Y-117205001D01*
X141433786Y-117075417D01*
X141452500Y-116981335D01*
X141452500Y-116698665D01*
X141397353Y-116421426D01*
X141289180Y-116160273D01*
X141132137Y-115925241D01*
X140932259Y-115725363D01*
X140852500Y-115672070D01*
X140852500Y-112734637D01*
X141003197Y-112583940D01*
X141142073Y-112376097D01*
X141237733Y-112145154D01*
X141286500Y-111899986D01*
X141286500Y-111650014D01*
X141237733Y-111404846D01*
X141142073Y-111173903D01*
X141003197Y-110966060D01*
X140826440Y-110789303D01*
X140618597Y-110650427D01*
X140387654Y-110554767D01*
X140142486Y-110506000D01*
X139892514Y-110506000D01*
X139647346Y-110554767D01*
X139416403Y-110650427D01*
X139208560Y-110789303D01*
X139031803Y-110966060D01*
X138892927Y-111173903D01*
X138797267Y-111404846D01*
X138748500Y-111650014D01*
X138748500Y-111899986D01*
X138797267Y-112145154D01*
X138892927Y-112376097D01*
X139031803Y-112583940D01*
X139182500Y-112734637D01*
X139182501Y-115672069D01*
X139102741Y-115725363D01*
X138902863Y-115925241D01*
X138745820Y-116160273D01*
X138637647Y-116421426D01*
X138582500Y-116698665D01*
X138582500Y-116981335D01*
X138637647Y-117258574D01*
X138745820Y-117519727D01*
X138902863Y-117754759D01*
X139102741Y-117954637D01*
X139337773Y-118111680D01*
X139598926Y-118219853D01*
X139876165Y-118275000D01*
X140158835Y-118275000D01*
X140252917Y-118256286D01*
X140598064Y-118601433D01*
X140624210Y-118633292D01*
X140751355Y-118737637D01*
X140896414Y-118815173D01*
X141053812Y-118862919D01*
X141176482Y-118875001D01*
X141176483Y-118875001D01*
X141217501Y-118879041D01*
X141258519Y-118875001D01*
X155792483Y-118875001D01*
X155833501Y-118879041D01*
X155874519Y-118875001D01*
X155874520Y-118875001D01*
X155997190Y-118862919D01*
X156154588Y-118815173D01*
X156299647Y-118737637D01*
X156426792Y-118633292D01*
X156452947Y-118601422D01*
X164705705Y-110348665D01*
X170332500Y-110348665D01*
X170332500Y-110631335D01*
X170387647Y-110908574D01*
X170495820Y-111169727D01*
X170652863Y-111404759D01*
X170852741Y-111604637D01*
X171087773Y-111761680D01*
X171348926Y-111869853D01*
X171626165Y-111925000D01*
X171908835Y-111925000D01*
X172186074Y-111869853D01*
X172447227Y-111761680D01*
X172682259Y-111604637D01*
X172882137Y-111404759D01*
X173039180Y-111169727D01*
X173147353Y-110908574D01*
X173202500Y-110631335D01*
X173202500Y-110348665D01*
X173147353Y-110071426D01*
X173039180Y-109810273D01*
X172882137Y-109575241D01*
X172682259Y-109375363D01*
X172447227Y-109218320D01*
X172186074Y-109110147D01*
X171908835Y-109055000D01*
X171626165Y-109055000D01*
X171348926Y-109110147D01*
X171087773Y-109218320D01*
X170852741Y-109375363D01*
X170652863Y-109575241D01*
X170495820Y-109810273D01*
X170387647Y-110071426D01*
X170332500Y-110348665D01*
X164705705Y-110348665D01*
X168809371Y-106245000D01*
X170394451Y-106245000D01*
X170387647Y-106261426D01*
X170332500Y-106538665D01*
X170332500Y-106821335D01*
X170387647Y-107098574D01*
X170495820Y-107359727D01*
X170652863Y-107594759D01*
X170852741Y-107794637D01*
X171087773Y-107951680D01*
X171348926Y-108059853D01*
X171626165Y-108115000D01*
X171908835Y-108115000D01*
X172186074Y-108059853D01*
X172447227Y-107951680D01*
X172682259Y-107794637D01*
X172882137Y-107594759D01*
X173039180Y-107359727D01*
X173147353Y-107098574D01*
X173202500Y-106821335D01*
X173202500Y-106538665D01*
X173147353Y-106261426D01*
X173140549Y-106245000D01*
X178121026Y-106245000D01*
X178162044Y-106249040D01*
X178203062Y-106245000D01*
X178203063Y-106245000D01*
X178325733Y-106232918D01*
X178483131Y-106185172D01*
X178628190Y-106107636D01*
X178755335Y-106003291D01*
X178781490Y-105971421D01*
X182182520Y-102570392D01*
X182182520Y-106514112D01*
X180977961Y-107718671D01*
X180808684Y-107685000D01*
X180506316Y-107685000D01*
X180209757Y-107743989D01*
X179930405Y-107859701D01*
X179678995Y-108027688D01*
X179612556Y-108094127D01*
X179607002Y-108075820D01*
X179548037Y-107965506D01*
X179468685Y-107868815D01*
X179371994Y-107789463D01*
X179261680Y-107730498D01*
X179141982Y-107694188D01*
X179017500Y-107681928D01*
X177217500Y-107681928D01*
X177093018Y-107694188D01*
X176973320Y-107730498D01*
X176863006Y-107789463D01*
X176766315Y-107868815D01*
X176686963Y-107965506D01*
X176627998Y-108075820D01*
X176591688Y-108195518D01*
X176579428Y-108320000D01*
X176579428Y-110120000D01*
X176591688Y-110244482D01*
X176627998Y-110364180D01*
X176686963Y-110474494D01*
X176766315Y-110571185D01*
X176863006Y-110650537D01*
X176973320Y-110709502D01*
X177093018Y-110745812D01*
X177217500Y-110758072D01*
X179017500Y-110758072D01*
X179141982Y-110745812D01*
X179261680Y-110709502D01*
X179371994Y-110650537D01*
X179468685Y-110571185D01*
X179548037Y-110474494D01*
X179607002Y-110364180D01*
X179612556Y-110345873D01*
X179678995Y-110412312D01*
X179930405Y-110580299D01*
X180209757Y-110696011D01*
X180506316Y-110755000D01*
X180808684Y-110755000D01*
X181105243Y-110696011D01*
X181384595Y-110580299D01*
X181636005Y-110412312D01*
X181849812Y-110198505D01*
X182017799Y-109947095D01*
X182133511Y-109667743D01*
X182192500Y-109371184D01*
X182192500Y-109068816D01*
X182158829Y-108899539D01*
X183578948Y-107479420D01*
X183610811Y-107453271D01*
X183715156Y-107326126D01*
X183792692Y-107181067D01*
X183840438Y-107023669D01*
X183852520Y-106900999D01*
X183852520Y-106900989D01*
X183856559Y-106859981D01*
X183852520Y-106818973D01*
X183852520Y-75354036D01*
X183856560Y-75313017D01*
X183840438Y-75149329D01*
X183792692Y-74991931D01*
X183715156Y-74846872D01*
X183610811Y-74719727D01*
X183578947Y-74693577D01*
X181495947Y-72610578D01*
X181469792Y-72578708D01*
X181342647Y-72474363D01*
X181197588Y-72396827D01*
X181040190Y-72349081D01*
X180917520Y-72336999D01*
X180917519Y-72336999D01*
X180876501Y-72332959D01*
X180835483Y-72336999D01*
X176487508Y-72336999D01*
X176446500Y-72332960D01*
X176405492Y-72336999D01*
X176405482Y-72336999D01*
X176282812Y-72349081D01*
X176125414Y-72396827D01*
X175980355Y-72474363D01*
X175853210Y-72578708D01*
X175827059Y-72610573D01*
X175474439Y-72963193D01*
X175342760Y-72937000D01*
X175050240Y-72937000D01*
X174763342Y-72994068D01*
X174493089Y-73106010D01*
X174249868Y-73268525D01*
X174043025Y-73475368D01*
X173926500Y-73649760D01*
X173809975Y-73475368D01*
X173603132Y-73268525D01*
X173359911Y-73106010D01*
X173089658Y-72994068D01*
X172802760Y-72937000D01*
X172510240Y-72937000D01*
X172223342Y-72994068D01*
X171953089Y-73106010D01*
X171709868Y-73268525D01*
X171503025Y-73475368D01*
X171340510Y-73718589D01*
X171228568Y-73988842D01*
X171171500Y-74275740D01*
X171171500Y-74568260D01*
X171228568Y-74855158D01*
X171340510Y-75125411D01*
X171503025Y-75368632D01*
X171690108Y-75555715D01*
X171563114Y-75623595D01*
X171428538Y-75734038D01*
X171318095Y-75868614D01*
X171236028Y-76022150D01*
X171204222Y-76127000D01*
X168493869Y-76127000D01*
X167405437Y-75038569D01*
X167379282Y-75006700D01*
X167252137Y-74902355D01*
X167107078Y-74824819D01*
X166949680Y-74777073D01*
X166827010Y-74764991D01*
X166827009Y-74764991D01*
X166785991Y-74760951D01*
X166744973Y-74764991D01*
X111448527Y-74764991D01*
X111407508Y-74760951D01*
X111366490Y-74764991D01*
X111243820Y-74777073D01*
X111086422Y-74824819D01*
X110941363Y-74902355D01*
X110814218Y-75006700D01*
X110788068Y-75038564D01*
X109794705Y-76031928D01*
X108737500Y-76031928D01*
X108613018Y-76044188D01*
X108493320Y-76080498D01*
X108383006Y-76139463D01*
X108286315Y-76218815D01*
X108206963Y-76315506D01*
X108147998Y-76425820D01*
X108111688Y-76545518D01*
X108099428Y-76670000D01*
X102577500Y-76670000D01*
X102577500Y-68668500D01*
X188887501Y-68668500D01*
X188887500Y-69817581D01*
G37*
G04 #@! TD.AperFunction*
D22*
X160335820Y-111169727D02*
X160492863Y-111404759D01*
X160692741Y-111604637D01*
X160927773Y-111761680D01*
X160930022Y-111762612D01*
X155487634Y-117205001D01*
X154039368Y-117205001D01*
X160259323Y-110985047D01*
X160335820Y-111169727D01*
G04 #@! TA.AperFunction,NonConductor*
D23*
G36*
X160335820Y-111169727D02*
G01*
X160492863Y-111404759D01*
X160692741Y-111604637D01*
X160927773Y-111761680D01*
X160930022Y-111762612D01*
X155487634Y-117205001D01*
X154039368Y-117205001D01*
X160259323Y-110985047D01*
X160335820Y-111169727D01*
G37*
G04 #@! TD.AperFunction*
D22*
X159065820Y-88309727D02*
X159222863Y-88544759D01*
X159422741Y-88744637D01*
X159655259Y-88900000D01*
X159422741Y-89055363D01*
X159222863Y-89255241D01*
X159065820Y-89490273D01*
X158957647Y-89751426D01*
X158902500Y-90028665D01*
X158902500Y-90311335D01*
X158957647Y-90588574D01*
X159065820Y-90849727D01*
X159222863Y-91084759D01*
X159422741Y-91284637D01*
X159655259Y-91440000D01*
X159422741Y-91595363D01*
X159222863Y-91795241D01*
X159065820Y-92030273D01*
X158957647Y-92291426D01*
X158902500Y-92568665D01*
X158902500Y-92851335D01*
X158957647Y-93128574D01*
X159065820Y-93389727D01*
X159222863Y-93624759D01*
X159422741Y-93824637D01*
X159502500Y-93877930D01*
X159502501Y-97748972D01*
X159498460Y-97790000D01*
X159514582Y-97953688D01*
X159562328Y-98111086D01*
X159639864Y-98256145D01*
X159639865Y-98256146D01*
X159744210Y-98383291D01*
X159776074Y-98409441D01*
X161439428Y-100072796D01*
X161439428Y-100587205D01*
X161261633Y-100765000D01*
X157695430Y-100765000D01*
X157642137Y-100685241D01*
X157442259Y-100485363D01*
X157207227Y-100328320D01*
X156946074Y-100220147D01*
X156668835Y-100165000D01*
X156386165Y-100165000D01*
X156108926Y-100220147D01*
X155847773Y-100328320D01*
X155612741Y-100485363D01*
X155412863Y-100685241D01*
X155255820Y-100920273D01*
X155147647Y-101181426D01*
X155092500Y-101458665D01*
X155092500Y-101741335D01*
X155147647Y-102018574D01*
X155255820Y-102279727D01*
X155412863Y-102514759D01*
X155612741Y-102714637D01*
X155847773Y-102871680D01*
X156108926Y-102979853D01*
X156386165Y-103035000D01*
X156668835Y-103035000D01*
X156946074Y-102979853D01*
X157207227Y-102871680D01*
X157442259Y-102714637D01*
X157642137Y-102514759D01*
X157695430Y-102435000D01*
X161566482Y-102435000D01*
X161607500Y-102439040D01*
X161648518Y-102435000D01*
X161648519Y-102435000D01*
X161771189Y-102422918D01*
X161928587Y-102375172D01*
X162042500Y-102314284D01*
X162042501Y-105064131D01*
X161842918Y-105263714D01*
X161748835Y-105245000D01*
X161466165Y-105245000D01*
X161188926Y-105300147D01*
X160927773Y-105408320D01*
X160692741Y-105565363D01*
X160492863Y-105765241D01*
X160335820Y-106000273D01*
X160227647Y-106261426D01*
X160172500Y-106538665D01*
X160172500Y-106821335D01*
X160191214Y-106915418D01*
X159846077Y-107260556D01*
X159814208Y-107286710D01*
X159739588Y-107377636D01*
X159709863Y-107413856D01*
X159632327Y-107558915D01*
X159584581Y-107716313D01*
X159568459Y-107880001D01*
X159572499Y-107921020D01*
X159572500Y-109310134D01*
X157800112Y-111082523D01*
X157799180Y-111080273D01*
X157642137Y-110845241D01*
X157442259Y-110645363D01*
X157207227Y-110488320D01*
X156946074Y-110380147D01*
X156668835Y-110325000D01*
X156386165Y-110325000D01*
X156108926Y-110380147D01*
X155847773Y-110488320D01*
X155612741Y-110645363D01*
X155412863Y-110845241D01*
X155255820Y-111080273D01*
X155147647Y-111341426D01*
X155092500Y-111618665D01*
X155092500Y-111901335D01*
X155147647Y-112178574D01*
X155255820Y-112439727D01*
X155412863Y-112674759D01*
X155612741Y-112874637D01*
X155847773Y-113031680D01*
X155850023Y-113032612D01*
X152877635Y-116005000D01*
X151345430Y-116005000D01*
X151292137Y-115925241D01*
X151092259Y-115725363D01*
X151012500Y-115672070D01*
X151012500Y-115365696D01*
X151016540Y-115324678D01*
X151000418Y-115160989D01*
X150952672Y-115003591D01*
X150875136Y-114858532D01*
X150796939Y-114763248D01*
X150796937Y-114763246D01*
X150770791Y-114731387D01*
X150738932Y-114705241D01*
X142152268Y-106118579D01*
X142126113Y-106086709D01*
X141998968Y-105982364D01*
X141853909Y-105904828D01*
X141696511Y-105857082D01*
X141573841Y-105845000D01*
X141573840Y-105845000D01*
X141532822Y-105840960D01*
X141491804Y-105845000D01*
X136047366Y-105845000D01*
X133074977Y-102872612D01*
X133077227Y-102871680D01*
X133312259Y-102714637D01*
X133512137Y-102514759D01*
X133669180Y-102279727D01*
X133777353Y-102018574D01*
X133832500Y-101741335D01*
X133832500Y-101458665D01*
X133813785Y-101364582D01*
X135498927Y-99679441D01*
X135530791Y-99653291D01*
X135635136Y-99526146D01*
X135712672Y-99381087D01*
X135760418Y-99223689D01*
X135772500Y-99101019D01*
X135772500Y-99101009D01*
X135776539Y-99060001D01*
X135772500Y-99018993D01*
X135772500Y-94661700D01*
X135816414Y-94685173D01*
X135973812Y-94732919D01*
X136096482Y-94745001D01*
X136096483Y-94745001D01*
X136137501Y-94749041D01*
X136178519Y-94745001D01*
X146396481Y-94745001D01*
X146437499Y-94749041D01*
X146478517Y-94745001D01*
X146478518Y-94745001D01*
X146601188Y-94732919D01*
X146758586Y-94685173D01*
X146903645Y-94607637D01*
X147030790Y-94503292D01*
X147056944Y-94471423D01*
X147402082Y-94126286D01*
X147496165Y-94145000D01*
X147778835Y-94145000D01*
X148056074Y-94089853D01*
X148317227Y-93981680D01*
X148552259Y-93824637D01*
X148752137Y-93624759D01*
X148909180Y-93389727D01*
X149017353Y-93128574D01*
X149072500Y-92851335D01*
X149072500Y-92568665D01*
X149053786Y-92474583D01*
X149183370Y-92344999D01*
X153866991Y-92344999D01*
X153822500Y-92568665D01*
X153822500Y-92851335D01*
X153877647Y-93128574D01*
X153985820Y-93389727D01*
X154142863Y-93624759D01*
X154342741Y-93824637D01*
X154577773Y-93981680D01*
X154838926Y-94089853D01*
X155116165Y-94145000D01*
X155398835Y-94145000D01*
X155676074Y-94089853D01*
X155937227Y-93981680D01*
X156172259Y-93824637D01*
X156372137Y-93624759D01*
X156529180Y-93389727D01*
X156637353Y-93128574D01*
X156692500Y-92851335D01*
X156692500Y-92568665D01*
X156637353Y-92291426D01*
X156529180Y-92030273D01*
X156459051Y-91925318D01*
X157088933Y-91295438D01*
X157120791Y-91269293D01*
X157225136Y-91142148D01*
X157302672Y-90997089D01*
X157350418Y-90839691D01*
X157362500Y-90717021D01*
X157362500Y-90717020D01*
X157366540Y-90676002D01*
X157362500Y-90634984D01*
X157362500Y-90009865D01*
X159064888Y-88307478D01*
X159065820Y-88309727D01*
G04 #@! TA.AperFunction,NonConductor*
D23*
G36*
X159065820Y-88309727D02*
G01*
X159222863Y-88544759D01*
X159422741Y-88744637D01*
X159655259Y-88900000D01*
X159422741Y-89055363D01*
X159222863Y-89255241D01*
X159065820Y-89490273D01*
X158957647Y-89751426D01*
X158902500Y-90028665D01*
X158902500Y-90311335D01*
X158957647Y-90588574D01*
X159065820Y-90849727D01*
X159222863Y-91084759D01*
X159422741Y-91284637D01*
X159655259Y-91440000D01*
X159422741Y-91595363D01*
X159222863Y-91795241D01*
X159065820Y-92030273D01*
X158957647Y-92291426D01*
X158902500Y-92568665D01*
X158902500Y-92851335D01*
X158957647Y-93128574D01*
X159065820Y-93389727D01*
X159222863Y-93624759D01*
X159422741Y-93824637D01*
X159502500Y-93877930D01*
X159502501Y-97748972D01*
X159498460Y-97790000D01*
X159514582Y-97953688D01*
X159562328Y-98111086D01*
X159639864Y-98256145D01*
X159639865Y-98256146D01*
X159744210Y-98383291D01*
X159776074Y-98409441D01*
X161439428Y-100072796D01*
X161439428Y-100587205D01*
X161261633Y-100765000D01*
X157695430Y-100765000D01*
X157642137Y-100685241D01*
X157442259Y-100485363D01*
X157207227Y-100328320D01*
X156946074Y-100220147D01*
X156668835Y-100165000D01*
X156386165Y-100165000D01*
X156108926Y-100220147D01*
X155847773Y-100328320D01*
X155612741Y-100485363D01*
X155412863Y-100685241D01*
X155255820Y-100920273D01*
X155147647Y-101181426D01*
X155092500Y-101458665D01*
X155092500Y-101741335D01*
X155147647Y-102018574D01*
X155255820Y-102279727D01*
X155412863Y-102514759D01*
X155612741Y-102714637D01*
X155847773Y-102871680D01*
X156108926Y-102979853D01*
X156386165Y-103035000D01*
X156668835Y-103035000D01*
X156946074Y-102979853D01*
X157207227Y-102871680D01*
X157442259Y-102714637D01*
X157642137Y-102514759D01*
X157695430Y-102435000D01*
X161566482Y-102435000D01*
X161607500Y-102439040D01*
X161648518Y-102435000D01*
X161648519Y-102435000D01*
X161771189Y-102422918D01*
X161928587Y-102375172D01*
X162042500Y-102314284D01*
X162042501Y-105064131D01*
X161842918Y-105263714D01*
X161748835Y-105245000D01*
X161466165Y-105245000D01*
X161188926Y-105300147D01*
X160927773Y-105408320D01*
X160692741Y-105565363D01*
X160492863Y-105765241D01*
X160335820Y-106000273D01*
X160227647Y-106261426D01*
X160172500Y-106538665D01*
X160172500Y-106821335D01*
X160191214Y-106915418D01*
X159846077Y-107260556D01*
X159814208Y-107286710D01*
X159739588Y-107377636D01*
X159709863Y-107413856D01*
X159632327Y-107558915D01*
X159584581Y-107716313D01*
X159568459Y-107880001D01*
X159572499Y-107921020D01*
X159572500Y-109310134D01*
X157800112Y-111082523D01*
X157799180Y-111080273D01*
X157642137Y-110845241D01*
X157442259Y-110645363D01*
X157207227Y-110488320D01*
X156946074Y-110380147D01*
X156668835Y-110325000D01*
X156386165Y-110325000D01*
X156108926Y-110380147D01*
X155847773Y-110488320D01*
X155612741Y-110645363D01*
X155412863Y-110845241D01*
X155255820Y-111080273D01*
X155147647Y-111341426D01*
X155092500Y-111618665D01*
X155092500Y-111901335D01*
X155147647Y-112178574D01*
X155255820Y-112439727D01*
X155412863Y-112674759D01*
X155612741Y-112874637D01*
X155847773Y-113031680D01*
X155850023Y-113032612D01*
X152877635Y-116005000D01*
X151345430Y-116005000D01*
X151292137Y-115925241D01*
X151092259Y-115725363D01*
X151012500Y-115672070D01*
X151012500Y-115365696D01*
X151016540Y-115324678D01*
X151000418Y-115160989D01*
X150952672Y-115003591D01*
X150875136Y-114858532D01*
X150796939Y-114763248D01*
X150796937Y-114763246D01*
X150770791Y-114731387D01*
X150738932Y-114705241D01*
X142152268Y-106118579D01*
X142126113Y-106086709D01*
X141998968Y-105982364D01*
X141853909Y-105904828D01*
X141696511Y-105857082D01*
X141573841Y-105845000D01*
X141573840Y-105845000D01*
X141532822Y-105840960D01*
X141491804Y-105845000D01*
X136047366Y-105845000D01*
X133074977Y-102872612D01*
X133077227Y-102871680D01*
X133312259Y-102714637D01*
X133512137Y-102514759D01*
X133669180Y-102279727D01*
X133777353Y-102018574D01*
X133832500Y-101741335D01*
X133832500Y-101458665D01*
X133813785Y-101364582D01*
X135498927Y-99679441D01*
X135530791Y-99653291D01*
X135635136Y-99526146D01*
X135712672Y-99381087D01*
X135760418Y-99223689D01*
X135772500Y-99101019D01*
X135772500Y-99101009D01*
X135776539Y-99060001D01*
X135772500Y-99018993D01*
X135772500Y-94661700D01*
X135816414Y-94685173D01*
X135973812Y-94732919D01*
X136096482Y-94745001D01*
X136096483Y-94745001D01*
X136137501Y-94749041D01*
X136178519Y-94745001D01*
X146396481Y-94745001D01*
X146437499Y-94749041D01*
X146478517Y-94745001D01*
X146478518Y-94745001D01*
X146601188Y-94732919D01*
X146758586Y-94685173D01*
X146903645Y-94607637D01*
X147030790Y-94503292D01*
X147056944Y-94471423D01*
X147402082Y-94126286D01*
X147496165Y-94145000D01*
X147778835Y-94145000D01*
X148056074Y-94089853D01*
X148317227Y-93981680D01*
X148552259Y-93824637D01*
X148752137Y-93624759D01*
X148909180Y-93389727D01*
X149017353Y-93128574D01*
X149072500Y-92851335D01*
X149072500Y-92568665D01*
X149053786Y-92474583D01*
X149183370Y-92344999D01*
X153866991Y-92344999D01*
X153822500Y-92568665D01*
X153822500Y-92851335D01*
X153877647Y-93128574D01*
X153985820Y-93389727D01*
X154142863Y-93624759D01*
X154342741Y-93824637D01*
X154577773Y-93981680D01*
X154838926Y-94089853D01*
X155116165Y-94145000D01*
X155398835Y-94145000D01*
X155676074Y-94089853D01*
X155937227Y-93981680D01*
X156172259Y-93824637D01*
X156372137Y-93624759D01*
X156529180Y-93389727D01*
X156637353Y-93128574D01*
X156692500Y-92851335D01*
X156692500Y-92568665D01*
X156637353Y-92291426D01*
X156529180Y-92030273D01*
X156459051Y-91925318D01*
X157088933Y-91295438D01*
X157120791Y-91269293D01*
X157225136Y-91142148D01*
X157302672Y-90997089D01*
X157350418Y-90839691D01*
X157362500Y-90717021D01*
X157362500Y-90717020D01*
X157366540Y-90676002D01*
X157362500Y-90634984D01*
X157362500Y-90009865D01*
X159064888Y-88307478D01*
X159065820Y-88309727D01*
G37*
G04 #@! TD.AperFunction*
D22*
X164462741Y-101444637D02*
X164697773Y-101601680D01*
X164958926Y-101709853D01*
X165236165Y-101765000D01*
X165518835Y-101765000D01*
X165612917Y-101746286D01*
X165958064Y-102091433D01*
X165984210Y-102123292D01*
X166111355Y-102227637D01*
X166256414Y-102305173D01*
X166413812Y-102352919D01*
X166536482Y-102365001D01*
X166536483Y-102365001D01*
X166577501Y-102369041D01*
X166618519Y-102365001D01*
X180026175Y-102365001D01*
X177816177Y-104575000D01*
X168504520Y-104575000D01*
X168463502Y-104570960D01*
X168422484Y-104575000D01*
X168422483Y-104575000D01*
X168299813Y-104587082D01*
X168142415Y-104634828D01*
X167997356Y-104712364D01*
X167870211Y-104816709D01*
X167844065Y-104848568D01*
X162880112Y-109812522D01*
X162879180Y-109810273D01*
X162722137Y-109575241D01*
X162522259Y-109375363D01*
X162287227Y-109218320D01*
X162026074Y-109110147D01*
X161748835Y-109055000D01*
X161466165Y-109055000D01*
X161242499Y-109099491D01*
X161242499Y-108225868D01*
X161372082Y-108096286D01*
X161466165Y-108115000D01*
X161748835Y-108115000D01*
X162026074Y-108059853D01*
X162287227Y-107951680D01*
X162522259Y-107794637D01*
X162722137Y-107594759D01*
X162879180Y-107359727D01*
X162987353Y-107098574D01*
X163042500Y-106821335D01*
X163042500Y-106538665D01*
X163023786Y-106444582D01*
X163438926Y-106029442D01*
X163470791Y-106003291D01*
X163575136Y-105876146D01*
X163652672Y-105731087D01*
X163700418Y-105573689D01*
X163712500Y-105451019D01*
X163712500Y-105451017D01*
X163716540Y-105410001D01*
X163712500Y-105368985D01*
X163712500Y-101764625D01*
X163801982Y-101755812D01*
X163921680Y-101719502D01*
X164031994Y-101660537D01*
X164128685Y-101581185D01*
X164208037Y-101484494D01*
X164267002Y-101374180D01*
X164296161Y-101278057D01*
X164462741Y-101444637D01*
G04 #@! TA.AperFunction,NonConductor*
D23*
G36*
X164462741Y-101444637D02*
G01*
X164697773Y-101601680D01*
X164958926Y-101709853D01*
X165236165Y-101765000D01*
X165518835Y-101765000D01*
X165612917Y-101746286D01*
X165958064Y-102091433D01*
X165984210Y-102123292D01*
X166111355Y-102227637D01*
X166256414Y-102305173D01*
X166413812Y-102352919D01*
X166536482Y-102365001D01*
X166536483Y-102365001D01*
X166577501Y-102369041D01*
X166618519Y-102365001D01*
X180026175Y-102365001D01*
X177816177Y-104575000D01*
X168504520Y-104575000D01*
X168463502Y-104570960D01*
X168422484Y-104575000D01*
X168422483Y-104575000D01*
X168299813Y-104587082D01*
X168142415Y-104634828D01*
X167997356Y-104712364D01*
X167870211Y-104816709D01*
X167844065Y-104848568D01*
X162880112Y-109812522D01*
X162879180Y-109810273D01*
X162722137Y-109575241D01*
X162522259Y-109375363D01*
X162287227Y-109218320D01*
X162026074Y-109110147D01*
X161748835Y-109055000D01*
X161466165Y-109055000D01*
X161242499Y-109099491D01*
X161242499Y-108225868D01*
X161372082Y-108096286D01*
X161466165Y-108115000D01*
X161748835Y-108115000D01*
X162026074Y-108059853D01*
X162287227Y-107951680D01*
X162522259Y-107794637D01*
X162722137Y-107594759D01*
X162879180Y-107359727D01*
X162987353Y-107098574D01*
X163042500Y-106821335D01*
X163042500Y-106538665D01*
X163023786Y-106444582D01*
X163438926Y-106029442D01*
X163470791Y-106003291D01*
X163575136Y-105876146D01*
X163652672Y-105731087D01*
X163700418Y-105573689D01*
X163712500Y-105451019D01*
X163712500Y-105451017D01*
X163716540Y-105410001D01*
X163712500Y-105368985D01*
X163712500Y-101764625D01*
X163801982Y-101755812D01*
X163921680Y-101719502D01*
X164031994Y-101660537D01*
X164128685Y-101581185D01*
X164208037Y-101484494D01*
X164267002Y-101374180D01*
X164296161Y-101278057D01*
X164462741Y-101444637D01*
G37*
G04 #@! TD.AperFunction*
D22*
X166842863Y-86004759D02*
X167042741Y-86204637D01*
X167275259Y-86360000D01*
X167042741Y-86515363D01*
X166842863Y-86715241D01*
X166685820Y-86950273D01*
X166577647Y-87211426D01*
X166522500Y-87488665D01*
X166522500Y-87771335D01*
X166577647Y-88048574D01*
X166685820Y-88309727D01*
X166842863Y-88544759D01*
X167042741Y-88744637D01*
X167275259Y-88900000D01*
X167042741Y-89055363D01*
X166842863Y-89255241D01*
X166685820Y-89490273D01*
X166577647Y-89751426D01*
X166522500Y-90028665D01*
X166522500Y-90311335D01*
X166577647Y-90588574D01*
X166685820Y-90849727D01*
X166842863Y-91084759D01*
X167042741Y-91284637D01*
X167275259Y-91440000D01*
X167042741Y-91595363D01*
X166842863Y-91795241D01*
X166685820Y-92030273D01*
X166577647Y-92291426D01*
X166522500Y-92568665D01*
X166522500Y-92851335D01*
X166577647Y-93128574D01*
X166685820Y-93389727D01*
X166842863Y-93624759D01*
X167042741Y-93824637D01*
X167277773Y-93981680D01*
X167538926Y-94089853D01*
X167816165Y-94145000D01*
X168098835Y-94145000D01*
X168376074Y-94089853D01*
X168637227Y-93981680D01*
X168872259Y-93824637D01*
X169072137Y-93624759D01*
X169229180Y-93389727D01*
X169337353Y-93128574D01*
X169392500Y-92851335D01*
X169392500Y-92568665D01*
X169337353Y-92291426D01*
X169229180Y-92030273D01*
X169072137Y-91795241D01*
X168872259Y-91595363D01*
X168639741Y-91440000D01*
X168872259Y-91284637D01*
X169072137Y-91084759D01*
X169229180Y-90849727D01*
X169337353Y-90588574D01*
X169392500Y-90311335D01*
X169392500Y-90028665D01*
X169337353Y-89751426D01*
X169229180Y-89490273D01*
X169072137Y-89255241D01*
X168872259Y-89055363D01*
X168639741Y-88900000D01*
X168872259Y-88744637D01*
X169072137Y-88544759D01*
X169229180Y-88309727D01*
X169337353Y-88048574D01*
X169392500Y-87771335D01*
X169392500Y-87705868D01*
X171002499Y-89315867D01*
X171002500Y-91468971D01*
X170998459Y-91509999D01*
X171014581Y-91673687D01*
X171062327Y-91831085D01*
X171139863Y-91976144D01*
X171139864Y-91976145D01*
X171244209Y-92103290D01*
X171276073Y-92129440D01*
X171621214Y-92474582D01*
X171602500Y-92568665D01*
X171602500Y-92851335D01*
X171657647Y-93128574D01*
X171765820Y-93389727D01*
X171922863Y-93624759D01*
X172122741Y-93824637D01*
X172357773Y-93981680D01*
X172618926Y-94089853D01*
X172896165Y-94145000D01*
X173178835Y-94145000D01*
X173456074Y-94089853D01*
X173717227Y-93981680D01*
X173952259Y-93824637D01*
X174152137Y-93624759D01*
X174309180Y-93389727D01*
X174417353Y-93128574D01*
X174472500Y-92851335D01*
X174472500Y-92568665D01*
X174417353Y-92291426D01*
X174309180Y-92030273D01*
X174152137Y-91795241D01*
X173952259Y-91595363D01*
X173719741Y-91440000D01*
X173952259Y-91284637D01*
X174152137Y-91084759D01*
X174309180Y-90849727D01*
X174417353Y-90588574D01*
X174472500Y-90311335D01*
X174472500Y-90028665D01*
X174417353Y-89751426D01*
X174309180Y-89490273D01*
X174152137Y-89255241D01*
X173952259Y-89055363D01*
X173719741Y-88900000D01*
X173952259Y-88744637D01*
X174152137Y-88544759D01*
X174205430Y-88465000D01*
X177771633Y-88465000D01*
X179241214Y-89934582D01*
X179222500Y-90028665D01*
X179222500Y-90311335D01*
X179241214Y-90405418D01*
X177556079Y-92090554D01*
X177524209Y-92116709D01*
X177449589Y-92207635D01*
X177419864Y-92243855D01*
X177342328Y-92388914D01*
X177294582Y-92546312D01*
X177278460Y-92710000D01*
X177282500Y-92751019D01*
X177282501Y-98895375D01*
X177193018Y-98904188D01*
X177073320Y-98940498D01*
X176963006Y-98999463D01*
X176866315Y-99078815D01*
X176786963Y-99175506D01*
X176727998Y-99285820D01*
X176691688Y-99405518D01*
X176679428Y-99530000D01*
X176679428Y-100695001D01*
X174388009Y-100695001D01*
X174432500Y-100471335D01*
X174432500Y-100188665D01*
X174377353Y-99911426D01*
X174269180Y-99650273D01*
X174112137Y-99415241D01*
X173912259Y-99215363D01*
X173677227Y-99058320D01*
X173416074Y-98950147D01*
X173138835Y-98895000D01*
X172856165Y-98895000D01*
X172578926Y-98950147D01*
X172317773Y-99058320D01*
X172082741Y-99215363D01*
X171916161Y-99381943D01*
X171887002Y-99285820D01*
X171828037Y-99175506D01*
X171748685Y-99078815D01*
X171651994Y-98999463D01*
X171541680Y-98940498D01*
X171421982Y-98904188D01*
X171297500Y-98891928D01*
X169697500Y-98891928D01*
X169573018Y-98904188D01*
X169453320Y-98940498D01*
X169343006Y-98999463D01*
X169246315Y-99078815D01*
X169166963Y-99175506D01*
X169107998Y-99285820D01*
X169071688Y-99405518D01*
X169059428Y-99530000D01*
X169059428Y-100695001D01*
X166923370Y-100695001D01*
X166793786Y-100565417D01*
X166812500Y-100471335D01*
X166812500Y-100188665D01*
X166757353Y-99911426D01*
X166649180Y-99650273D01*
X166492137Y-99415241D01*
X166292259Y-99215363D01*
X166057227Y-99058320D01*
X165796074Y-98950147D01*
X165518835Y-98895000D01*
X165236165Y-98895000D01*
X164958926Y-98950147D01*
X164697773Y-99058320D01*
X164462741Y-99215363D01*
X164296161Y-99381943D01*
X164267002Y-99285820D01*
X164208037Y-99175506D01*
X164128685Y-99078815D01*
X164031994Y-98999463D01*
X163921680Y-98940498D01*
X163801982Y-98904188D01*
X163677500Y-98891928D01*
X162620296Y-98891928D01*
X161172500Y-97444133D01*
X161172500Y-93877930D01*
X161252259Y-93824637D01*
X161452137Y-93624759D01*
X161609180Y-93389727D01*
X161717353Y-93128574D01*
X161772500Y-92851335D01*
X161772500Y-92568665D01*
X161753785Y-92474582D01*
X163438927Y-90789441D01*
X163470791Y-90763291D01*
X163575136Y-90636146D01*
X163652672Y-90491087D01*
X163700418Y-90333689D01*
X163712500Y-90211019D01*
X163712500Y-90211009D01*
X163716539Y-90170001D01*
X163712500Y-90128993D01*
X163712500Y-85925000D01*
X166789570Y-85925000D01*
X166842863Y-86004759D01*
G04 #@! TA.AperFunction,NonConductor*
D23*
G36*
X166842863Y-86004759D02*
G01*
X167042741Y-86204637D01*
X167275259Y-86360000D01*
X167042741Y-86515363D01*
X166842863Y-86715241D01*
X166685820Y-86950273D01*
X166577647Y-87211426D01*
X166522500Y-87488665D01*
X166522500Y-87771335D01*
X166577647Y-88048574D01*
X166685820Y-88309727D01*
X166842863Y-88544759D01*
X167042741Y-88744637D01*
X167275259Y-88900000D01*
X167042741Y-89055363D01*
X166842863Y-89255241D01*
X166685820Y-89490273D01*
X166577647Y-89751426D01*
X166522500Y-90028665D01*
X166522500Y-90311335D01*
X166577647Y-90588574D01*
X166685820Y-90849727D01*
X166842863Y-91084759D01*
X167042741Y-91284637D01*
X167275259Y-91440000D01*
X167042741Y-91595363D01*
X166842863Y-91795241D01*
X166685820Y-92030273D01*
X166577647Y-92291426D01*
X166522500Y-92568665D01*
X166522500Y-92851335D01*
X166577647Y-93128574D01*
X166685820Y-93389727D01*
X166842863Y-93624759D01*
X167042741Y-93824637D01*
X167277773Y-93981680D01*
X167538926Y-94089853D01*
X167816165Y-94145000D01*
X168098835Y-94145000D01*
X168376074Y-94089853D01*
X168637227Y-93981680D01*
X168872259Y-93824637D01*
X169072137Y-93624759D01*
X169229180Y-93389727D01*
X169337353Y-93128574D01*
X169392500Y-92851335D01*
X169392500Y-92568665D01*
X169337353Y-92291426D01*
X169229180Y-92030273D01*
X169072137Y-91795241D01*
X168872259Y-91595363D01*
X168639741Y-91440000D01*
X168872259Y-91284637D01*
X169072137Y-91084759D01*
X169229180Y-90849727D01*
X169337353Y-90588574D01*
X169392500Y-90311335D01*
X169392500Y-90028665D01*
X169337353Y-89751426D01*
X169229180Y-89490273D01*
X169072137Y-89255241D01*
X168872259Y-89055363D01*
X168639741Y-88900000D01*
X168872259Y-88744637D01*
X169072137Y-88544759D01*
X169229180Y-88309727D01*
X169337353Y-88048574D01*
X169392500Y-87771335D01*
X169392500Y-87705868D01*
X171002499Y-89315867D01*
X171002500Y-91468971D01*
X170998459Y-91509999D01*
X171014581Y-91673687D01*
X171062327Y-91831085D01*
X171139863Y-91976144D01*
X171139864Y-91976145D01*
X171244209Y-92103290D01*
X171276073Y-92129440D01*
X171621214Y-92474582D01*
X171602500Y-92568665D01*
X171602500Y-92851335D01*
X171657647Y-93128574D01*
X171765820Y-93389727D01*
X171922863Y-93624759D01*
X172122741Y-93824637D01*
X172357773Y-93981680D01*
X172618926Y-94089853D01*
X172896165Y-94145000D01*
X173178835Y-94145000D01*
X173456074Y-94089853D01*
X173717227Y-93981680D01*
X173952259Y-93824637D01*
X174152137Y-93624759D01*
X174309180Y-93389727D01*
X174417353Y-93128574D01*
X174472500Y-92851335D01*
X174472500Y-92568665D01*
X174417353Y-92291426D01*
X174309180Y-92030273D01*
X174152137Y-91795241D01*
X173952259Y-91595363D01*
X173719741Y-91440000D01*
X173952259Y-91284637D01*
X174152137Y-91084759D01*
X174309180Y-90849727D01*
X174417353Y-90588574D01*
X174472500Y-90311335D01*
X174472500Y-90028665D01*
X174417353Y-89751426D01*
X174309180Y-89490273D01*
X174152137Y-89255241D01*
X173952259Y-89055363D01*
X173719741Y-88900000D01*
X173952259Y-88744637D01*
X174152137Y-88544759D01*
X174205430Y-88465000D01*
X177771633Y-88465000D01*
X179241214Y-89934582D01*
X179222500Y-90028665D01*
X179222500Y-90311335D01*
X179241214Y-90405418D01*
X177556079Y-92090554D01*
X177524209Y-92116709D01*
X177449589Y-92207635D01*
X177419864Y-92243855D01*
X177342328Y-92388914D01*
X177294582Y-92546312D01*
X177278460Y-92710000D01*
X177282500Y-92751019D01*
X177282501Y-98895375D01*
X177193018Y-98904188D01*
X177073320Y-98940498D01*
X176963006Y-98999463D01*
X176866315Y-99078815D01*
X176786963Y-99175506D01*
X176727998Y-99285820D01*
X176691688Y-99405518D01*
X176679428Y-99530000D01*
X176679428Y-100695001D01*
X174388009Y-100695001D01*
X174432500Y-100471335D01*
X174432500Y-100188665D01*
X174377353Y-99911426D01*
X174269180Y-99650273D01*
X174112137Y-99415241D01*
X173912259Y-99215363D01*
X173677227Y-99058320D01*
X173416074Y-98950147D01*
X173138835Y-98895000D01*
X172856165Y-98895000D01*
X172578926Y-98950147D01*
X172317773Y-99058320D01*
X172082741Y-99215363D01*
X171916161Y-99381943D01*
X171887002Y-99285820D01*
X171828037Y-99175506D01*
X171748685Y-99078815D01*
X171651994Y-98999463D01*
X171541680Y-98940498D01*
X171421982Y-98904188D01*
X171297500Y-98891928D01*
X169697500Y-98891928D01*
X169573018Y-98904188D01*
X169453320Y-98940498D01*
X169343006Y-98999463D01*
X169246315Y-99078815D01*
X169166963Y-99175506D01*
X169107998Y-99285820D01*
X169071688Y-99405518D01*
X169059428Y-99530000D01*
X169059428Y-100695001D01*
X166923370Y-100695001D01*
X166793786Y-100565417D01*
X166812500Y-100471335D01*
X166812500Y-100188665D01*
X166757353Y-99911426D01*
X166649180Y-99650273D01*
X166492137Y-99415241D01*
X166292259Y-99215363D01*
X166057227Y-99058320D01*
X165796074Y-98950147D01*
X165518835Y-98895000D01*
X165236165Y-98895000D01*
X164958926Y-98950147D01*
X164697773Y-99058320D01*
X164462741Y-99215363D01*
X164296161Y-99381943D01*
X164267002Y-99285820D01*
X164208037Y-99175506D01*
X164128685Y-99078815D01*
X164031994Y-98999463D01*
X163921680Y-98940498D01*
X163801982Y-98904188D01*
X163677500Y-98891928D01*
X162620296Y-98891928D01*
X161172500Y-97444133D01*
X161172500Y-93877930D01*
X161252259Y-93824637D01*
X161452137Y-93624759D01*
X161609180Y-93389727D01*
X161717353Y-93128574D01*
X161772500Y-92851335D01*
X161772500Y-92568665D01*
X161753785Y-92474582D01*
X163438927Y-90789441D01*
X163470791Y-90763291D01*
X163575136Y-90636146D01*
X163652672Y-90491087D01*
X163700418Y-90333689D01*
X163712500Y-90211019D01*
X163712500Y-90211009D01*
X163716539Y-90170001D01*
X163712500Y-90128993D01*
X163712500Y-85925000D01*
X166789570Y-85925000D01*
X166842863Y-86004759D01*
G37*
G04 #@! TD.AperFunction*
D22*
X179222500Y-92851335D02*
X179277647Y-93128574D01*
X179385820Y-93389727D01*
X179542863Y-93624759D01*
X179742741Y-93824637D01*
X179977773Y-93981680D01*
X180238926Y-94089853D01*
X180516165Y-94145000D01*
X180798835Y-94145000D01*
X180892918Y-94126286D01*
X180982501Y-94215869D01*
X180982502Y-98939491D01*
X180758835Y-98895000D01*
X180476165Y-98895000D01*
X180198926Y-98950147D01*
X179937773Y-99058320D01*
X179702741Y-99215363D01*
X179536161Y-99381943D01*
X179507002Y-99285820D01*
X179448037Y-99175506D01*
X179368685Y-99078815D01*
X179271994Y-98999463D01*
X179161680Y-98940498D01*
X179041982Y-98904188D01*
X178952500Y-98895375D01*
X178952500Y-93055867D01*
X179222500Y-92785867D01*
X179222500Y-92851335D01*
G04 #@! TA.AperFunction,NonConductor*
D23*
G36*
X179222500Y-92851335D02*
G01*
X179277647Y-93128574D01*
X179385820Y-93389727D01*
X179542863Y-93624759D01*
X179742741Y-93824637D01*
X179977773Y-93981680D01*
X180238926Y-94089853D01*
X180516165Y-94145000D01*
X180798835Y-94145000D01*
X180892918Y-94126286D01*
X180982501Y-94215869D01*
X180982502Y-98939491D01*
X180758835Y-98895000D01*
X180476165Y-98895000D01*
X180198926Y-98950147D01*
X179937773Y-99058320D01*
X179702741Y-99215363D01*
X179536161Y-99381943D01*
X179507002Y-99285820D01*
X179448037Y-99175506D01*
X179368685Y-99078815D01*
X179271994Y-98999463D01*
X179161680Y-98940498D01*
X179041982Y-98904188D01*
X178952500Y-98895375D01*
X178952500Y-93055867D01*
X179222500Y-92785867D01*
X179222500Y-92851335D01*
G37*
G04 #@! TD.AperFunction*
D22*
X115777647Y-82131426D02*
X115722500Y-82408665D01*
X115722500Y-82691335D01*
X115777647Y-82968574D01*
X115885820Y-83229727D01*
X116042863Y-83464759D01*
X116242741Y-83664637D01*
X116475259Y-83820000D01*
X116242741Y-83975363D01*
X116042863Y-84175241D01*
X115885820Y-84410273D01*
X115777647Y-84671426D01*
X115722500Y-84948665D01*
X115722500Y-85231335D01*
X115777647Y-85508574D01*
X115885820Y-85769727D01*
X116042863Y-86004759D01*
X116242741Y-86204637D01*
X116475259Y-86360000D01*
X116242741Y-86515363D01*
X116042863Y-86715241D01*
X115885820Y-86950273D01*
X115777647Y-87211426D01*
X115722500Y-87488665D01*
X115722500Y-87771335D01*
X115777647Y-88048574D01*
X115885820Y-88309727D01*
X116042863Y-88544759D01*
X116242741Y-88744637D01*
X116475259Y-88900000D01*
X116242741Y-89055363D01*
X116042863Y-89255241D01*
X115885820Y-89490273D01*
X115777647Y-89751426D01*
X115722500Y-90028665D01*
X115722500Y-90311335D01*
X115777647Y-90588574D01*
X115885820Y-90849727D01*
X116042863Y-91084759D01*
X116242741Y-91284637D01*
X116475259Y-91440000D01*
X116242741Y-91595363D01*
X116042863Y-91795241D01*
X115885820Y-92030273D01*
X115777647Y-92291426D01*
X115722500Y-92568665D01*
X115722500Y-92851335D01*
X115766991Y-93075001D01*
X111083370Y-93075001D01*
X110953786Y-92945417D01*
X110972500Y-92851335D01*
X110972500Y-92568665D01*
X110917353Y-92291426D01*
X110809180Y-92030273D01*
X110652137Y-91795241D01*
X110452259Y-91595363D01*
X110219741Y-91440000D01*
X110452259Y-91284637D01*
X110652137Y-91084759D01*
X110809180Y-90849727D01*
X110917353Y-90588574D01*
X110972500Y-90311335D01*
X110972500Y-90028665D01*
X110917353Y-89751426D01*
X110809180Y-89490273D01*
X110652137Y-89255241D01*
X110452259Y-89055363D01*
X110219741Y-88900000D01*
X110452259Y-88744637D01*
X110652137Y-88544759D01*
X110809180Y-88309727D01*
X110917353Y-88048574D01*
X110972500Y-87771335D01*
X110972500Y-87488665D01*
X110917353Y-87211426D01*
X110809180Y-86950273D01*
X110652137Y-86715241D01*
X110452259Y-86515363D01*
X110219741Y-86360000D01*
X110452259Y-86204637D01*
X110652137Y-86004759D01*
X110809180Y-85769727D01*
X110917353Y-85508574D01*
X110972500Y-85231335D01*
X110972500Y-84948665D01*
X110917353Y-84671426D01*
X110809180Y-84410273D01*
X110652137Y-84175241D01*
X110452259Y-83975363D01*
X110219741Y-83820000D01*
X110452259Y-83664637D01*
X110652137Y-83464759D01*
X110809180Y-83229727D01*
X110917353Y-82968574D01*
X110972500Y-82691335D01*
X110972500Y-82408665D01*
X110953786Y-82314583D01*
X111223368Y-82045001D01*
X115813445Y-82045001D01*
X115777647Y-82131426D01*
G04 #@! TA.AperFunction,NonConductor*
D23*
G36*
X115777647Y-82131426D02*
G01*
X115722500Y-82408665D01*
X115722500Y-82691335D01*
X115777647Y-82968574D01*
X115885820Y-83229727D01*
X116042863Y-83464759D01*
X116242741Y-83664637D01*
X116475259Y-83820000D01*
X116242741Y-83975363D01*
X116042863Y-84175241D01*
X115885820Y-84410273D01*
X115777647Y-84671426D01*
X115722500Y-84948665D01*
X115722500Y-85231335D01*
X115777647Y-85508574D01*
X115885820Y-85769727D01*
X116042863Y-86004759D01*
X116242741Y-86204637D01*
X116475259Y-86360000D01*
X116242741Y-86515363D01*
X116042863Y-86715241D01*
X115885820Y-86950273D01*
X115777647Y-87211426D01*
X115722500Y-87488665D01*
X115722500Y-87771335D01*
X115777647Y-88048574D01*
X115885820Y-88309727D01*
X116042863Y-88544759D01*
X116242741Y-88744637D01*
X116475259Y-88900000D01*
X116242741Y-89055363D01*
X116042863Y-89255241D01*
X115885820Y-89490273D01*
X115777647Y-89751426D01*
X115722500Y-90028665D01*
X115722500Y-90311335D01*
X115777647Y-90588574D01*
X115885820Y-90849727D01*
X116042863Y-91084759D01*
X116242741Y-91284637D01*
X116475259Y-91440000D01*
X116242741Y-91595363D01*
X116042863Y-91795241D01*
X115885820Y-92030273D01*
X115777647Y-92291426D01*
X115722500Y-92568665D01*
X115722500Y-92851335D01*
X115766991Y-93075001D01*
X111083370Y-93075001D01*
X110953786Y-92945417D01*
X110972500Y-92851335D01*
X110972500Y-92568665D01*
X110917353Y-92291426D01*
X110809180Y-92030273D01*
X110652137Y-91795241D01*
X110452259Y-91595363D01*
X110219741Y-91440000D01*
X110452259Y-91284637D01*
X110652137Y-91084759D01*
X110809180Y-90849727D01*
X110917353Y-90588574D01*
X110972500Y-90311335D01*
X110972500Y-90028665D01*
X110917353Y-89751426D01*
X110809180Y-89490273D01*
X110652137Y-89255241D01*
X110452259Y-89055363D01*
X110219741Y-88900000D01*
X110452259Y-88744637D01*
X110652137Y-88544759D01*
X110809180Y-88309727D01*
X110917353Y-88048574D01*
X110972500Y-87771335D01*
X110972500Y-87488665D01*
X110917353Y-87211426D01*
X110809180Y-86950273D01*
X110652137Y-86715241D01*
X110452259Y-86515363D01*
X110219741Y-86360000D01*
X110452259Y-86204637D01*
X110652137Y-86004759D01*
X110809180Y-85769727D01*
X110917353Y-85508574D01*
X110972500Y-85231335D01*
X110972500Y-84948665D01*
X110917353Y-84671426D01*
X110809180Y-84410273D01*
X110652137Y-84175241D01*
X110452259Y-83975363D01*
X110219741Y-83820000D01*
X110452259Y-83664637D01*
X110652137Y-83464759D01*
X110809180Y-83229727D01*
X110917353Y-82968574D01*
X110972500Y-82691335D01*
X110972500Y-82408665D01*
X110953786Y-82314583D01*
X111223368Y-82045001D01*
X115813445Y-82045001D01*
X115777647Y-82131426D01*
G37*
G04 #@! TD.AperFunction*
D22*
X134255259Y-81280000D02*
X134022741Y-81435363D01*
X133822863Y-81635241D01*
X133665820Y-81870273D01*
X133557647Y-82131426D01*
X133502500Y-82408665D01*
X133502500Y-82691335D01*
X133557647Y-82968574D01*
X133665820Y-83229727D01*
X133822863Y-83464759D01*
X134022741Y-83664637D01*
X134102500Y-83717930D01*
X134102501Y-83922070D01*
X134022741Y-83975363D01*
X133822863Y-84175241D01*
X133665820Y-84410273D01*
X133557647Y-84671426D01*
X133502500Y-84948665D01*
X133502500Y-85231335D01*
X133557647Y-85508574D01*
X133665820Y-85769727D01*
X133822863Y-86004759D01*
X134022741Y-86204637D01*
X134255259Y-86360000D01*
X134022741Y-86515363D01*
X133822863Y-86715241D01*
X133665820Y-86950273D01*
X133557647Y-87211426D01*
X133502500Y-87488665D01*
X133502500Y-87771335D01*
X133557647Y-88048574D01*
X133665820Y-88309727D01*
X133822863Y-88544759D01*
X134022741Y-88744637D01*
X134255259Y-88900000D01*
X134022741Y-89055363D01*
X133822863Y-89255241D01*
X133665820Y-89490273D01*
X133557647Y-89751426D01*
X133502500Y-90028665D01*
X133502500Y-90311335D01*
X133557647Y-90588574D01*
X133665820Y-90849727D01*
X133822863Y-91084759D01*
X134022741Y-91284637D01*
X134255259Y-91440000D01*
X134022741Y-91595363D01*
X133822863Y-91795241D01*
X133665820Y-92030273D01*
X133557647Y-92291426D01*
X133502500Y-92568665D01*
X133502500Y-92851335D01*
X133521214Y-92945418D01*
X133391632Y-93075001D01*
X131248009Y-93075001D01*
X131292500Y-92851335D01*
X131292500Y-92568665D01*
X131237353Y-92291426D01*
X131129180Y-92030273D01*
X130972137Y-91795241D01*
X130772259Y-91595363D01*
X130539741Y-91440000D01*
X130772259Y-91284637D01*
X130972137Y-91084759D01*
X131129180Y-90849727D01*
X131237353Y-90588574D01*
X131292500Y-90311335D01*
X131292500Y-90028665D01*
X131237353Y-89751426D01*
X131129180Y-89490273D01*
X130972137Y-89255241D01*
X130772259Y-89055363D01*
X130539741Y-88900000D01*
X130772259Y-88744637D01*
X130972137Y-88544759D01*
X131129180Y-88309727D01*
X131237353Y-88048574D01*
X131292500Y-87771335D01*
X131292500Y-87488665D01*
X131237353Y-87211426D01*
X131129180Y-86950273D01*
X130972137Y-86715241D01*
X130772259Y-86515363D01*
X130539741Y-86360000D01*
X130772259Y-86204637D01*
X130972137Y-86004759D01*
X131129180Y-85769727D01*
X131237353Y-85508574D01*
X131292500Y-85231335D01*
X131292500Y-84948665D01*
X131237353Y-84671426D01*
X131129180Y-84410273D01*
X131059051Y-84305318D01*
X134152819Y-81211552D01*
X134255259Y-81280000D01*
G04 #@! TA.AperFunction,NonConductor*
D23*
G36*
X134255259Y-81280000D02*
G01*
X134022741Y-81435363D01*
X133822863Y-81635241D01*
X133665820Y-81870273D01*
X133557647Y-82131426D01*
X133502500Y-82408665D01*
X133502500Y-82691335D01*
X133557647Y-82968574D01*
X133665820Y-83229727D01*
X133822863Y-83464759D01*
X134022741Y-83664637D01*
X134102500Y-83717930D01*
X134102501Y-83922070D01*
X134022741Y-83975363D01*
X133822863Y-84175241D01*
X133665820Y-84410273D01*
X133557647Y-84671426D01*
X133502500Y-84948665D01*
X133502500Y-85231335D01*
X133557647Y-85508574D01*
X133665820Y-85769727D01*
X133822863Y-86004759D01*
X134022741Y-86204637D01*
X134255259Y-86360000D01*
X134022741Y-86515363D01*
X133822863Y-86715241D01*
X133665820Y-86950273D01*
X133557647Y-87211426D01*
X133502500Y-87488665D01*
X133502500Y-87771335D01*
X133557647Y-88048574D01*
X133665820Y-88309727D01*
X133822863Y-88544759D01*
X134022741Y-88744637D01*
X134255259Y-88900000D01*
X134022741Y-89055363D01*
X133822863Y-89255241D01*
X133665820Y-89490273D01*
X133557647Y-89751426D01*
X133502500Y-90028665D01*
X133502500Y-90311335D01*
X133557647Y-90588574D01*
X133665820Y-90849727D01*
X133822863Y-91084759D01*
X134022741Y-91284637D01*
X134255259Y-91440000D01*
X134022741Y-91595363D01*
X133822863Y-91795241D01*
X133665820Y-92030273D01*
X133557647Y-92291426D01*
X133502500Y-92568665D01*
X133502500Y-92851335D01*
X133521214Y-92945418D01*
X133391632Y-93075001D01*
X131248009Y-93075001D01*
X131292500Y-92851335D01*
X131292500Y-92568665D01*
X131237353Y-92291426D01*
X131129180Y-92030273D01*
X130972137Y-91795241D01*
X130772259Y-91595363D01*
X130539741Y-91440000D01*
X130772259Y-91284637D01*
X130972137Y-91084759D01*
X131129180Y-90849727D01*
X131237353Y-90588574D01*
X131292500Y-90311335D01*
X131292500Y-90028665D01*
X131237353Y-89751426D01*
X131129180Y-89490273D01*
X130972137Y-89255241D01*
X130772259Y-89055363D01*
X130539741Y-88900000D01*
X130772259Y-88744637D01*
X130972137Y-88544759D01*
X131129180Y-88309727D01*
X131237353Y-88048574D01*
X131292500Y-87771335D01*
X131292500Y-87488665D01*
X131237353Y-87211426D01*
X131129180Y-86950273D01*
X130972137Y-86715241D01*
X130772259Y-86515363D01*
X130539741Y-86360000D01*
X130772259Y-86204637D01*
X130972137Y-86004759D01*
X131129180Y-85769727D01*
X131237353Y-85508574D01*
X131292500Y-85231335D01*
X131292500Y-84948665D01*
X131237353Y-84671426D01*
X131129180Y-84410273D01*
X131059051Y-84305318D01*
X134152819Y-81211552D01*
X134255259Y-81280000D01*
G37*
G04 #@! TD.AperFunction*
D22*
X120857647Y-82131426D02*
X120802500Y-82408665D01*
X120802500Y-82691335D01*
X120857647Y-82968574D01*
X120965820Y-83229727D01*
X121122863Y-83464759D01*
X121322741Y-83664637D01*
X121555259Y-83820000D01*
X121322741Y-83975363D01*
X121122863Y-84175241D01*
X120965820Y-84410273D01*
X120857647Y-84671426D01*
X120802500Y-84948665D01*
X120802500Y-85231335D01*
X120857647Y-85508574D01*
X120965820Y-85769727D01*
X121122863Y-86004759D01*
X121322741Y-86204637D01*
X121555259Y-86360000D01*
X121322741Y-86515363D01*
X121122863Y-86715241D01*
X120965820Y-86950273D01*
X120857647Y-87211426D01*
X120802500Y-87488665D01*
X120802500Y-87771335D01*
X120857647Y-88048574D01*
X120965820Y-88309727D01*
X121122863Y-88544759D01*
X121322741Y-88744637D01*
X121555259Y-88900000D01*
X121322741Y-89055363D01*
X121122863Y-89255241D01*
X120965820Y-89490273D01*
X120857647Y-89751426D01*
X120802500Y-90028665D01*
X120802500Y-90311335D01*
X120857647Y-90588574D01*
X120965820Y-90849727D01*
X121122863Y-91084759D01*
X121322741Y-91284637D01*
X121555259Y-91440000D01*
X121322741Y-91595363D01*
X121122863Y-91795241D01*
X120965820Y-92030273D01*
X120857647Y-92291426D01*
X120802500Y-92568665D01*
X120802500Y-92851335D01*
X120821214Y-92945418D01*
X120691632Y-93075001D01*
X118548009Y-93075001D01*
X118592500Y-92851335D01*
X118592500Y-92568665D01*
X118537353Y-92291426D01*
X118429180Y-92030273D01*
X118272137Y-91795241D01*
X118072259Y-91595363D01*
X117839741Y-91440000D01*
X118072259Y-91284637D01*
X118272137Y-91084759D01*
X118429180Y-90849727D01*
X118537353Y-90588574D01*
X118592500Y-90311335D01*
X118592500Y-90028665D01*
X118537353Y-89751426D01*
X118429180Y-89490273D01*
X118272137Y-89255241D01*
X118072259Y-89055363D01*
X117839741Y-88900000D01*
X118072259Y-88744637D01*
X118272137Y-88544759D01*
X118429180Y-88309727D01*
X118537353Y-88048574D01*
X118592500Y-87771335D01*
X118592500Y-87488665D01*
X118537353Y-87211426D01*
X118429180Y-86950273D01*
X118272137Y-86715241D01*
X118072259Y-86515363D01*
X117839741Y-86360000D01*
X118072259Y-86204637D01*
X118272137Y-86004759D01*
X118429180Y-85769727D01*
X118537353Y-85508574D01*
X118592500Y-85231335D01*
X118592500Y-84948665D01*
X118537353Y-84671426D01*
X118429180Y-84410273D01*
X118272137Y-84175241D01*
X118072259Y-83975363D01*
X117839741Y-83820000D01*
X118072259Y-83664637D01*
X118272137Y-83464759D01*
X118429180Y-83229727D01*
X118537353Y-82968574D01*
X118592500Y-82691335D01*
X118592500Y-82408665D01*
X118537353Y-82131426D01*
X118501555Y-82045001D01*
X120893445Y-82045001D01*
X120857647Y-82131426D01*
G04 #@! TA.AperFunction,NonConductor*
D23*
G36*
X120857647Y-82131426D02*
G01*
X120802500Y-82408665D01*
X120802500Y-82691335D01*
X120857647Y-82968574D01*
X120965820Y-83229727D01*
X121122863Y-83464759D01*
X121322741Y-83664637D01*
X121555259Y-83820000D01*
X121322741Y-83975363D01*
X121122863Y-84175241D01*
X120965820Y-84410273D01*
X120857647Y-84671426D01*
X120802500Y-84948665D01*
X120802500Y-85231335D01*
X120857647Y-85508574D01*
X120965820Y-85769727D01*
X121122863Y-86004759D01*
X121322741Y-86204637D01*
X121555259Y-86360000D01*
X121322741Y-86515363D01*
X121122863Y-86715241D01*
X120965820Y-86950273D01*
X120857647Y-87211426D01*
X120802500Y-87488665D01*
X120802500Y-87771335D01*
X120857647Y-88048574D01*
X120965820Y-88309727D01*
X121122863Y-88544759D01*
X121322741Y-88744637D01*
X121555259Y-88900000D01*
X121322741Y-89055363D01*
X121122863Y-89255241D01*
X120965820Y-89490273D01*
X120857647Y-89751426D01*
X120802500Y-90028665D01*
X120802500Y-90311335D01*
X120857647Y-90588574D01*
X120965820Y-90849727D01*
X121122863Y-91084759D01*
X121322741Y-91284637D01*
X121555259Y-91440000D01*
X121322741Y-91595363D01*
X121122863Y-91795241D01*
X120965820Y-92030273D01*
X120857647Y-92291426D01*
X120802500Y-92568665D01*
X120802500Y-92851335D01*
X120821214Y-92945418D01*
X120691632Y-93075001D01*
X118548009Y-93075001D01*
X118592500Y-92851335D01*
X118592500Y-92568665D01*
X118537353Y-92291426D01*
X118429180Y-92030273D01*
X118272137Y-91795241D01*
X118072259Y-91595363D01*
X117839741Y-91440000D01*
X118072259Y-91284637D01*
X118272137Y-91084759D01*
X118429180Y-90849727D01*
X118537353Y-90588574D01*
X118592500Y-90311335D01*
X118592500Y-90028665D01*
X118537353Y-89751426D01*
X118429180Y-89490273D01*
X118272137Y-89255241D01*
X118072259Y-89055363D01*
X117839741Y-88900000D01*
X118072259Y-88744637D01*
X118272137Y-88544759D01*
X118429180Y-88309727D01*
X118537353Y-88048574D01*
X118592500Y-87771335D01*
X118592500Y-87488665D01*
X118537353Y-87211426D01*
X118429180Y-86950273D01*
X118272137Y-86715241D01*
X118072259Y-86515363D01*
X117839741Y-86360000D01*
X118072259Y-86204637D01*
X118272137Y-86004759D01*
X118429180Y-85769727D01*
X118537353Y-85508574D01*
X118592500Y-85231335D01*
X118592500Y-84948665D01*
X118537353Y-84671426D01*
X118429180Y-84410273D01*
X118272137Y-84175241D01*
X118072259Y-83975363D01*
X117839741Y-83820000D01*
X118072259Y-83664637D01*
X118272137Y-83464759D01*
X118429180Y-83229727D01*
X118537353Y-82968574D01*
X118592500Y-82691335D01*
X118592500Y-82408665D01*
X118537353Y-82131426D01*
X118501555Y-82045001D01*
X120893445Y-82045001D01*
X120857647Y-82131426D01*
G37*
G04 #@! TD.AperFunction*
D22*
X128477647Y-84671426D02*
X128422500Y-84948665D01*
X128422500Y-85231335D01*
X128477647Y-85508574D01*
X128585820Y-85769727D01*
X128742863Y-86004759D01*
X128942741Y-86204637D01*
X129175259Y-86360000D01*
X128942741Y-86515363D01*
X128742863Y-86715241D01*
X128585820Y-86950273D01*
X128477647Y-87211426D01*
X128422500Y-87488665D01*
X128422500Y-87771335D01*
X128477647Y-88048574D01*
X128585820Y-88309727D01*
X128742863Y-88544759D01*
X128942741Y-88744637D01*
X129175259Y-88900000D01*
X128942741Y-89055363D01*
X128742863Y-89255241D01*
X128585820Y-89490273D01*
X128477647Y-89751426D01*
X128422500Y-90028665D01*
X128422500Y-90311335D01*
X128477647Y-90588574D01*
X128585820Y-90849727D01*
X128742863Y-91084759D01*
X128942741Y-91284637D01*
X129175259Y-91440000D01*
X128942741Y-91595363D01*
X128742863Y-91795241D01*
X128585820Y-92030273D01*
X128477647Y-92291426D01*
X128422500Y-92568665D01*
X128422500Y-92851335D01*
X128466991Y-93075001D01*
X123783370Y-93075001D01*
X123653786Y-92945417D01*
X123672500Y-92851335D01*
X123672500Y-92568665D01*
X123617353Y-92291426D01*
X123509180Y-92030273D01*
X123352137Y-91795241D01*
X123152259Y-91595363D01*
X122919741Y-91440000D01*
X123152259Y-91284637D01*
X123352137Y-91084759D01*
X123509180Y-90849727D01*
X123617353Y-90588574D01*
X123672500Y-90311335D01*
X123672500Y-90028665D01*
X123617353Y-89751426D01*
X123509180Y-89490273D01*
X123352137Y-89255241D01*
X123152259Y-89055363D01*
X122919741Y-88900000D01*
X123152259Y-88744637D01*
X123352137Y-88544759D01*
X123509180Y-88309727D01*
X123617353Y-88048574D01*
X123672500Y-87771335D01*
X123672500Y-87488665D01*
X123617353Y-87211426D01*
X123509180Y-86950273D01*
X123352137Y-86715241D01*
X123152259Y-86515363D01*
X122919741Y-86360000D01*
X123152259Y-86204637D01*
X123352137Y-86004759D01*
X123509180Y-85769727D01*
X123617353Y-85508574D01*
X123672500Y-85231335D01*
X123672500Y-84948665D01*
X123617353Y-84671426D01*
X123581555Y-84585001D01*
X128513445Y-84585001D01*
X128477647Y-84671426D01*
G04 #@! TA.AperFunction,NonConductor*
D23*
G36*
X128477647Y-84671426D02*
G01*
X128422500Y-84948665D01*
X128422500Y-85231335D01*
X128477647Y-85508574D01*
X128585820Y-85769727D01*
X128742863Y-86004759D01*
X128942741Y-86204637D01*
X129175259Y-86360000D01*
X128942741Y-86515363D01*
X128742863Y-86715241D01*
X128585820Y-86950273D01*
X128477647Y-87211426D01*
X128422500Y-87488665D01*
X128422500Y-87771335D01*
X128477647Y-88048574D01*
X128585820Y-88309727D01*
X128742863Y-88544759D01*
X128942741Y-88744637D01*
X129175259Y-88900000D01*
X128942741Y-89055363D01*
X128742863Y-89255241D01*
X128585820Y-89490273D01*
X128477647Y-89751426D01*
X128422500Y-90028665D01*
X128422500Y-90311335D01*
X128477647Y-90588574D01*
X128585820Y-90849727D01*
X128742863Y-91084759D01*
X128942741Y-91284637D01*
X129175259Y-91440000D01*
X128942741Y-91595363D01*
X128742863Y-91795241D01*
X128585820Y-92030273D01*
X128477647Y-92291426D01*
X128422500Y-92568665D01*
X128422500Y-92851335D01*
X128466991Y-93075001D01*
X123783370Y-93075001D01*
X123653786Y-92945417D01*
X123672500Y-92851335D01*
X123672500Y-92568665D01*
X123617353Y-92291426D01*
X123509180Y-92030273D01*
X123352137Y-91795241D01*
X123152259Y-91595363D01*
X122919741Y-91440000D01*
X123152259Y-91284637D01*
X123352137Y-91084759D01*
X123509180Y-90849727D01*
X123617353Y-90588574D01*
X123672500Y-90311335D01*
X123672500Y-90028665D01*
X123617353Y-89751426D01*
X123509180Y-89490273D01*
X123352137Y-89255241D01*
X123152259Y-89055363D01*
X122919741Y-88900000D01*
X123152259Y-88744637D01*
X123352137Y-88544759D01*
X123509180Y-88309727D01*
X123617353Y-88048574D01*
X123672500Y-87771335D01*
X123672500Y-87488665D01*
X123617353Y-87211426D01*
X123509180Y-86950273D01*
X123352137Y-86715241D01*
X123152259Y-86515363D01*
X122919741Y-86360000D01*
X123152259Y-86204637D01*
X123352137Y-86004759D01*
X123509180Y-85769727D01*
X123617353Y-85508574D01*
X123672500Y-85231335D01*
X123672500Y-84948665D01*
X123617353Y-84671426D01*
X123581555Y-84585001D01*
X128513445Y-84585001D01*
X128477647Y-84671426D01*
G37*
G04 #@! TD.AperFunction*
D22*
X141442863Y-91084759D02*
X141642741Y-91284637D01*
X141875259Y-91440000D01*
X141642741Y-91595363D01*
X141442863Y-91795241D01*
X141285820Y-92030273D01*
X141177647Y-92291426D01*
X141122500Y-92568665D01*
X141122500Y-92851335D01*
X141166991Y-93075001D01*
X136483370Y-93075001D01*
X136353786Y-92945417D01*
X136372500Y-92851335D01*
X136372500Y-92568665D01*
X136317353Y-92291426D01*
X136209180Y-92030273D01*
X136052137Y-91795241D01*
X135852259Y-91595363D01*
X135619741Y-91440000D01*
X135852259Y-91284637D01*
X136052137Y-91084759D01*
X136105430Y-91005000D01*
X141389570Y-91005000D01*
X141442863Y-91084759D01*
G04 #@! TA.AperFunction,NonConductor*
D23*
G36*
X141442863Y-91084759D02*
G01*
X141642741Y-91284637D01*
X141875259Y-91440000D01*
X141642741Y-91595363D01*
X141442863Y-91795241D01*
X141285820Y-92030273D01*
X141177647Y-92291426D01*
X141122500Y-92568665D01*
X141122500Y-92851335D01*
X141166991Y-93075001D01*
X136483370Y-93075001D01*
X136353786Y-92945417D01*
X136372500Y-92851335D01*
X136372500Y-92568665D01*
X136317353Y-92291426D01*
X136209180Y-92030273D01*
X136052137Y-91795241D01*
X135852259Y-91595363D01*
X135619741Y-91440000D01*
X135852259Y-91284637D01*
X136052137Y-91084759D01*
X136105430Y-91005000D01*
X141389570Y-91005000D01*
X141442863Y-91084759D01*
G37*
G04 #@! TD.AperFunction*
D22*
X146202500Y-90311335D02*
X146257647Y-90588574D01*
X146365820Y-90849727D01*
X146522863Y-91084759D01*
X146722741Y-91284637D01*
X146955259Y-91440000D01*
X146722741Y-91595363D01*
X146522863Y-91795241D01*
X146365820Y-92030273D01*
X146257647Y-92291426D01*
X146202500Y-92568665D01*
X146202500Y-92851335D01*
X146221214Y-92945418D01*
X146091632Y-93075001D01*
X143948009Y-93075001D01*
X143992500Y-92851335D01*
X143992500Y-92568665D01*
X143973785Y-92474582D01*
X146202500Y-90245868D01*
X146202500Y-90311335D01*
G04 #@! TA.AperFunction,NonConductor*
D23*
G36*
X146202500Y-90311335D02*
G01*
X146257647Y-90588574D01*
X146365820Y-90849727D01*
X146522863Y-91084759D01*
X146722741Y-91284637D01*
X146955259Y-91440000D01*
X146722741Y-91595363D01*
X146522863Y-91795241D01*
X146365820Y-92030273D01*
X146257647Y-92291426D01*
X146202500Y-92568665D01*
X146202500Y-92851335D01*
X146221214Y-92945418D01*
X146091632Y-93075001D01*
X143948009Y-93075001D01*
X143992500Y-92851335D01*
X143992500Y-92568665D01*
X143973785Y-92474582D01*
X146202500Y-90245868D01*
X146202500Y-90311335D01*
G37*
G04 #@! TD.AperFunction*
D22*
X181582510Y-91605614D02*
X181572259Y-91595363D01*
X181339741Y-91440000D01*
X181572259Y-91284637D01*
X181582510Y-91274386D01*
X181582510Y-91605614D01*
G04 #@! TA.AperFunction,NonConductor*
D23*
G36*
X181582510Y-91605614D02*
G01*
X181572259Y-91595363D01*
X181339741Y-91440000D01*
X181572259Y-91284637D01*
X181582510Y-91274386D01*
X181582510Y-91605614D01*
G37*
G04 #@! TD.AperFunction*
D22*
X153841215Y-77234582D02*
X153822500Y-77328665D01*
X153822500Y-77611335D01*
X153877647Y-77888574D01*
X153985820Y-78149727D01*
X154142863Y-78384759D01*
X154342741Y-78584637D01*
X154575259Y-78740000D01*
X154342741Y-78895363D01*
X154142863Y-79095241D01*
X153985820Y-79330273D01*
X153877647Y-79591426D01*
X153822500Y-79868665D01*
X153822500Y-80151335D01*
X153877647Y-80428574D01*
X153985820Y-80689727D01*
X154142863Y-80924759D01*
X154342741Y-81124637D01*
X154575259Y-81280000D01*
X154342741Y-81435363D01*
X154142863Y-81635241D01*
X153985820Y-81870273D01*
X153877647Y-82131426D01*
X153822500Y-82408665D01*
X153822500Y-82691335D01*
X153877647Y-82968574D01*
X153985820Y-83229727D01*
X154142863Y-83464759D01*
X154342741Y-83664637D01*
X154575259Y-83820000D01*
X154342741Y-83975363D01*
X154142863Y-84175241D01*
X153985820Y-84410273D01*
X153877647Y-84671426D01*
X153822500Y-84948665D01*
X153822500Y-85231335D01*
X153877647Y-85508574D01*
X153985820Y-85769727D01*
X154142863Y-86004759D01*
X154342741Y-86204637D01*
X154575259Y-86360000D01*
X154342741Y-86515363D01*
X154142863Y-86715241D01*
X153985820Y-86950273D01*
X153877647Y-87211426D01*
X153822500Y-87488665D01*
X153822500Y-87771335D01*
X153877647Y-88048574D01*
X153985820Y-88309727D01*
X154142863Y-88544759D01*
X154342741Y-88744637D01*
X154575259Y-88900000D01*
X154342741Y-89055363D01*
X154142863Y-89255241D01*
X153985820Y-89490273D01*
X153877647Y-89751426D01*
X153822500Y-90028665D01*
X153822500Y-90311335D01*
X153877647Y-90588574D01*
X153913445Y-90674999D01*
X148981555Y-90674999D01*
X149017353Y-90588574D01*
X149072500Y-90311335D01*
X149072500Y-90028665D01*
X149017353Y-89751426D01*
X148909180Y-89490273D01*
X148752137Y-89255241D01*
X148552259Y-89055363D01*
X148319741Y-88900000D01*
X148552259Y-88744637D01*
X148752137Y-88544759D01*
X148909180Y-88309727D01*
X149017353Y-88048574D01*
X149072500Y-87771335D01*
X149072500Y-87488665D01*
X149017353Y-87211426D01*
X148909180Y-86950273D01*
X148752137Y-86715241D01*
X148552259Y-86515363D01*
X148319741Y-86360000D01*
X148552259Y-86204637D01*
X148752137Y-86004759D01*
X148909180Y-85769727D01*
X149017353Y-85508574D01*
X149072500Y-85231335D01*
X149072500Y-84948665D01*
X149017353Y-84671426D01*
X148909180Y-84410273D01*
X148752137Y-84175241D01*
X148552259Y-83975363D01*
X148319741Y-83820000D01*
X148552259Y-83664637D01*
X148752137Y-83464759D01*
X148909180Y-83229727D01*
X149017353Y-82968574D01*
X149072500Y-82691335D01*
X149072500Y-82408665D01*
X149017353Y-82131426D01*
X148909180Y-81870273D01*
X148752137Y-81635241D01*
X148552259Y-81435363D01*
X148319741Y-81280000D01*
X148552259Y-81124637D01*
X148752137Y-80924759D01*
X148909180Y-80689727D01*
X149017353Y-80428574D01*
X149072500Y-80151335D01*
X149072500Y-79868665D01*
X149017353Y-79591426D01*
X148909180Y-79330273D01*
X148752137Y-79095241D01*
X148553539Y-78896643D01*
X148561982Y-78895812D01*
X148681680Y-78859502D01*
X148791994Y-78800537D01*
X148888685Y-78721185D01*
X148968037Y-78624494D01*
X149027002Y-78514180D01*
X149063312Y-78394482D01*
X149075572Y-78270000D01*
X149075572Y-77035000D01*
X153641633Y-77035000D01*
X153841215Y-77234582D01*
G04 #@! TA.AperFunction,NonConductor*
D23*
G36*
X153841215Y-77234582D02*
G01*
X153822500Y-77328665D01*
X153822500Y-77611335D01*
X153877647Y-77888574D01*
X153985820Y-78149727D01*
X154142863Y-78384759D01*
X154342741Y-78584637D01*
X154575259Y-78740000D01*
X154342741Y-78895363D01*
X154142863Y-79095241D01*
X153985820Y-79330273D01*
X153877647Y-79591426D01*
X153822500Y-79868665D01*
X153822500Y-80151335D01*
X153877647Y-80428574D01*
X153985820Y-80689727D01*
X154142863Y-80924759D01*
X154342741Y-81124637D01*
X154575259Y-81280000D01*
X154342741Y-81435363D01*
X154142863Y-81635241D01*
X153985820Y-81870273D01*
X153877647Y-82131426D01*
X153822500Y-82408665D01*
X153822500Y-82691335D01*
X153877647Y-82968574D01*
X153985820Y-83229727D01*
X154142863Y-83464759D01*
X154342741Y-83664637D01*
X154575259Y-83820000D01*
X154342741Y-83975363D01*
X154142863Y-84175241D01*
X153985820Y-84410273D01*
X153877647Y-84671426D01*
X153822500Y-84948665D01*
X153822500Y-85231335D01*
X153877647Y-85508574D01*
X153985820Y-85769727D01*
X154142863Y-86004759D01*
X154342741Y-86204637D01*
X154575259Y-86360000D01*
X154342741Y-86515363D01*
X154142863Y-86715241D01*
X153985820Y-86950273D01*
X153877647Y-87211426D01*
X153822500Y-87488665D01*
X153822500Y-87771335D01*
X153877647Y-88048574D01*
X153985820Y-88309727D01*
X154142863Y-88544759D01*
X154342741Y-88744637D01*
X154575259Y-88900000D01*
X154342741Y-89055363D01*
X154142863Y-89255241D01*
X153985820Y-89490273D01*
X153877647Y-89751426D01*
X153822500Y-90028665D01*
X153822500Y-90311335D01*
X153877647Y-90588574D01*
X153913445Y-90674999D01*
X148981555Y-90674999D01*
X149017353Y-90588574D01*
X149072500Y-90311335D01*
X149072500Y-90028665D01*
X149017353Y-89751426D01*
X148909180Y-89490273D01*
X148752137Y-89255241D01*
X148552259Y-89055363D01*
X148319741Y-88900000D01*
X148552259Y-88744637D01*
X148752137Y-88544759D01*
X148909180Y-88309727D01*
X149017353Y-88048574D01*
X149072500Y-87771335D01*
X149072500Y-87488665D01*
X149017353Y-87211426D01*
X148909180Y-86950273D01*
X148752137Y-86715241D01*
X148552259Y-86515363D01*
X148319741Y-86360000D01*
X148552259Y-86204637D01*
X148752137Y-86004759D01*
X148909180Y-85769727D01*
X149017353Y-85508574D01*
X149072500Y-85231335D01*
X149072500Y-84948665D01*
X149017353Y-84671426D01*
X148909180Y-84410273D01*
X148752137Y-84175241D01*
X148552259Y-83975363D01*
X148319741Y-83820000D01*
X148552259Y-83664637D01*
X148752137Y-83464759D01*
X148909180Y-83229727D01*
X149017353Y-82968574D01*
X149072500Y-82691335D01*
X149072500Y-82408665D01*
X149017353Y-82131426D01*
X148909180Y-81870273D01*
X148752137Y-81635241D01*
X148552259Y-81435363D01*
X148319741Y-81280000D01*
X148552259Y-81124637D01*
X148752137Y-80924759D01*
X148909180Y-80689727D01*
X149017353Y-80428574D01*
X149072500Y-80151335D01*
X149072500Y-79868665D01*
X149017353Y-79591426D01*
X148909180Y-79330273D01*
X148752137Y-79095241D01*
X148553539Y-78896643D01*
X148561982Y-78895812D01*
X148681680Y-78859502D01*
X148791994Y-78800537D01*
X148888685Y-78721185D01*
X148968037Y-78624494D01*
X149027002Y-78514180D01*
X149063312Y-78394482D01*
X149075572Y-78270000D01*
X149075572Y-77035000D01*
X153641633Y-77035000D01*
X153841215Y-77234582D01*
G37*
G04 #@! TD.AperFunction*
D22*
X146202500Y-82691335D02*
X146221214Y-82785418D01*
X145876073Y-83130560D01*
X145844209Y-83156710D01*
X145784286Y-83229727D01*
X145739863Y-83283856D01*
X145662327Y-83428915D01*
X145614581Y-83586313D01*
X145598459Y-83750001D01*
X145602500Y-83791029D01*
X145602499Y-88484133D01*
X143992500Y-90094132D01*
X143992500Y-90028665D01*
X143937353Y-89751426D01*
X143829180Y-89490273D01*
X143672137Y-89255241D01*
X143472259Y-89055363D01*
X143239741Y-88900000D01*
X143472259Y-88744637D01*
X143672137Y-88544759D01*
X143829180Y-88309727D01*
X143937353Y-88048574D01*
X143992500Y-87771335D01*
X143992500Y-87488665D01*
X143937353Y-87211426D01*
X143829180Y-86950273D01*
X143672137Y-86715241D01*
X143472259Y-86515363D01*
X143239741Y-86360000D01*
X143472259Y-86204637D01*
X143672137Y-86004759D01*
X143829180Y-85769727D01*
X143937353Y-85508574D01*
X143992500Y-85231335D01*
X143992500Y-84948665D01*
X143937353Y-84671426D01*
X143829180Y-84410273D01*
X143672137Y-84175241D01*
X143472259Y-83975363D01*
X143239741Y-83820000D01*
X143472259Y-83664637D01*
X143672137Y-83464759D01*
X143725430Y-83385000D01*
X145056482Y-83385000D01*
X145097500Y-83389040D01*
X145138518Y-83385000D01*
X145138519Y-83385000D01*
X145261189Y-83372918D01*
X145418587Y-83325172D01*
X145563646Y-83247636D01*
X145690791Y-83143291D01*
X145716946Y-83111421D01*
X146202500Y-82625867D01*
X146202500Y-82691335D01*
G04 #@! TA.AperFunction,NonConductor*
D23*
G36*
X146202500Y-82691335D02*
G01*
X146221214Y-82785418D01*
X145876073Y-83130560D01*
X145844209Y-83156710D01*
X145784286Y-83229727D01*
X145739863Y-83283856D01*
X145662327Y-83428915D01*
X145614581Y-83586313D01*
X145598459Y-83750001D01*
X145602500Y-83791029D01*
X145602499Y-88484133D01*
X143992500Y-90094132D01*
X143992500Y-90028665D01*
X143937353Y-89751426D01*
X143829180Y-89490273D01*
X143672137Y-89255241D01*
X143472259Y-89055363D01*
X143239741Y-88900000D01*
X143472259Y-88744637D01*
X143672137Y-88544759D01*
X143829180Y-88309727D01*
X143937353Y-88048574D01*
X143992500Y-87771335D01*
X143992500Y-87488665D01*
X143937353Y-87211426D01*
X143829180Y-86950273D01*
X143672137Y-86715241D01*
X143472259Y-86515363D01*
X143239741Y-86360000D01*
X143472259Y-86204637D01*
X143672137Y-86004759D01*
X143829180Y-85769727D01*
X143937353Y-85508574D01*
X143992500Y-85231335D01*
X143992500Y-84948665D01*
X143937353Y-84671426D01*
X143829180Y-84410273D01*
X143672137Y-84175241D01*
X143472259Y-83975363D01*
X143239741Y-83820000D01*
X143472259Y-83664637D01*
X143672137Y-83464759D01*
X143725430Y-83385000D01*
X145056482Y-83385000D01*
X145097500Y-83389040D01*
X145138518Y-83385000D01*
X145138519Y-83385000D01*
X145261189Y-83372918D01*
X145418587Y-83325172D01*
X145563646Y-83247636D01*
X145690791Y-83143291D01*
X145716946Y-83111421D01*
X146202500Y-82625867D01*
X146202500Y-82691335D01*
G37*
G04 #@! TD.AperFunction*
D22*
X162042500Y-85435868D02*
X162042501Y-89824131D01*
X161772500Y-90094132D01*
X161772500Y-90028665D01*
X161717353Y-89751426D01*
X161609180Y-89490273D01*
X161452137Y-89255241D01*
X161252259Y-89055363D01*
X161019741Y-88900000D01*
X161252259Y-88744637D01*
X161452137Y-88544759D01*
X161609180Y-88309727D01*
X161717353Y-88048574D01*
X161772500Y-87771335D01*
X161772500Y-87488665D01*
X161717353Y-87211426D01*
X161609180Y-86950273D01*
X161452137Y-86715241D01*
X161253539Y-86516643D01*
X161261982Y-86515812D01*
X161381680Y-86479502D01*
X161491994Y-86420537D01*
X161588685Y-86341185D01*
X161668037Y-86244494D01*
X161727002Y-86134180D01*
X161763312Y-86014482D01*
X161775572Y-85890000D01*
X161775572Y-85168940D01*
X162042500Y-85435868D01*
G04 #@! TA.AperFunction,NonConductor*
D23*
G36*
X162042500Y-85435868D02*
G01*
X162042501Y-89824131D01*
X161772500Y-90094132D01*
X161772500Y-90028665D01*
X161717353Y-89751426D01*
X161609180Y-89490273D01*
X161452137Y-89255241D01*
X161252259Y-89055363D01*
X161019741Y-88900000D01*
X161252259Y-88744637D01*
X161452137Y-88544759D01*
X161609180Y-88309727D01*
X161717353Y-88048574D01*
X161772500Y-87771335D01*
X161772500Y-87488665D01*
X161717353Y-87211426D01*
X161609180Y-86950273D01*
X161452137Y-86715241D01*
X161253539Y-86516643D01*
X161261982Y-86515812D01*
X161381680Y-86479502D01*
X161491994Y-86420537D01*
X161588685Y-86341185D01*
X161668037Y-86244494D01*
X161727002Y-86134180D01*
X161763312Y-86014482D01*
X161775572Y-85890000D01*
X161775572Y-85168940D01*
X162042500Y-85435868D01*
G37*
G04 #@! TD.AperFunction*
D22*
X141122500Y-87771335D02*
X141177647Y-88048574D01*
X141285820Y-88309727D01*
X141442863Y-88544759D01*
X141642741Y-88744637D01*
X141875259Y-88900000D01*
X141642741Y-89055363D01*
X141442863Y-89255241D01*
X141389570Y-89335000D01*
X136105430Y-89335000D01*
X136052137Y-89255241D01*
X135852259Y-89055363D01*
X135619741Y-88900000D01*
X135852259Y-88744637D01*
X136052137Y-88544759D01*
X136105430Y-88465000D01*
X139976482Y-88465000D01*
X140017500Y-88469040D01*
X140058518Y-88465000D01*
X140058519Y-88465000D01*
X140181189Y-88452918D01*
X140338587Y-88405172D01*
X140483646Y-88327636D01*
X140610791Y-88223291D01*
X140636946Y-88191421D01*
X141122500Y-87705867D01*
X141122500Y-87771335D01*
G04 #@! TA.AperFunction,NonConductor*
D23*
G36*
X141122500Y-87771335D02*
G01*
X141177647Y-88048574D01*
X141285820Y-88309727D01*
X141442863Y-88544759D01*
X141642741Y-88744637D01*
X141875259Y-88900000D01*
X141642741Y-89055363D01*
X141442863Y-89255241D01*
X141389570Y-89335000D01*
X136105430Y-89335000D01*
X136052137Y-89255241D01*
X135852259Y-89055363D01*
X135619741Y-88900000D01*
X135852259Y-88744637D01*
X136052137Y-88544759D01*
X136105430Y-88465000D01*
X139976482Y-88465000D01*
X140017500Y-88469040D01*
X140058518Y-88465000D01*
X140058519Y-88465000D01*
X140181189Y-88452918D01*
X140338587Y-88405172D01*
X140483646Y-88327636D01*
X140610791Y-88223291D01*
X140636946Y-88191421D01*
X141122500Y-87705867D01*
X141122500Y-87771335D01*
G37*
G04 #@! TD.AperFunction*
D22*
X160258560Y-83651928D02*
X159537500Y-83651928D01*
X159413018Y-83664188D01*
X159293320Y-83700498D01*
X159183006Y-83759463D01*
X159086315Y-83838815D01*
X159006963Y-83935506D01*
X158947998Y-84045820D01*
X158911688Y-84165518D01*
X158899428Y-84290000D01*
X158899428Y-85890000D01*
X158911688Y-86014482D01*
X158931345Y-86079284D01*
X156042182Y-88968449D01*
X155939741Y-88900000D01*
X156172259Y-88744637D01*
X156372137Y-88544759D01*
X156529180Y-88309727D01*
X156637353Y-88048574D01*
X156692500Y-87771335D01*
X156692500Y-87488665D01*
X156637353Y-87211426D01*
X156529180Y-86950273D01*
X156372137Y-86715241D01*
X156172259Y-86515363D01*
X155939741Y-86360000D01*
X156172259Y-86204637D01*
X156372137Y-86004759D01*
X156529180Y-85769727D01*
X156637353Y-85508574D01*
X156692500Y-85231335D01*
X156692500Y-84948665D01*
X156637353Y-84671426D01*
X156529180Y-84410273D01*
X156372137Y-84175241D01*
X156172259Y-83975363D01*
X155939741Y-83820000D01*
X156172259Y-83664637D01*
X156372137Y-83464759D01*
X156529180Y-83229727D01*
X156637353Y-82968574D01*
X156692500Y-82691335D01*
X156692500Y-82408665D01*
X156637353Y-82131426D01*
X156529180Y-81870273D01*
X156372137Y-81635241D01*
X156172259Y-81435363D01*
X155939741Y-81280000D01*
X156172259Y-81124637D01*
X156372137Y-80924759D01*
X156529180Y-80689727D01*
X156637353Y-80428574D01*
X156692500Y-80151335D01*
X156692500Y-80085867D01*
X160258560Y-83651928D01*
G04 #@! TA.AperFunction,NonConductor*
D23*
G36*
X160258560Y-83651928D02*
G01*
X159537500Y-83651928D01*
X159413018Y-83664188D01*
X159293320Y-83700498D01*
X159183006Y-83759463D01*
X159086315Y-83838815D01*
X159006963Y-83935506D01*
X158947998Y-84045820D01*
X158911688Y-84165518D01*
X158899428Y-84290000D01*
X158899428Y-85890000D01*
X158911688Y-86014482D01*
X158931345Y-86079284D01*
X156042182Y-88968449D01*
X155939741Y-88900000D01*
X156172259Y-88744637D01*
X156372137Y-88544759D01*
X156529180Y-88309727D01*
X156637353Y-88048574D01*
X156692500Y-87771335D01*
X156692500Y-87488665D01*
X156637353Y-87211426D01*
X156529180Y-86950273D01*
X156372137Y-86715241D01*
X156172259Y-86515363D01*
X155939741Y-86360000D01*
X156172259Y-86204637D01*
X156372137Y-86004759D01*
X156529180Y-85769727D01*
X156637353Y-85508574D01*
X156692500Y-85231335D01*
X156692500Y-84948665D01*
X156637353Y-84671426D01*
X156529180Y-84410273D01*
X156372137Y-84175241D01*
X156172259Y-83975363D01*
X155939741Y-83820000D01*
X156172259Y-83664637D01*
X156372137Y-83464759D01*
X156529180Y-83229727D01*
X156637353Y-82968574D01*
X156692500Y-82691335D01*
X156692500Y-82408665D01*
X156637353Y-82131426D01*
X156529180Y-81870273D01*
X156372137Y-81635241D01*
X156172259Y-81435363D01*
X155939741Y-81280000D01*
X156172259Y-81124637D01*
X156372137Y-80924759D01*
X156529180Y-80689727D01*
X156637353Y-80428574D01*
X156692500Y-80151335D01*
X156692500Y-80085867D01*
X160258560Y-83651928D01*
G37*
G04 #@! TD.AperFunction*
D22*
X182182521Y-87974153D02*
X182073785Y-87865418D01*
X182092500Y-87771335D01*
X182092500Y-87488665D01*
X182037353Y-87211426D01*
X181929180Y-86950273D01*
X181772137Y-86715241D01*
X181572259Y-86515363D01*
X181339741Y-86360000D01*
X181572259Y-86204637D01*
X181772137Y-86004759D01*
X181929180Y-85769727D01*
X182037353Y-85508574D01*
X182092500Y-85231335D01*
X182092500Y-84948665D01*
X182037353Y-84671426D01*
X181929180Y-84410273D01*
X181772137Y-84175241D01*
X181572259Y-83975363D01*
X181337227Y-83818320D01*
X181076074Y-83710147D01*
X180798835Y-83655000D01*
X180516165Y-83655000D01*
X180422082Y-83673714D01*
X180292499Y-83544132D01*
X180292499Y-79976870D01*
X182087934Y-78181437D01*
X182119792Y-78155292D01*
X182182521Y-78078856D01*
X182182521Y-87974153D01*
G04 #@! TA.AperFunction,NonConductor*
D23*
G36*
X182182521Y-87974153D02*
G01*
X182073785Y-87865418D01*
X182092500Y-87771335D01*
X182092500Y-87488665D01*
X182037353Y-87211426D01*
X181929180Y-86950273D01*
X181772137Y-86715241D01*
X181572259Y-86515363D01*
X181339741Y-86360000D01*
X181572259Y-86204637D01*
X181772137Y-86004759D01*
X181929180Y-85769727D01*
X182037353Y-85508574D01*
X182092500Y-85231335D01*
X182092500Y-84948665D01*
X182037353Y-84671426D01*
X181929180Y-84410273D01*
X181772137Y-84175241D01*
X181572259Y-83975363D01*
X181337227Y-83818320D01*
X181076074Y-83710147D01*
X180798835Y-83655000D01*
X180516165Y-83655000D01*
X180422082Y-83673714D01*
X180292499Y-83544132D01*
X180292499Y-79976870D01*
X182087934Y-78181437D01*
X182119792Y-78155292D01*
X182182521Y-78078856D01*
X182182521Y-87974153D01*
G37*
G04 #@! TD.AperFunction*
D22*
X179241214Y-84854582D02*
X179222500Y-84948665D01*
X179222500Y-85231335D01*
X179277647Y-85508574D01*
X179385820Y-85769727D01*
X179542863Y-86004759D01*
X179742741Y-86204637D01*
X179975259Y-86360000D01*
X179742741Y-86515363D01*
X179542863Y-86715241D01*
X179385820Y-86950273D01*
X179277647Y-87211426D01*
X179222500Y-87488665D01*
X179222500Y-87554133D01*
X178736946Y-87068579D01*
X178710791Y-87036709D01*
X178583646Y-86932364D01*
X178438587Y-86854828D01*
X178281189Y-86807082D01*
X178158519Y-86795000D01*
X178158518Y-86795000D01*
X178117500Y-86790960D01*
X178076482Y-86795000D01*
X174205430Y-86795000D01*
X174152137Y-86715241D01*
X173953539Y-86516643D01*
X173961982Y-86515812D01*
X174081680Y-86479502D01*
X174191994Y-86420537D01*
X174288685Y-86341185D01*
X174368037Y-86244494D01*
X174427002Y-86134180D01*
X174463312Y-86014482D01*
X174475572Y-85890000D01*
X174475572Y-84724999D01*
X179111632Y-84724999D01*
X179241214Y-84854582D01*
G04 #@! TA.AperFunction,NonConductor*
D23*
G36*
X179241214Y-84854582D02*
G01*
X179222500Y-84948665D01*
X179222500Y-85231335D01*
X179277647Y-85508574D01*
X179385820Y-85769727D01*
X179542863Y-86004759D01*
X179742741Y-86204637D01*
X179975259Y-86360000D01*
X179742741Y-86515363D01*
X179542863Y-86715241D01*
X179385820Y-86950273D01*
X179277647Y-87211426D01*
X179222500Y-87488665D01*
X179222500Y-87554133D01*
X178736946Y-87068579D01*
X178710791Y-87036709D01*
X178583646Y-86932364D01*
X178438587Y-86854828D01*
X178281189Y-86807082D01*
X178158519Y-86795000D01*
X178158518Y-86795000D01*
X178117500Y-86790960D01*
X178076482Y-86795000D01*
X174205430Y-86795000D01*
X174152137Y-86715241D01*
X173953539Y-86516643D01*
X173961982Y-86515812D01*
X174081680Y-86479502D01*
X174191994Y-86420537D01*
X174288685Y-86341185D01*
X174368037Y-86244494D01*
X174427002Y-86134180D01*
X174463312Y-86014482D01*
X174475572Y-85890000D01*
X174475572Y-84724999D01*
X179111632Y-84724999D01*
X179241214Y-84854582D01*
G37*
G04 #@! TD.AperFunction*
D22*
X171599428Y-85890000D02*
X171611688Y-86014482D01*
X171647998Y-86134180D01*
X171706963Y-86244494D01*
X171786315Y-86341185D01*
X171883006Y-86420537D01*
X171993320Y-86479502D01*
X172113018Y-86515812D01*
X172121461Y-86516643D01*
X171922863Y-86715241D01*
X171765820Y-86950273D01*
X171657647Y-87211426D01*
X171602500Y-87488665D01*
X171602500Y-87554132D01*
X169373785Y-85325418D01*
X169392500Y-85231335D01*
X169392500Y-84948665D01*
X169373786Y-84854583D01*
X169503370Y-84724999D01*
X171599428Y-84724999D01*
X171599428Y-85890000D01*
G04 #@! TA.AperFunction,NonConductor*
D23*
G36*
X171599428Y-85890000D02*
G01*
X171611688Y-86014482D01*
X171647998Y-86134180D01*
X171706963Y-86244494D01*
X171786315Y-86341185D01*
X171883006Y-86420537D01*
X171993320Y-86479502D01*
X172113018Y-86515812D01*
X172121461Y-86516643D01*
X171922863Y-86715241D01*
X171765820Y-86950273D01*
X171657647Y-87211426D01*
X171602500Y-87488665D01*
X171602500Y-87554132D01*
X169373785Y-85325418D01*
X169392500Y-85231335D01*
X169392500Y-84948665D01*
X169373786Y-84854583D01*
X169503370Y-84724999D01*
X171599428Y-84724999D01*
X171599428Y-85890000D01*
G37*
G04 #@! TD.AperFunction*
D22*
X141177647Y-82131426D02*
X141122500Y-82408665D01*
X141122500Y-82691335D01*
X141177647Y-82968574D01*
X141285820Y-83229727D01*
X141442863Y-83464759D01*
X141642741Y-83664637D01*
X141875259Y-83820000D01*
X141642741Y-83975363D01*
X141442863Y-84175241D01*
X141285820Y-84410273D01*
X141177647Y-84671426D01*
X141122500Y-84948665D01*
X141122500Y-85231335D01*
X141141214Y-85325418D01*
X139671633Y-86795000D01*
X136105430Y-86795000D01*
X136052137Y-86715241D01*
X135852259Y-86515363D01*
X135619741Y-86360000D01*
X135852259Y-86204637D01*
X136052137Y-86004759D01*
X136209180Y-85769727D01*
X136317353Y-85508574D01*
X136372500Y-85231335D01*
X136372500Y-84948665D01*
X136317353Y-84671426D01*
X136209180Y-84410273D01*
X136052137Y-84175241D01*
X135852259Y-83975363D01*
X135772500Y-83922070D01*
X135772500Y-83717930D01*
X135852259Y-83664637D01*
X136052137Y-83464759D01*
X136209180Y-83229727D01*
X136317353Y-82968574D01*
X136372500Y-82691335D01*
X136372500Y-82408665D01*
X136317353Y-82131426D01*
X136281555Y-82045001D01*
X141213445Y-82045001D01*
X141177647Y-82131426D01*
G04 #@! TA.AperFunction,NonConductor*
D23*
G36*
X141177647Y-82131426D02*
G01*
X141122500Y-82408665D01*
X141122500Y-82691335D01*
X141177647Y-82968574D01*
X141285820Y-83229727D01*
X141442863Y-83464759D01*
X141642741Y-83664637D01*
X141875259Y-83820000D01*
X141642741Y-83975363D01*
X141442863Y-84175241D01*
X141285820Y-84410273D01*
X141177647Y-84671426D01*
X141122500Y-84948665D01*
X141122500Y-85231335D01*
X141141214Y-85325418D01*
X139671633Y-86795000D01*
X136105430Y-86795000D01*
X136052137Y-86715241D01*
X135852259Y-86515363D01*
X135619741Y-86360000D01*
X135852259Y-86204637D01*
X136052137Y-86004759D01*
X136209180Y-85769727D01*
X136317353Y-85508574D01*
X136372500Y-85231335D01*
X136372500Y-84948665D01*
X136317353Y-84671426D01*
X136209180Y-84410273D01*
X136052137Y-84175241D01*
X135852259Y-83975363D01*
X135772500Y-83922070D01*
X135772500Y-83717930D01*
X135852259Y-83664637D01*
X136052137Y-83464759D01*
X136209180Y-83229727D01*
X136317353Y-82968574D01*
X136372500Y-82691335D01*
X136372500Y-82408665D01*
X136317353Y-82131426D01*
X136281555Y-82045001D01*
X141213445Y-82045001D01*
X141177647Y-82131426D01*
G37*
G04 #@! TD.AperFunction*
D22*
X167528563Y-77523432D02*
X167554709Y-77555291D01*
X167586568Y-77581437D01*
X167586570Y-77581439D01*
X167612867Y-77603020D01*
X167681854Y-77659636D01*
X167826913Y-77737172D01*
X167984311Y-77784918D01*
X168106981Y-77797000D01*
X168106982Y-77797000D01*
X168148000Y-77801040D01*
X168189018Y-77797000D01*
X171204222Y-77797000D01*
X171236028Y-77901850D01*
X171318095Y-78055386D01*
X171428538Y-78189962D01*
X171563114Y-78300405D01*
X171716650Y-78382472D01*
X171883246Y-78433008D01*
X172056500Y-78450072D01*
X173256500Y-78450072D01*
X173429754Y-78433008D01*
X173596350Y-78382472D01*
X173749886Y-78300405D01*
X173884462Y-78189962D01*
X173994905Y-78055386D01*
X174062785Y-77928392D01*
X174249868Y-78115475D01*
X174493089Y-78277990D01*
X174763342Y-78389932D01*
X175050240Y-78447000D01*
X175342760Y-78447000D01*
X175629658Y-78389932D01*
X175899911Y-78277990D01*
X176143132Y-78115475D01*
X176349975Y-77908632D01*
X176466500Y-77734240D01*
X176583025Y-77908632D01*
X176789868Y-78115475D01*
X177033089Y-78277990D01*
X177303342Y-78389932D01*
X177590240Y-78447000D01*
X177882760Y-78447000D01*
X178169658Y-78389932D01*
X178439911Y-78277990D01*
X178683132Y-78115475D01*
X178889975Y-77908632D01*
X179006500Y-77734240D01*
X179123025Y-77908632D01*
X179329868Y-78115475D01*
X179573089Y-78277990D01*
X179613080Y-78294555D01*
X178896073Y-79011562D01*
X178864209Y-79037712D01*
X178783426Y-79136146D01*
X178759863Y-79164858D01*
X178682327Y-79309917D01*
X178634581Y-79467315D01*
X178618459Y-79631003D01*
X178622500Y-79672031D01*
X178622499Y-83054999D01*
X169198519Y-83054999D01*
X169157501Y-83050959D01*
X169116483Y-83054999D01*
X169116482Y-83054999D01*
X168993812Y-83067081D01*
X168836414Y-83114827D01*
X168691355Y-83192363D01*
X168624005Y-83247636D01*
X168564210Y-83296708D01*
X168538064Y-83328567D01*
X168192917Y-83673714D01*
X168098835Y-83655000D01*
X167816165Y-83655000D01*
X167538926Y-83710147D01*
X167277773Y-83818320D01*
X167042741Y-83975363D01*
X166842863Y-84175241D01*
X166789570Y-84255000D01*
X163223368Y-84255000D01*
X156673785Y-77705418D01*
X156692500Y-77611335D01*
X156692500Y-77328665D01*
X156637353Y-77051426D01*
X156529180Y-76790273D01*
X156372137Y-76555241D01*
X156251887Y-76434991D01*
X166440124Y-76434991D01*
X167528563Y-77523432D01*
G04 #@! TA.AperFunction,NonConductor*
D23*
G36*
X167528563Y-77523432D02*
G01*
X167554709Y-77555291D01*
X167586568Y-77581437D01*
X167586570Y-77581439D01*
X167612867Y-77603020D01*
X167681854Y-77659636D01*
X167826913Y-77737172D01*
X167984311Y-77784918D01*
X168106981Y-77797000D01*
X168106982Y-77797000D01*
X168148000Y-77801040D01*
X168189018Y-77797000D01*
X171204222Y-77797000D01*
X171236028Y-77901850D01*
X171318095Y-78055386D01*
X171428538Y-78189962D01*
X171563114Y-78300405D01*
X171716650Y-78382472D01*
X171883246Y-78433008D01*
X172056500Y-78450072D01*
X173256500Y-78450072D01*
X173429754Y-78433008D01*
X173596350Y-78382472D01*
X173749886Y-78300405D01*
X173884462Y-78189962D01*
X173994905Y-78055386D01*
X174062785Y-77928392D01*
X174249868Y-78115475D01*
X174493089Y-78277990D01*
X174763342Y-78389932D01*
X175050240Y-78447000D01*
X175342760Y-78447000D01*
X175629658Y-78389932D01*
X175899911Y-78277990D01*
X176143132Y-78115475D01*
X176349975Y-77908632D01*
X176466500Y-77734240D01*
X176583025Y-77908632D01*
X176789868Y-78115475D01*
X177033089Y-78277990D01*
X177303342Y-78389932D01*
X177590240Y-78447000D01*
X177882760Y-78447000D01*
X178169658Y-78389932D01*
X178439911Y-78277990D01*
X178683132Y-78115475D01*
X178889975Y-77908632D01*
X179006500Y-77734240D01*
X179123025Y-77908632D01*
X179329868Y-78115475D01*
X179573089Y-78277990D01*
X179613080Y-78294555D01*
X178896073Y-79011562D01*
X178864209Y-79037712D01*
X178783426Y-79136146D01*
X178759863Y-79164858D01*
X178682327Y-79309917D01*
X178634581Y-79467315D01*
X178618459Y-79631003D01*
X178622500Y-79672031D01*
X178622499Y-83054999D01*
X169198519Y-83054999D01*
X169157501Y-83050959D01*
X169116483Y-83054999D01*
X169116482Y-83054999D01*
X168993812Y-83067081D01*
X168836414Y-83114827D01*
X168691355Y-83192363D01*
X168624005Y-83247636D01*
X168564210Y-83296708D01*
X168538064Y-83328567D01*
X168192917Y-83673714D01*
X168098835Y-83655000D01*
X167816165Y-83655000D01*
X167538926Y-83710147D01*
X167277773Y-83818320D01*
X167042741Y-83975363D01*
X166842863Y-84175241D01*
X166789570Y-84255000D01*
X163223368Y-84255000D01*
X156673785Y-77705418D01*
X156692500Y-77611335D01*
X156692500Y-77328665D01*
X156637353Y-77051426D01*
X156529180Y-76790273D01*
X156372137Y-76555241D01*
X156251887Y-76434991D01*
X166440124Y-76434991D01*
X167528563Y-77523432D01*
G37*
G04 #@! TD.AperFunction*
D22*
X128441215Y-77234582D02*
X128422500Y-77328665D01*
X128422500Y-77611335D01*
X128477647Y-77888574D01*
X128585820Y-78149727D01*
X128742863Y-78384759D01*
X128942741Y-78584637D01*
X129175259Y-78740000D01*
X128942741Y-78895363D01*
X128742863Y-79095241D01*
X128585820Y-79330273D01*
X128477647Y-79591426D01*
X128422500Y-79868665D01*
X128422500Y-80151335D01*
X128477647Y-80428574D01*
X128585820Y-80689727D01*
X128742863Y-80924759D01*
X128942741Y-81124637D01*
X129175259Y-81280000D01*
X128942741Y-81435363D01*
X128742863Y-81635241D01*
X128585820Y-81870273D01*
X128477647Y-82131426D01*
X128422500Y-82408665D01*
X128422500Y-82691335D01*
X128466991Y-82915001D01*
X123783370Y-82915001D01*
X123653786Y-82785417D01*
X123672500Y-82691335D01*
X123672500Y-82408665D01*
X123617353Y-82131426D01*
X123509180Y-81870273D01*
X123352137Y-81635241D01*
X123152259Y-81435363D01*
X122919741Y-81280000D01*
X123152259Y-81124637D01*
X123352137Y-80924759D01*
X123509180Y-80689727D01*
X123617353Y-80428574D01*
X123672500Y-80151335D01*
X123672500Y-79868665D01*
X123617353Y-79591426D01*
X123509180Y-79330273D01*
X123352137Y-79095241D01*
X123153539Y-78896643D01*
X123161982Y-78895812D01*
X123281680Y-78859502D01*
X123391994Y-78800537D01*
X123488685Y-78721185D01*
X123568037Y-78624494D01*
X123627002Y-78514180D01*
X123663312Y-78394482D01*
X123675572Y-78270000D01*
X123675572Y-77035000D01*
X128241633Y-77035000D01*
X128441215Y-77234582D01*
G04 #@! TA.AperFunction,NonConductor*
D23*
G36*
X128441215Y-77234582D02*
G01*
X128422500Y-77328665D01*
X128422500Y-77611335D01*
X128477647Y-77888574D01*
X128585820Y-78149727D01*
X128742863Y-78384759D01*
X128942741Y-78584637D01*
X129175259Y-78740000D01*
X128942741Y-78895363D01*
X128742863Y-79095241D01*
X128585820Y-79330273D01*
X128477647Y-79591426D01*
X128422500Y-79868665D01*
X128422500Y-80151335D01*
X128477647Y-80428574D01*
X128585820Y-80689727D01*
X128742863Y-80924759D01*
X128942741Y-81124637D01*
X129175259Y-81280000D01*
X128942741Y-81435363D01*
X128742863Y-81635241D01*
X128585820Y-81870273D01*
X128477647Y-82131426D01*
X128422500Y-82408665D01*
X128422500Y-82691335D01*
X128466991Y-82915001D01*
X123783370Y-82915001D01*
X123653786Y-82785417D01*
X123672500Y-82691335D01*
X123672500Y-82408665D01*
X123617353Y-82131426D01*
X123509180Y-81870273D01*
X123352137Y-81635241D01*
X123152259Y-81435363D01*
X122919741Y-81280000D01*
X123152259Y-81124637D01*
X123352137Y-80924759D01*
X123509180Y-80689727D01*
X123617353Y-80428574D01*
X123672500Y-80151335D01*
X123672500Y-79868665D01*
X123617353Y-79591426D01*
X123509180Y-79330273D01*
X123352137Y-79095241D01*
X123153539Y-78896643D01*
X123161982Y-78895812D01*
X123281680Y-78859502D01*
X123391994Y-78800537D01*
X123488685Y-78721185D01*
X123568037Y-78624494D01*
X123627002Y-78514180D01*
X123663312Y-78394482D01*
X123675572Y-78270000D01*
X123675572Y-77035000D01*
X128241633Y-77035000D01*
X128441215Y-77234582D01*
G37*
G04 #@! TD.AperFunction*
D22*
X133499428Y-77727204D02*
X133176073Y-78050560D01*
X133144209Y-78076710D01*
X133105866Y-78123431D01*
X133039863Y-78203856D01*
X132962327Y-78348915D01*
X132914581Y-78506313D01*
X132898459Y-78670001D01*
X132902500Y-78711029D01*
X132902499Y-80100134D01*
X131130112Y-81872522D01*
X131129180Y-81870273D01*
X130972137Y-81635241D01*
X130772259Y-81435363D01*
X130539741Y-81280000D01*
X130772259Y-81124637D01*
X130972137Y-80924759D01*
X131129180Y-80689727D01*
X131237353Y-80428574D01*
X131292500Y-80151335D01*
X131292500Y-79868665D01*
X131237353Y-79591426D01*
X131129180Y-79330273D01*
X130972137Y-79095241D01*
X130772259Y-78895363D01*
X130539741Y-78740000D01*
X130772259Y-78584637D01*
X130972137Y-78384759D01*
X131129180Y-78149727D01*
X131237353Y-77888574D01*
X131292500Y-77611335D01*
X131292500Y-77328665D01*
X131237353Y-77051426D01*
X131230549Y-77035000D01*
X133499428Y-77035000D01*
X133499428Y-77727204D01*
G04 #@! TA.AperFunction,NonConductor*
D23*
G36*
X133499428Y-77727204D02*
G01*
X133176073Y-78050560D01*
X133144209Y-78076710D01*
X133105866Y-78123431D01*
X133039863Y-78203856D01*
X132962327Y-78348915D01*
X132914581Y-78506313D01*
X132898459Y-78670001D01*
X132902500Y-78711029D01*
X132902499Y-80100134D01*
X131130112Y-81872522D01*
X131129180Y-81870273D01*
X130972137Y-81635241D01*
X130772259Y-81435363D01*
X130539741Y-81280000D01*
X130772259Y-81124637D01*
X130972137Y-80924759D01*
X131129180Y-80689727D01*
X131237353Y-80428574D01*
X131292500Y-80151335D01*
X131292500Y-79868665D01*
X131237353Y-79591426D01*
X131129180Y-79330273D01*
X130972137Y-79095241D01*
X130772259Y-78895363D01*
X130539741Y-78740000D01*
X130772259Y-78584637D01*
X130972137Y-78384759D01*
X131129180Y-78149727D01*
X131237353Y-77888574D01*
X131292500Y-77611335D01*
X131292500Y-77328665D01*
X131237353Y-77051426D01*
X131230549Y-77035000D01*
X133499428Y-77035000D01*
X133499428Y-77727204D01*
G37*
G04 #@! TD.AperFunction*
D22*
X146202500Y-80151335D02*
X146221214Y-80245418D01*
X144751633Y-81715000D01*
X144573367Y-81715000D01*
X146202500Y-80085867D01*
X146202500Y-80151335D01*
G04 #@! TA.AperFunction,NonConductor*
D23*
G36*
X146202500Y-80151335D02*
G01*
X146221214Y-80245418D01*
X144751633Y-81715000D01*
X144573367Y-81715000D01*
X146202500Y-80085867D01*
X146202500Y-80151335D01*
G37*
G04 #@! TD.AperFunction*
D22*
X141141215Y-77234582D02*
X141122500Y-77328665D01*
X141122500Y-77611335D01*
X141177647Y-77888574D01*
X141285820Y-78149727D01*
X141442863Y-78384759D01*
X141642741Y-78584637D01*
X141875259Y-78740000D01*
X141642741Y-78895363D01*
X141442863Y-79095241D01*
X141285820Y-79330273D01*
X141177647Y-79591426D01*
X141122500Y-79868665D01*
X141122500Y-80151335D01*
X141166991Y-80375001D01*
X136483370Y-80375001D01*
X136353786Y-80245417D01*
X136372500Y-80151335D01*
X136372500Y-79868665D01*
X136317353Y-79591426D01*
X136209180Y-79330273D01*
X136052137Y-79095241D01*
X135853539Y-78896643D01*
X135861982Y-78895812D01*
X135981680Y-78859502D01*
X136091994Y-78800537D01*
X136188685Y-78721185D01*
X136268037Y-78624494D01*
X136327002Y-78514180D01*
X136363312Y-78394482D01*
X136375572Y-78270000D01*
X136375572Y-77035000D01*
X140941633Y-77035000D01*
X141141215Y-77234582D01*
G04 #@! TA.AperFunction,NonConductor*
D23*
G36*
X141141215Y-77234582D02*
G01*
X141122500Y-77328665D01*
X141122500Y-77611335D01*
X141177647Y-77888574D01*
X141285820Y-78149727D01*
X141442863Y-78384759D01*
X141642741Y-78584637D01*
X141875259Y-78740000D01*
X141642741Y-78895363D01*
X141442863Y-79095241D01*
X141285820Y-79330273D01*
X141177647Y-79591426D01*
X141122500Y-79868665D01*
X141122500Y-80151335D01*
X141166991Y-80375001D01*
X136483370Y-80375001D01*
X136353786Y-80245417D01*
X136372500Y-80151335D01*
X136372500Y-79868665D01*
X136317353Y-79591426D01*
X136209180Y-79330273D01*
X136052137Y-79095241D01*
X135853539Y-78896643D01*
X135861982Y-78895812D01*
X135981680Y-78859502D01*
X136091994Y-78800537D01*
X136188685Y-78721185D01*
X136268037Y-78624494D01*
X136327002Y-78514180D01*
X136363312Y-78394482D01*
X136375572Y-78270000D01*
X136375572Y-77035000D01*
X140941633Y-77035000D01*
X141141215Y-77234582D01*
G37*
G04 #@! TD.AperFunction*
D22*
X120799428Y-78270000D02*
X120811688Y-78394482D01*
X120847998Y-78514180D01*
X120906963Y-78624494D01*
X120986315Y-78721185D01*
X121083006Y-78800537D01*
X121193320Y-78859502D01*
X121313018Y-78895812D01*
X121321461Y-78896643D01*
X121122863Y-79095241D01*
X120965820Y-79330273D01*
X120857647Y-79591426D01*
X120802500Y-79868665D01*
X120802500Y-80151335D01*
X120821214Y-80245418D01*
X120691632Y-80375001D01*
X118548009Y-80375001D01*
X118592500Y-80151335D01*
X118592500Y-79868665D01*
X118537353Y-79591426D01*
X118429180Y-79330273D01*
X118272137Y-79095241D01*
X118072259Y-78895363D01*
X117839741Y-78740000D01*
X118072259Y-78584637D01*
X118272137Y-78384759D01*
X118429180Y-78149727D01*
X118537353Y-77888574D01*
X118592500Y-77611335D01*
X118592500Y-77328665D01*
X118573786Y-77234582D01*
X118773368Y-77035000D01*
X120799428Y-77035000D01*
X120799428Y-78270000D01*
G04 #@! TA.AperFunction,NonConductor*
D23*
G36*
X120799428Y-78270000D02*
G01*
X120811688Y-78394482D01*
X120847998Y-78514180D01*
X120906963Y-78624494D01*
X120986315Y-78721185D01*
X121083006Y-78800537D01*
X121193320Y-78859502D01*
X121313018Y-78895812D01*
X121321461Y-78896643D01*
X121122863Y-79095241D01*
X120965820Y-79330273D01*
X120857647Y-79591426D01*
X120802500Y-79868665D01*
X120802500Y-80151335D01*
X120821214Y-80245418D01*
X120691632Y-80375001D01*
X118548009Y-80375001D01*
X118592500Y-80151335D01*
X118592500Y-79868665D01*
X118537353Y-79591426D01*
X118429180Y-79330273D01*
X118272137Y-79095241D01*
X118072259Y-78895363D01*
X117839741Y-78740000D01*
X118072259Y-78584637D01*
X118272137Y-78384759D01*
X118429180Y-78149727D01*
X118537353Y-77888574D01*
X118592500Y-77611335D01*
X118592500Y-77328665D01*
X118573786Y-77234582D01*
X118773368Y-77035000D01*
X120799428Y-77035000D01*
X120799428Y-78270000D01*
G37*
G04 #@! TD.AperFunction*
D22*
X116042863Y-76555241D02*
X115885820Y-76790273D01*
X115777647Y-77051426D01*
X115722500Y-77328665D01*
X115722500Y-77611335D01*
X115777647Y-77888574D01*
X115885820Y-78149727D01*
X116042863Y-78384759D01*
X116242741Y-78584637D01*
X116475259Y-78740000D01*
X116242741Y-78895363D01*
X116042863Y-79095241D01*
X115885820Y-79330273D01*
X115777647Y-79591426D01*
X115722500Y-79868665D01*
X115722500Y-80151335D01*
X115766991Y-80375001D01*
X110928009Y-80375001D01*
X110972500Y-80151335D01*
X110972500Y-79868665D01*
X110917353Y-79591426D01*
X110809180Y-79330273D01*
X110652137Y-79095241D01*
X110453539Y-78896643D01*
X110461982Y-78895812D01*
X110581680Y-78859502D01*
X110691994Y-78800537D01*
X110788685Y-78721185D01*
X110868037Y-78624494D01*
X110927002Y-78514180D01*
X110963312Y-78394482D01*
X110975572Y-78270000D01*
X110975572Y-77212795D01*
X111753377Y-76434991D01*
X116163113Y-76434991D01*
X116042863Y-76555241D01*
G04 #@! TA.AperFunction,NonConductor*
D23*
G36*
X116042863Y-76555241D02*
G01*
X115885820Y-76790273D01*
X115777647Y-77051426D01*
X115722500Y-77328665D01*
X115722500Y-77611335D01*
X115777647Y-77888574D01*
X115885820Y-78149727D01*
X116042863Y-78384759D01*
X116242741Y-78584637D01*
X116475259Y-78740000D01*
X116242741Y-78895363D01*
X116042863Y-79095241D01*
X115885820Y-79330273D01*
X115777647Y-79591426D01*
X115722500Y-79868665D01*
X115722500Y-80151335D01*
X115766991Y-80375001D01*
X110928009Y-80375001D01*
X110972500Y-80151335D01*
X110972500Y-79868665D01*
X110917353Y-79591426D01*
X110809180Y-79330273D01*
X110652137Y-79095241D01*
X110453539Y-78896643D01*
X110461982Y-78895812D01*
X110581680Y-78859502D01*
X110691994Y-78800537D01*
X110788685Y-78721185D01*
X110868037Y-78624494D01*
X110927002Y-78514180D01*
X110963312Y-78394482D01*
X110975572Y-78270000D01*
X110975572Y-77212795D01*
X111753377Y-76434991D01*
X116163113Y-76434991D01*
X116042863Y-76555241D01*
G37*
G04 #@! TD.AperFunction*
D22*
X146199428Y-77727204D02*
X143992500Y-79934133D01*
X143992500Y-79868665D01*
X143937353Y-79591426D01*
X143829180Y-79330273D01*
X143672137Y-79095241D01*
X143472259Y-78895363D01*
X143239741Y-78740000D01*
X143472259Y-78584637D01*
X143672137Y-78384759D01*
X143829180Y-78149727D01*
X143937353Y-77888574D01*
X143992500Y-77611335D01*
X143992500Y-77328665D01*
X143937353Y-77051426D01*
X143930549Y-77035000D01*
X146199428Y-77035000D01*
X146199428Y-77727204D01*
G04 #@! TA.AperFunction,NonConductor*
D23*
G36*
X146199428Y-77727204D02*
G01*
X143992500Y-79934133D01*
X143992500Y-79868665D01*
X143937353Y-79591426D01*
X143829180Y-79330273D01*
X143672137Y-79095241D01*
X143472259Y-78895363D01*
X143239741Y-78740000D01*
X143472259Y-78584637D01*
X143672137Y-78384759D01*
X143829180Y-78149727D01*
X143937353Y-77888574D01*
X143992500Y-77611335D01*
X143992500Y-77328665D01*
X143937353Y-77051426D01*
X143930549Y-77035000D01*
X146199428Y-77035000D01*
X146199428Y-77727204D01*
G37*
G04 #@! TD.AperFunction*
D22*
X179123025Y-75368632D02*
X179329868Y-75575475D01*
X179504260Y-75692000D01*
X179329868Y-75808525D01*
X179123025Y-76015368D01*
X179006500Y-76189760D01*
X178889975Y-76015368D01*
X178683132Y-75808525D01*
X178508740Y-75692000D01*
X178683132Y-75575475D01*
X178889975Y-75368632D01*
X179006500Y-75194240D01*
X179123025Y-75368632D01*
G04 #@! TA.AperFunction,NonConductor*
D23*
G36*
X179123025Y-75368632D02*
G01*
X179329868Y-75575475D01*
X179504260Y-75692000D01*
X179329868Y-75808525D01*
X179123025Y-76015368D01*
X179006500Y-76189760D01*
X178889975Y-76015368D01*
X178683132Y-75808525D01*
X178508740Y-75692000D01*
X178683132Y-75575475D01*
X178889975Y-75368632D01*
X179006500Y-75194240D01*
X179123025Y-75368632D01*
G37*
G04 #@! TD.AperFunction*
D22*
X176583025Y-75368632D02*
X176789868Y-75575475D01*
X176964260Y-75692000D01*
X176789868Y-75808525D01*
X176583025Y-76015368D01*
X176466500Y-76189760D01*
X176349975Y-76015368D01*
X176143132Y-75808525D01*
X175968740Y-75692000D01*
X176143132Y-75575475D01*
X176349975Y-75368632D01*
X176466500Y-75194240D01*
X176583025Y-75368632D01*
G04 #@! TA.AperFunction,NonConductor*
D23*
G36*
X176583025Y-75368632D02*
G01*
X176789868Y-75575475D01*
X176964260Y-75692000D01*
X176789868Y-75808525D01*
X176583025Y-76015368D01*
X176466500Y-76189760D01*
X176349975Y-76015368D01*
X176143132Y-75808525D01*
X175968740Y-75692000D01*
X176143132Y-75575475D01*
X176349975Y-75368632D01*
X176466500Y-75194240D01*
X176583025Y-75368632D01*
G37*
G04 #@! TD.AperFunction*
D22*
X174043025Y-75368632D02*
X174249868Y-75575475D01*
X174424260Y-75692000D01*
X174249868Y-75808525D01*
X174062785Y-75995608D01*
X173994905Y-75868614D01*
X173884462Y-75734038D01*
X173749886Y-75623595D01*
X173622892Y-75555715D01*
X173809975Y-75368632D01*
X173926500Y-75194240D01*
X174043025Y-75368632D01*
G04 #@! TA.AperFunction,NonConductor*
D23*
G36*
X174043025Y-75368632D02*
G01*
X174249868Y-75575475D01*
X174424260Y-75692000D01*
X174249868Y-75808525D01*
X174062785Y-75995608D01*
X173994905Y-75868614D01*
X173884462Y-75734038D01*
X173749886Y-75623595D01*
X173622892Y-75555715D01*
X173809975Y-75368632D01*
X173926500Y-75194240D01*
X174043025Y-75368632D01*
G37*
G04 #@! TD.AperFunction*
M02*
