M48
; DRILL file {KiCad (5.1.10)-1} date 01/28/23 17:34:09
; FORMAT={-:-/ absolute / metric / decimal}
; #@! TF.CreationDate,2023-01-28T17:34:09+01:00
; #@! TF.GenerationSoftware,Kicad,Pcbnew,(5.1.10)-1
; #@! TF.FileFunction,Plated,1,2,PTH
FMAT,2
METRIC
T1C0.760
T2C0.762
T3C0.800
T4C0.900
T5C1.000
T6C1.100
%
G90
G05
T1
X137.477Y-109.235
X140.017Y-111.775
X142.558Y-109.235
T2
X110.965Y-106.847
X110.965Y-109.347
X110.965Y-111.847
X116.365Y-106.847
X116.365Y-109.347
X116.365Y-111.847
T3
X109.537Y-77.47
X109.537Y-80.01
X109.537Y-82.55
X109.537Y-85.09
X109.537Y-87.63
X109.537Y-90.17
X109.537Y-92.71
X110.807Y-100.33
X113.347Y-100.33
X115.887Y-100.33
X117.157Y-77.47
X117.157Y-80.01
X117.157Y-82.55
X117.157Y-85.09
X117.157Y-87.63
X117.157Y-90.17
X117.157Y-92.71
X122.237Y-77.47
X122.237Y-80.01
X122.237Y-82.55
X122.237Y-85.09
X122.237Y-87.63
X122.237Y-90.17
X122.237Y-92.71
X122.237Y-97.79
X122.237Y-101.6
X122.237Y-116.84
X129.857Y-77.47
X129.857Y-80.01
X129.857Y-82.55
X129.857Y-85.09
X129.857Y-87.63
X129.857Y-90.17
X129.857Y-92.71
X132.398Y-97.79
X132.398Y-101.6
X132.398Y-116.84
X134.938Y-77.47
X134.938Y-80.01
X134.938Y-82.55
X134.938Y-85.09
X134.938Y-87.63
X134.938Y-90.17
X134.938Y-92.71
X140.017Y-116.84
X142.558Y-77.47
X142.558Y-80.01
X142.558Y-82.55
X142.558Y-85.09
X142.558Y-87.63
X142.558Y-90.17
X142.558Y-92.71
X147.637Y-77.47
X147.637Y-80.01
X147.637Y-82.55
X147.637Y-85.09
X147.637Y-87.63
X147.637Y-90.17
X147.637Y-92.71
X150.177Y-116.84
X155.257Y-77.47
X155.257Y-80.01
X155.257Y-82.55
X155.257Y-85.09
X155.257Y-87.63
X155.257Y-90.17
X155.257Y-92.71
X156.528Y-101.6
X156.528Y-111.76
X160.338Y-85.09
X160.338Y-87.63
X160.338Y-90.17
X160.338Y-92.71
X161.607Y-106.68
X161.607Y-110.49
X162.877Y-100.33
X165.377Y-100.33
X167.957Y-85.09
X167.957Y-87.63
X167.957Y-90.17
X167.957Y-92.71
X170.498Y-100.33
X171.767Y-106.68
X171.767Y-110.49
X172.998Y-100.33
X173.037Y-85.09
X173.037Y-87.63
X173.037Y-90.17
X173.037Y-92.71
X178.117Y-100.33
X180.617Y-100.33
X180.657Y-85.09
X180.657Y-87.63
X180.657Y-90.17
X180.657Y-92.71
T4
X178.117Y-109.22
X180.657Y-109.22
T5
X172.656Y-74.422
X172.656Y-76.962
X175.196Y-74.422
X175.196Y-76.962
X177.736Y-74.422
X177.736Y-76.962
X180.276Y-74.422
X180.276Y-76.962
T6
X123.507Y-106.68
X123.507Y-111.18
X130.007Y-106.68
X130.007Y-111.18
T0
M30
