M48
; DRILL file {KiCad 9.0.0} date 2025-06-15T15:41:05+0200
; FORMAT={-:-/ absolute / metric / decimal}
; #@! TF.CreationDate,2025-06-15T15:41:05+02:00
; #@! TF.GenerationSoftware,Kicad,Pcbnew,9.0.0
; #@! TF.FileFunction,Plated,1,2,PTH
FMAT,2
METRIC
; #@! TA.AperFunction,Plated,PTH,ComponentDrill
T1C0.600
; #@! TA.AperFunction,Plated,PTH,ComponentDrill
T2C0.800
; #@! TA.AperFunction,Plated,PTH,ComponentDrill
T3C0.900
; #@! TA.AperFunction,Plated,PTH,ComponentDrill
T4C0.991
; #@! TA.AperFunction,Plated,PTH,ComponentDrill
T5C1.000
; #@! TA.AperFunction,Plated,PTH,ComponentDrill
T6C1.500
; #@! TA.AperFunction,Plated,PTH,ComponentDrill
T7C3.200
; #@! TA.AperFunction,Plated,PTH,ComponentDrill
T8C5.800
; #@! TA.AperFunction,Plated,PTH,ComponentDrill
T9C9.000
%
G90
G05
T1
X125.603Y-55.118
X125.603Y-57.118
T2
X96.774Y-105.41
X96.774Y-115.57
X97.18Y-56.403
X97.18Y-58.903
X100.99Y-53.696
X100.99Y-61.316
X103.53Y-61.316
X103.53Y-53.696
X106.07Y-53.696
X106.07Y-61.316
X108.61Y-61.316
X108.61Y-53.696
X108.966Y-105.41
X108.966Y-115.57
X111.15Y-53.696
X111.15Y-61.316
X113.69Y-61.316
X113.69Y-53.696
X115.316Y-105.156
X115.316Y-115.316
X116.23Y-53.696
X116.23Y-61.316
X121.412Y-61.468
X127.508Y-105.156
X127.508Y-115.316
X131.572Y-61.468
X134.874Y-105.41
X134.874Y-115.57
X135.128Y-44.496
X135.128Y-54.656
X141.224Y-44.45
X141.224Y-54.61
X147.066Y-105.41
X147.066Y-115.57
X147.32Y-44.496
X147.32Y-54.656
X153.67Y-44.496
X153.67Y-54.656
X154.432Y-105.41
X154.432Y-115.57
X159.385Y-44.496
X159.385Y-54.656
X165.1Y-44.496
X165.1Y-54.656
X166.624Y-105.41
X166.624Y-115.57
X169.672Y-105.41
X169.672Y-115.57
X170.815Y-44.45
X170.815Y-54.61
X176.53Y-44.496
X176.53Y-54.656
X181.915Y-44.496
X181.915Y-54.656
X187.325Y-44.45
X187.325Y-54.61
T3
X100.669Y-105.44
X100.669Y-107.98
X105.084Y-105.44
X105.084Y-107.98
X119.209Y-105.196
X119.209Y-107.736
X123.654Y-105.196
X123.654Y-107.736
X138.764Y-105.475
X138.764Y-108.015
X143.185Y-105.475
X143.185Y-108.015
X158.374Y-105.505
X158.374Y-108.045
X162.784Y-105.505
X162.784Y-108.045
T4
X101.409Y-78.232
X101.409Y-97.282
X103.95Y-78.232
X103.95Y-97.282
X120.459Y-78.232
X120.459Y-97.282
X122.999Y-78.232
X122.999Y-97.282
X139.51Y-78.232
X139.51Y-97.282
X142.049Y-78.232
X142.049Y-97.282
X158.559Y-78.232
X158.559Y-97.282
X161.1Y-78.232
X161.1Y-97.282
X177.609Y-78.232
X177.609Y-97.282
X180.149Y-78.232
X180.149Y-97.282
T5
X105.105Y-45.669
X105.105Y-48.209
X107.645Y-48.209
X107.645Y-45.669
X110.185Y-45.669
X110.185Y-48.209
X112.725Y-48.209
X112.725Y-45.669
X115.265Y-45.669
X115.265Y-48.209
X117.805Y-48.209
X117.805Y-45.669
X120.345Y-45.669
X120.345Y-48.209
X122.885Y-48.209
X122.885Y-45.669
X125.425Y-45.669
X125.425Y-48.209
T6
X98.364Y-137.745
X98.87Y-70.612
X98.87Y-89.662
X102.864Y-137.745
X105.219Y-68.072
X105.219Y-87.122
X107.364Y-137.745
X117.364Y-137.745
X117.919Y-70.612
X117.919Y-89.662
X121.864Y-137.745
X124.269Y-68.072
X124.269Y-87.122
X126.364Y-137.745
X136.364Y-137.745
X136.969Y-70.612
X136.969Y-89.662
X140.864Y-137.745
X143.32Y-68.072
X143.32Y-87.122
X145.364Y-137.745
X155.364Y-137.745
X156.019Y-70.612
X156.019Y-89.662
X159.864Y-137.745
X162.369Y-68.072
X162.369Y-87.122
X164.364Y-137.745
X174.358Y-118.745
X174.367Y-137.743
X175.07Y-70.612
X175.07Y-89.662
X178.858Y-118.745
X178.867Y-137.743
X181.419Y-68.072
X181.419Y-87.122
X183.358Y-118.745
X183.367Y-137.743
T7
X95.428Y-46.965
X102.87Y-115.316
X160.528Y-114.808
X180.442Y-59.842
T8
X102.864Y-129.745
X121.864Y-129.745
X140.864Y-129.745
X159.864Y-129.745
X178.858Y-110.745
T9
X178.961Y-128.243
M30
