G04 #@! TF.GenerationSoftware,KiCad,Pcbnew,9.0.0*
G04 #@! TF.CreationDate,2025-06-15T15:41:01+02:00*
G04 #@! TF.ProjectId,8-bit computer_Keypad_Module_Right,382d6269-7420-4636-9f6d-70757465725f,rev?*
G04 #@! TF.SameCoordinates,Original*
G04 #@! TF.FileFunction,Soldermask,Bot*
G04 #@! TF.FilePolarity,Negative*
%FSLAX46Y46*%
G04 Gerber Fmt 4.6, Leading zero omitted, Abs format (unit mm)*
G04 Created by KiCad (PCBNEW 9.0.0) date 2025-06-15 15:41:01*
%MOMM*%
%LPD*%
G01*
G04 APERTURE LIST*
G04 Aperture macros list*
%AMRoundRect*
0 Rectangle with rounded corners*
0 $1 Rounding radius*
0 $2 $3 $4 $5 $6 $7 $8 $9 X,Y pos of 4 corners*
0 Add a 4 corners polygon primitive as box body*
4,1,4,$2,$3,$4,$5,$6,$7,$8,$9,$2,$3,0*
0 Add four circle primitives for the rounded corners*
1,1,$1+$1,$2,$3*
1,1,$1+$1,$4,$5*
1,1,$1+$1,$6,$7*
1,1,$1+$1,$8,$9*
0 Add four rect primitives between the rounded corners*
20,1,$1+$1,$2,$3,$4,$5,0*
20,1,$1+$1,$4,$5,$6,$7,0*
20,1,$1+$1,$6,$7,$8,$9,0*
20,1,$1+$1,$8,$9,$2,$3,0*%
G04 Aperture macros list end*
%ADD10C,10.000000*%
%ADD11C,3.000000*%
%ADD12C,1.600000*%
%ADD13O,1.600000X1.600000*%
%ADD14C,4.000000*%
%ADD15C,2.200000*%
%ADD16C,1.690600*%
%ADD17R,1.200000X1.200000*%
%ADD18C,1.200000*%
%ADD19R,1.800000X1.800000*%
%ADD20C,1.800000*%
%ADD21C,5.600000*%
%ADD22C,13.000000*%
%ADD23C,2.500000*%
%ADD24RoundRect,0.250000X0.600000X-0.600000X0.600000X0.600000X-0.600000X0.600000X-0.600000X-0.600000X0*%
%ADD25C,1.700000*%
%ADD26RoundRect,0.250000X0.550000X-0.550000X0.550000X0.550000X-0.550000X0.550000X-0.550000X-0.550000X0*%
G04 APERTURE END LIST*
D10*
X102864500Y-129745000D03*
D11*
X98364500Y-137745000D03*
X102864500Y-137745000D03*
X107364500Y-137745000D03*
D12*
X97180400Y-56402600D03*
X97180400Y-58902600D03*
X181914800Y-44495591D03*
D13*
X181914800Y-54655591D03*
D12*
X135128000Y-44495591D03*
D13*
X135128000Y-54655591D03*
D14*
X140779500Y-73152000D03*
D15*
X136969500Y-70612000D03*
X143319500Y-68072000D03*
D16*
X139509500Y-78232000D03*
X142049500Y-78232000D03*
D12*
X170815000Y-44450000D03*
D13*
X170815000Y-54610000D03*
D17*
X125603000Y-57118000D03*
D18*
X125603000Y-55118000D03*
D14*
X121729500Y-92202000D03*
D15*
X117919500Y-89662000D03*
X124269500Y-87122000D03*
D16*
X120459500Y-97282000D03*
X122999500Y-97282000D03*
D19*
X143184806Y-108015182D03*
D20*
X143184806Y-105475182D03*
D14*
X159829500Y-92202000D03*
D15*
X156019500Y-89662000D03*
X162369500Y-87122000D03*
D16*
X158559500Y-97282000D03*
X161099500Y-97282000D03*
D14*
X159829500Y-73152000D03*
D15*
X156019500Y-70612000D03*
X162369500Y-68072000D03*
D16*
X158559500Y-78232000D03*
X161099500Y-78232000D03*
D12*
X96774000Y-105410000D03*
D13*
X96774000Y-115570000D03*
D12*
X153670000Y-44495591D03*
D13*
X153670000Y-54655591D03*
D12*
X147320000Y-44495591D03*
D13*
X147320000Y-54655591D03*
D12*
X108966000Y-115570000D03*
D13*
X108966000Y-105410000D03*
D10*
X121864500Y-129745000D03*
D11*
X117364500Y-137745000D03*
X121864500Y-137745000D03*
X126364500Y-137745000D03*
D12*
X141224000Y-44450000D03*
D13*
X141224000Y-54610000D03*
D10*
X140864500Y-129745000D03*
D11*
X136364500Y-137745000D03*
X140864500Y-137745000D03*
X145364500Y-137745000D03*
D19*
X105084500Y-105440182D03*
D20*
X105084500Y-107980182D03*
D10*
X178858300Y-110745000D03*
D11*
X174358300Y-118745000D03*
X178858300Y-118745000D03*
X183358300Y-118745000D03*
D12*
X176530000Y-44495591D03*
D13*
X176530000Y-54655591D03*
D21*
X95427800Y-46964600D03*
D12*
X147066000Y-105410000D03*
D13*
X147066000Y-115570000D03*
D22*
X178961106Y-128243000D03*
D23*
X174366800Y-137743000D03*
X178866800Y-137743000D03*
X183366800Y-137743000D03*
D19*
X138764500Y-105475182D03*
D20*
X138764500Y-108015182D03*
D12*
X154432000Y-105410000D03*
D13*
X154432000Y-115570000D03*
D12*
X115316000Y-115316000D03*
D13*
X115316000Y-105156000D03*
D10*
X159864500Y-129745000D03*
D11*
X155364500Y-137745000D03*
X159864500Y-137745000D03*
X164364500Y-137745000D03*
D12*
X121412000Y-61468000D03*
D13*
X131572000Y-61468000D03*
D19*
X123654485Y-107735782D03*
D20*
X123654485Y-105195782D03*
D12*
X159385000Y-44495591D03*
D13*
X159385000Y-54655591D03*
D19*
X119209485Y-105195782D03*
D20*
X119209485Y-107735782D03*
D19*
X100669194Y-107980182D03*
D20*
X100669194Y-105440182D03*
D21*
X160528000Y-114808000D03*
D12*
X165100000Y-44495591D03*
D13*
X165100000Y-54655591D03*
D19*
X162784295Y-105505000D03*
D20*
X162784295Y-108045000D03*
D24*
X105105200Y-48209200D03*
D25*
X105105200Y-45669200D03*
X107645200Y-48209200D03*
X107645201Y-45669200D03*
X110185200Y-48209200D03*
X110185200Y-45669200D03*
X112725200Y-48209200D03*
X112725201Y-45669200D03*
X115265200Y-48209200D03*
X115265200Y-45669200D03*
X117805200Y-48209200D03*
X117805201Y-45669200D03*
X120345200Y-48209200D03*
X120345200Y-45669200D03*
X122885200Y-48209200D03*
X122885201Y-45669200D03*
X125425200Y-48209200D03*
X125425200Y-45669199D03*
D12*
X169672000Y-105410000D03*
D13*
X169672000Y-115570000D03*
D19*
X158373989Y-108045000D03*
D20*
X158373989Y-105505000D03*
D14*
X102679500Y-92202000D03*
D15*
X98869500Y-89662000D03*
X105219500Y-87122000D03*
D16*
X101409500Y-97282000D03*
X103949500Y-97282000D03*
D14*
X102679500Y-73152000D03*
D15*
X98869500Y-70612000D03*
X105219500Y-68072000D03*
D16*
X101409500Y-78232000D03*
X103949500Y-78232000D03*
D26*
X100990400Y-61315600D03*
D12*
X103530400Y-61315600D03*
X106070400Y-61315600D03*
X108610400Y-61315600D03*
X111150400Y-61315600D03*
X113690400Y-61315600D03*
X116230400Y-61315600D03*
X116230400Y-53695600D03*
X113690401Y-53695600D03*
X111150400Y-53695600D03*
X108610401Y-53695600D03*
X106070400Y-53695600D03*
X103530401Y-53695600D03*
X100990400Y-53695600D03*
D21*
X102870000Y-115316000D03*
D12*
X166624000Y-115570000D03*
D13*
X166624000Y-105410000D03*
D14*
X140779500Y-92202000D03*
D15*
X136969500Y-89662000D03*
X143319500Y-87122000D03*
D16*
X139509500Y-97282000D03*
X142049500Y-97282000D03*
D12*
X187325000Y-54610000D03*
D13*
X187325000Y-44450000D03*
D14*
X121729500Y-73152000D03*
D15*
X117919500Y-70612000D03*
X124269500Y-68072000D03*
D16*
X120459500Y-78232000D03*
X122999500Y-78232000D03*
D12*
X134874000Y-115570000D03*
D13*
X134874000Y-105410000D03*
D14*
X178879500Y-73152000D03*
D15*
X175069500Y-70612000D03*
X181419500Y-68072000D03*
D16*
X177609500Y-78232000D03*
X180149500Y-78232000D03*
D12*
X127508000Y-105156000D03*
D13*
X127508000Y-115316000D03*
D21*
X180441600Y-59842400D03*
D14*
X178879500Y-92202000D03*
D15*
X175069500Y-89662000D03*
X181419500Y-87122000D03*
D16*
X177609500Y-97282000D03*
X180149500Y-97282000D03*
M02*
